<svg width="147" height="41" viewBox="0 0 147 41" fill="none" xmlns="http://www.w3.org/2000/svg">
<path fill-rule="evenodd" clip-rule="evenodd" d="M27.0855 14.6265L16.4017 16.9283L14.0999 27.6123L11.8415 16.9283L1.11426 14.6265L11.8415 12.3246L14.0999 1.64062L16.4017 12.3246L27.0855 14.6265Z" fill="#000F9F"/>
<path fill-rule="evenodd" clip-rule="evenodd" d="M14.1002 22.4443L12.5801 16.1468L6.32617 14.6267L12.5801 13.1066L14.1002 6.85254L15.6202 13.1066L21.9176 14.6267L15.6202 16.1468L14.1002 22.4443Z" fill="#ED1C24"/>
<path fill-rule="evenodd" clip-rule="evenodd" d="M14.1 0.989258C21.6134 0.989258 27.7371 7.11301 27.7371 14.6266C27.7371 22.1401 21.6134 28.2639 14.1 28.2639C6.58655 28.2639 0.462891 22.1835 0.462891 14.6266C0.462891 7.11301 6.58655 0.989258 14.1 0.989258ZM14.1 1.64072C6.93399 1.64072 1.11434 7.46046 1.11434 14.6266C1.11434 21.7927 6.93399 27.6124 14.1 27.6124C21.266 27.6124 27.0856 21.7927 27.0856 14.6266C27.0856 7.46046 21.266 1.64072 14.1 1.64072Z" fill="#000F9F"/>
<path fill-rule="evenodd" clip-rule="evenodd" d="M14.1001 17.8838L13.3618 15.4082L10.8862 14.6265L13.3618 13.8881L14.1001 11.3691L14.8818 13.8881L17.3573 14.6265L14.8818 15.4082L14.1001 17.8838Z" fill="#FFF200"/>
<path d="M40.8532 19.2304H33.2529V10.1533H40.6361V12.2814H36.2496V13.5844H39.9846V15.7125H36.2496V17.1457H40.8532V19.2304Z" fill="#000F9F"/>
<path d="M44.8052 19.2304L41.7217 10.1533H44.7184L46.3253 16.1902L47.9756 10.1533H50.9723L47.8019 19.2304H44.8052Z" fill="#000F9F"/>
<path d="M54.8806 10.1533L58.1379 15.1044L58.0076 13.0198V10.1533H60.874V19.2304H58.0944L54.8372 14.2793L54.9675 16.3639V19.2304H52.1011V10.1533H54.8806Z" fill="#000F9F"/>
<path d="M71.2974 12.802H68.4744C68.4744 12.498 68.3876 12.3242 68.1704 12.194C67.9967 12.0637 67.7361 12.0202 67.4321 12.0202C66.7807 12.0202 66.4766 12.194 66.3898 12.5414C66.3464 12.8889 66.6938 13.1494 67.4755 13.3666C68.735 13.714 69.4733 13.9746 69.7339 14.0615C70.5591 14.4524 70.9934 15.0604 70.9934 15.8856C70.9934 16.0159 70.9934 16.1896 70.95 16.3633C70.7762 17.3623 70.2117 18.1874 69.343 18.7086C68.5179 19.2298 67.4321 19.4904 66.1726 19.4904C65.0869 19.4904 64.2183 19.2298 63.5668 18.7086C62.9588 18.2309 62.6548 17.5794 62.6548 16.7976C62.6548 16.6674 62.6548 16.5371 62.6982 16.4502H65.5646C65.5646 16.7542 65.6949 17.0148 65.9121 17.1451C66.1292 17.2754 66.4332 17.3623 66.7372 17.3623C67.5624 17.3623 67.9967 17.1451 68.0836 16.7108C68.127 16.3633 67.7796 16.1027 66.9978 15.8856C65.7818 15.5381 65 15.321 64.7394 15.1907C63.9143 14.7998 63.5234 14.1484 63.5234 13.3666C63.5234 13.1929 63.5234 13.0191 63.5668 12.8454C63.7405 11.9334 64.2183 11.195 65.0869 10.6739C65.8686 10.1961 66.8675 9.93555 68.0401 9.93555C69.2128 9.93555 70.1248 10.1961 70.6894 10.7607C71.0803 11.2385 71.3408 11.9334 71.2974 12.802Z" fill="#ED1C24"/>
<path d="M74.5113 19.2294H71.5146L73.1216 10.1523H77.508C78.6372 10.1523 79.5058 10.3695 80.0704 10.8038C80.635 11.1947 80.8956 11.8027 80.8956 12.5845C80.8956 12.8016 80.8956 12.9754 80.8522 13.2359C80.4613 15.3641 79.0281 16.4064 76.5091 16.4064H74.9891L74.5113 19.2294ZM75.3799 14.2783H76.596C77.3777 14.2783 77.8555 13.9308 77.9858 13.2359C77.9858 13.1925 77.9858 13.1056 77.9858 13.0622C77.9858 12.541 77.508 12.2805 76.5526 12.2805H75.7274L75.3799 14.2783Z" fill="#ED1C24"/>
<path d="M90.2769 13.6276H87.454C87.4974 13.1499 87.4106 12.8025 87.15 12.5419C86.9328 12.2813 86.5419 12.151 86.1076 12.151C84.9785 12.151 84.2836 13.0196 83.9796 14.8003C83.8927 15.1477 83.8927 15.4517 83.8927 15.7123C83.8927 16.7547 84.3704 17.2324 85.3693 17.2324C86.2379 17.2324 86.846 16.7112 87.15 15.7123H90.0164C89.6689 16.885 89.0609 17.797 88.1489 18.4485C87.2368 19.0999 86.1945 19.4474 85.0219 19.4474C83.719 19.4474 82.7201 19.0999 82.0252 18.4919C81.3303 17.8404 80.9395 16.9284 80.9395 15.7992C80.9395 15.4517 80.9829 15.0609 81.0263 14.67C81.2869 13.2368 81.9384 12.0641 82.9372 11.1955C83.9361 10.3269 85.0653 9.89258 86.3682 9.89258C87.6711 9.89258 88.6266 10.1966 89.2781 10.7612C89.9295 11.3258 90.2769 12.151 90.2769 13.1933C90.2769 13.3671 90.2769 13.4974 90.2769 13.6276Z" fill="#ED1C24"/>
<path d="M35.4243 29.2189V32.954H34.4689V29.2189H33.0791V28.4372H36.7707V29.2189H35.4243ZM38.0301 32.6499C37.4656 32.2591 37.1615 31.5642 37.1615 30.6521C37.1615 29.7401 37.4656 29.0886 38.0301 28.6543C38.421 28.3937 38.8553 28.2634 39.3331 28.2634C39.8542 28.2634 40.2885 28.3937 40.636 28.6543C41.2006 29.0452 41.5046 29.7401 41.5046 30.6521C41.5046 31.5642 41.2006 32.2156 40.636 32.6499C40.2451 32.9105 39.8108 33.0408 39.3331 33.0408C38.8119 33.0408 38.3776 32.9105 38.0301 32.6499ZM38.5079 29.3926C38.2473 29.6532 38.0736 30.0875 38.0736 30.6521C38.0736 31.2167 38.2039 31.651 38.5079 31.9116C38.725 32.1288 38.9856 32.2156 39.3331 32.2156C39.6371 32.2156 39.9411 32.1288 40.1582 31.9116C40.4188 31.651 40.5925 31.2167 40.5925 30.6521C40.5925 30.0875 40.4622 29.6532 40.1582 29.3926C39.9411 29.1755 39.6805 29.0886 39.3331 29.0886C39.029 29.0886 38.725 29.1755 38.5079 29.3926ZM39.6805 27.2645L40.332 28.0897H39.6805L39.3331 27.612L38.9856 28.0897H38.3342L38.9856 27.2645H39.6805ZM40.8097 27.1777C40.7228 27.2645 40.6794 27.3514 40.6794 27.4817H40.2017C40.2017 27.2645 40.2885 27.0908 40.5057 26.9605C40.5925 26.8736 40.6794 26.8302 40.6794 26.7868C40.6794 26.6565 40.636 26.6131 40.5491 26.6131C40.4188 26.6131 40.3754 26.6565 40.332 26.8302H39.8976C39.8976 26.6131 39.9411 26.4828 40.1148 26.3959C40.2017 26.3091 40.332 26.2656 40.5057 26.2656C40.636 26.2656 40.7663 26.309 40.8965 26.3525C41.0703 26.4393 41.1571 26.5696 41.1571 26.7868C41.1137 26.9171 41.0268 27.0474 40.8097 27.1777ZM45.0224 31.5642V28.3937H45.891V32.9105H44.9356L43.0681 29.6967V32.9105H42.1995V28.3937H43.1983L45.0224 31.5642ZM48.9311 31.2602V30.4784H50.8421V32.9105H50.1906L50.1038 32.3459C49.93 32.5631 49.7563 32.6934 49.626 32.7802C49.3654 32.954 49.0614 33.0408 48.714 33.0408C48.1494 33.0408 47.6282 32.8237 47.2808 32.4328C46.8465 31.9985 46.6293 31.3904 46.6293 30.6521C46.6293 30.0007 46.8031 29.4361 47.1505 29.0018C47.5414 28.524 48.106 28.2634 48.8443 28.2634C49.4523 28.2634 49.9735 28.4372 50.3209 28.7846C50.6249 29.0886 50.7986 29.3926 50.7986 29.7835H49.8866C49.8866 29.6532 49.7997 29.5229 49.626 29.3492C49.4089 29.132 49.1917 29.0452 48.8877 29.0452C48.4968 29.0452 48.2363 29.1755 47.9757 29.4361C47.7151 29.7401 47.5848 30.131 47.5848 30.6956C47.5848 31.2602 47.7151 31.6945 48.0191 31.955C48.2363 32.1722 48.5403 32.2591 48.9311 32.2591C49.1483 32.2591 49.322 32.2156 49.4957 32.0853C49.7563 31.9116 49.9735 31.651 50.0169 31.2602H48.9311ZM56.8354 28.828C57.1395 29.1321 57.3132 29.4795 57.3132 29.8704H56.3577C56.3143 29.6532 56.2274 29.4795 56.1406 29.3926C55.9668 29.2189 55.7063 29.0886 55.3588 29.0886C55.0548 29.0886 54.8377 29.1755 54.6205 29.3926C54.3599 29.6532 54.2296 30.0875 54.2296 30.6521C54.2296 31.0864 54.3165 31.4773 54.4902 31.7379C54.7074 32.0419 54.9679 32.2156 55.3588 32.2156C55.9234 32.2156 56.2274 31.9116 56.3577 31.347H57.3132C57.2263 31.8682 57.0092 32.2591 56.6617 32.5631C56.3143 32.8671 55.88 33.0408 55.3154 33.0408C54.7074 33.0408 54.1862 32.8237 53.8388 32.4328C53.4479 31.9985 53.2742 31.4339 53.2742 30.6521C53.2742 29.8704 53.4913 29.3058 53.8822 28.8715C54.2731 28.4806 54.7508 28.2634 55.3588 28.2634C55.9668 28.3069 56.4446 28.4806 56.8354 28.828ZM58.7029 32.6499C58.1383 32.2591 57.8343 31.5642 57.8343 30.6521C57.8343 29.7401 58.1383 29.0886 58.7029 28.6543C59.0938 28.3937 59.5281 28.2634 60.0058 28.2634C60.527 28.2634 60.9613 28.3937 61.3088 28.6543C61.8734 29.0452 62.1774 29.7401 62.1774 30.6521C62.1774 31.5642 61.8734 32.2156 61.3088 32.6499C60.9179 32.9105 60.4836 33.0408 60.0058 33.0408C59.4847 33.0408 59.0504 32.9105 58.7029 32.6499ZM59.1807 29.3926C58.9201 29.6532 58.7464 30.0875 58.7464 30.6521C58.7464 31.2167 58.8767 31.651 59.1807 31.9116C59.3978 32.1288 59.6584 32.2156 60.0058 32.2156C60.3099 32.2156 60.6139 32.1288 60.831 31.9116C61.0916 31.651 61.2653 31.2167 61.2653 30.6521C61.2653 30.0875 61.135 29.6532 60.831 29.3926C60.6139 29.1755 60.3533 29.0886 60.0058 29.0886C59.7018 29.0886 59.3978 29.1755 59.1807 29.3926ZM60.3533 27.2645L61.0047 28.0897H60.3533L60.0058 27.612L59.6584 28.0897H59.007L59.6584 27.2645H60.3533ZM65.6952 31.5642V28.3937H66.5638V32.9105H65.6083L63.7408 29.6967V32.9105H62.8722V28.3937H63.8711L65.6952 31.5642ZM69.6039 31.2602V30.4784H71.5149V32.9105H70.8634L70.7766 32.3459C70.6028 32.5631 70.4291 32.6934 70.2988 32.7802C70.0382 32.954 69.7342 33.0408 69.3868 33.0408C68.8222 33.0408 68.301 32.8237 67.9536 32.4328C67.5193 31.9985 67.3021 31.3904 67.3021 30.6521C67.3021 30.0007 67.4758 29.4361 67.8233 29.0018C68.2142 28.524 68.7788 28.2634 69.5171 28.2634C70.1251 28.2634 70.6463 28.4372 70.9937 28.7846C71.2977 29.0886 71.4714 29.3926 71.4714 29.7835H70.516C70.516 29.6532 70.4291 29.5229 70.2554 29.3492C70.0382 29.132 69.8211 29.0452 69.5171 29.0452C69.1262 29.0452 68.8656 29.1755 68.605 29.4361C68.3445 29.7401 68.2142 30.131 68.2142 30.6956C68.2142 31.2602 68.3445 31.6945 68.6485 31.955C68.8656 32.1722 69.1696 32.2591 69.5605 32.2591C69.7777 32.2591 69.9514 32.2156 70.1251 32.0853C70.3857 31.9116 70.6028 31.651 70.6463 31.2602H69.6039ZM76.075 29.2189V32.954H75.1196V29.2189H73.7732V28.4372H77.4648V29.2189H76.075ZM80.1141 31.2602V32.954H79.1586V31.2602L77.5951 28.4372H78.7243L79.6797 30.3915L80.5918 28.4372H81.6775L80.1141 31.2602ZM83.9793 30.8259H83.5016V30.1744H83.9793V28.3937H85.9771C86.672 28.3937 87.1497 28.6543 87.4538 29.132C87.6709 29.5229 87.8012 29.9572 87.8012 30.5218C87.8012 31.1299 87.6709 31.651 87.4103 32.0853C87.0629 32.6499 86.5852 32.9105 85.8903 32.9105H83.9359V30.8259H83.9793ZM84.8914 30.1744H85.6297V30.8259H84.8914V32.1288H85.8034C86.1509 32.1288 86.4114 31.9551 86.5852 31.651C86.7154 31.3905 86.8023 31.043 86.8023 30.6087C86.8023 29.6532 86.4549 29.1755 85.76 29.1755H84.8479V30.1744H84.8914ZM89.4081 28.3937V32.9105H88.4527V28.3937H89.4081ZM93.6209 28.3937V29.1755H91.2322V30.131H93.4471V30.9127H91.2322V32.0853H93.7511V32.8671H90.2767V28.3503H93.6209V28.3937ZM92.2745 27.2645L92.926 28.0897H92.2745L91.9271 27.612L91.5796 28.0897H90.9282L91.5796 27.2645H92.2745ZM92.2311 33.3448V34.0832H91.4928V33.3448H92.2311ZM97.2256 31.5642V28.3937H98.0942V32.9105H97.1387L95.2712 29.6967V32.9105H94.4026V28.3937H95.4015L97.2256 31.5642ZM101.742 28.3937V32.0853H104.001V32.9105H100.787V28.3937H101.742ZM108.865 28.1766C108.865 28.524 108.648 28.828 108.257 29.0018V31.3036C108.257 32.4328 107.649 32.9974 106.389 32.9974C105.738 32.9974 105.26 32.8237 104.956 32.4328C104.739 32.1722 104.609 31.7813 104.609 31.347V28.3503H105.564V31.3036C105.564 31.6076 105.651 31.8248 105.825 31.9985C105.955 32.1288 106.172 32.2156 106.389 32.2156C106.997 32.2156 107.301 31.9116 107.301 31.347V28.3503H108.257V28.6109C108.387 28.4806 108.431 28.3937 108.431 28.2634H108.127V27.612H108.821V28.1766H108.865ZM106.78 33.4317V34.17H106.042V33.4317H106.78ZM112.556 28.828C112.86 29.1321 113.034 29.4795 113.034 29.8704H112.079C112.035 29.6532 111.948 29.4795 111.862 29.3926C111.688 29.2189 111.427 29.0886 111.08 29.0886C110.776 29.0886 110.559 29.1755 110.341 29.3926C110.081 29.6532 109.951 30.0875 109.951 30.6521C109.951 31.0864 110.037 31.4773 110.211 31.7379C110.428 32.0419 110.689 32.2156 111.08 32.2156C111.644 32.2156 111.948 31.9116 112.079 31.347H113.034C112.947 31.8682 112.73 32.2591 112.383 32.5631C112.035 32.8671 111.601 33.0408 111.036 33.0408C110.428 33.0408 109.907 32.8237 109.56 32.4328C109.169 31.9985 108.995 31.4339 108.995 30.6521C108.995 29.8704 109.212 29.3058 109.603 28.8715C109.994 28.4806 110.472 28.2634 111.08 28.2634C111.688 28.3069 112.166 28.4806 112.556 28.828ZM119.853 28.3937V32.9105H118.984V29.132L118.159 32.9105H117.247L116.422 29.132V32.9105H115.553V28.3937H116.943L117.768 31.955L118.593 28.3937H119.853ZM121.633 28.3937V32.9105H120.678V28.3937H121.633ZM125.846 28.3937V29.1755H123.457V30.131H125.672V30.9127H123.457V32.0853H125.976V32.8671H122.545V28.3503H125.846V28.3937ZM124.5 27.2645L125.151 28.0897H124.5L124.152 27.612L123.805 28.0897H123.153L123.805 27.2645H124.5ZM125.064 27.5251L124.239 26.6999H125.108L125.629 27.5251H125.064ZM129.451 31.5642V28.3937H130.319V32.9105H129.364L127.496 29.6967V32.9105H126.628V28.3937H127.627L129.451 31.5642ZM135.792 31.5642V28.3937H136.66V32.9105H135.705L133.837 29.6967V32.9105H132.969V28.3937H133.968L135.792 31.5642ZM138.528 31.9985L138.224 32.9105H137.225L138.832 28.3937H139.917L141.524 32.9105H140.482L140.178 31.9985H138.528ZM139.353 29.4361L138.788 31.2167H139.961L139.353 29.4361ZM146.475 28.3937V32.9105H145.607V29.132L144.782 32.9105H143.87L143.044 29.132V32.9105H142.176V28.3937H143.566L144.391 31.955L145.216 28.3937H146.475Z" fill="#000F9F"/>
<path d="M36.8572 35.6471C37.1612 35.9512 37.3349 36.2986 37.3349 36.6895H36.3794C36.336 36.4723 36.2492 36.2986 36.1623 36.2117C35.9886 36.038 35.728 35.9077 35.3805 35.9077C35.0765 35.9077 34.8594 35.9946 34.6422 36.2117C34.3817 36.4723 34.2514 36.9066 34.2514 37.4712C34.2514 37.9056 34.3382 38.2964 34.5119 38.557C34.7291 38.861 34.9897 39.0347 35.3805 39.0347C35.9451 39.0347 36.2492 38.7307 36.3794 38.1661H37.3349C37.248 38.6873 37.0309 39.0782 36.6835 39.3822C36.336 39.6862 35.9017 39.8599 35.3371 39.8599C34.7291 39.8599 34.2079 39.6428 33.8605 39.2519C33.4696 38.8176 33.2959 38.253 33.2959 37.4712C33.2959 36.6895 33.513 36.1249 33.9039 35.6906C34.2948 35.2997 34.7725 35.0825 35.3805 35.0825C35.9886 35.126 36.4663 35.2997 36.8572 35.6471ZM38.7247 39.4691C38.1601 39.0782 37.8561 38.3833 37.8561 37.4712C37.8561 36.5592 38.1601 35.9077 38.7247 35.4734C39.1156 35.2128 39.5499 35.0825 40.0276 35.0825C40.5487 35.0825 40.9831 35.2128 41.3305 35.4734C41.8951 35.8643 42.1991 36.5592 42.1991 37.4712C42.1991 38.3833 41.8951 39.0347 41.3305 39.4691C40.9396 39.7296 40.5053 39.8599 40.0276 39.8599C39.5499 39.8599 39.0721 39.7296 38.7247 39.4691ZM39.2458 36.2117C38.9853 36.4723 38.8115 36.9066 38.8115 37.4712C38.8115 38.0358 38.9418 38.4702 39.2458 38.7308C39.463 38.9479 39.7236 39.0347 40.071 39.0347C40.375 39.0347 40.679 38.9479 40.8962 38.7308C41.1568 38.4702 41.3305 38.0358 41.3305 37.4712C41.3305 36.9066 41.2002 36.4723 40.8962 36.2117C40.679 35.9946 40.4185 35.9077 40.071 35.9077C39.7236 35.9077 39.463 36.038 39.2458 36.2117ZM40.375 34.0836L41.0265 34.9088H40.375L40.0276 34.4311L39.6801 34.9088H39.0287L39.6801 34.0836H40.375ZM45.7169 38.3833V35.2128H46.5856V39.7297H45.6301L43.7626 36.5158V39.7297H42.894V35.2128H43.8929L45.7169 38.3833ZM49.6691 38.0793V37.2975H51.58V39.7297H50.9286L50.8417 39.1651C50.668 39.3822 50.4943 39.5125 50.364 39.5994C50.1034 39.7731 49.7994 39.8599 49.452 39.8599C48.8874 39.8599 48.3662 39.6428 48.0188 39.2519C47.5844 38.8176 47.3673 38.2096 47.3673 37.4712C47.3673 36.8198 47.541 36.2552 47.8885 35.8209C48.2793 35.3431 48.8439 35.0825 49.5822 35.0825C50.1903 35.0825 50.7114 35.2563 51.0589 35.6037C51.3629 35.9077 51.5366 36.2117 51.5366 36.6026H50.5811C50.5811 36.4723 50.4943 36.342 50.3206 36.1683C50.1034 35.9512 49.8863 35.8643 49.5822 35.8643C49.1914 35.8643 48.9308 35.9946 48.6702 36.2552C48.4096 36.5592 48.2793 36.9501 48.2793 37.5147C48.2793 38.0793 48.4096 38.5136 48.7136 38.7742C48.9308 38.9913 49.2348 39.0782 49.6257 39.0782C49.8428 39.0782 50.0165 39.0348 50.1903 38.9045C50.4508 38.7307 50.668 38.4702 50.7114 38.0793H49.6691ZM56.0968 36.038V39.7731H55.1413V36.038H53.795V35.2563H57.4865V36.038H56.0968ZM60.1358 38.0793V39.7731H59.1803V38.0793L57.6168 35.2563H58.746L59.7015 37.2107L60.6135 35.2563H61.6993L60.1358 38.0793ZM64.0011 37.6884H63.5233V37.0369H64.0011V35.2563H65.9989C66.6938 35.2563 67.1715 35.5168 67.4755 35.9946C67.6927 36.3855 67.8229 36.8198 67.8229 37.3844C67.8229 37.9924 67.6926 38.5136 67.4321 38.9479C67.0846 39.5125 66.6069 39.7731 65.912 39.7731H63.9576V37.6884H64.0011ZM64.9131 36.9935H65.6514V37.645H64.9131V38.9479H65.8252C66.1726 38.9479 66.4332 38.7742 66.6069 38.4701C66.7372 38.2096 66.824 37.8621 66.824 37.4278C66.824 36.4723 66.4766 35.9946 65.7817 35.9946H64.8697V36.9935H64.9131ZM69.4299 35.2563V39.7731H68.4744V35.2563H69.4299ZM73.6426 35.2563V36.038H71.2539V36.9935H73.4689V37.7753H71.2539V38.9479H73.7729V39.7297H70.2985V35.2128H73.6426V35.2563ZM72.2963 34.0836L72.9477 34.9088H72.2963L71.9488 34.4311L71.6014 34.9088H70.9499L71.6014 34.0836H72.2963ZM72.2528 40.164V40.9023H71.5145V40.164H72.2528ZM77.2473 38.3833V35.2128H78.1159V39.7297H77.1604L75.2929 36.5158V39.7297H74.4243V35.2128H75.4232L77.2473 38.3833ZM81.764 35.2563V38.9479H84.0224V39.7731H80.8086V35.2563H81.764ZM88.8866 34.9957C88.8866 35.3431 88.6695 35.6471 88.2786 35.8209V38.1227C88.2786 39.2519 87.6706 39.8165 86.4111 39.8165C85.7596 39.8165 85.2819 39.6428 84.9779 39.2519C84.7607 38.9913 84.6305 38.6004 84.6305 38.1661V35.1694H85.5859V38.1227C85.5859 38.4267 85.6728 38.6439 85.8465 38.8176C85.9768 38.9479 86.1939 39.0347 86.4111 39.0347C87.0191 39.0347 87.3231 38.7307 87.3231 38.1661V35.1694H88.2786V35.43C88.4089 35.2997 88.4523 35.2128 88.4523 35.0825H88.1483V34.4311H88.8432V34.9957H88.8866ZM86.802 40.2508V40.9891H86.0636V40.2508H86.802ZM92.5782 35.6471C92.8822 35.9512 93.0559 36.2986 93.0559 36.6895H92.1005C92.057 36.4723 91.9702 36.2986 91.8833 36.2117C91.7096 36.038 91.449 35.9077 91.1016 35.9077C90.7975 35.9077 90.5804 35.9946 90.3632 36.2117C90.1027 36.4723 89.9724 36.9066 89.9724 37.4712C89.9724 37.9056 90.0592 38.2964 90.2329 38.557C90.4501 38.861 90.7107 39.0347 91.1016 39.0347C91.6661 39.0347 91.9702 38.7307 92.1005 38.1661H93.0559C92.9691 38.6873 92.7519 39.0782 92.4045 39.3822C92.057 39.6862 91.6227 39.8599 91.0581 39.8599C90.4501 39.8599 89.9289 39.6428 89.5815 39.2519C89.1906 38.8176 89.0169 38.253 89.0169 37.4712C89.0169 36.6895 89.2341 36.1249 89.6249 35.6906C90.0158 35.2997 90.4935 35.0825 91.1016 35.0825C91.7096 35.126 92.1873 35.2997 92.5782 35.6471ZM95.5314 37.6884H95.0537V37.0369H95.5314V35.2563H97.5292C98.2241 35.2563 98.7019 35.5168 99.0059 35.9946C99.223 36.3855 99.3533 36.8198 99.3533 37.3844C99.3533 37.9924 99.223 38.5136 98.9624 38.9479C98.615 39.5125 98.1373 39.7731 97.4424 39.7731H95.488V37.6884H95.5314ZM96.4435 36.9935H97.1818V37.645H96.4435V38.9479H97.3555C97.703 38.9479 97.9635 38.7742 98.1373 38.4701C98.2675 38.2096 98.3544 37.8621 98.3544 37.4278C98.3544 36.4723 98.007 35.9946 97.3121 35.9946H96.4001V36.9935H96.4435ZM100.743 39.4691C100.178 39.0782 99.8745 38.3833 99.8745 37.4712C99.8745 36.5592 100.178 35.9077 100.743 35.4734C101.134 35.2128 101.568 35.0825 102.046 35.0825C102.567 35.0825 103.001 35.2128 103.349 35.4734C103.913 35.8643 104.217 36.5592 104.217 37.4712C104.217 38.3833 103.913 39.0347 103.349 39.4691C102.958 39.7296 102.524 39.8599 102.046 39.8599C101.568 39.8599 101.134 39.7296 100.743 39.4691ZM101.264 36.2117C101.004 36.4723 100.83 36.9066 100.83 37.4712C100.83 38.0358 100.96 38.4702 101.264 38.7308C101.481 38.9479 101.742 39.0347 102.089 39.0347C102.393 39.0347 102.697 38.9479 102.915 38.7308C103.175 38.4702 103.349 38.0358 103.349 37.4712C103.349 36.9066 103.219 36.4723 102.915 36.2117C102.697 35.9946 102.437 35.9077 102.089 35.9077C101.742 35.9077 101.481 36.038 101.264 36.2117ZM102.393 34.0836L103.045 34.9088H102.393L102.046 34.4311L101.699 34.9088H101.047L101.699 34.0836H102.393ZM102.958 34.3008L102.133 33.4756H103.001L103.523 34.3008H102.958ZM107.735 38.3833V35.2128H108.604V39.7297H107.648L105.781 36.5158V39.7297H104.912V35.2128H105.911L107.735 38.3833ZM111.687 38.0793V37.2975H113.598V39.7297H112.947L112.86 39.1651C112.686 39.3822 112.513 39.5125 112.382 39.5994C112.122 39.7731 111.818 39.8599 111.47 39.8599C110.906 39.8599 110.385 39.6428 110.037 39.2519C109.603 38.8176 109.386 38.2096 109.386 37.4712C109.386 36.8198 109.559 36.2552 109.907 35.8209C110.298 35.3431 110.862 35.0825 111.601 35.0825C112.209 35.0825 112.73 35.2563 113.077 35.6037C113.381 35.9077 113.555 36.2117 113.555 36.6026H112.6C112.6 36.4723 112.513 36.342 112.339 36.1683C112.122 35.9512 111.905 35.8643 111.601 35.8643C111.21 35.8643 110.949 35.9946 110.689 36.2552C110.428 36.5592 110.298 36.9501 110.298 37.5147C110.298 38.0793 110.428 38.5136 110.732 38.7742C110.949 38.9913 111.253 39.0782 111.644 39.0782C111.861 39.0782 112.035 39.0348 112.209 38.9045C112.469 38.7307 112.686 38.4702 112.73 38.0793H111.687ZM118.115 36.038V39.7731H117.16V36.038H115.77V35.2563H119.462V36.038H118.115ZM122.719 37.7318H120.938V39.7731H119.983V35.2563H120.938V36.9501H122.719V35.2563H123.674V39.7731H122.719V37.7318ZM125.542 38.8176L125.238 39.7297H124.239L125.846 35.2128H126.932L128.538 39.7297H127.496L127.192 38.8176H125.542ZM126.41 36.2552L125.846 38.0358H127.018L126.41 36.2552ZM127.54 34.0836L126.714 34.9088H126.15L126.671 34.0836H127.54ZM130.102 38.1227V39.7731H129.146V35.2563H131.231C131.665 35.2563 132.013 35.3865 132.273 35.6471C132.534 35.9077 132.664 36.2552 132.664 36.6895C132.664 36.9935 132.577 37.2975 132.404 37.5581C132.143 37.949 131.752 38.1227 131.231 38.1227H130.102ZM130.102 37.341H130.971C131.448 37.341 131.665 37.1238 131.665 36.646C131.665 36.4289 131.579 36.2552 131.448 36.1683C131.318 36.0814 131.101 36.038 130.797 36.038H130.058V37.341H130.102Z" fill="#000F9F"/>
</svg>
