<svg width="147" height="41" viewBox="0 0 147 41" fill="none" xmlns="http://www.w3.org/2000/svg">
<path fill-rule="evenodd" clip-rule="evenodd" d="M26.8533 14.6266L16.1694 16.9284L13.8676 27.6125L11.6092 16.9284L0.881836 14.6266L11.6092 12.3247L13.8676 1.64062L16.1694 12.3247L26.8533 14.6266Z" fill="#000F9F"/>
<path fill-rule="evenodd" clip-rule="evenodd" d="M13.8678 22.4444L12.3478 16.1468L6.09375 14.6268L12.3478 13.1067L13.8678 6.85254L15.3879 13.1067L21.6853 14.6268L15.3879 16.1468L13.8678 22.4444Z" fill="#ED1C24"/>
<path fill-rule="evenodd" clip-rule="evenodd" d="M13.8677 0.989258C21.3812 0.989258 27.5049 7.11308 27.5049 14.6267C27.5049 22.1403 21.3812 28.2641 13.8677 28.2641C6.35418 28.2641 0.230469 22.1837 0.230469 14.6267C0.230469 7.11308 6.35418 0.989258 13.8677 0.989258ZM13.8677 1.64073C6.70163 1.64073 0.881928 7.46053 0.881928 14.6267C0.881928 21.7929 6.70163 27.6127 13.8677 27.6127C21.0337 27.6127 26.8534 21.7929 26.8534 14.6267C26.8534 7.46053 21.0337 1.64073 13.8677 1.64073Z" fill="#000F9F"/>
<path fill-rule="evenodd" clip-rule="evenodd" d="M13.8677 17.8838L13.1294 15.4083L10.6538 14.6265L13.1294 13.8882L13.8677 11.3691L14.6494 13.8882L17.125 14.6265L14.6494 15.4083L13.8677 17.8838Z" fill="#FFF200"/>
<path d="M40.6209 19.2304H33.0205V10.1533H40.4037V12.2814H36.0172V13.5844H39.7523V15.7125H36.0172V17.1458H40.6209V19.2304Z" fill="#000F9F"/>
<path d="M44.5728 19.2304L41.4893 10.1533H44.486L46.0929 16.1903L47.7433 10.1533H50.74L47.5695 19.2304H44.5728Z" fill="#000F9F"/>
<path d="M54.6487 10.1533L57.906 15.1045L57.7757 13.0198V10.1533H60.6421V19.2304H57.8626L54.6053 14.2793L54.7356 16.364V19.2304H51.8691V10.1533H54.6487Z" fill="#000F9F"/>
<path d="M71.0655 12.802H68.2426C68.2426 12.498 68.1557 12.3243 67.9385 12.194C67.7648 12.0637 67.5042 12.0202 67.2002 12.0202C66.5488 12.0202 66.2447 12.194 66.1579 12.5414C66.1145 12.8889 66.4619 13.1495 67.2437 13.3666C68.5031 13.7141 69.2415 13.9747 69.502 14.0615C70.3272 14.4524 70.7615 15.0604 70.7615 15.8856C70.7615 16.0159 70.7615 16.1896 70.7181 16.3634C70.5444 17.3623 69.9798 18.1875 69.1112 18.7087C68.286 19.2298 67.2002 19.4904 65.9407 19.4904C64.855 19.4904 63.9864 19.2298 63.3349 18.7087C62.7269 18.2309 62.4229 17.5794 62.4229 16.7977C62.4229 16.6674 62.4229 16.5371 62.4663 16.4502H65.3327C65.3327 16.7543 65.463 17.0148 65.6801 17.1451C65.8973 17.2754 66.2013 17.3623 66.5053 17.3623C67.3305 17.3623 67.7648 17.1451 67.8517 16.7108C67.8951 16.3634 67.5477 16.1028 66.7659 15.8856C65.5499 15.5382 64.7681 15.321 64.5075 15.1907C63.6823 14.7999 63.2915 14.1484 63.2915 13.3666C63.2915 13.1929 63.2915 13.0192 63.3349 12.8454C63.5086 11.9334 63.9864 11.1951 64.855 10.6739C65.6367 10.1961 66.6356 9.93555 67.8082 9.93555C68.9809 9.93555 69.8929 10.1961 70.4575 10.7607C70.8484 11.2385 71.109 11.9334 71.0655 12.802Z" fill="#ED1C24"/>
<path d="M74.2794 19.2304H71.2827L72.8896 10.1533H77.2761C78.4053 10.1533 79.2739 10.3705 79.8385 10.8048C80.4031 11.1957 80.6637 11.8037 80.6637 12.5855C80.6637 12.8026 80.6637 12.9764 80.6203 13.2369C80.2294 15.3651 78.7962 16.4074 76.2772 16.4074H74.7572L74.2794 19.2304ZM75.148 14.2793H76.3641C77.1458 14.2793 77.6236 13.9318 77.7539 13.2369C77.7539 13.1935 77.7539 13.1066 77.7539 13.0632C77.7539 12.542 77.2761 12.2814 76.3207 12.2814H75.4955L75.148 14.2793Z" fill="#ED1C24"/>
<path d="M90.0446 13.6277H87.2216C87.265 13.1499 87.1782 12.8025 86.9176 12.5419C86.7005 12.2813 86.3096 12.151 85.8753 12.151C84.7461 12.151 84.0512 13.0196 83.7472 14.8003C83.6603 15.1478 83.6603 15.4518 83.6603 15.7124C83.6603 16.7547 84.138 17.2325 85.1369 17.2325C86.0056 17.2325 86.6136 16.7113 86.9176 15.7124H89.784C89.4366 16.885 88.8286 17.7971 87.9165 18.4486C87.0045 19.1 85.9621 19.4475 84.7895 19.4475C83.4866 19.4475 82.4877 19.1 81.7928 18.492C81.0979 17.8405 80.707 16.9285 80.707 15.7992C80.707 15.4518 80.7505 15.0609 80.7939 14.67C81.0545 13.2368 81.7059 12.0641 82.7048 11.1955C83.7037 10.3269 84.8329 9.89258 86.1359 9.89258C87.4388 9.89258 88.3942 10.1966 89.0457 10.7612C89.6972 11.3258 90.0446 12.151 90.0446 13.1934C90.0446 13.3671 90.0446 13.4974 90.0446 13.6277Z" fill="#ED1C24"/>
<path d="M35.1919 29.219V32.9541H34.2365V29.219H32.8467V28.4372H36.5383V29.219H35.1919ZM37.7978 32.65C37.2332 32.2591 36.9292 31.5643 36.9292 30.6522C36.9292 29.7401 37.2332 29.0887 37.7978 28.6544C38.1886 28.3938 38.6229 28.2635 39.1007 28.2635C39.6219 28.2635 40.0562 28.3938 40.4036 28.6544C40.9682 29.0452 41.2722 29.7401 41.2722 30.6522C41.2722 31.5643 40.9682 32.2157 40.4036 32.65C40.0127 32.9106 39.5784 33.0409 39.1007 33.0409C38.5795 33.0409 38.1452 32.9106 37.7978 32.65ZM38.2755 29.3927C38.0149 29.6533 37.8412 30.0876 37.8412 30.6522C37.8412 31.2168 37.9715 31.6511 38.2755 31.9117C38.4927 32.1289 38.7532 32.2157 39.1007 32.2157C39.4047 32.2157 39.7087 32.1289 39.9259 31.9117C40.1865 31.6511 40.3602 31.2168 40.3602 30.6522C40.3602 30.0876 40.2299 29.6533 39.9259 29.3927C39.7087 29.1755 39.4481 29.0887 39.1007 29.0887C38.7967 29.0887 38.4927 29.1755 38.2755 29.3927ZM39.4481 27.2645L40.0996 28.0897H39.4481L39.1007 27.612L38.7532 28.0897H38.1018L38.7532 27.2645H39.4481ZM40.5773 27.1777C40.4905 27.2645 40.447 27.3514 40.447 27.4817H39.9693C39.9693 27.2645 40.0562 27.0908 40.2733 26.9605C40.3602 26.8737 40.447 26.8302 40.447 26.7868C40.447 26.6565 40.4036 26.6131 40.3167 26.6131C40.1865 26.6131 40.143 26.6565 40.0996 26.8302H39.6653C39.6653 26.6131 39.7087 26.4828 39.8824 26.3959C39.9693 26.3091 40.0996 26.2656 40.2733 26.2656C40.4036 26.2656 40.5339 26.309 40.6642 26.3525C40.8379 26.4393 40.9248 26.5696 40.9248 26.7868C40.8813 26.9171 40.7945 27.0474 40.5773 27.1777ZM44.7901 31.5642V28.3938H45.6587V32.9106H44.7032L42.8357 29.6967V32.9106H41.9671V28.3938H42.966L44.7901 31.5642ZM48.6989 31.2602V30.4785H50.6098V32.9106H49.9583L49.8715 32.346C49.6978 32.5632 49.524 32.6935 49.3937 32.7803C49.1332 32.9541 48.8291 33.0409 48.4817 33.0409C47.9171 33.0409 47.3959 32.8238 47.0485 32.4329C46.6142 31.9986 46.397 31.3905 46.397 30.6522C46.397 30.0007 46.5707 29.4361 46.9182 29.0018C47.3091 28.5241 47.8737 28.2635 48.612 28.2635C49.22 28.2635 49.7412 28.4372 50.0886 28.7846C50.3926 29.0887 50.5664 29.3927 50.5664 29.7836H49.6543C49.6543 29.6533 49.5675 29.523 49.3937 29.3493C49.1766 29.1321 48.9594 29.0452 48.6554 29.0452C48.2645 29.0452 48.004 29.1755 47.7434 29.4361C47.4828 29.7401 47.3525 30.131 47.3525 30.6956C47.3525 31.2602 47.4828 31.6946 47.7868 31.9551C48.004 32.1723 48.308 32.2592 48.6989 32.2592C48.916 32.2592 49.0897 32.2157 49.2634 32.0854C49.524 31.9117 49.7412 31.6511 49.7846 31.2602H48.6989ZM56.6032 28.8281C56.9072 29.1321 57.081 29.4795 57.081 29.8704H56.1255C56.0821 29.6533 55.9952 29.4795 55.9083 29.3927C55.7346 29.219 55.474 29.0887 55.1266 29.0887C54.8226 29.0887 54.6054 29.1755 54.3883 29.3927C54.1277 29.6533 53.9974 30.0876 53.9974 30.6522C53.9974 31.0865 54.0842 31.4774 54.258 31.738C54.4751 32.042 54.7357 32.2157 55.1266 32.2157C55.6912 32.2157 55.9952 31.9117 56.1255 31.3471H57.081C56.9941 31.8683 56.7769 32.2592 56.4295 32.5632C56.0821 32.8672 55.6477 33.0409 55.0831 33.0409C54.4751 33.0409 53.954 32.8238 53.6065 32.4329C53.2156 31.9986 53.0419 31.434 53.0419 30.6522C53.0419 29.8704 53.2591 29.3058 53.6499 28.8715C54.0408 28.4806 54.5185 28.2635 55.1266 28.2635C55.7346 28.2635 56.2123 28.4806 56.6032 28.8281ZM58.4707 32.65C57.9061 32.2591 57.6021 31.5643 57.6021 30.6522C57.6021 29.7401 57.9061 29.0887 58.4707 28.6544C58.8616 28.3938 59.2959 28.2635 59.7737 28.2635C60.2948 28.2635 60.7291 28.3938 61.0766 28.6544C61.6412 29.0452 61.9452 29.7401 61.9452 30.6522C61.9452 31.5643 61.6412 32.2157 61.0766 32.65C60.6857 32.9106 60.2514 33.0409 59.7737 33.0409C59.2525 33.0409 58.8182 32.9106 58.4707 32.65ZM58.9485 29.3927C58.6879 29.6533 58.5142 30.0876 58.5142 30.6522C58.5142 31.2168 58.6445 31.6511 58.9485 31.9117C59.1656 32.1289 59.4262 32.2157 59.7737 32.2157C60.0777 32.2157 60.3817 32.1289 60.5988 31.9117C60.8594 31.6511 61.0331 31.2168 61.0331 30.6522C61.0331 30.0876 60.9028 29.6533 60.5988 29.3927C60.3817 29.1755 60.1211 29.0887 59.7737 29.0887C59.4696 29.0887 59.1656 29.1755 58.9485 29.3927ZM60.1211 27.2645L60.7726 28.0897H60.1211L59.7737 27.612L59.4262 28.0897H58.7747L59.4262 27.2645H60.1211ZM65.4631 31.5642V28.3938H66.3317V32.9106H65.3762L63.5087 29.6967V32.9106H62.6401V28.3938H63.639L65.4631 31.5642ZM69.3718 31.2602V30.4785H71.2828V32.9106H70.6313L70.5444 32.346C70.3707 32.5632 70.197 32.6935 70.0667 32.7803C69.8061 32.9541 69.5021 33.0409 69.1547 33.0409C68.5901 33.0409 68.0689 32.8238 67.7215 32.4329C67.2872 31.9986 67.07 31.3905 67.07 30.6522C67.07 30.0007 67.2437 29.4361 67.5912 29.0018C67.982 28.5241 68.5466 28.2635 69.285 28.2635C69.893 28.2635 70.4142 28.4372 70.7616 28.7846C71.0656 29.0887 71.2393 29.3927 71.2393 29.7836H70.2839C70.2839 29.6533 70.197 29.523 70.0233 29.3493C69.8061 29.1321 69.589 29.0452 69.285 29.0452C68.8941 29.0452 68.6335 29.1755 68.3729 29.4361C68.1123 29.7401 67.982 30.131 67.982 30.6956C67.982 31.2602 68.1123 31.6946 68.4163 31.9551C68.6335 32.1723 68.9375 32.2592 69.3284 32.2592C69.5455 32.2592 69.7193 32.2157 69.893 32.0854C70.1536 31.9117 70.3707 31.6511 70.4142 31.2602H69.3718ZM75.843 29.219V32.9541H74.8875V29.219H73.5412V28.4372H77.2328V29.219H75.843ZM79.882 31.2168V32.9106H78.9265V31.2168L77.363 28.3938H78.4922L79.4477 30.3482L80.3598 28.3938H81.4455L79.882 31.2168ZM83.7473 30.8259H83.2696V30.1744H83.7473V28.3938H85.7452C86.44 28.3938 86.9178 28.6544 87.2218 29.1321C87.4389 29.523 87.5692 29.9573 87.5692 30.5219C87.5692 31.1299 87.4389 31.6511 87.1784 32.0854C86.8309 32.65 86.3532 32.9106 85.6583 32.9106H83.7039V30.8259H83.7473ZM84.6594 30.1744H85.3977V30.8259H84.6594V32.1289H85.5714C85.9189 32.1289 86.1795 31.9551 86.3532 31.6511C86.4835 31.3905 86.5703 31.0431 86.5703 30.6088C86.5703 29.6533 86.2229 29.1755 85.528 29.1755H84.616V30.1744H84.6594ZM89.1762 28.3938V32.9106H88.2207V28.3938H89.1762ZM93.3889 28.3938V29.1755H91.0003V30.131H93.2152V30.9128H91.0003V32.0854H93.5192V32.8672H90.0448V28.3503H93.3889V28.3938ZM92.0426 27.2645L92.6941 28.0897H92.0426L91.6951 27.612L91.3477 28.0897H90.6962L91.3477 27.2645H92.0426ZM91.9992 33.3449V34.0833H91.2608V33.3449H91.9992ZM96.9937 31.5642V28.3938H97.8623V32.9106H96.9068L95.0393 29.6967V32.9106H94.1707V28.3938H95.1696L96.9937 31.5642ZM101.51 28.3938V32.0854H103.769V32.9106H100.555V28.3938H101.51ZM108.633 28.1766C108.633 28.5241 108.416 28.8281 108.025 29.0018V31.3037C108.025 32.4329 107.417 32.9975 106.158 32.9975C105.506 32.9975 105.028 32.8238 104.724 32.4329C104.507 32.1723 104.377 31.7814 104.377 31.3471V28.3503H105.332V31.3037C105.332 31.6077 105.419 31.8248 105.593 31.9986C105.723 32.1289 105.94 32.2157 106.158 32.2157C106.766 32.2157 107.07 31.9117 107.07 31.3471V28.3503H108.025V28.6109C108.155 28.4806 108.199 28.3938 108.199 28.2635H107.895V27.612H108.59V28.1766H108.633ZM106.548 33.4318V34.1701H105.81V33.4318H106.548ZM112.325 28.8281C112.629 29.1321 112.802 29.4795 112.802 29.8704H111.847C111.804 29.6533 111.717 29.4795 111.63 29.3927C111.456 29.219 111.195 29.0887 110.848 29.0887C110.544 29.0887 110.327 29.1755 110.11 29.3927C109.849 29.6533 109.719 30.0876 109.719 30.6522C109.719 31.0865 109.806 31.4774 109.979 31.738C110.197 32.042 110.457 32.2157 110.848 32.2157C111.413 32.2157 111.717 31.9117 111.847 31.3471H112.802C112.716 31.8683 112.498 32.2592 112.151 32.5632C111.804 32.8672 111.369 33.0409 110.805 33.0409C110.197 33.0409 109.675 32.8238 109.328 32.4329C108.937 31.9986 108.763 31.434 108.763 30.6522C108.763 29.8704 108.981 29.3058 109.371 28.8715C109.762 28.4806 110.24 28.2635 110.848 28.2635C111.456 28.2635 111.934 28.4806 112.325 28.8281ZM119.621 28.3938V32.9106H118.752V29.1321L117.927 32.9106H117.015L116.19 29.1321V32.9106H115.321V28.3938H116.711L117.536 31.9551L118.362 28.3938H119.621ZM121.402 28.3938V32.9106H120.446V28.3938H121.402ZM125.614 28.3938V29.1755H123.226V30.131H125.441V30.9128H123.226V32.0854H125.745V32.8672H122.314V28.3503H125.614V28.3938ZM124.268 27.2645L124.92 28.0897H124.268L123.921 27.612L123.573 28.0897H122.922L123.573 27.2645H124.268ZM124.833 27.5251L124.008 26.6999H124.876L125.397 27.5251H124.833ZM129.219 31.5642V28.3938H130.088V32.9106H129.132L127.265 29.6967V32.9106H126.396V28.3938H127.395L129.219 31.5642ZM135.56 31.5642V28.3938H136.429V32.9106H135.473L133.606 29.6967V32.9106H132.737V28.3938H133.736L135.56 31.5642ZM138.296 31.9986L137.992 32.9106H136.993L138.6 28.3938H139.686L141.293 32.9106H140.251L139.947 31.9986H138.296ZM139.121 29.4361L138.557 31.2168H139.729L139.121 29.4361ZM146.244 28.3938V32.9106H145.375V29.1321L144.55 32.9106H143.638L142.813 29.1321V32.9106H141.944V28.3938H143.334L144.159 31.9551L144.985 28.3938H146.244Z" fill="#000F9F"/>
<path d="M36.6253 35.647C36.9293 35.951 37.103 36.2985 37.103 36.6894H36.1475C36.1041 36.4722 36.0172 36.2985 35.9304 36.2116C35.7567 36.0379 35.4961 35.9076 35.1486 35.9076C34.8446 35.9076 34.6275 35.9944 34.4103 36.2116C34.1497 36.4722 34.0194 36.9065 34.0194 37.4711C34.0194 37.9054 34.1063 38.2963 34.28 38.5569C34.4972 38.8609 34.7578 39.0346 35.1486 39.0346C35.7132 39.0346 36.0172 38.7306 36.1475 38.166H37.103C37.0161 38.6872 36.799 39.0781 36.4515 39.3821C36.1041 39.6861 35.6698 39.8598 35.1052 39.8598C34.4972 39.8598 33.976 39.6427 33.6286 39.2518C33.2377 38.8175 33.064 38.2529 33.064 37.4711C33.064 36.6893 33.2811 36.1247 33.672 35.6904C34.0629 35.2995 34.5406 35.0824 35.1486 35.0824C35.7567 35.1258 36.2344 35.2996 36.6253 35.647ZM38.4928 39.469C37.9282 39.0781 37.6242 38.3832 37.6242 37.4711C37.6242 36.5591 37.9282 35.9076 38.4928 35.4733C38.8837 35.2127 39.318 35.0824 39.7957 35.0824C40.3169 35.0824 40.7512 35.2127 41.0986 35.4733C41.6632 35.8642 41.9672 36.5591 41.9672 37.4711C41.9672 38.3832 41.6632 39.0346 41.0986 39.469C40.7078 39.7295 40.2734 39.8598 39.7957 39.8598C39.318 39.8598 38.8402 39.7295 38.4928 39.469ZM39.014 36.2116C38.7534 36.4722 38.5796 36.9065 38.5796 37.4711C38.5796 38.0357 38.7099 38.47 39.014 38.7306C39.2311 38.9478 39.4917 39.0346 39.8391 39.0346C40.1432 39.0346 40.4472 38.9478 40.6643 38.7306C40.9249 38.47 41.0986 38.0357 41.0986 37.4711C41.0986 36.9065 40.9683 36.4722 40.6643 36.2116C40.4472 35.9944 40.1866 35.9076 39.8391 35.9076C39.4917 35.9076 39.2311 35.9944 39.014 36.2116ZM40.1432 34.0835L40.7946 34.9087H40.1432L39.7957 34.4309L39.4483 34.9087H38.7968L39.4483 34.0835H40.1432ZM45.4851 38.3832V35.2127H46.3537V39.7295H45.3983L43.5307 36.5156V39.7295H42.6621V35.2127H43.661L45.4851 38.3832ZM49.4373 38.0791V37.2974H51.3482V39.7295H50.6968L50.6099 39.1649C50.4362 39.3821 50.2625 39.5124 50.1322 39.5992C49.8716 39.773 49.5676 39.8598 49.2201 39.8598C48.6555 39.8598 48.1344 39.6427 47.7869 39.2518C47.3526 38.8175 47.1355 38.2094 47.1355 37.4711C47.1355 36.8196 47.3092 36.255 47.6566 35.8207C48.0475 35.343 48.6121 35.0824 49.3504 35.0824C49.9585 35.0824 50.4796 35.2561 50.8271 35.6036C51.1311 35.9076 51.3048 36.2116 51.3048 36.6025H50.3493C50.3493 36.4722 50.2625 36.3419 50.0888 36.1682C49.8716 35.951 49.6545 35.8642 49.3504 35.8642C48.9596 35.8642 48.699 35.9945 48.4384 36.255C48.1778 36.5591 48.0475 36.9499 48.0475 37.5145C48.0475 38.0792 48.1778 38.5135 48.4818 38.7741C48.699 38.9912 49.003 39.0781 49.3939 39.0781C49.611 39.0781 49.7847 39.0346 49.9585 38.9044C50.219 38.7306 50.4362 38.47 50.4796 38.0791H49.4373ZM55.865 36.0379V39.773H54.9096V36.0379H53.5632V35.2561H57.2548V36.0379H55.865ZM59.9041 38.0791V39.773H58.9486V38.0791L57.3851 35.2561H58.5143L59.4698 37.2105L60.3818 35.2561H61.4676L59.9041 38.0791ZM63.7694 37.6448H63.2917V36.9934H63.7694V35.2127H65.7672C66.4621 35.2127 66.9398 35.4733 67.2438 35.951C67.461 36.3419 67.5913 36.7762 67.5913 37.3408C67.5913 37.9489 67.461 38.47 67.2004 38.9044C66.853 39.469 66.3752 39.7295 65.6803 39.7295H63.726V37.6448H63.7694ZM64.6814 36.9934H65.4198V37.6448H64.6814V38.9478H65.5935C65.9409 38.9478 66.2015 38.7741 66.3752 38.47C66.5055 38.2095 66.5924 37.862 66.5924 37.4277C66.5924 36.4722 66.2449 35.9944 65.5501 35.9944H64.638V36.9934H64.6814ZM69.1982 35.2127V39.7295H68.2428V35.2127H69.1982ZM73.411 35.2127V35.9944H71.0223V36.9499H73.2373V37.7317H71.0223V38.9044H73.5413V39.6861H70.0668V35.1693H73.411V35.2127ZM72.0646 34.0835L72.7161 34.9087H72.0646L71.7172 34.4309L71.3698 34.9087H70.7183L71.3698 34.0835H72.0646ZM72.0212 40.1639V40.9022H71.2829V40.1639H72.0212ZM77.0157 38.3832V35.2127H77.8843V39.7295H76.9289L75.0614 36.5156V39.7295H74.1927V35.2127H75.1916L77.0157 38.3832ZM81.5325 35.2127V38.9044H83.7909V39.7295H80.577V35.2127H81.5325ZM88.6551 34.9955C88.6551 35.343 88.438 35.647 88.0471 35.8207V38.1226C88.0471 39.2518 87.4391 39.8164 86.1796 39.8164C85.5281 39.8164 85.0504 39.6427 84.7464 39.2518C84.5292 38.9912 84.3989 38.6003 84.3989 38.166V35.1693H85.3544V38.1226C85.3544 38.4266 85.4413 38.6438 85.615 38.8175C85.7453 38.9478 85.9624 39.0346 86.1796 39.0346C86.7876 39.0346 87.0916 38.7306 87.0916 38.166V35.1693H88.0471V35.4298C88.1774 35.2996 88.2208 35.2127 88.2208 35.0824H87.9168V34.4309H88.6117V34.9955H88.6551ZM86.5705 40.2507V40.9891H85.8321V40.2507H86.5705ZM92.3467 35.647C92.6507 35.951 92.8245 36.2985 92.8245 36.6894H91.869C91.8256 36.4722 91.7387 36.2985 91.6518 36.2116C91.4781 36.0379 91.2175 35.9076 90.8701 35.9076C90.5661 35.9076 90.3489 35.9944 90.1318 36.2116C89.8712 36.4722 89.7409 36.9065 89.7409 37.4711C89.7409 37.9054 89.8278 38.2963 90.0015 38.5569C90.2186 38.8609 90.4792 39.0346 90.8701 39.0346C91.4347 39.0346 91.7387 38.7306 91.869 38.166H92.8245C92.7376 38.6872 92.5205 39.0781 92.173 39.3821C91.8256 39.6861 91.3913 39.8598 90.8267 39.8598C90.2186 39.8598 89.6975 39.6427 89.35 39.2518C88.9591 38.8175 88.7854 38.2529 88.7854 37.4711C88.7854 36.6893 89.0026 36.1247 89.3935 35.6904C89.7843 35.2995 90.2621 35.0824 90.8701 35.0824C91.4781 35.1258 91.9559 35.2996 92.3467 35.647ZM98.6442 35.647C98.9482 35.951 99.1219 36.2985 99.1219 36.6894H98.1664C98.123 36.4722 98.0361 36.2985 97.9493 36.2116C97.7756 36.0379 97.515 35.9076 97.1675 35.9076C96.8635 35.9076 96.6464 35.9944 96.4292 36.2116C96.1686 36.4722 96.0383 36.9065 96.0383 37.4711C96.0383 37.9054 96.1252 38.2963 96.2989 38.5569C96.5161 38.8609 96.7766 39.0346 97.1675 39.0346C97.7321 39.0346 98.0361 38.7306 98.1664 38.166H99.1219C99.035 38.6872 98.8179 39.0781 98.4704 39.3821C98.123 39.6861 97.6887 39.8598 97.1241 39.8598C96.5161 39.8598 95.9949 39.6427 95.6475 39.2518C95.2566 38.8175 95.0829 38.2529 95.0829 37.4711C95.0829 36.6893 95.3 36.1247 95.6909 35.6904C96.0818 35.2995 96.5595 35.0824 97.1675 35.0824C97.7756 35.1258 98.2967 35.2996 98.6442 35.647ZM100.816 38.8175L100.512 39.7295H99.5128L101.12 35.2127H102.205L103.812 39.7295H102.77L102.466 38.8175H100.816ZM101.424 34.8652L100.599 34.04H101.467L101.988 34.8652H101.424ZM101.641 36.255L101.076 38.0357H102.249L101.641 36.255ZM110.501 35.2127V39.7295H109.632V35.951L108.807 39.7295H107.851L107.026 35.951V39.7295H106.158V35.2127H107.547L108.373 38.7741L109.198 35.2127H110.501ZM112.368 38.8175L112.064 39.7295H111.065L112.672 35.2127H113.758L115.365 39.7295H114.323L114.019 38.8175H112.368ZM113.193 36.255L112.629 38.0357H113.801L113.193 36.255ZM119.578 35.2127V38.166C119.578 39.2952 118.97 39.8598 117.71 39.8598C117.059 39.8598 116.581 39.6861 116.277 39.2952C116.06 39.0346 115.93 38.6438 115.93 38.2095V35.2127H116.885V38.166C116.885 38.47 116.972 38.6872 117.146 38.8609C117.276 38.9912 117.493 39.0781 117.71 39.0781C118.318 39.0781 118.622 38.7741 118.622 38.2095V35.2127H119.578Z" fill="#000F9F"/>
</svg>
