<svg width="3268" height="895" viewBox="0 0 3268 895" fill="none" xmlns="http://www.w3.org/2000/svg">
<path fill-rule="evenodd" clip-rule="evenodd" d="M596.588 305.847L356.511 356.391L305.968 596.472L254.453 356.391L15.3477 305.847L254.453 254.332L305.968 15.2224L356.511 254.332L596.588 305.847Z" fill="#000F9F"/>
<path fill-rule="evenodd" clip-rule="evenodd" d="M305.966 479.84L271.947 339.874L131.011 305.854L271.947 271.834L305.966 130.896L339.985 271.834L479.949 305.854L339.985 339.874L305.966 479.84Z" fill="#ED1C24"/>
<path fill-rule="evenodd" clip-rule="evenodd" d="M305.968 0.644775C474.12 0.644775 611.168 137.696 611.168 305.85C611.168 474.004 474.12 611.055 305.968 611.055C137.816 611.055 0.767578 474.004 0.767578 305.85C0.767578 136.724 136.844 0.644775 305.968 0.644775ZM305.968 15.2246C145.592 15.2246 15.3472 145.471 15.3472 305.85C15.3472 466.228 145.592 596.475 305.968 596.475C466.344 596.475 596.588 466.228 596.588 305.85C596.588 144.499 466.344 15.2246 305.968 15.2246Z" fill="#000F9F"/>
<path fill-rule="evenodd" clip-rule="evenodd" d="M305.967 377.78L288.472 322.376L233.069 305.852L288.472 288.357L305.967 232.953L322.491 288.357L377.894 305.852L322.491 322.376L305.967 377.78Z" fill="#FFF200"/>
<path d="M903.732 407.911H734.608V204.765H899.844V252.393H800.703V281.553H884.292V329.18H800.703V361.256H903.732V407.911Z" fill="#000F9F"/>
<path d="M992.181 407.911L923.17 204.765H990.237L1026.2 339.872L1063.14 204.765H1130.2L1059.25 407.911H992.181Z" fill="#000F9F"/>
<path d="M1217.68 204.765L1290.58 315.572L1287.66 268.917V204.765H1351.81V407.911H1289.6L1216.71 297.104L1219.62 343.76V407.911H1155.47V204.765H1217.68Z" fill="#000F9F"/>
<path d="M1585.09 264.05H1521.91C1521.91 257.246 1519.96 253.358 1515.11 250.442C1511.22 247.526 1505.39 246.554 1498.58 246.554C1484 246.554 1477.2 250.442 1475.25 258.218C1474.28 265.994 1482.06 271.826 1499.55 276.686C1527.74 284.462 1544.26 290.294 1550.1 292.238C1568.56 300.986 1578.28 314.594 1578.28 333.062C1578.28 335.978 1578.28 339.866 1577.31 343.754C1573.42 366.109 1560.79 384.577 1541.35 396.241C1522.88 407.905 1498.58 413.737 1470.39 413.737C1446.09 413.737 1426.65 407.905 1412.08 396.241C1398.47 385.549 1391.66 370.969 1391.66 353.473C1391.66 350.557 1391.66 347.641 1392.64 345.697H1456.79C1456.79 352.501 1459.7 358.333 1464.56 361.249C1469.42 364.165 1476.23 366.109 1483.03 366.109C1501.5 366.109 1511.22 361.249 1513.16 351.529C1514.13 343.754 1506.36 337.922 1488.86 333.062C1461.65 325.286 1444.15 320.426 1438.32 317.51C1419.85 308.762 1411.1 294.182 1411.1 276.686C1411.1 272.798 1411.1 268.91 1412.08 265.022C1415.96 244.61 1426.65 228.087 1446.09 216.423C1463.59 205.731 1485.95 199.899 1512.19 199.899C1538.43 199.899 1558.84 205.731 1571.48 218.367C1580.23 230.031 1586.06 244.611 1585.09 264.05Z" fill="#ED1C24"/>
<path d="M1657.98 407.906H1590.92L1626.88 204.76H1725.05C1750.32 204.76 1769.76 209.62 1782.4 219.34C1795.03 228.088 1800.87 241.696 1800.87 259.192C1800.87 264.051 1800.87 267.939 1799.89 273.771C1791.15 321.399 1759.07 344.727 1702.7 344.727H1668.68L1657.98 407.906ZM1677.42 298.071H1704.64C1722.14 298.071 1732.83 290.295 1735.74 274.743C1735.74 273.771 1735.74 271.827 1735.74 270.855C1735.74 259.191 1725.05 253.36 1703.67 253.36H1685.2L1677.42 298.071Z" fill="#ED1C24"/>
<path d="M2009.84 282.523H1946.66C1947.63 271.831 1945.69 264.055 1939.86 258.224C1935 252.392 1926.25 249.476 1916.53 249.476C1891.26 249.476 1875.71 268.915 1868.9 308.767C1866.96 316.543 1866.96 323.347 1866.96 329.179C1866.96 352.507 1877.65 363.199 1900.01 363.199C1919.45 363.199 1933.05 351.535 1939.86 329.179H2004.01C1996.23 355.423 1982.63 375.835 1962.21 390.414C1941.8 404.994 1918.48 412.77 1892.23 412.77C1863.07 412.77 1840.72 404.994 1825.17 391.386C1809.61 376.806 1800.87 356.395 1800.87 331.123C1800.87 323.347 1801.84 314.599 1802.81 305.851C1808.64 273.775 1823.22 247.532 1845.58 228.092C1867.93 208.652 1893.2 198.932 1922.36 198.932C1951.52 198.932 1972.91 205.736 1987.49 218.372C2002.06 231.008 2009.84 249.476 2009.84 272.803C2010.81 276.691 2010.81 279.607 2009.84 282.523Z" fill="#ED1C24"/>
<path d="M783.208 631.459V715.05H761.824V631.459H730.721V613.964H813.339V631.459H783.208ZM840.554 709.219C827.918 700.471 821.115 684.919 821.115 664.507C821.115 644.095 827.918 629.515 840.554 619.795C849.302 613.963 859.022 611.048 869.713 611.048C881.377 611.048 891.097 613.963 898.873 619.795C911.508 628.543 918.312 644.095 918.312 664.507C918.312 684.919 911.508 699.499 898.873 709.219C890.125 715.05 880.405 717.966 869.713 717.966C859.022 717.966 849.302 715.05 840.554 709.219ZM852.218 636.319C846.386 642.151 842.498 651.871 842.498 664.507C842.498 677.143 845.414 686.863 852.218 692.695C857.078 697.555 862.91 699.499 870.685 699.499C877.489 699.499 884.293 697.555 889.153 692.695C894.985 686.863 898.873 677.143 898.873 664.507C898.873 651.871 895.957 642.151 889.153 636.319C884.293 631.459 878.461 629.515 870.685 629.515C862.91 628.543 857.078 631.459 852.218 636.319ZM877.489 587.72L892.069 606.188H877.489L869.713 595.496L861.938 606.188H847.358L861.938 587.72H877.489ZM902.76 586.748C900.816 588.692 899.845 590.636 899.845 593.552H889.153C889.153 588.692 891.097 584.804 895.957 581.888C897.901 579.944 899.845 578.972 899.845 578C899.845 575.084 898.872 574.112 896.929 574.112C894.013 574.112 893.041 575.084 892.069 578.972H882.349C882.349 574.112 883.321 571.196 887.209 569.252C889.153 567.308 892.069 566.336 895.957 566.336C898.873 566.336 901.789 567.308 904.704 568.28C908.592 570.224 910.536 573.14 910.536 578C909.564 579.944 907.62 583.832 902.76 586.748ZM998.014 683.947V612.991H1017.45V714.078H996.07L954.275 642.151V714.078H934.836V612.991H957.191L998.014 683.947ZM1085.49 677.143V659.647H1128.26V714.078H1113.68L1111.74 701.443C1107.85 706.303 1103.96 709.219 1101.04 711.162C1095.21 715.05 1088.41 716.994 1080.63 716.994C1068 716.994 1056.33 712.134 1048.56 703.387C1038.84 693.667 1033.98 680.059 1033.98 663.535C1033.98 648.955 1037.86 636.319 1045.64 626.599C1054.39 615.908 1067.02 610.075 1083.55 610.075C1097.16 610.075 1108.82 613.964 1116.59 621.739C1123.4 628.543 1127.29 635.347 1127.29 644.095H1105.9C1105.9 641.179 1103.96 638.263 1100.07 634.375C1095.21 629.515 1090.35 627.571 1083.55 627.571C1074.8 627.571 1068.97 630.487 1063.14 636.319C1057.3 643.123 1054.39 651.871 1054.39 664.507C1054.39 677.143 1057.3 686.863 1064.11 692.695C1068.97 697.555 1075.77 699.499 1084.52 699.499C1089.38 699.499 1093.27 698.527 1097.16 695.611C1102.99 691.723 1107.85 685.891 1108.82 677.143H1085.49ZM1261.42 623.683C1268.22 630.487 1272.11 638.263 1272.11 647.011H1250.73C1249.76 642.151 1247.81 638.263 1245.87 636.319C1241.98 632.431 1236.15 629.515 1228.37 629.515C1221.57 629.515 1216.71 631.459 1211.85 636.319C1206.02 642.151 1203.1 651.871 1203.1 664.507C1203.1 674.227 1205.04 682.975 1208.93 688.807C1213.79 695.611 1219.62 699.499 1228.37 699.499C1241.01 699.499 1247.81 692.695 1250.73 680.059H1272.11C1270.17 691.723 1265.31 700.471 1257.53 707.274C1249.76 714.078 1240.04 717.966 1227.4 717.966C1213.79 717.966 1202.13 713.106 1194.35 704.359C1185.61 694.639 1181.72 682.003 1181.72 664.507C1181.72 647.011 1186.58 634.375 1195.32 624.655C1204.07 615.907 1214.76 611.048 1228.37 611.048C1242.95 611.048 1253.64 614.936 1261.42 623.683ZM1303.21 709.219C1290.58 700.471 1283.77 684.919 1283.77 664.507C1283.77 644.095 1290.58 629.515 1303.21 619.795C1311.96 613.963 1321.68 611.048 1332.37 611.048C1344.04 611.048 1353.76 613.963 1361.53 619.795C1374.17 628.543 1380.97 644.095 1380.97 664.507C1380.97 684.919 1374.17 699.499 1361.53 709.219C1352.78 715.05 1343.06 717.966 1332.37 717.966C1321.68 717.966 1311.96 715.05 1303.21 709.219ZM1314.88 636.319C1309.05 642.151 1305.16 651.871 1305.16 664.507C1305.16 677.143 1308.07 686.863 1314.88 692.695C1319.74 697.555 1325.57 699.499 1333.35 699.499C1340.15 699.499 1346.95 697.555 1351.81 692.695C1357.64 686.863 1361.53 677.143 1361.53 664.507C1361.53 651.871 1358.62 642.151 1351.81 636.319C1346.95 631.459 1341.12 629.515 1333.35 629.515C1325.57 628.543 1319.74 631.459 1314.88 636.319ZM1340.15 587.72L1354.73 606.188H1340.15L1332.37 595.496L1324.6 606.188H1310.02L1324.6 587.72H1340.15ZM1460.67 683.947V612.991H1480.11V714.078H1458.73L1416.93 642.151V714.078H1397.5V612.991H1419.85L1460.67 683.947ZM1548.15 677.143V659.647H1590.92V714.078H1576.34L1574.39 701.443C1570.51 706.303 1566.62 709.219 1563.7 711.162C1557.87 715.05 1551.07 716.994 1543.29 716.994C1530.66 716.994 1518.99 712.134 1511.22 703.387C1501.5 693.667 1496.64 680.059 1496.64 663.535C1496.64 648.955 1500.52 636.319 1508.3 626.599C1517.05 615.908 1529.68 610.075 1546.21 610.075C1559.81 610.075 1571.48 613.964 1579.25 621.739C1586.06 628.543 1589.95 635.347 1589.95 644.095H1568.56C1568.56 641.179 1566.62 638.263 1562.73 634.375C1557.87 629.515 1553.01 627.571 1546.21 627.571C1537.46 627.571 1531.63 630.487 1525.8 636.319C1519.96 643.123 1517.05 651.871 1517.05 664.507C1517.05 677.143 1519.96 686.863 1526.77 692.695C1531.63 697.555 1538.43 699.499 1547.18 699.499C1552.04 699.499 1555.93 698.527 1559.81 695.611C1565.65 691.723 1570.51 685.891 1571.48 677.143H1548.15ZM1692 631.459V715.05H1670.62V631.459H1639.52V613.964H1722.13V631.459H1692ZM1783.37 677.143V715.05H1761.99V677.143L1726.99 613.964H1752.27L1773.65 657.703L1794.06 613.964H1818.36L1783.37 677.143ZM1868.9 668.395H1858.21V653.815H1868.9V613.964H1913.61C1929.17 613.964 1939.86 619.795 1946.66 630.487C1951.52 639.235 1954.44 648.955 1954.44 661.591C1954.44 675.199 1951.52 686.863 1945.69 696.583C1937.91 709.219 1927.22 715.05 1911.67 715.05H1867.93V668.395H1868.9ZM1890.29 652.843H1906.81V667.423H1890.29V696.583H1910.7C1918.47 696.583 1924.31 692.695 1928.19 685.891C1931.11 680.059 1933.05 672.283 1933.05 662.563C1933.05 641.179 1925.28 630.487 1909.73 630.487H1890.29V652.843ZM1990.4 613.964V715.05H1969.02V613.964H1990.4ZM2084.68 613.964V631.459H2031.22V652.843H2080.79V670.339H2031.22V696.583H2087.6V714.078H2010.81V612.991H2084.68V613.964ZM2054.55 587.72L2069.13 606.188H2054.55L2046.77 595.496L2039 606.188H2024.42L2039 587.72H2054.55ZM2054.55 723.798V740.322H2038.03V723.798H2054.55ZM2166.33 683.947V612.991H2185.77V714.078H2164.38L2122.59 642.151V714.078H2103.15V612.991H2125.5L2166.33 683.947ZM2266.44 613.964V696.583H2316.98V715.05H2245.06V613.964H2266.44ZM2426.82 609.104C2426.82 616.879 2421.96 623.683 2413.21 627.571V679.087C2413.21 704.359 2399.6 716.994 2371.41 716.994C2356.83 716.994 2346.14 713.106 2339.34 704.359C2334.48 698.527 2331.56 689.779 2331.56 680.059V612.991H2352.95V679.087C2352.95 685.891 2354.89 690.751 2358.78 694.639C2361.69 697.555 2366.55 699.499 2371.41 699.499C2385.02 699.499 2391.82 692.695 2391.82 680.059V612.991H2413.21V618.823C2416.12 615.907 2417.1 613.963 2417.1 611.048H2410.29V596.468H2425.84V609.104H2426.82ZM2379.19 725.742V742.266H2362.67V725.742H2379.19ZM2508.46 623.683C2515.27 630.487 2519.15 638.263 2519.15 647.011H2497.77C2496.8 642.151 2494.85 638.263 2492.91 636.319C2489.02 632.431 2483.19 629.515 2475.41 629.515C2468.61 629.515 2463.75 631.459 2458.89 636.319C2453.06 642.151 2450.14 651.871 2450.14 664.507C2450.14 674.227 2452.09 682.975 2455.97 688.807C2460.83 695.611 2466.67 699.499 2475.41 699.499C2488.05 699.499 2494.85 692.695 2497.77 680.059H2519.15C2517.21 691.723 2512.35 700.471 2504.57 707.274C2496.8 714.078 2487.08 717.966 2474.44 717.966C2460.83 717.966 2449.17 713.106 2441.4 704.359C2432.65 694.639 2428.76 682.003 2428.76 664.507C2428.76 647.011 2433.62 634.375 2442.37 624.655C2451.11 615.907 2461.81 611.048 2475.41 611.048C2489.02 611.048 2500.69 614.936 2508.46 623.683ZM2671.75 613.964V715.05H2652.31V630.487L2633.85 715.05H2613.43L2594.97 630.487V715.05H2575.53V613.964H2606.63L2625.1 693.667L2643.57 613.964H2671.75ZM2711.6 613.964V715.05H2690.22V613.964H2711.6ZM2805.89 613.964V631.459H2752.43V652.843H2802V670.339H2752.43V696.583H2808.8V714.078H2732.02V612.991H2805.89V613.964ZM2775.75 587.72L2790.33 606.188H2775.75L2767.98 595.496L2760.2 606.188H2745.62L2760.2 587.72H2775.75ZM2789.36 594.524L2770.89 576.056H2790.33L2802 594.524H2789.36ZM2887.53 683.947V612.991H2906.97V714.078H2885.59L2843.79 642.151V714.078H2824.35V612.991H2846.71L2887.53 683.947ZM3028.47 683.947V612.991H3047.91V714.078H3027.5L2985.7 642.151V714.078H2966.26V612.991H2988.62L3028.47 683.947ZM3089.7 693.667L3082.9 714.078H3060.54L3096.51 612.991H3120.8L3156.77 714.078H3134.41L3127.61 693.667H3089.7ZM3109.14 636.319L3096.51 676.171H3122.75L3109.14 636.319ZM3267.57 613.964V715.05H3248.13V630.487L3229.67 715.05H3209.25L3190.79 630.487V715.05H3171.35V613.964H3202.45L3220.92 693.667L3239.39 613.964H3267.57Z" fill="#000F9F"/>
<path d="M814.31 776.288C821.114 783.092 825.002 790.867 825.002 799.615H803.619C802.647 794.755 800.703 790.868 798.759 788.924C794.871 785.036 789.039 782.12 781.263 782.12C774.459 782.12 769.6 784.064 764.74 788.924C758.908 794.756 755.992 804.475 755.992 817.111C755.992 826.831 757.936 835.579 761.824 841.411C766.683 848.215 772.515 852.103 781.263 852.103C793.899 852.103 800.703 845.299 803.619 832.663H825.002C823.058 844.327 818.198 853.075 810.422 859.879C802.646 866.683 792.927 870.571 780.291 870.571C766.683 870.571 755.02 865.711 747.244 856.963C738.496 847.243 734.608 834.607 734.608 817.111C734.608 799.615 739.468 786.98 748.216 777.26C756.964 768.512 767.655 763.652 781.263 763.652C795.843 763.652 806.534 767.54 814.31 776.288ZM856.105 861.823C843.47 853.075 836.666 837.523 836.666 817.111C836.666 796.699 843.47 782.12 856.105 772.4C864.853 766.568 874.573 763.652 885.264 763.652C896.928 763.652 906.648 766.568 914.424 772.4C927.059 781.148 933.863 796.699 933.863 817.111C933.863 837.523 927.059 852.103 914.424 861.823C905.676 867.655 895.956 870.571 885.264 870.571C874.573 870.571 864.853 867.655 856.105 861.823ZM867.769 788.924C861.937 794.756 858.049 804.475 858.049 817.111C858.049 829.747 860.965 839.467 867.769 845.299C872.629 850.159 878.461 852.103 886.236 852.103C893.04 852.103 899.844 850.159 904.704 845.299C910.536 839.467 914.424 829.747 914.424 817.111C914.424 804.475 911.508 794.756 904.704 788.924C899.844 784.064 894.012 782.12 886.236 782.12C878.461 782.12 872.629 784.064 867.769 788.924ZM893.04 740.324L907.62 758.792H893.04L885.264 748.1L877.488 758.792H862.909L877.488 740.324H893.04ZM1013.56 836.551V766.568H1033V867.655H1011.62L969.826 795.727V867.655H950.387V766.568H972.742L1013.56 836.551ZM1101.04 829.747V812.251H1143.81V866.683H1129.23L1127.29 854.047C1123.4 858.907 1119.51 861.823 1116.59 863.767C1110.76 867.655 1103.96 869.599 1096.18 869.599C1083.55 869.599 1071.88 864.739 1064.11 855.991C1054.39 846.271 1049.53 832.663 1049.53 816.139C1049.53 801.559 1053.42 788.924 1061.19 779.204C1069.94 768.512 1082.57 762.68 1099.1 762.68C1112.71 762.68 1124.37 766.568 1132.15 774.344C1138.95 781.148 1142.84 787.952 1142.84 796.7H1121.45C1121.45 793.784 1119.51 790.868 1115.62 786.98C1110.76 782.12 1105.9 780.176 1099.1 780.176C1090.35 780.176 1084.52 783.092 1078.69 788.924C1072.86 795.728 1069.94 804.475 1069.94 817.111C1069.94 829.747 1072.86 839.467 1079.66 845.299C1084.52 850.159 1091.32 852.103 1100.07 852.103C1104.93 852.103 1108.82 851.131 1112.71 848.215C1118.54 844.327 1123.4 838.495 1124.37 829.747H1101.04ZM1245.87 784.064V867.655H1224.48V784.064H1193.38V766.568H1276V784.064H1245.87ZM1336.26 829.747V867.655H1314.88V829.747L1279.89 766.568H1305.16L1326.54 810.307L1346.95 766.568H1371.25L1336.26 829.747ZM1421.79 820.999H1411.1V806.419H1421.79V766.568H1466.51C1482.06 766.568 1492.75 772.4 1499.55 783.092C1504.41 791.839 1507.33 801.559 1507.33 814.195C1507.33 827.803 1504.41 839.467 1498.58 849.187C1490.8 861.823 1480.11 867.655 1464.56 867.655H1420.82V820.999H1421.79ZM1443.18 806.419H1459.7V820.999H1443.18V850.159H1463.59C1471.36 850.159 1477.2 846.271 1481.08 839.467C1484 833.635 1485.94 825.859 1485.94 816.139C1485.94 794.756 1478.17 784.064 1462.62 784.064H1443.18V806.419ZM1543.29 766.568V867.655H1521.91V766.568H1543.29ZM1637.57 766.568V784.064H1584.11V805.447H1633.68V822.943H1584.11V849.187H1640.49V866.683H1563.7V766.568H1637.57ZM1607.44 740.324L1622.02 758.792H1608.41L1600.64 748.1L1592.86 758.792H1578.28L1592.86 740.324H1607.44ZM1607.44 876.403V892.927H1590.92V876.403H1607.44ZM1719.22 836.551V766.568H1738.66V867.655H1717.27L1676.45 795.727V867.655H1657.01V766.568H1679.37L1719.22 836.551ZM1819.33 766.568V849.187H1869.87V867.655H1797.95V766.568H1819.33ZM1979.71 761.708C1979.71 769.484 1974.85 776.288 1966.1 780.176V831.691C1966.1 856.963 1952.49 869.599 1924.3 869.599C1909.73 869.599 1899.03 865.711 1892.23 856.963C1887.37 851.131 1884.45 842.383 1884.45 832.663V766.568H1905.84V832.663C1905.84 839.467 1907.78 844.327 1911.67 848.215C1914.59 851.131 1919.45 853.075 1924.3 853.075C1937.91 853.075 1944.72 846.271 1944.72 833.635V766.568H1966.1V772.4C1969.02 769.484 1969.99 767.54 1969.99 764.624H1963.18V750.044H1978.74V761.708H1979.71ZM1932.08 878.347V894.871H1915.56V878.347H1932.08ZM2061.35 776.288C2068.16 783.092 2072.05 790.867 2072.05 799.615H2050.66C2049.69 794.755 2047.75 790.868 2045.8 788.924C2041.91 785.036 2036.08 782.12 2028.31 782.12C2021.5 782.12 2016.64 784.064 2011.78 788.924C2005.95 794.756 2003.03 804.475 2003.03 817.111C2003.03 826.831 2004.98 835.579 2008.87 841.411C2013.73 848.215 2019.56 852.103 2028.31 852.103C2040.94 852.103 2047.75 845.299 2050.66 832.663H2072.05C2070.1 844.327 2065.24 853.075 2057.47 859.879C2049.69 866.683 2039.97 870.571 2027.33 870.571C2013.73 870.571 2002.06 865.711 1994.29 856.963C1985.54 847.243 1981.65 834.607 1981.65 817.111C1981.65 799.615 1986.51 786.98 1995.26 777.26C2004.01 768.512 2014.7 763.652 2028.31 763.652C2041.91 763.652 2053.58 767.54 2061.35 776.288ZM2148.83 766.568V849.187H2199.37V867.655H2127.45V766.568H2148.83ZM2228.53 861.823C2215.9 853.075 2209.09 837.523 2209.09 817.111C2209.09 796.699 2215.9 782.12 2228.53 772.4C2237.28 766.568 2247 763.652 2257.69 763.652C2269.36 763.652 2279.08 766.568 2286.85 772.4C2299.49 781.148 2306.29 796.699 2306.29 817.111C2306.29 837.523 2299.49 852.103 2286.85 861.823C2278.1 867.655 2268.38 870.571 2257.69 870.571C2247 870.571 2237.28 867.655 2228.53 861.823ZM2240.2 788.924C2234.36 794.756 2230.48 804.475 2230.48 817.111C2230.48 829.747 2233.39 839.467 2240.2 845.299C2245.06 850.159 2250.89 852.103 2258.66 852.103C2265.47 852.103 2272.27 850.159 2277.13 845.299C2282.96 839.467 2286.85 829.747 2286.85 817.111C2286.85 804.475 2283.94 794.756 2277.13 788.924C2272.27 784.064 2266.44 782.12 2258.66 782.12C2250.89 782.12 2245.06 784.064 2240.2 788.924ZM2385.99 836.551V766.568H2405.43V867.655H2384.05L2342.25 795.727V867.655H2322.81V766.568H2345.17L2385.99 836.551ZM2473.47 829.747V812.251H2516.24V866.683H2501.66L2499.71 854.047C2495.83 858.907 2491.94 861.823 2489.02 863.767C2483.19 867.655 2476.39 869.599 2468.61 869.599C2455.97 869.599 2444.31 864.739 2436.54 855.991C2426.82 846.271 2421.96 832.663 2421.96 816.139C2421.96 801.559 2425.84 788.924 2433.62 779.204C2442.37 768.512 2455 762.68 2471.53 762.68C2485.13 762.68 2496.8 766.568 2504.57 774.344C2511.38 781.148 2515.27 787.952 2515.27 796.7H2493.88C2493.88 793.784 2491.94 790.868 2488.05 786.98C2483.19 782.12 2478.33 780.176 2471.53 780.176C2462.78 780.176 2456.95 783.092 2451.12 788.924C2445.28 795.728 2442.37 804.475 2442.37 817.111C2442.37 829.747 2445.28 839.467 2452.09 845.299C2456.95 850.159 2463.75 852.103 2472.5 852.103C2477.36 852.103 2481.25 851.131 2485.13 848.215C2490.97 844.327 2495.83 838.495 2496.8 829.747H2473.47ZM2595.94 847.243L2589.14 867.655H2566.78L2602.74 766.568H2627.04L2663.01 867.655H2639.68L2632.87 847.243H2595.94ZM2614.41 788.924L2601.77 828.775H2628.01L2614.41 788.924ZM2738.82 836.551V766.568H2758.26V867.655H2736.88L2695.08 795.727V867.655H2675.64V766.568H2698L2738.82 836.551Z" fill="#000F9F"/>
</svg>
