<svg width="3166" height="792" viewBox="0 0 3166 792" fill="none" xmlns="http://www.w3.org/2000/svg">
<path fill-rule="evenodd" clip-rule="evenodd" d="M527.077 270.54L316.159 315.252L270.476 527.146L224.793 315.252L13.874 270.54L224.793 224.856L270.476 12.9624L316.159 224.856L527.077 270.54Z" fill="#000F9F"/>
<path fill-rule="evenodd" clip-rule="evenodd" d="M270.476 424.108L240.345 300.665L115.932 270.533L240.345 240.402L270.476 115.987L300.607 240.402L425.021 270.533L300.607 300.665L270.476 424.108Z" fill="#ED1C24"/>
<path fill-rule="evenodd" clip-rule="evenodd" d="M270.476 0.318359C419.188 0.318359 540.685 120.845 540.685 270.532C540.685 420.218 420.16 540.745 270.476 540.745C121.764 540.745 0.267578 420.218 0.267578 270.532C0.267578 120.845 121.764 0.318359 270.476 0.318359ZM270.476 12.9541C128.568 12.9541 13.8749 127.649 13.8749 269.56C13.8749 411.47 128.568 526.165 270.476 526.165C412.384 526.165 527.077 411.47 527.077 269.56C527.077 127.649 412.384 12.9541 270.476 12.9541Z" fill="#000F9F"/>
<path fill-rule="evenodd" clip-rule="evenodd" d="M270.478 334.675L255.898 285.104L206.328 270.524L255.898 254.972L270.478 206.373L286.029 254.972L334.627 270.524L286.029 285.104L270.478 334.675Z" fill="#FFF200"/>
<path d="M799.228 360.925H649.545V181.106H796.312V222.902H708.835V248.174H782.705V289.97H708.835V318.157H800.2V360.925H799.228Z" fill="#000F9F"/>
<path d="M876.988 360.925L815.753 181.106H875.044L906.147 300.662L939.194 181.106H998.485L936.278 360.925H876.988Z" fill="#000F9F"/>
<path d="M1076.24 182.078L1140.39 280.249L1138.45 239.426V182.078H1194.82V361.896H1139.42L1075.27 263.726L1077.21 304.549V360.924H1020.84V181.106H1076.24V182.078Z" fill="#000F9F"/>
<path d="M1400.88 233.588H1345.48C1345.48 227.756 1343.54 223.868 1339.65 220.952C1335.76 219.008 1330.9 218.036 1325.07 218.036C1312.43 218.036 1305.63 221.924 1304.66 228.728C1303.68 235.532 1310.49 240.392 1326.04 245.252C1351.31 252.056 1365.89 256.916 1370.75 258.86C1387.27 266.636 1395.05 279.272 1395.05 294.824C1395.05 297.74 1395.05 300.656 1394.08 304.544C1390.19 324.955 1379.5 340.507 1362 351.199C1345.48 360.919 1324.1 366.751 1298.82 366.751C1277.44 366.751 1260.92 361.891 1247.31 351.199C1234.67 341.479 1228.84 328.843 1228.84 314.263C1228.84 311.347 1228.84 309.403 1229.81 307.459H1286.19C1286.19 313.291 1289.1 318.152 1292.99 321.068C1297.85 323.984 1302.71 325.927 1309.52 325.927C1326.04 325.927 1334.79 321.067 1335.76 312.319C1336.73 305.515 1329.93 300.656 1314.38 295.796C1290.08 288.992 1275.5 284.132 1269.66 282.188C1253.14 274.412 1245.37 261.776 1245.37 246.224C1245.37 243.308 1245.37 239.42 1246.34 235.532C1249.25 217.064 1259.95 202.484 1276.47 192.764C1292.02 183.045 1311.46 178.185 1334.79 178.185C1358.11 178.185 1375.61 184.017 1387.27 194.709C1396.99 203.456 1401.85 217.064 1400.88 233.588Z" fill="#ED1C24"/>
<path d="M1465.03 360.925H1405.74L1437.82 181.106H1524.32C1546.68 181.106 1563.2 184.995 1574.87 193.743C1585.56 201.518 1591.39 213.182 1591.39 228.734C1591.39 232.622 1591.39 236.51 1590.42 241.37C1582.64 283.166 1554.45 304.549 1504.88 304.549H1474.75L1465.03 360.925ZM1482.53 263.726H1506.83C1522.38 263.726 1532.1 256.922 1534.04 242.342C1534.04 241.37 1534.04 240.398 1534.04 238.454C1534.04 227.762 1524.32 222.902 1505.85 222.902H1489.33L1482.53 263.726Z" fill="#ED1C24"/>
<path d="M1777.04 250.117H1721.64C1722.61 240.397 1720.66 233.593 1715.8 228.733C1710.94 223.873 1704.14 220.957 1694.42 220.957C1672.06 220.957 1658.46 238.453 1651.65 273.445C1650.68 280.249 1649.71 287.053 1649.71 291.913C1649.71 312.324 1659.43 322.044 1678.87 322.044C1696.36 322.044 1708.03 312.324 1713.86 291.913H1770.23C1763.43 315.24 1751.77 332.736 1733.3 346.344C1714.83 359.952 1694.42 365.784 1671.09 365.784C1645.82 365.784 1625.41 358.98 1611.8 346.344C1598.19 333.708 1590.42 315.24 1590.42 292.884C1590.42 286.08 1591.39 278.305 1592.36 270.529C1597.22 242.341 1609.86 219.013 1630.27 201.517C1649.71 184.994 1672.07 176.246 1698.31 176.246C1723.58 176.246 1743.02 182.078 1756.63 192.77C1770.23 204.433 1776.07 219.985 1776.07 241.369C1777.04 245.257 1777.04 247.201 1777.04 250.117Z" fill="#ED1C24"/>
<path d="M692.314 558.248V632.119H673.846V558.248H646.631V542.696H719.529V558.248H692.314ZM743.828 626.287C732.165 618.511 726.333 604.903 726.333 587.408C726.333 569.912 732.165 556.304 743.828 548.528C751.604 543.668 760.352 540.752 770.072 540.752C779.792 540.752 788.539 543.668 796.315 548.528C807.978 556.304 813.811 569.912 813.811 587.408C813.811 604.903 807.978 618.511 796.315 626.287C788.539 631.147 779.792 634.063 770.072 634.063C759.38 634.063 750.632 632.119 743.828 626.287ZM753.548 562.136C747.716 567.968 744.8 575.744 744.8 587.408C744.8 599.072 747.716 606.847 753.548 612.679C757.436 616.567 763.268 618.511 769.099 618.511C775.903 618.511 780.764 616.567 784.651 612.679C790.483 606.847 793.399 599.072 793.399 587.408C793.399 575.744 790.483 567.968 784.651 562.136C780.764 558.248 774.931 556.304 769.099 556.304C763.268 556.304 757.436 558.248 753.548 562.136ZM775.903 519.368L788.539 535.892H775.903L769.099 527.144L762.296 535.892H749.66L762.296 519.368H775.903ZM798.259 518.396C796.315 519.368 795.343 521.312 795.343 524.228H785.623C785.623 520.34 787.567 516.452 791.455 513.536C793.399 512.564 794.371 510.62 794.371 509.648C794.371 507.705 793.399 506.732 791.455 506.732C789.511 506.732 787.567 507.705 787.567 510.621H778.819C778.819 506.733 779.791 503.816 782.707 501.872C784.651 499.928 787.567 498.957 790.483 498.957C793.399 498.957 795.343 499.929 798.259 500.901C802.147 502.845 803.119 505.761 803.119 509.648C804.091 512.564 802.147 515.48 798.259 518.396ZM881.849 604.903V542.696H899.344V632.119H880.877L843.942 567.968V632.119H826.446V542.696H845.886L881.849 604.903ZM959.607 599.071V583.52H996.542V632.119H984.878L982.934 620.455C979.046 624.343 976.13 627.259 973.214 629.203C968.354 632.119 961.551 634.063 954.747 634.063C943.083 634.063 933.364 630.175 925.588 622.399C916.84 613.651 912.952 601.987 912.952 587.408C912.952 573.8 916.84 563.108 923.644 554.36C931.42 544.64 943.083 539.78 956.691 539.78C969.326 539.78 979.046 543.668 985.85 550.472C991.682 556.304 994.598 563.108 995.57 569.912H977.102C977.102 566.996 975.158 564.08 972.243 561.164C968.355 557.276 963.495 555.332 957.663 555.332C949.887 555.332 944.055 558.248 940.167 563.108C935.308 568.94 932.391 576.716 932.391 587.408C932.391 599.072 935.308 606.847 940.167 611.707C945.027 615.595 950.859 617.539 957.663 617.539C961.551 617.539 965.438 616.567 968.354 614.623C974.186 611.707 977.103 605.876 979.046 598.1H959.607V599.071ZM1115.12 551.444C1120.95 557.276 1123.87 564.08 1124.84 571.856H1106.37C1105.4 567.968 1103.46 564.08 1101.52 562.136C1097.63 558.248 1092.77 556.304 1085.96 556.304C1080.13 556.304 1075.27 558.248 1071.38 562.136C1066.52 567.968 1063.61 575.744 1063.61 587.408C1063.61 596.156 1065.55 602.959 1068.47 608.791C1072.36 614.623 1078.19 617.539 1085.96 617.539C1096.66 617.539 1103.46 611.707 1105.4 601.015H1123.87C1121.93 610.735 1118.04 619.483 1111.23 624.343C1104.43 630.175 1095.68 633.091 1084.99 633.091C1072.36 633.091 1062.64 629.203 1055.83 621.427C1048.06 612.679 1044.17 601.015 1044.17 586.436C1044.17 570.884 1048.06 559.22 1055.83 551.444C1063.61 543.668 1073.33 539.78 1084.99 539.78C1098.6 539.78 1108.32 543.668 1115.12 551.444ZM1152.06 626.287C1140.39 618.511 1134.56 604.903 1134.56 587.408C1134.56 569.912 1140.39 556.304 1152.06 548.528C1159.83 543.668 1168.58 540.752 1178.3 540.752C1188.02 540.752 1196.77 543.668 1204.54 548.528C1216.21 556.304 1222.04 569.912 1222.04 587.408C1222.04 604.903 1216.21 618.511 1204.54 626.287C1196.77 631.147 1188.02 634.063 1178.3 634.063C1168.58 634.063 1159.83 632.119 1152.06 626.287ZM1161.78 562.136C1155.95 567.968 1153.03 575.744 1153.03 587.408C1153.03 599.072 1155.95 606.847 1161.78 612.679C1165.67 616.567 1171.5 618.511 1177.33 618.511C1184.13 618.511 1188.99 616.567 1192.88 612.679C1198.71 606.847 1201.63 599.072 1201.63 587.408C1201.63 575.744 1198.71 567.968 1192.88 562.136C1188.99 558.248 1183.16 556.304 1177.33 556.304C1171.5 556.304 1166.64 558.248 1161.78 562.136ZM1185.1 519.368L1197.74 535.892H1185.1L1178.3 527.144L1171.5 535.892H1158.86L1171.5 519.368H1185.1ZM1291.05 604.903V542.696H1308.55V632.119H1290.08L1253.14 567.968V632.119H1235.65V542.696H1255.09L1291.05 604.903ZM1368.81 599.071V583.52H1405.74V632.119H1393.11L1391.16 620.455C1387.28 624.343 1384.36 627.259 1381.44 629.203C1376.58 632.119 1369.78 634.063 1362.98 634.063C1351.31 634.063 1341.59 630.175 1333.82 622.399C1325.07 613.651 1321.18 601.987 1321.18 587.408C1321.18 573.8 1325.07 563.108 1331.87 554.36C1339.65 544.64 1351.31 539.78 1364.92 539.78C1377.56 539.78 1387.28 543.668 1394.08 550.472C1399.91 556.304 1402.83 563.108 1403.8 569.912H1385.33C1385.33 566.996 1383.39 564.08 1380.47 561.164C1376.58 557.276 1371.72 555.332 1365.89 555.332C1358.12 555.332 1352.28 558.248 1348.4 563.108C1343.54 568.94 1340.62 576.716 1340.62 587.408C1340.62 599.072 1343.54 606.847 1348.4 611.707C1353.26 615.595 1359.09 617.539 1365.89 617.539C1369.78 617.539 1373.67 616.567 1376.58 614.623C1382.42 611.707 1385.33 605.876 1387.28 598.1H1368.81V599.071ZM1496.14 558.248V632.119H1477.67V558.248H1450.45V542.696H1523.35V558.248H1496.14ZM1575.84 598.1V631.147H1557.37V597.128L1526.27 541.724H1548.62L1567.09 580.604L1584.59 541.724H1605.97L1575.84 598.1ZM1652.63 590.323H1642.91V576.716H1652.63V541.724H1692.48C1706.08 541.724 1715.8 546.584 1721.64 556.304C1726.49 564.08 1728.44 572.828 1728.44 583.52C1728.44 595.184 1725.52 605.875 1720.66 614.623C1713.86 625.315 1704.14 631.147 1690.53 631.147H1651.65V590.323H1652.63ZM1670.12 577.688H1684.7V591.296H1670.12V617.539H1688.59C1695.39 617.539 1701.22 614.623 1704.14 607.819C1707.06 602.96 1709 595.184 1709 587.408C1709 567.968 1702.2 559.22 1688.59 559.22H1671.09V577.688H1670.12ZM1759.54 542.696V632.119H1741.07V542.696H1759.54ZM1842.16 542.696V558.248H1794.53V576.716H1838.27V592.268H1794.53V615.595H1844.1V631.147H1776.07V541.724H1842.16V542.696ZM1815.92 519.368L1828.55 535.892H1815.92L1809.11 527.144L1802.31 535.892H1789.67L1802.31 519.368H1815.92ZM1815.92 639.895V654.475H1801.34V639.895H1815.92ZM1915.06 604.903V542.696H1932.55V632.119H1914.09L1877.15 567.968V632.119H1859.66V542.696H1879.1L1915.06 604.903ZM2003.51 542.696V615.595H2048.22V632.119H1985.04V542.696H2003.51ZM2144.44 537.836C2144.44 544.64 2140.56 550.472 2132.78 554.36V600.043C2132.78 622.399 2120.15 634.063 2095.85 634.063C2083.21 634.063 2073.49 630.175 2067.66 623.371C2062.8 618.511 2060.85 610.735 2060.85 601.987V542.696H2080.29V601.015C2080.29 606.847 2082.24 611.707 2085.15 614.623C2088.07 617.539 2091.96 618.511 2096.82 618.511C2108.48 618.511 2115.29 612.679 2115.29 601.015V541.724H2134.73V546.584C2136.67 544.64 2138.61 542.696 2138.61 539.78H2132.78V528.116H2146.39V537.836H2144.44ZM2102.65 641.839V656.419H2088.07V641.839H2102.65ZM2217.34 551.444C2223.17 557.276 2226.09 564.08 2227.06 571.856H2208.59C2207.62 567.968 2205.68 564.08 2203.74 562.136C2199.85 558.248 2194.99 556.304 2188.18 556.304C2182.35 556.304 2177.49 558.248 2173.6 562.136C2168.74 567.968 2165.83 575.744 2165.83 587.408C2165.83 596.156 2167.77 602.959 2170.69 608.791C2174.58 614.623 2180.41 617.539 2188.18 617.539C2198.88 617.539 2205.68 611.707 2207.62 601.015H2226.09C2224.15 610.735 2220.26 619.483 2213.45 624.343C2206.65 630.175 2197.9 633.091 2187.21 633.091C2174.58 633.091 2164.86 629.203 2158.05 621.427C2150.28 612.679 2146.39 601.015 2146.39 586.436C2146.39 570.884 2150.28 559.22 2158.05 551.444C2165.83 543.668 2175.55 539.78 2187.21 539.78C2199.85 539.78 2209.57 543.668 2217.34 551.444ZM2361.19 542.696V632.119H2343.7V557.276L2327.18 632.119H2308.71L2292.18 557.276V632.119H2274.69V542.696H2301.9L2318.43 613.651L2333.98 542.696H2361.19ZM2397.16 542.696V632.119H2378.69V542.696H2397.16ZM2479.78 542.696V558.248H2432.15V576.716H2475.89V592.268H2432.15V615.595H2481.72V631.147H2413.68V541.724H2479.78V542.696ZM2453.53 519.368L2466.17 535.892H2453.53L2446.73 527.144L2439.92 535.892H2427.29L2439.92 519.368H2453.53ZM2465.2 525.2L2448.67 508.676H2466.17L2476.86 525.2H2465.2ZM2551.7 604.903V542.696H2569.2V632.119H2550.73L2513.8 567.968V632.119H2496.3V542.696H2515.74L2551.7 604.903ZM2677.09 604.903V542.696H2694.58V632.119H2676.11L2639.18 567.968V632.119H2621.68V542.696H2641.12L2677.09 604.903ZM2731.52 613.651L2725.69 632.119H2706.25L2738.32 542.696H2759.7L2790.81 632.119H2770.4L2764.56 613.651H2731.52ZM2748.04 563.108L2736.38 598.1H2758.73L2748.04 563.108ZM2888.01 542.696V632.119H2870.51V557.276L2853.99 632.119H2835.52L2818.99 557.276V632.119H2801.5V542.696H2828.71L2845.24 613.651L2860.79 542.696H2888.01Z" fill="#000F9F"/>
<path d="M720.499 685.569C726.331 691.401 729.247 698.204 730.219 705.98H711.752C710.78 702.092 708.836 698.204 706.892 696.26C703.004 692.372 698.144 690.429 691.34 690.429C685.508 690.429 680.648 692.372 676.76 696.26C671.9 702.092 668.984 709.868 668.984 721.532C668.984 730.28 670.928 737.084 673.844 742.916C677.732 748.748 683.564 751.664 691.34 751.664C702.031 751.664 708.835 745.832 710.779 735.14H729.247C727.303 744.86 723.415 753.608 716.611 758.468C709.808 764.3 701.06 767.216 690.368 767.216C677.732 767.216 668.013 763.327 661.209 755.552C653.433 746.804 649.545 735.14 649.545 720.56C649.545 705.008 653.433 693.345 661.209 685.569C668.985 677.793 678.704 673.905 690.368 673.905C703.004 674.877 712.723 678.765 720.499 685.569ZM757.434 761.384C745.77 753.608 739.938 740 739.938 722.504C739.938 705.008 745.77 691.401 757.434 683.625C765.21 678.765 773.957 675.849 783.677 675.849C793.397 675.849 802.145 678.765 809.921 683.625C821.584 691.401 827.416 705.008 827.416 722.504C827.416 740 821.584 753.608 809.921 761.384C802.145 766.243 793.397 769.159 783.677 769.159C772.986 769.159 764.238 767.215 757.434 761.384ZM767.154 697.232C761.322 703.064 758.406 710.84 758.406 722.504C758.406 734.168 761.322 741.944 767.154 747.776C771.041 751.664 776.874 753.608 782.706 753.608C789.509 753.608 794.369 751.664 798.257 747.776C804.089 741.944 807.005 734.168 807.005 722.504C807.005 710.84 804.089 703.064 798.257 697.232C794.369 693.345 788.537 691.401 782.706 691.401C776.874 691.401 771.041 693.345 767.154 697.232ZM789.509 654.465L802.145 670.989H790.481L783.677 662.241L776.873 670.989H764.238L776.873 654.465H789.509ZM895.454 740V677.793H912.95V767.216H894.483L857.548 703.064V767.216H840.052V677.793H859.491L895.454 740ZM973.212 734.168V718.616H1010.15V767.216H997.512L995.568 755.552C991.68 759.44 988.764 762.355 985.848 764.299C980.988 767.215 974.184 769.159 967.381 769.159C955.717 769.159 945.997 765.272 938.221 757.496C929.474 748.748 925.586 737.084 925.586 722.504C925.586 708.896 929.473 698.205 936.277 689.457C944.053 679.737 955.717 674.877 969.325 674.877C981.96 674.877 991.68 678.765 998.484 685.569C1004.32 691.401 1007.23 698.205 1008.2 705.009H989.736C989.736 702.093 987.792 699.176 984.876 696.26C980.988 692.372 976.128 690.429 970.296 690.429C962.521 690.429 956.689 693.345 952.801 698.205C947.941 704.036 945.025 711.812 945.025 722.504C945.025 734.168 947.941 741.944 952.801 746.804C957.661 750.692 963.493 752.636 970.296 752.636C974.184 752.636 978.072 751.664 980.988 749.72C986.82 746.804 989.736 740.972 991.68 733.196H973.212V734.168ZM1100.54 693.345V767.216H1082.07V693.345H1054.86V677.793H1127.76V693.345H1100.54ZM1181.21 733.196V766.243H1162.75V732.224L1131.64 676.821H1154L1172.47 715.7L1189.96 676.821H1211.35L1181.21 733.196ZM1294.94 693.345V767.216H1276.47V693.345H1249.25V677.793H1322.15V693.345H1294.94ZM1388.25 740V677.793H1405.74V767.216H1387.27L1350.34 703.064V767.216H1332.84V677.793H1352.28L1388.25 740ZM1476.69 727.364H1441.7V767.216H1422.26V677.793H1440.73V711.812H1475.72V677.793H1494.19V767.216H1475.72V727.364H1476.69ZM1566.12 727.364H1531.13V767.216H1512.66V677.793H1531.13V711.812H1566.12V677.793H1584.58V767.216H1566.12V727.364ZM1723.58 677.793V767.216H1706.08V692.373L1689.56 767.216H1671.09L1654.57 692.373V767.216H1637.07V677.793H1664.29L1680.81 748.748L1696.36 677.793H1723.58ZM1779.95 693.345V767.216H1761.48V693.345H1734.27V677.793H1807.17V693.345H1779.95ZM1850.9 745.832L1870.34 677.793H1889.78L1859.65 767.216H1842.16L1812.03 677.793H1832.44L1850.9 745.832ZM1936.44 725.42H1926.72V712.784H1936.44V677.793H1976.29C1989.9 677.793 1999.62 682.653 2005.45 692.373C2010.31 700.148 2012.25 708.896 2012.25 719.588C2012.25 731.252 2009.34 741.944 2004.48 750.692C1997.67 761.383 1987.95 767.216 1974.35 767.216H1935.47V725.42H1936.44ZM1954.91 712.784H1969.49V726.392H1954.91V752.636H1973.37C1980.18 752.636 1986.01 749.72 1988.93 742.916C1991.84 738.056 1993.79 730.28 1993.79 722.504C1993.79 703.064 1986.98 694.317 1973.37 694.317H1955.88V712.784H1954.91ZM2043.36 677.793V767.216H2024.89V677.793H2043.36ZM2126.95 677.793V693.345H2079.32V711.812H2123.06V727.364H2079.32V750.692H2128.89V766.243H2060.85V676.821H2126.95V677.793ZM2100.7 654.465L2113.34 670.989H2100.7L2093.9 662.241L2087.09 670.989H2074.46L2087.09 654.465H2100.7ZM2099.73 774.991V789.571H2085.15V774.991H2099.73ZM2198.87 740V677.793H2216.37V767.216H2197.9L2160.96 703.064V767.216H2143.47V677.793H2162.91L2198.87 740ZM2287.32 677.793V750.692H2332.03V767.216H2268.85V677.793H2287.32ZM2428.26 672.933C2428.26 679.737 2424.37 685.569 2416.59 689.457V735.14C2416.59 757.495 2403.96 769.159 2379.66 769.159C2367.02 769.159 2357.3 765.272 2351.47 758.468C2346.61 753.608 2344.67 745.832 2344.67 737.084V677.793H2364.11V736.112C2364.11 741.944 2366.05 746.804 2368.97 749.72C2371.88 752.636 2375.77 753.608 2380.63 753.608C2392.29 753.608 2399.1 747.776 2399.1 736.112V676.821H2418.54V681.681C2420.48 679.737 2422.43 677.793 2422.43 674.877H2416.59V662.241H2430.2V672.933H2428.26ZM2387.44 776.935V791.515H2372.86V776.935H2387.44ZM2501.16 685.569C2506.99 691.401 2509.9 698.204 2510.88 705.98H2492.41C2491.44 702.092 2489.49 698.204 2487.55 696.26C2483.66 692.372 2478.8 690.429 2472 690.429C2466.16 690.429 2461.3 692.372 2457.42 696.26C2452.56 702.092 2449.64 709.868 2449.64 721.532C2449.64 730.28 2451.58 737.084 2454.5 742.916C2458.39 748.748 2464.22 751.664 2472 751.664C2482.69 751.664 2489.49 745.832 2491.44 735.14H2509.9C2507.96 744.86 2504.07 753.608 2497.27 758.468C2490.46 764.3 2481.72 767.216 2471.02 767.216C2458.39 767.216 2448.67 763.327 2441.87 755.552C2434.09 746.804 2430.2 735.14 2430.2 720.56C2430.2 705.008 2434.09 693.345 2441.87 685.569C2449.64 677.793 2459.36 673.905 2471.02 673.905C2484.63 674.877 2494.35 678.765 2501.16 685.569ZM2559.47 725.42H2549.75V712.784H2559.47V677.793H2599.32C2612.93 677.793 2622.65 682.653 2628.48 692.373C2633.34 700.148 2635.29 708.896 2635.29 719.588C2635.29 731.252 2632.37 741.944 2627.51 750.692C2620.71 761.383 2610.99 767.216 2597.38 767.216H2558.5V725.42H2559.47ZM2577.94 712.784H2592.52V726.392H2577.94V752.636H2596.41C2603.21 752.636 2609.05 749.72 2611.96 742.916C2614.88 738.056 2616.82 730.28 2616.82 722.504C2616.82 703.064 2610.02 694.317 2596.41 694.317H2578.91V712.784H2577.94ZM2662.5 761.384C2650.84 753.608 2645.01 740 2645.01 722.504C2645.01 705.008 2650.84 691.401 2662.5 683.625C2670.28 678.765 2679.03 675.849 2688.75 675.849C2698.47 675.849 2707.21 678.765 2714.99 683.625C2726.65 691.401 2732.49 705.008 2732.49 722.504C2732.49 740 2726.65 753.608 2714.99 761.384C2707.21 766.243 2698.47 769.159 2688.75 769.159C2679.03 769.159 2670.28 767.215 2662.5 761.384ZM2673.19 697.232C2667.36 703.064 2664.45 710.84 2664.45 722.504C2664.45 734.168 2667.36 741.944 2673.19 747.776C2677.08 751.664 2682.92 753.608 2688.75 753.608C2695.55 753.608 2700.41 751.664 2704.3 747.776C2710.13 741.944 2713.05 734.168 2713.05 722.504C2713.05 710.84 2710.13 703.064 2704.3 697.232C2700.41 693.345 2694.58 691.401 2688.75 691.401C2682.92 691.401 2677.08 693.345 2673.19 697.232ZM2695.55 654.465L2708.19 670.989H2695.55L2688.75 662.241L2681.94 670.989H2669.31L2681.94 654.465H2695.55ZM2706.24 659.325L2689.72 642.801H2707.21L2717.91 659.325H2706.24ZM2801.5 740V677.793H2818.99V767.216H2800.52L2763.59 703.064V767.216H2746.09V677.793H2765.53L2801.5 740ZM2879.25 734.168V718.616H2916.19V767.216H2903.55L2901.61 755.552C2897.72 759.44 2894.8 762.355 2891.89 764.299C2887.03 767.215 2880.23 769.159 2873.42 769.159C2861.76 769.159 2852.04 765.272 2844.26 757.496C2835.52 748.748 2831.63 737.084 2831.63 722.504C2831.63 708.896 2835.51 698.205 2842.32 689.457C2850.09 679.737 2861.76 674.877 2875.37 674.877C2888 674.877 2897.72 678.765 2904.52 685.569C2910.36 691.401 2913.27 698.205 2914.24 705.009H2895.78C2895.78 702.093 2893.83 699.176 2890.92 696.26C2887.03 692.372 2882.17 690.429 2876.34 690.429C2868.56 690.429 2862.73 693.345 2858.84 698.205C2853.98 704.036 2851.07 711.812 2851.07 722.504C2851.07 734.168 2853.98 741.944 2858.84 746.804C2863.7 750.692 2869.53 752.636 2876.34 752.636C2880.23 752.636 2884.11 751.664 2887.03 749.72C2892.86 746.804 2895.78 740.972 2897.72 733.196H2879.25V734.168ZM3023.11 740V677.793H3040.6V767.216H3022.13L2985.2 703.064V767.216H2967.7V677.793H2987.14L3023.11 740ZM3077.54 748.748L3071.7 767.216H3052.26L3084.34 677.793H3105.72L3136.83 767.216H3116.42L3110.58 748.748H3077.54ZM3094.06 698.205L3082.4 733.196H3104.75L3094.06 698.205ZM3165.99 677.793V767.216H3147.52V677.793H3165.99Z" fill="#000F9F"/>
</svg>
