<svg width="147" height="41" viewBox="0 0 147 41" fill="none" xmlns="http://www.w3.org/2000/svg">
<path fill-rule="evenodd" clip-rule="evenodd" d="M27.3996 14.6417L16.7041 16.9025L14.3997 27.6417L12.1389 16.9025L1.3999 14.6417L12.1389 12.3373L14.3997 1.6416L16.7041 12.3373L27.3996 14.6417Z" fill="#000F9F"/>
<path fill-rule="evenodd" clip-rule="evenodd" d="M14.3997 22.4242L12.878 16.1633L6.61719 14.6415L12.878 13.1198L14.3997 6.81543L15.9214 13.1198L22.2257 14.6415L15.9214 16.1633L14.3997 22.4242Z" fill="#ED1C24"/>
<path fill-rule="evenodd" clip-rule="evenodd" d="M14.3996 0.989258C21.9212 0.989258 28.0516 7.11974 28.0516 14.6415C28.0516 22.1633 21.9212 28.2938 14.3996 28.2938C6.87792 28.2938 0.747559 22.1633 0.747559 14.6415C0.747559 7.07626 6.87792 0.989258 14.3996 0.989258ZM14.3996 1.64144C7.22574 1.64144 1.39972 7.46756 1.39972 14.6415C1.39972 21.8155 7.22574 27.6416 14.3996 27.6416C21.5734 27.6416 27.3994 21.8155 27.3994 14.6415C27.3994 7.46756 21.5734 1.64144 14.3996 1.64144Z" fill="#000F9F"/>
<path fill-rule="evenodd" clip-rule="evenodd" d="M14.3995 17.8592L13.6604 15.3809L11.1821 14.6417L13.6604 13.8591L14.3995 11.3809L15.1821 13.8591L17.6603 14.6417L15.1821 15.3809L14.3995 17.8592Z" fill="#FFF200"/>
<path d="M41.1818 19.2501H33.5732V10.1631H40.9645V12.2935H36.5732V13.5979H40.3123V15.7283H36.5732V17.1631H41.1818V19.2501Z" fill="#000F9F"/>
<path d="M45.1382 19.2501L42.0513 10.1631H45.0512L46.6599 16.2066L48.3121 10.1631H51.312L48.1382 19.2501H45.1382Z" fill="#000F9F"/>
<path d="M55.2254 10.1631L58.4863 15.1196L58.3558 13.0327V10.1631H61.2254V19.2501H58.4428L55.182 14.2935L55.3124 16.3805V19.2501H52.4429V10.1631H55.2254Z" fill="#000F9F"/>
<path d="M71.6599 12.7719H68.8338C68.8338 12.4676 68.7469 12.2937 68.5295 12.1632C68.3556 12.0328 68.0947 11.9893 67.7904 11.9893C67.1382 11.9893 66.8339 12.1632 66.7469 12.5111C66.7034 12.8589 67.0512 13.1198 67.8338 13.3372C69.0947 13.685 69.8338 13.9458 70.0947 14.0328C70.9208 14.4241 71.3555 15.0328 71.3555 15.8589C71.3555 15.9893 71.3555 16.1633 71.3121 16.3372C71.1382 17.3372 70.5729 18.1633 69.7034 18.685C68.8773 19.2067 67.7904 19.4676 66.5295 19.4676C65.4426 19.4676 64.573 19.2067 63.9208 18.685C63.3122 18.2067 63.0078 17.5546 63.0078 16.772C63.0078 16.6415 63.0078 16.5111 63.0513 16.4241H65.9208C65.9208 16.7285 66.0513 16.9893 66.2686 17.1198C66.486 17.2502 66.7904 17.3372 67.0947 17.3372C67.9208 17.3372 68.3556 17.1198 68.4425 16.685C68.486 16.3372 68.1382 16.0763 67.3556 15.8589C66.1382 15.5111 65.3556 15.2937 65.0947 15.1632C64.2687 14.7719 63.8774 14.1198 63.8774 13.3372C63.8774 13.1632 63.8774 12.9893 63.9208 12.8154C64.0948 11.9024 64.573 11.1632 65.4426 10.6415C66.2252 10.1632 67.2252 9.90234 68.3991 9.90234C69.573 9.90234 70.486 10.1632 71.0512 10.7284C71.4425 11.2502 71.7034 11.9024 71.6599 12.7719Z" fill="#ED1C24"/>
<path d="M74.8769 19.2501H71.877L73.4856 10.1631H77.8769C79.0073 10.1631 79.8769 10.3805 80.4421 10.8153C81.0073 11.2066 81.2681 11.8153 81.2681 12.5979C81.2681 12.8153 81.2681 12.9892 81.2247 13.2501C80.8334 15.3805 79.3986 16.424 76.8769 16.424H75.3552L74.8769 19.2501ZM75.7465 14.2935H76.9639C77.7464 14.2935 78.2247 13.9457 78.3551 13.2501C78.3551 13.2066 78.3551 13.1196 78.3551 13.0761C78.3551 12.5544 77.8769 12.2935 76.9204 12.2935H76.0943L75.7465 14.2935Z" fill="#ED1C24"/>
<path d="M90.6597 13.5985H87.8337C87.8771 13.1202 87.7902 12.7724 87.5293 12.5116C87.3119 12.2507 86.9206 12.1202 86.4859 12.1202C85.3554 12.1202 84.6598 12.9898 84.3555 14.7724C84.2685 15.1203 84.2685 15.4246 84.2685 15.6855C84.2685 16.729 84.7468 17.2072 85.7467 17.2072C86.6163 17.2072 87.225 16.6855 87.5293 15.6855H90.3989C90.051 16.8594 89.4423 17.7724 88.5293 18.4246C87.6163 19.0768 86.5728 19.4246 85.3989 19.4246C84.0946 19.4246 83.0946 19.0768 82.399 18.4681C81.7033 17.8159 81.312 16.9029 81.312 15.7724C81.312 15.4246 81.3555 15.0333 81.399 14.642C81.6598 13.2072 82.312 12.0333 83.312 11.1637C84.312 10.2942 85.4424 9.85938 86.7467 9.85938C88.0511 9.85938 89.0076 10.1637 89.6597 10.7289C90.3119 11.2942 90.6597 12.1202 90.6597 13.1637C90.6597 13.3376 90.6597 13.4681 90.6597 13.5985Z" fill="#ED1C24"/>
<path d="M35.7472 29.207V32.9462H34.7907V29.207H33.3994V28.4244H37.095V29.207H35.7472ZM38.3559 32.6853C37.7907 32.294 37.4863 31.5983 37.4863 30.6853C37.4863 29.7722 37.7907 29.1201 38.3559 28.6853C38.7472 28.4244 39.182 28.294 39.6602 28.294C40.1819 28.294 40.6167 28.4244 40.9645 28.6853C41.5298 29.0766 41.8341 29.7722 41.8341 30.6853C41.8341 31.5983 41.5298 32.2505 40.9645 32.6853C40.5732 32.9462 40.1385 33.0766 39.6602 33.0766C39.1385 33.0766 38.7037 32.9462 38.3559 32.6853ZM38.8341 29.4244C38.5733 29.6853 38.3994 30.1201 38.3994 30.6853C38.3994 31.2505 38.5298 31.6853 38.8341 31.9462C39.0515 32.1636 39.3124 32.2505 39.6602 32.2505C39.9646 32.2505 40.2689 32.1636 40.4863 31.9462C40.7472 31.6853 40.9211 31.2505 40.9211 30.6853C40.9211 30.1201 40.7906 29.6853 40.4863 29.4244C40.2689 29.207 40.008 29.1201 39.6602 29.1201C39.3559 29.0766 39.0515 29.207 38.8341 29.4244ZM40.008 27.2505L40.6602 28.0766H40.008L39.6602 27.5983L39.3124 28.0766H38.6602L39.3124 27.2505H40.008ZM41.1385 27.207C41.0515 27.294 41.008 27.3809 41.008 27.5113H40.5298C40.5298 27.2939 40.6167 27.12 40.8341 26.9896C40.9211 26.9026 41.008 26.8592 41.008 26.8157C41.008 26.6853 40.9645 26.6418 40.8776 26.6418C40.7472 26.6418 40.7037 26.6852 40.6602 26.8592H40.2254C40.2254 26.6418 40.2689 26.5113 40.4428 26.4244C40.5298 26.3374 40.6602 26.2939 40.8341 26.2939C40.9645 26.2939 41.095 26.3374 41.2254 26.3809C41.3993 26.4679 41.4863 26.5983 41.4863 26.8157C41.4428 26.9027 41.3558 27.0766 41.1385 27.207ZM45.3558 31.5549V28.3809H46.2254V32.9027H45.2688L43.3993 29.6853V32.9027H42.5297V28.3809H43.5297L45.3558 31.5549ZM49.2688 31.2505V30.4679H51.1818V32.9027H50.5296L50.4427 32.3375C50.2688 32.5549 50.0949 32.6853 49.9644 32.7722C49.7036 32.9462 49.3992 33.0331 49.0514 33.0331C48.4862 33.0331 47.9645 32.8157 47.6166 32.4244C47.1819 31.9896 46.9645 31.3809 46.9645 30.6418C46.9645 29.9896 47.1384 29.4244 47.4862 28.9896C47.8775 28.5114 48.4427 28.2505 49.1818 28.2505C49.7905 28.2505 50.3123 28.4244 50.6601 28.7722C50.9644 29.0766 51.1383 29.3809 51.1383 29.7722H50.2253C50.2253 29.6418 50.1383 29.5114 49.9644 29.3374C49.747 29.1201 49.5297 29.0331 49.2253 29.0331C48.834 29.0331 48.5731 29.1635 48.3123 29.4244C48.0514 29.7288 47.921 30.1201 47.921 30.6853C47.921 31.2505 48.0514 31.6853 48.3558 31.9462C48.5731 32.1636 48.8775 32.2505 49.2688 32.2505C49.4862 32.2505 49.6601 32.207 49.834 32.0766C50.0949 31.9027 50.3123 31.6418 50.3557 31.2505H49.2688ZM57.1817 28.8592C57.4861 29.1635 57.66 29.5114 57.66 29.9027H56.7035C56.66 29.6853 56.5731 29.5114 56.4861 29.4244C56.3122 29.2505 56.0513 29.1201 55.7035 29.1201C55.3992 29.1201 55.1818 29.207 54.9644 29.4244C54.7035 29.6853 54.5731 30.1201 54.5731 30.6853C54.5731 31.1201 54.66 31.5114 54.8339 31.7722C55.0513 32.0766 55.3122 32.2505 55.7035 32.2505C56.2687 32.2505 56.5731 31.9462 56.7035 31.3809H57.66C57.573 31.9027 57.3557 32.294 57.0078 32.5983C56.66 32.9027 56.2252 33.0766 55.66 33.0766C55.0513 33.0766 54.5296 32.8592 54.1818 32.4679C53.7905 32.0331 53.6166 31.4679 53.6166 30.6853C53.6166 29.9027 53.834 29.3374 54.2253 28.9027C54.6166 28.5114 55.0948 28.294 55.7035 28.294C56.3122 28.294 56.7904 28.4679 57.1817 28.8592ZM59.0513 32.6853C58.4861 32.294 58.1817 31.5983 58.1817 30.6853C58.1817 29.7722 58.4861 29.1201 59.0513 28.6853C59.4426 28.4244 59.8774 28.294 60.3556 28.294C60.8774 28.294 61.3121 28.4244 61.66 28.6853C62.2252 29.0766 62.5295 29.7722 62.5295 30.6853C62.5295 31.5983 62.2252 32.2505 61.66 32.6853C61.2687 32.9462 60.8339 33.0766 60.3556 33.0766C59.8339 33.0766 59.3991 32.9462 59.0513 32.6853ZM59.5295 29.4244C59.2687 29.6853 59.0948 30.1201 59.0948 30.6853C59.0948 31.2505 59.2252 31.6853 59.5295 31.9462C59.7469 32.1636 60.0078 32.2505 60.3556 32.2505C60.66 32.2505 60.9643 32.1636 61.1817 31.9462C61.4426 31.6853 61.6165 31.2505 61.6165 30.6853C61.6165 30.1201 61.486 29.6853 61.1817 29.4244C60.9643 29.207 60.7034 29.1201 60.3556 29.1201C60.0513 29.0766 59.7469 29.207 59.5295 29.4244ZM60.7034 27.2505L61.3556 28.0766H60.7034L60.3556 27.5983L60.0078 28.0766H59.3556L60.0078 27.2505H60.7034ZM66.0512 31.5549V28.3809H66.9208V32.9027H65.9642L64.0947 29.6853V32.9027H63.2251V28.3809H64.2251L66.0512 31.5549ZM69.9642 31.2505V30.4679H71.8772V32.9027H71.2251L71.1381 32.3375C70.9642 32.5549 70.7903 32.6853 70.6598 32.7722C70.399 32.9462 70.0946 33.0331 69.7468 33.0331C69.1816 33.0331 68.6599 32.8157 68.312 32.4244C67.8773 31.9896 67.6599 31.3809 67.6599 30.6418C67.6599 29.9896 67.8338 29.4244 68.1816 28.9896C68.5729 28.5114 69.1381 28.2505 69.8772 28.2505C70.4859 28.2505 71.0077 28.4244 71.3555 28.7722C71.6598 29.0766 71.8337 29.3809 71.8337 29.7722H70.8772C70.8772 29.6418 70.7903 29.5114 70.6164 29.3374C70.399 29.1201 70.1816 29.0331 69.8772 29.0331C69.4859 29.0331 69.2251 29.1635 68.9642 29.4244C68.7034 29.7288 68.5729 30.1201 68.5729 30.6853C68.5729 31.2505 68.7033 31.6853 69.0077 31.9462C69.2251 32.1636 69.5294 32.2505 69.9207 32.2505C70.1381 32.2505 70.312 32.207 70.4859 32.0766C70.7468 31.9027 70.9642 31.6418 71.0077 31.2505H69.9642ZM76.4424 29.207V32.9462H75.4859V29.207H74.1381V28.4244H77.8337V29.207H76.4424ZM80.4858 31.2505V32.9462H79.5293V31.2505L77.9641 28.4244H79.0945L80.051 30.3809L80.9641 28.4244H82.051L80.4858 31.2505ZM84.3553 30.8592H83.8771V30.207H84.3553V28.4244H86.3553C87.051 28.4244 87.5292 28.6853 87.8336 29.1635C88.0509 29.5548 88.1814 29.9896 88.1814 30.5548C88.1814 31.1635 88.0509 31.6853 87.7901 32.1201C87.4423 32.6853 86.964 32.9462 86.2684 32.9462H84.3119V30.8592H84.3553ZM85.2684 30.1635H86.0075V30.8157H85.2684V32.1201H86.1814C86.5292 32.1201 86.7901 31.9462 86.964 31.6418C87.0944 31.3809 87.1814 31.0331 87.1814 30.5983C87.1814 29.6418 86.8336 29.1635 86.1379 29.1635H85.2249V30.1635H85.2684ZM89.7901 28.4244V32.9462H88.8335V28.4244H89.7901ZM94.0074 28.4244V29.207H91.6161V30.1635H93.8335V30.9462H91.6161V32.1201H94.1378V32.9027H90.6596V28.3809H94.0074V28.4244ZM92.6596 27.2505L93.3118 28.0766H92.6596L92.3118 27.5983L91.9639 28.0766H91.3118L91.9639 27.2505H92.6596ZM92.6161 33.3375V34.0766H91.877V33.3375H92.6161ZM97.6161 31.5549V28.3809H98.4856V32.9027H97.5291L95.6596 29.6853V32.9027H94.79V28.3809H95.79L97.6161 31.5549ZM102.138 28.4244V32.1201H104.399V32.9462H101.181V28.4244H102.138ZM109.268 28.207C109.268 28.5548 109.051 28.8592 108.659 29.0331V31.3375C108.659 32.4679 108.051 33.0331 106.79 33.0331C106.138 33.0331 105.659 32.8592 105.355 32.4679C105.138 32.207 105.007 31.8157 105.007 31.3809V28.3809H105.964V31.3375C105.964 31.6418 106.051 31.8592 106.225 32.0331C106.355 32.1636 106.572 32.2505 106.79 32.2505C107.399 32.2505 107.703 31.9462 107.703 31.3809V28.3809H108.659V28.6418C108.79 28.5113 108.833 28.4244 108.833 28.294H108.529V27.6418H109.225V28.207H109.268ZM107.181 33.4244V34.1636H106.442V33.4244H107.181ZM112.964 28.8592C113.268 29.1635 113.442 29.5114 113.442 29.9027H112.485C112.442 29.6853 112.355 29.5114 112.268 29.4244C112.094 29.2505 111.833 29.1201 111.485 29.1201C111.181 29.1201 110.964 29.207 110.746 29.4244C110.485 29.6853 110.355 30.1201 110.355 30.6853C110.355 31.1201 110.442 31.5114 110.616 31.7722C110.833 32.0766 111.094 32.2505 111.485 32.2505C112.051 32.2505 112.355 31.9462 112.485 31.3809H113.442C113.355 31.9027 113.138 32.294 112.79 32.5983C112.442 32.9027 112.007 33.0766 111.442 33.0766C110.833 33.0766 110.312 32.8592 109.964 32.4679C109.572 32.0331 109.399 31.4679 109.399 30.6853C109.399 29.9027 109.616 29.3374 110.007 28.9027C110.399 28.5114 110.877 28.294 111.485 28.294C112.094 28.294 112.572 28.4679 112.964 28.8592ZM120.268 28.4244V32.9462H119.398V29.1635L118.572 32.9462H117.659L116.833 29.1635V32.9462H115.964V28.4244H117.355L118.181 31.9896L119.007 28.4244H120.268ZM122.051 28.4244V32.9462H121.094V28.4244H122.051ZM126.268 28.4244V29.207H123.877V30.1635H126.094V30.9462H123.877V32.1201H126.398V32.9027H122.964V28.3809H126.268V28.4244ZM124.92 27.2505L125.572 28.0766H124.92L124.572 27.5983L124.224 28.0766H123.572L124.224 27.2505H124.92ZM125.485 27.5548L124.659 26.7287H125.529L126.05 27.5548H125.485ZM129.877 31.5549V28.3809H130.746V32.9027H129.79L127.92 29.6853V32.9027H127.05V28.3809H128.05L129.877 31.5549ZM136.224 31.5549V28.3809H137.094V32.9027H136.137L134.268 29.6853V32.9027H133.398V28.3809H134.398L136.224 31.5549ZM138.963 31.9896L138.659 32.9027H137.659L139.268 28.3809H140.355L141.963 32.9027H140.92L140.616 31.9896H138.963ZM139.789 29.4244L139.224 31.207H140.398L139.789 29.4244ZM146.92 28.4244V32.9462H146.05V29.1635L145.224 32.9462H144.311L143.485 29.1635V32.9462H142.616V28.4244H144.007L144.833 31.9896L145.659 28.4244H146.92Z" fill="#000F9F"/>
<path d="M37.1819 35.6852C37.4862 35.9895 37.6601 36.3374 37.6601 36.7287H36.7036C36.6601 36.5113 36.5732 36.3374 36.4862 36.2504C36.3123 36.0765 36.0515 35.9461 35.7036 35.9461C35.3993 35.9461 35.1819 36.033 34.9645 36.2504C34.7036 36.5113 34.5732 36.946 34.5732 37.5113C34.5732 37.9461 34.6602 38.3374 34.8341 38.5982C35.0515 38.9026 35.3123 39.0765 35.7036 39.0765C36.2688 39.0765 36.5732 38.7721 36.7036 38.2069H37.6601C37.5732 38.7287 37.3558 39.12 37.008 39.4243C36.6601 39.7287 36.2254 39.9026 35.6602 39.9026C35.0515 39.9026 34.5297 39.6852 34.1819 39.2939C33.7906 38.8591 33.6167 38.2939 33.6167 37.5113C33.6167 36.7287 33.8341 36.1634 34.2254 35.7287C34.6167 35.3374 35.0949 35.12 35.7036 35.12C36.3123 35.12 36.7906 35.2939 37.1819 35.6852ZM39.0514 39.5113C38.4862 39.12 38.1819 38.4243 38.1819 37.5113C38.1819 36.5982 38.4862 35.9461 39.0514 35.5113C39.4427 35.2504 39.8775 35.12 40.3558 35.12C40.8775 35.12 41.3123 35.2504 41.6601 35.5113C42.2253 35.9026 42.5296 36.5982 42.5296 37.5113C42.5296 38.4243 42.2253 39.0765 41.6601 39.5113C41.2688 39.7722 40.834 39.9026 40.3558 39.9026C39.8775 39.9026 39.3992 39.7722 39.0514 39.5113ZM39.5731 36.2504C39.3123 36.5113 39.1384 36.946 39.1384 37.5113C39.1384 38.0765 39.2688 38.5113 39.5731 38.7722C39.7905 38.9895 40.0514 39.0765 40.3992 39.0765C40.7036 39.0765 41.0079 38.9895 41.2253 38.7722C41.4862 38.5113 41.6601 38.0765 41.6601 37.5113C41.6601 36.946 41.5296 36.5113 41.2253 36.2504C41.0079 36.033 40.747 35.9461 40.3992 35.9461C40.0514 35.9461 39.7905 36.033 39.5731 36.2504ZM40.7036 34.0765L41.3557 34.9026H40.7036L40.3558 34.4243L40.0079 34.9026H39.3558L40.0079 34.0765H40.7036ZM46.0513 38.4243V35.2504H46.9209V39.7722H45.9644L44.0948 36.5547V39.7722H43.2253V35.2504H44.2253L46.0513 38.4243ZM50.0078 38.12V37.3374H51.9208V39.7722H51.2687L51.1817 39.2069C51.0078 39.4243 50.8339 39.5548 50.7035 39.6417C50.4426 39.8156 50.1382 39.9026 49.7904 39.9026C49.2252 39.9026 48.7035 39.6852 48.3557 39.2939C47.9209 38.8591 47.7035 38.2504 47.7035 37.5113C47.7035 36.8591 47.8774 36.2939 48.2252 35.8591C48.6165 35.3808 49.1817 35.12 49.9209 35.12C50.5295 35.12 51.0513 35.2939 51.3991 35.6417C51.7034 35.946 51.8774 36.2504 51.8774 36.6417H50.9208C50.9208 36.5113 50.8339 36.3808 50.66 36.2069C50.4426 35.9895 50.2252 35.9026 49.9209 35.9026C49.5296 35.9026 49.2687 36.033 49.0078 36.2939C48.747 36.5982 48.6165 36.9895 48.6165 37.5547C48.6165 38.12 48.747 38.5548 49.0513 38.8156C49.2687 39.033 49.573 39.12 49.9643 39.12C50.1817 39.12 50.3556 39.0765 50.5295 38.9461C50.7904 38.7722 51.0078 38.5113 51.0513 38.12H50.0078ZM56.4425 36.033V39.7722H55.486V36.033H54.1382V35.2504H57.8338V36.033H56.4425ZM60.486 38.0765V39.7722H59.5294V38.0765L57.9642 35.2504H59.0947L60.0512 37.2069L60.9642 35.2504H62.0511L60.486 38.0765ZM64.3555 37.6852H63.8772V37.033H64.3555V35.2504H66.3554C67.0511 35.2504 67.5293 35.5113 67.8337 35.9895C68.0511 36.3808 68.1815 36.8156 68.1815 37.3808C68.1815 37.9895 68.0511 38.5113 67.7902 38.9461C67.4424 39.5113 66.9641 39.7722 66.2685 39.7722H64.312V37.6852H64.3555ZM65.2685 37.033H66.0076V37.6852H65.2685V38.9895H66.1815C66.5294 38.9895 66.7902 38.8156 66.9641 38.5113C67.0946 38.2504 67.1815 37.9026 67.1815 37.4678C67.1815 36.5113 66.8337 36.033 66.1381 36.033H65.225V37.033H65.2685ZM69.7902 35.2504V39.7722H68.8337V35.2504H69.7902ZM74.0075 35.2504V36.033H71.6162V36.9895H73.8336V37.7721H71.6162V38.9461H74.138V39.7287H70.6597V35.2069H74.0075V35.2504ZM72.6597 34.0765L73.3119 34.9026H72.6597L72.3119 34.4243L71.9641 34.9026H71.3119L71.9641 34.0765H72.6597ZM72.6162 40.1635V40.9026H71.8771V40.1635H72.6162ZM77.6162 38.4243V35.2504H78.4857V39.7722H77.5292L75.6597 36.5547V39.7722H74.7901V35.2504H75.7901L77.6162 38.4243ZM82.1379 35.2504V38.9461H84.3987V39.7722H81.1814V35.2504H82.1379ZM89.2682 35.033C89.2682 35.3808 89.0508 35.6852 88.6595 35.8591V38.1634C88.6595 39.2939 88.0508 39.8591 86.79 39.8591C86.1378 39.8591 85.6596 39.6852 85.3552 39.2939C85.1378 39.033 85.0074 38.6417 85.0074 38.2069V35.2069H85.9639V38.1634C85.9639 38.4678 86.0509 38.6852 86.2248 38.8591C86.3552 38.9895 86.5726 39.0765 86.79 39.0765C87.3987 39.0765 87.703 38.7721 87.703 38.2069V35.2069H88.6595V35.4678C88.79 35.3374 88.8334 35.2504 88.8334 35.12H88.5291V34.4678H89.2247V35.033H89.2682ZM87.1813 40.2504V40.9895H86.4422V40.2504H87.1813ZM92.9638 35.6852C93.2682 35.9895 93.4421 36.3374 93.4421 36.7287H92.4856C92.4421 36.5113 92.3551 36.3374 92.2682 36.2504C92.0943 36.0765 91.8334 35.9461 91.4856 35.9461C91.1812 35.9461 90.9638 36.033 90.7465 36.2504C90.4856 36.5113 90.3552 36.946 90.3552 37.5113C90.3552 37.9461 90.4421 38.3374 90.616 38.5982C90.8334 38.9026 91.0943 39.0765 91.4856 39.0765C92.0508 39.0765 92.3551 38.7721 92.4856 38.2069H93.4421C93.3551 38.7287 93.1377 39.12 92.7899 39.4243C92.4421 39.7287 92.0073 39.9026 91.4421 39.9026C90.8334 39.9026 90.3117 39.6852 89.9639 39.2939C89.5726 38.8591 89.3987 38.2939 89.3987 37.5113C89.3987 36.7287 89.616 36.1634 90.0073 35.7287C90.3986 35.3374 90.8769 35.12 91.4856 35.12C92.0943 35.12 92.5725 35.2939 92.9638 35.6852ZM97.8333 36.033V39.7722H96.8768V36.033H95.4855V35.2504H99.1811V36.033H97.8333ZM100.703 38.1634V39.8156H99.7898V35.2939H101.877C102.312 35.2939 102.659 35.4243 102.92 35.6852C103.181 35.946 103.312 36.2939 103.312 36.7287C103.312 37.033 103.225 37.3374 103.051 37.5982C102.79 37.9895 102.398 38.1634 101.877 38.1634H100.703ZM100.703 37.3808H101.572C102.051 37.3808 102.268 37.1634 102.268 36.6852C102.268 36.4678 102.181 36.2939 102.051 36.2069C101.92 36.12 101.703 36.0765 101.399 36.0765H100.659V37.3808H100.703ZM104.833 38.8591V39.7722H103.877V38.8591H104.833ZM110.833 35.6852C111.138 35.9895 111.311 36.3374 111.311 36.7287H110.355C110.311 36.5113 110.224 36.3374 110.138 36.2504C109.964 36.0765 109.703 35.9461 109.355 35.9461C109.051 35.9461 108.833 36.033 108.616 36.2504C108.355 36.5113 108.225 36.946 108.225 37.5113C108.225 37.9461 108.311 38.3374 108.485 38.5982C108.703 38.9026 108.964 39.0765 109.355 39.0765C109.92 39.0765 110.224 38.7721 110.355 38.2069H111.311C111.224 38.7287 111.007 39.12 110.659 39.4243C110.311 39.7287 109.877 39.9026 109.311 39.9026C108.703 39.9026 108.181 39.6852 107.833 39.2939C107.442 38.8591 107.268 38.2939 107.268 37.5113C107.268 36.7287 107.485 36.1634 107.877 35.7287C108.268 35.3374 108.746 35.12 109.355 35.12C110.007 35.12 110.485 35.2939 110.833 35.6852ZM113.007 38.8591L112.703 39.7722H111.703L113.311 35.2504H114.398L116.007 39.7722H114.964L114.659 38.8591H113.007ZM114.268 34.0765L114.92 34.9026H114.268L113.92 34.4243L113.572 34.9026H112.92L113.572 34.0765H114.268ZM113.833 36.2504L113.268 38.033H114.442L113.833 36.2504ZM114.833 34.2939L114.007 33.4678H114.877L115.398 34.2939H114.833ZM119.355 38.4243V35.2504H120.224V39.7722H119.268L117.398 36.5547V39.7722H116.529V35.2504H117.529L119.355 38.4243ZM124.833 36.033V39.7722H123.877V36.033H122.485V35.2504H126.181V36.033H124.833ZM129.442 37.7287H127.659V39.7722H126.746V35.2504H127.703V36.9461H129.485V35.2504H130.442V39.7722H129.485V37.7287H129.442ZM133.311 35.12C133.789 35.12 134.224 35.2504 134.572 35.4678C134.702 35.3808 134.746 35.2504 134.746 35.12H134.442V34.4678H135.137V34.9895C135.137 35.2504 135.007 35.5113 134.789 35.6852C135.224 36.0765 135.442 36.6852 135.442 37.5113C135.442 38.4243 135.137 39.0765 134.572 39.5113C134.181 39.7722 133.746 39.9026 133.268 39.9026C132.746 39.9026 132.311 39.7722 131.963 39.5113C131.398 39.12 131.094 38.4243 131.094 37.5113C131.094 36.5982 131.398 35.9461 131.963 35.5113C132.355 35.2504 132.833 35.12 133.311 35.12ZM132.485 36.2504C132.224 36.5113 132.05 36.946 132.05 37.5113C132.05 38.0765 132.181 38.5113 132.485 38.7722C132.702 38.9895 132.963 39.0765 133.311 39.0765C133.616 39.0765 133.92 38.9895 134.137 38.7722C134.398 38.5113 134.572 38.0765 134.572 37.5113C134.572 36.946 134.442 36.5113 134.137 36.2504C133.92 36.033 133.659 35.9461 133.311 35.9461C133.007 35.9461 132.746 36.033 132.485 36.2504Z" fill="#000F9F"/>
</svg>
