<svg width="147" height="41" viewBox="0 0 147 41" fill="none" xmlns="http://www.w3.org/2000/svg">
<path fill-rule="evenodd" clip-rule="evenodd" d="M27.6014 14.6266L16.9174 16.9284L14.6156 27.6559L12.3572 16.9284L1.62988 14.6266L12.3572 12.3681L14.6156 1.64062L16.9174 12.3681L27.6014 14.6266Z" fill="#000F9F"/>
<path fill-rule="evenodd" clip-rule="evenodd" d="M14.6159 22.4444L13.0958 16.1468L6.8418 14.6267L13.0958 13.1066L14.6159 6.85254L16.1359 13.1066L22.4334 14.6267L16.1359 16.1468L14.6159 22.4444Z" fill="#ED1C24"/>
<path fill-rule="evenodd" clip-rule="evenodd" d="M14.6157 0.989258C22.1726 0.989258 28.2529 7.11308 28.2529 14.6267C28.2529 22.1403 22.1292 28.2641 14.6157 28.2641C7.10223 28.2641 0.978516 22.1837 0.978516 14.6267C0.978516 7.11308 7.10223 0.989258 14.6157 0.989258ZM14.6157 1.64073C7.44967 1.64073 1.62997 7.46053 1.62997 14.6267C1.62997 21.7928 7.44967 27.6126 14.6157 27.6126C21.7818 27.6126 27.6015 21.7928 27.6015 14.6267C27.6015 7.46053 21.7818 1.64073 14.6157 1.64073Z" fill="#000F9F"/>
<path fill-rule="evenodd" clip-rule="evenodd" d="M14.6157 17.8843L13.8774 15.4088L11.4019 14.627L13.8774 13.8887L14.6157 11.4131L15.3975 13.8887L17.873 14.627L15.3975 15.4088L14.6157 17.8843Z" fill="#FFF200"/>
<path d="M41.3689 19.2305H33.7686V10.1533H41.1518V12.2815H36.7653V13.5844H40.5003V15.7125H36.7653V17.1458H41.3689V19.2305Z" fill="#000F9F"/>
<path d="M45.3214 19.2305L42.2378 10.1533H45.2345L46.8414 16.1903L48.4918 10.1533H51.4885L48.3181 19.2305H45.3214Z" fill="#000F9F"/>
<path d="M55.3972 10.1533L58.6545 15.1045L58.5242 13.0198V10.1533H61.3907V19.2305H58.6111L55.3538 14.2793L55.4841 16.364V19.2305H52.6177V10.1533H55.3972Z" fill="#000F9F"/>
<path d="M71.8141 12.802H68.9911C68.9911 12.498 68.9042 12.3243 68.6871 12.194C68.5134 12.0637 68.2528 12.0203 67.9488 12.0203C67.2973 12.0203 66.9933 12.194 66.9064 12.5414C66.863 12.8889 67.2104 13.1495 67.9922 13.3666C69.2517 13.7141 69.99 13.9747 70.2506 14.0615C71.0758 14.4524 71.5101 15.0605 71.5101 15.8857C71.5101 16.0159 71.5101 16.1897 71.4666 16.3634C71.2929 17.3623 70.7283 18.1875 69.8597 18.7087C69.0345 19.2299 67.9488 19.4905 66.6893 19.4905C65.6035 19.4905 64.7349 19.2299 64.0834 18.7087C63.4754 18.2309 63.1714 17.5795 63.1714 16.7977C63.1714 16.6674 63.1714 16.5371 63.2148 16.4503H66.0812C66.0812 16.7543 66.2115 17.0149 66.4287 17.1452C66.6458 17.2755 66.9499 17.3623 67.2539 17.3623C68.079 17.3623 68.5133 17.1452 68.6002 16.7109C68.6436 16.3634 68.2962 16.1028 67.5144 15.8857C66.2984 15.5382 65.5166 15.3211 65.2561 15.1908C64.4309 14.7999 64.04 14.1484 64.04 13.3666C64.04 13.1929 64.04 13.0192 64.0834 12.8455C64.2572 11.9334 64.7349 11.1951 65.6035 10.6739C66.3853 10.1961 67.3842 9.93555 68.5568 9.93555C69.7294 9.93555 70.6414 10.1961 71.206 10.7608C71.5969 11.2819 71.8575 11.9334 71.8141 12.802Z" fill="#ED1C24"/>
<path d="M75.028 19.2305H72.0312L73.6382 10.1533H78.0247C79.1539 10.1533 80.0225 10.3705 80.5871 10.8048C81.1517 11.1957 81.4123 11.8037 81.4123 12.5855C81.4123 12.8026 81.4123 12.9764 81.3688 13.237C80.978 15.3651 79.5447 16.4074 77.0258 16.4074H75.5057L75.028 19.2305ZM75.8966 14.2793H77.1126C77.8944 14.2793 78.3721 13.9319 78.5024 13.237C78.5024 13.1935 78.5024 13.1067 78.5024 13.0632C78.5024 12.542 78.0247 12.2815 77.0692 12.2815H76.244L75.8966 14.2793Z" fill="#ED1C24"/>
<path d="M90.7931 13.6277H87.9701C88.0136 13.1499 87.9267 12.8025 87.6661 12.5419C87.449 12.2813 87.0581 12.151 86.6238 12.151C85.4946 12.151 84.7997 13.0196 84.4957 14.8003C84.4088 15.1478 84.4088 15.4518 84.4088 15.7124C84.4088 16.7547 84.8866 17.2325 85.8855 17.2325C86.7541 17.2325 87.3621 16.7113 87.6661 15.7124H90.5325C90.1851 16.885 89.5771 17.7971 88.665 18.4485C87.753 19.1 86.7107 19.4475 85.538 19.4475C84.2351 19.4475 83.2362 19.1 82.5413 18.492C81.8464 17.8405 81.4556 16.9284 81.4556 15.7992C81.4556 15.4518 81.499 15.0609 81.5424 14.67C81.803 13.2368 82.4545 12.0641 83.4534 11.1955C84.4523 10.3269 85.5815 9.89258 86.8844 9.89258C88.1873 9.89258 89.1428 10.1966 89.7942 10.7612C90.4457 11.3258 90.7931 12.151 90.7931 13.1933C90.7931 13.3671 90.7931 13.4974 90.7931 13.6277Z" fill="#ED1C24"/>
<path d="M35.94 29.2195V32.9546H34.9845V29.2195H33.5947V28.4377H37.2863V29.2195H35.94ZM38.5458 32.6506C37.9812 32.2597 37.6772 31.5648 37.6772 30.6527C37.6772 29.7406 37.9812 29.0892 38.5458 28.6549C38.9367 28.3943 39.371 28.264 39.8487 28.264C40.3699 28.264 40.8042 28.3943 41.1516 28.6549C41.7162 29.0458 42.0203 29.7406 42.0203 30.6527C42.0203 31.5648 41.7162 32.2162 41.1516 32.6506C40.7608 32.9111 40.3265 33.0414 39.8487 33.0414C39.3276 33.0414 38.8933 32.9111 38.5458 32.6506ZM39.0235 29.3932C38.763 29.6538 38.5892 30.0881 38.5892 30.6527C38.5892 31.2173 38.7195 31.6516 39.0235 31.9122C39.2407 32.1294 39.5013 32.2162 39.8487 32.2162C40.1527 32.2162 40.4568 32.1294 40.6739 31.9122C40.9345 31.6516 41.1082 31.2173 41.1082 30.6527C41.1082 30.0881 40.9779 29.6538 40.6739 29.3932C40.4568 29.1761 40.1962 29.0892 39.8487 29.0892C39.5447 29.0892 39.2407 29.2195 39.0235 29.3932ZM40.1962 27.2651L40.8476 28.0903H40.1962L39.8487 27.6125L39.5013 28.0903H38.8498L39.5013 27.2651H40.1962ZM41.3254 27.2216C41.2385 27.3085 41.1951 27.3953 41.1951 27.5256H40.7173C40.7173 27.3085 40.8042 27.1348 41.0214 27.0045C41.1082 26.9176 41.1951 26.8742 41.1951 26.8308C41.1951 26.7005 41.1516 26.657 41.0648 26.657C40.9345 26.657 40.8911 26.7004 40.8476 26.8742H40.4133C40.4133 26.657 40.4568 26.5267 40.6305 26.4399C40.7173 26.353 40.8476 26.3096 41.0214 26.3096C41.1516 26.3096 41.2819 26.353 41.4122 26.3964C41.586 26.4833 41.6728 26.6136 41.6728 26.8308C41.6294 26.9176 41.5425 27.0479 41.3254 27.2216ZM45.5381 31.5648V28.3943H46.4067V32.9111H45.4513L43.5838 29.6972V32.9111H42.7151V28.3943H43.714L45.5381 31.5648ZM49.4469 31.2608V30.5224H51.3578V32.9546H50.7064L50.6195 32.39C50.4458 32.6071 50.2721 32.7374 50.1418 32.8243C49.8812 32.998 49.5772 33.0849 49.2297 33.0849C48.6651 33.0849 48.144 32.8677 47.7965 32.4768C47.3622 32.0425 47.1451 31.4345 47.1451 30.6961C47.1451 30.0447 47.3188 29.4801 47.6662 29.0457C48.0571 28.568 48.6217 28.3074 49.36 28.3074C49.9681 28.3074 50.4892 28.4811 50.8367 28.8286C51.1407 29.1326 51.3144 29.4366 51.3144 29.8275H50.4024C50.4024 29.6972 50.3155 29.5669 50.1418 29.3932C49.9246 29.1761 49.7075 29.0892 49.4035 29.0892C49.0126 29.0892 48.752 29.2195 48.4914 29.4801C48.2308 29.7841 48.1005 30.175 48.1005 30.7396C48.1005 31.3042 48.2308 31.7385 48.5348 31.9991C48.752 32.2162 49.056 32.3031 49.4469 32.3031C49.664 32.3031 49.8378 32.2597 50.0115 32.1294C50.2721 31.9557 50.4892 31.6951 50.5327 31.3042H49.4469V31.2608ZM57.3513 28.8286C57.6553 29.1326 57.829 29.4801 57.829 29.8709H56.8735C56.8301 29.6538 56.7432 29.4801 56.6564 29.3932C56.4826 29.2195 56.2221 29.0892 55.8746 29.0892C55.5706 29.0892 55.3534 29.1761 55.1363 29.3932C54.8757 29.6538 54.7454 30.0881 54.7454 30.6527C54.7454 31.087 54.8323 31.4779 55.006 31.7385C55.2232 32.0425 55.4837 32.2162 55.8746 32.2162C56.4392 32.2162 56.7432 31.9122 56.8735 31.3476H57.829C57.7421 31.8688 57.525 32.2597 57.1775 32.5637C56.8301 32.8677 56.3958 33.0414 55.8312 33.0414C55.2232 33.0414 54.702 32.8243 54.3545 32.4334C53.9637 31.9991 53.7899 31.4345 53.7899 30.6527C53.7899 29.8709 54.0071 29.3063 54.398 28.872C54.7888 28.4811 55.2666 28.264 55.8746 28.264C56.4826 28.3074 56.9604 28.4811 57.3513 28.8286ZM59.2188 32.6506C58.6542 32.2597 58.3502 31.5648 58.3502 30.6527C58.3502 29.7406 58.6542 29.0892 59.2188 28.6549C59.6096 28.3943 60.0439 28.264 60.5217 28.264C61.0429 28.264 61.4772 28.3943 61.8246 28.6549C62.3892 29.0458 62.6932 29.7406 62.6932 30.6527C62.6932 31.5648 62.3892 32.2162 61.8246 32.6506C61.4337 32.9111 60.9994 33.0414 60.5217 33.0414C60.0005 33.0414 59.5662 32.9111 59.2188 32.6506ZM59.6965 29.3932C59.4359 29.6538 59.2622 30.0881 59.2622 30.6527C59.2622 31.2173 59.3925 31.6516 59.6965 31.9122C59.9137 32.1294 60.1742 32.2162 60.5217 32.2162C60.8257 32.2162 61.1297 32.1294 61.3469 31.9122C61.6074 31.6516 61.7812 31.2173 61.7812 30.6527C61.7812 30.0881 61.6509 29.6538 61.3469 29.3932C61.1297 29.1761 60.8691 29.0892 60.5217 29.0892C60.2177 29.0892 59.9137 29.2195 59.6965 29.3932ZM60.8691 27.2651L61.5206 28.0903H60.8691L60.5217 27.6125L60.1742 28.0903H59.5228L60.1742 27.2651H60.8691ZM66.2111 31.5648V28.3943H67.0797V32.9111H66.1242L64.2567 29.6972V32.9111H63.3881V28.3943H64.387L66.2111 31.5648ZM70.1198 31.2608V30.5224H72.0308V32.9546H71.3793L71.2925 32.39C71.1187 32.6071 70.945 32.7374 70.8147 32.8243C70.5541 32.998 70.2501 33.0849 69.9027 33.0849C69.3381 33.0849 68.8169 32.8677 68.4695 32.4768C68.0352 32.0425 67.818 31.4345 67.818 30.6961C67.818 30.0447 67.9917 29.4801 68.3392 29.0457C68.7301 28.568 69.2947 28.3074 70.033 28.3074C70.641 28.3074 71.1622 28.4811 71.5096 28.8286C71.8136 29.1326 71.9874 29.4366 71.9874 29.8275H71.0319C71.0319 29.6972 70.945 29.5669 70.7713 29.3932C70.5541 29.1761 70.337 29.0892 70.033 29.0892C69.6421 29.0892 69.3815 29.2195 69.1209 29.4801C68.8604 29.7841 68.7301 30.175 68.7301 30.7396C68.7301 31.3042 68.8604 31.7385 69.1644 31.9991C69.3815 32.2162 69.6855 32.3031 70.0764 32.3031C70.2936 32.3031 70.4673 32.2597 70.641 32.1294C70.9016 31.9557 71.1187 31.6951 71.1622 31.3042H70.1198V31.2608ZM76.591 29.2195V32.9546H75.6355V29.2195H74.2892V28.4377H77.9808V29.2195H76.591ZM80.63 31.2608V32.9546H79.6746V31.2608L78.1111 28.4377H79.2403L80.1957 30.3921L81.1078 28.4377H82.1935L80.63 31.2608ZM84.4954 30.8699H84.0176V30.2184H84.4954V28.4377H86.4932C87.1881 28.4377 87.6658 28.6983 87.9698 29.1761C88.187 29.5669 88.3173 30.0012 88.3173 30.5658C88.3173 31.1739 88.187 31.6951 87.9264 32.1294C87.5789 32.694 87.1012 32.9546 86.4063 32.9546H84.4519V30.8699H84.4954ZM85.4074 30.175H86.1457V30.8264H85.4074V32.1294H86.3194C86.6669 32.1294 86.9275 31.9556 87.1012 31.6516C87.2315 31.391 87.3184 31.0436 87.3184 30.6093C87.3184 29.6538 86.9709 29.1761 86.276 29.1761H85.364V30.175H85.4074ZM89.9242 28.3943V32.9111H88.9687V28.3943H89.9242ZM94.137 28.3943V29.1761H91.7483V30.1315H93.9632V30.9133H91.7483V32.0859H94.2672V32.8677H90.7928V28.3508H94.137V28.3943ZM92.7906 27.2651L93.4421 28.0903H92.7906L92.4432 27.6125L92.0957 28.0903H91.4443L92.0957 27.2651H92.7906ZM92.7472 33.3454V34.0838H92.0089V33.3454H92.7472ZM97.7417 31.5648V28.3943H98.6103V32.9111H97.6548L95.7873 29.6972V32.9111H94.9187V28.3943H95.9176L97.7417 31.5648ZM102.258 28.3943V32.0859H104.517V32.9111H101.303V28.3943H102.258ZM109.381 28.1771C109.381 28.5246 109.164 28.8286 108.773 29.0023V31.3042C108.773 32.4334 108.165 32.998 106.906 32.998C106.254 32.998 105.776 32.8243 105.472 32.4334C105.255 32.1728 105.125 31.7819 105.125 31.3476V28.3508H106.08V31.3042C106.08 31.6082 106.167 31.8254 106.341 31.9991C106.471 32.1294 106.688 32.2162 106.906 32.2162C107.514 32.2162 107.818 31.9122 107.818 31.3476V28.3508H108.773V28.6114C108.903 28.4811 108.947 28.3943 108.947 28.264H108.643V27.6125H109.338V28.1771H109.381ZM107.296 33.4323V34.1707H106.558V33.4323H107.296ZM113.073 28.8286C113.377 29.1326 113.55 29.4801 113.55 29.8709H112.595C112.552 29.6538 112.465 29.4801 112.378 29.3932C112.204 29.2195 111.943 29.0892 111.596 29.0892C111.292 29.0892 111.075 29.1761 110.858 29.3932C110.597 29.6538 110.467 30.0881 110.467 30.6527C110.467 31.087 110.554 31.4779 110.727 31.7385C110.945 32.0425 111.205 32.2162 111.596 32.2162C112.161 32.2162 112.465 31.9122 112.595 31.3476H113.55C113.464 31.8688 113.246 32.2597 112.899 32.5637C112.552 32.8677 112.117 33.0414 111.553 33.0414C110.945 33.0414 110.423 32.8243 110.076 32.4334C109.685 31.9991 109.511 31.4345 109.511 30.6527C109.511 29.8709 109.729 29.3063 110.119 28.872C110.51 28.4811 110.988 28.264 111.596 28.264C112.204 28.3074 112.682 28.4811 113.073 28.8286ZM120.369 28.3943V32.9111H119.5V29.1326L118.675 32.9111H117.763L116.938 29.1326V32.9111H116.069V28.3943H117.459L118.284 31.9556L119.11 28.3943H120.369ZM122.15 28.3943V32.9111H121.194V28.3943H122.15ZM126.362 28.3943V29.1761H123.974V30.1315H126.189V30.9133H123.974V32.0859H126.493V32.8677H123.062V28.3508H126.362V28.3943ZM125.016 27.2651L125.668 28.0903H125.016L124.669 27.6125L124.321 28.0903H123.67L124.321 27.2651H125.016ZM125.581 27.5256L124.756 26.7005H125.624L126.145 27.5256H125.581ZM129.967 31.5648V28.3943H130.836V32.9111H129.88L128.013 29.6972V32.9111H127.144V28.3943H128.143L129.967 31.5648ZM136.308 31.5648V28.3943H137.177V32.9111H136.221L134.354 29.6972V32.9111H133.485V28.3943H134.484L136.308 31.5648ZM139.044 31.9991L138.74 32.9111H137.741L139.348 28.3943H140.434L142.041 32.9111H140.999L140.695 31.9991H139.044ZM139.869 29.4366L139.305 31.2173H140.477L139.869 29.4366ZM146.992 28.3943V32.9111H146.123V29.1326L145.298 32.9111H144.386L143.561 29.1326V32.9111H142.692V28.3943H144.082L144.907 31.9556L145.732 28.3943H146.992Z" fill="#000F9F"/>
<path d="M37.3733 35.6909C37.6773 35.995 37.8511 36.3424 37.8511 36.7333H36.8956C36.8522 36.5161 36.7653 36.3424 36.6784 36.2555C36.5047 36.0818 36.2441 35.9515 35.8967 35.9515C35.5927 35.9515 35.3755 36.0384 35.1584 36.2555C34.8978 36.5161 34.7675 36.9504 34.7675 37.515C34.7675 37.9493 34.8543 38.3402 35.0281 38.6008C35.2452 38.9048 35.5058 39.0786 35.8967 39.0786C36.4613 39.0786 36.7653 38.7745 36.8956 38.2099H37.8511C37.7642 38.7311 37.547 39.122 37.1996 39.426C36.8522 39.73 36.4178 39.9037 35.8532 39.9037C35.2452 39.9037 34.7241 39.6866 34.3766 39.2957C33.9857 38.8614 33.812 38.2968 33.812 37.515C33.812 36.7333 34.0292 36.1687 34.42 35.7344C34.8109 35.3435 35.2886 35.1263 35.8967 35.1263C36.5047 35.1263 36.9824 35.3001 37.3733 35.6909ZM39.2408 39.4694C38.6762 39.0785 38.3722 38.3837 38.3722 37.4716C38.3722 36.5596 38.6762 35.9081 39.2408 35.4738C39.6317 35.2132 40.066 35.0829 40.5438 35.0829C41.0649 35.0829 41.4992 35.2132 41.8467 35.4738C42.4113 35.8647 42.7153 36.5596 42.7153 37.4716C42.7153 38.3837 42.4113 39.0351 41.8467 39.4694C41.4558 39.73 41.0215 39.8603 40.5438 39.8603C40.066 39.9037 39.5883 39.7734 39.2408 39.4694ZM39.762 36.2555C39.5014 36.5161 39.3277 36.9504 39.3277 37.515C39.3277 38.0796 39.458 38.514 39.762 38.7745C39.9792 38.9917 40.2397 39.0786 40.5872 39.0786C40.8912 39.0786 41.1952 38.9917 41.4124 38.7745C41.6729 38.514 41.8467 38.0796 41.8467 37.515C41.8467 36.9504 41.7164 36.5161 41.4124 36.2555C41.1952 36.0384 40.9346 35.9515 40.5872 35.9515C40.2397 35.9081 39.9792 36.0384 39.762 36.2555ZM40.8912 34.084L41.5427 34.9092H40.8912L40.5438 34.4314L40.1963 34.9092H39.5448L40.1963 34.084H40.8912ZM46.2332 38.3836V35.2132H47.1018V39.73H46.1463L44.2788 36.5161V39.73H43.4102V35.2132H44.4091L46.2332 38.3836ZM50.1853 38.0797V37.2979H52.0963V39.73H51.4448L51.358 39.1654C51.1842 39.3826 51.0105 39.5129 50.8802 39.5997C50.6196 39.7735 50.3156 39.8603 49.9682 39.8603C49.4036 39.8603 48.8824 39.6431 48.535 39.2523C48.1007 38.818 47.8835 38.2099 47.8835 37.4716C47.8835 36.8201 48.0572 36.2555 48.4047 35.8212C48.7956 35.3435 49.3602 35.0829 50.0985 35.0829C50.7065 35.0829 51.2277 35.2566 51.5751 35.6041C51.8791 35.9081 52.0529 36.2121 52.0529 36.603H51.0974C51.0974 36.4727 51.0105 36.3424 50.8368 36.1687C50.6196 35.9515 50.4025 35.8646 50.0985 35.8646C49.7076 35.8646 49.447 35.995 49.1864 36.2555C48.9259 36.5596 48.7956 36.9504 48.7956 37.515C48.7956 38.0796 48.9259 38.514 49.2299 38.7745C49.447 38.9917 49.751 39.0786 50.1419 39.0786C50.3591 39.0786 50.5328 39.0351 50.7065 38.9048C50.9671 38.7311 51.1842 38.4705 51.2277 38.0797H50.1853ZM56.6131 36.0384V39.7734H55.6576V36.0384H54.3112V35.2566H58.0028V36.0384H56.6131ZM60.6521 38.0797V39.7734H59.6966V38.0797L58.1331 35.2566H59.2623L60.2178 37.211L61.1298 35.2566H62.2156L60.6521 38.0797ZM64.5174 37.6888H64.0397V37.0373H64.5174V35.2566H66.5152C67.2101 35.2566 67.6879 35.5172 67.9919 35.9949C68.209 36.3858 68.3393 36.8201 68.3393 37.3847C68.3393 37.9928 68.209 38.514 67.9484 38.9483C67.601 39.5129 67.1233 39.7734 66.4284 39.7734H64.474V37.6888H64.5174ZM65.4295 36.9939H66.1678V37.6453H65.4295V38.9483H66.3415C66.689 38.9483 66.9495 38.7745 67.1233 38.4705C67.2536 38.2099 67.3404 37.8625 67.3404 37.4282C67.3404 36.4727 66.993 35.9949 66.2981 35.9949H65.386V36.9939H65.4295ZM69.9463 35.2566V39.7734H68.9908V35.2566H69.9463ZM74.159 35.2566V36.0384H71.7703V36.9939H73.9853V37.7756H71.7703V38.9483H74.2893V39.73H70.8149V35.2132H74.159V35.2566ZM72.8127 34.084L73.4641 34.9092H72.8127L72.4652 34.4314L72.1178 34.9092H71.4663L72.1178 34.084H72.8127ZM72.7692 40.1643V40.9027H72.0309V40.1643H72.7692ZM77.7638 38.3836V35.2132H78.6324V39.73H77.6769L75.8094 36.5161V39.73H74.9408V35.2132H75.9397L77.7638 38.3836ZM82.2805 35.2566V38.9483H84.5389V39.7734H81.3251V35.2566H82.2805ZM89.4032 35.0395C89.4032 35.3869 89.186 35.6909 88.7951 35.8646V38.1665C88.7951 39.2957 88.1871 39.8603 86.9276 39.8603C86.2762 39.8603 85.7984 39.6866 85.4944 39.2957C85.2772 39.0351 85.147 38.6442 85.147 38.2099V35.2132H86.1024V38.1665C86.1024 38.4705 86.1893 38.6877 86.363 38.8614C86.4933 38.9917 86.7105 39.0786 86.9276 39.0786C87.5356 39.0786 87.8396 38.7745 87.8396 38.2099V35.2132H88.7951V35.4738C88.9254 35.3435 88.9688 35.2566 88.9688 35.1263H88.6648V34.4748H89.3597V35.0395H89.4032ZM87.3185 40.2512V40.9895H86.5802V40.2512H87.3185ZM93.0948 35.6909C93.3988 35.995 93.5725 36.3424 93.5725 36.7333H92.617C92.5736 36.5161 92.4867 36.3424 92.3999 36.2555C92.2261 36.0818 91.9656 35.9515 91.6181 35.9515C91.3141 35.9515 91.0969 36.0384 90.8798 36.2555C90.6192 36.5161 90.4889 36.9504 90.4889 37.515C90.4889 37.9493 90.5758 38.3402 90.7495 38.6008C90.9666 38.9048 91.2272 39.0786 91.6181 39.0786C92.1827 39.0786 92.4867 38.7745 92.617 38.2099H93.5725C93.4856 38.7311 93.2685 39.122 92.921 39.426C92.5736 39.73 92.1393 39.9037 91.5747 39.9037C90.9667 39.9037 90.4455 39.6866 90.098 39.2957C89.7072 38.8614 89.5334 38.2968 89.5334 37.515C89.5334 36.7333 89.7506 36.1687 90.1415 35.7344C90.5323 35.3435 91.0101 35.1263 91.6181 35.1263C92.2261 35.1263 92.7039 35.3001 93.0948 35.6909ZM98.7407 37.7322H96.9601V39.7734H96.0046V35.2566H96.9601V36.9504H98.7407V35.2566H99.6962V39.7734H98.7407V37.7322ZM101.564 38.818L101.26 39.73H100.261L101.868 35.2132H102.953L104.56 39.73H103.518L103.214 38.818H101.564ZM102.823 34.084L103.475 34.9092H102.823L102.476 34.4314L102.128 34.9092H101.477L102.128 34.084H102.823ZM102.389 36.2555L101.824 38.0362H102.997L102.389 36.2555ZM102.736 39.9037V40.6421H101.998V39.9037H102.736ZM108.773 35.2566V38.2099C108.773 39.3391 108.165 39.9037 106.906 39.9037C106.254 39.9037 105.776 39.73 105.472 39.3391C105.255 39.0786 105.125 38.6877 105.125 38.2534V35.2566H106.08V38.2099C106.08 38.514 106.167 38.7311 106.341 38.9048C106.471 39.0351 106.689 39.122 106.906 39.122C107.514 39.122 107.818 38.818 107.818 38.2534V35.2566H108.773ZM113.594 38.0797V37.2979H115.505V39.73H114.853L114.767 39.1654C114.593 39.3826 114.419 39.5129 114.289 39.5997C114.028 39.7735 113.724 39.8603 113.377 39.8603C112.812 39.8603 112.291 39.6431 111.944 39.2523C111.509 38.818 111.292 38.2099 111.292 37.4716C111.292 36.8201 111.466 36.2555 111.813 35.8212C112.204 35.3435 112.769 35.0829 113.507 35.0829C114.115 35.0829 114.636 35.2566 114.984 35.6041C115.288 35.9081 115.461 36.2121 115.461 36.603H114.506C114.506 36.4727 114.419 36.3424 114.245 36.1687C114.028 35.9515 113.811 35.8646 113.507 35.8646C113.116 35.8646 112.856 35.995 112.595 36.2555C112.335 36.5596 112.204 36.9504 112.204 37.515C112.204 38.0796 112.334 38.514 112.639 38.7745C112.856 38.9917 113.16 39.0786 113.551 39.0786C113.768 39.0786 113.941 39.0351 114.115 38.9048C114.376 38.7311 114.593 38.4705 114.636 38.0797H113.594ZM117.242 35.2566V39.7734H116.287V35.2566H117.242ZM119.066 38.818L118.762 39.73H117.763L119.37 35.2132H120.456L122.063 39.73H121.021L120.717 38.818H119.066ZM119.891 36.2555L119.327 38.0362H120.499L119.891 36.2555ZM125.451 38.3836V35.2132H126.319V39.73H125.364L123.496 36.5161V39.73H122.628V35.2132H123.626L125.451 38.3836ZM129.359 38.0797V37.2979H131.27V39.73H130.619L130.532 39.1654C130.358 39.3826 130.184 39.5129 130.054 39.5997C129.794 39.7735 129.49 39.8603 129.142 39.8603C128.578 39.8603 128.056 39.6431 127.709 39.2523C127.275 38.818 127.057 38.2099 127.057 37.4716C127.057 36.8201 127.231 36.2555 127.579 35.8212C127.97 35.3435 128.534 35.0829 129.272 35.0829C129.88 35.0829 130.402 35.2566 130.749 35.6041C131.053 35.9081 131.227 36.2121 131.227 36.603H130.271C130.271 36.4727 130.184 36.3424 130.011 36.1687C129.794 35.9515 129.576 35.8646 129.272 35.8646C128.882 35.8646 128.621 35.995 128.36 36.2555C128.1 36.5596 127.97 36.9504 127.97 37.515C127.97 38.0796 128.1 38.514 128.404 38.7745C128.621 38.9917 128.925 39.0786 129.316 39.0786C129.533 39.0786 129.707 39.0351 129.88 38.9048C130.141 38.7311 130.358 38.4705 130.402 38.0797H129.359Z" fill="#000F9F"/>
</svg>
