<svg width="3300" height="904" viewBox="0 0 3300 904" fill="none" xmlns="http://www.w3.org/2000/svg">
<path fill-rule="evenodd" clip-rule="evenodd" d="M601.695 308.206L360.232 360.227L308.209 601.687L256.187 360.227L14.7234 308.206L256.187 256.184L308.209 14.7246L360.232 256.184L601.695 308.206Z" fill="#000F9F"/>
<path fill-rule="evenodd" clip-rule="evenodd" d="M308.209 484.879L273.855 342.555L132.51 308.201L273.855 273.847L308.209 132.505L342.564 273.847L484.89 308.201L342.564 342.555L308.209 484.879Z" fill="#ED1C24"/>
<path fill-rule="evenodd" clip-rule="evenodd" d="M308.209 0C478.019 0 616.419 138.397 616.419 308.204C616.419 478.011 478.019 616.408 308.209 616.408C138.4 616.408 0 478.011 0 308.204C0 138.397 138.4 0 308.209 0ZM308.209 14.7231C146.252 14.7231 14.7234 146.25 14.7234 308.204C14.7234 470.159 146.252 601.685 308.209 601.685C470.167 601.685 601.695 470.159 601.695 308.204C601.695 146.25 470.167 14.7231 308.209 14.7231Z" fill="#000F9F"/>
<path fill-rule="evenodd" clip-rule="evenodd" d="M308.208 381.812L291.522 325.864L234.592 308.196L291.522 291.51L308.208 234.581L325.877 291.51L381.825 308.196L325.877 325.864L308.208 381.812Z" fill="#FFF200"/>
<path d="M912.849 412.261H741.076V207.118H907.941V255.214H808.804V284.66H893.218V332.756H808.804V365.147H912.849V412.261Z" fill="#000F9F"/>
<path d="M1001.19 412.261L931.498 207.118H999.226L1035.54 343.553L1072.84 207.118H1140.57L1068.92 412.261H1001.19Z" fill="#000F9F"/>
<path d="M1229.89 207.118L1303.51 319.014L1300.56 271.9V207.118H1365.35V412.261H1302.53L1228.91 300.365L1231.86 347.479V412.261H1167.07V207.118H1229.89Z" fill="#000F9F"/>
<path d="M1600.92 266.984H1537.12C1537.12 260.113 1535.16 256.187 1530.25 253.242C1526.32 250.297 1520.43 249.316 1513.56 249.316C1498.84 249.316 1491.97 253.242 1490.01 261.094C1489.02 268.947 1496.88 274.836 1514.54 279.744C1543.01 287.596 1559.7 293.485 1565.59 295.448C1584.24 304.282 1594.05 318.024 1594.05 336.673C1594.05 339.618 1594.05 343.544 1593.07 347.47C1589.14 370.046 1576.38 388.695 1556.75 400.473C1538.1 412.252 1513.56 418.141 1485.1 418.141C1460.56 418.141 1440.93 412.252 1426.2 400.473C1412.46 389.676 1405.59 374.953 1405.59 357.286C1405.59 354.341 1405.59 351.396 1406.57 349.433H1471.36C1471.36 356.304 1474.3 362.193 1479.21 365.138C1484.12 369.064 1490.99 370.046 1497.86 370.046C1516.51 370.046 1526.32 365.138 1528.29 355.322C1529.27 347.47 1521.42 341.581 1503.75 336.673C1476.26 328.821 1458.6 323.913 1452.71 320.968C1434.06 312.135 1425.22 297.411 1425.22 279.744C1425.22 275.818 1425.22 271.891 1426.2 267.965C1430.13 247.353 1440.93 230.667 1460.56 218.888C1478.23 208.091 1500.8 202.202 1527.31 202.202C1553.81 202.202 1574.42 208.091 1587.18 220.851C1596.01 231.648 1600.92 247.353 1600.92 266.984Z" fill="#ED1C24"/>
<path d="M1673.56 412.252H1605.83L1642.15 207.11H1741.28C1766.8 207.11 1786.44 212.018 1799.2 221.833C1811.96 230.667 1817.85 244.409 1817.85 262.076C1817.85 266.984 1817.85 270.91 1816.86 276.8C1808.03 324.895 1775.64 348.452 1718.71 348.452H1684.35L1673.56 412.252ZM1693.19 300.357H1720.67C1738.34 300.357 1749.14 292.504 1752.08 276.8C1752.08 275.818 1752.08 273.855 1752.08 272.873C1752.08 261.095 1741.28 255.206 1719.69 255.206H1701.04L1693.19 300.357Z" fill="#ED1C24"/>
<path d="M2029.86 285.625H1966.06C1967.04 274.828 1965.08 266.975 1959.19 261.086C1954.28 255.197 1945.45 252.252 1935.63 252.252C1910.11 252.252 1894.41 271.883 1887.54 312.126C1885.57 319.979 1885.58 326.849 1885.58 332.739C1885.58 356.296 1896.37 367.093 1918.95 367.093C1938.58 367.093 1952.32 355.314 1959.19 332.739H2023.97C2016.12 359.24 2002.38 379.853 1981.77 394.576C1961.15 409.299 1937.6 417.151 1911.1 417.151C1881.65 417.151 1859.07 409.299 1843.37 395.557C1827.66 380.834 1818.83 360.222 1818.83 334.702C1818.83 326.849 1819.81 318.015 1820.79 309.182C1826.68 276.791 1841.4 250.289 1863.98 230.658C1886.56 211.027 1912.08 201.212 1941.52 201.212C1970.97 201.212 1992.56 208.083 2007.29 220.843C2022.01 233.603 2029.86 252.252 2029.86 275.809C2029.86 279.735 2029.86 282.68 2029.86 285.625Z" fill="#ED1C24"/>
<path d="M790.155 637.996V722.408H768.561V637.996H737.151V620.328H820.583V637.996H790.155ZM849.049 715.537C836.288 706.704 829.417 690.999 829.417 670.386C829.417 649.774 836.288 635.051 849.049 625.236C857.883 619.346 867.698 616.402 878.495 616.402C890.274 616.402 900.09 619.346 907.942 625.236C920.702 634.069 927.573 649.774 927.573 670.386C927.573 690.999 920.702 705.722 907.942 715.537C899.108 721.427 889.292 724.371 878.495 724.371C866.717 724.371 856.901 721.427 849.049 715.537ZM859.846 641.922C853.956 647.811 850.03 657.626 850.03 670.386C850.03 683.147 852.975 692.962 859.846 698.851C864.753 703.759 870.643 705.722 878.495 705.722C885.366 705.722 892.237 703.759 897.145 698.851C903.034 692.962 906.961 683.147 906.961 670.386C906.961 657.626 904.016 647.811 897.145 641.922C892.237 637.014 886.348 635.051 878.495 635.051C870.643 635.051 864.753 637.014 859.846 641.922ZM885.366 593.826L900.09 612.475H885.366L877.514 601.679L869.661 612.475H854.938L869.661 593.826H885.366ZM911.868 591.863C909.905 593.826 908.924 595.789 908.924 598.734H898.126C898.126 593.826 900.09 589.9 904.997 586.955C906.96 584.992 908.924 584.011 908.924 583.029C908.924 580.085 907.942 579.103 905.979 579.103C903.034 579.103 902.053 580.085 901.071 584.011H891.256C891.256 579.103 892.237 576.158 896.163 574.195C898.127 572.232 901.071 571.251 904.997 571.251C907.942 571.251 910.887 572.232 913.831 573.214C917.758 575.177 919.721 578.122 919.721 583.029C918.739 585.974 915.795 588.918 911.868 591.863ZM1007.08 690.999V619.346H1026.71V721.427H1005.12L962.909 648.793V721.427H943.278V619.346H965.854L1007.08 690.999ZM1095.42 684.128V666.46H1138.61V721.427H1123.88L1121.92 708.667C1118 713.574 1114.07 716.519 1111.12 718.482C1105.24 722.408 1098.36 724.371 1090.51 724.371C1077.75 724.371 1065.97 719.464 1058.12 710.63C1048.3 700.814 1043.4 687.073 1043.4 670.386C1043.4 655.663 1047.32 642.903 1055.18 633.088C1064.01 622.291 1076.77 616.402 1093.46 616.402C1107.2 616.402 1118.98 620.328 1126.83 628.18C1133.7 635.051 1137.63 641.922 1137.63 650.756H1116.03C1116.03 647.811 1114.07 644.866 1110.14 640.94C1105.24 636.033 1100.33 634.069 1093.46 634.069C1084.62 634.069 1078.73 637.014 1072.84 642.903C1066.95 649.774 1064.01 658.608 1064.01 671.368C1064.01 684.128 1066.95 693.943 1073.83 699.833C1078.73 704.74 1085.6 706.703 1094.44 706.703C1099.35 706.703 1103.27 705.722 1107.2 702.777C1113.09 698.851 1118 692.962 1118.98 684.128H1095.42ZM1274.06 629.162C1280.93 636.032 1284.86 643.885 1284.86 652.719H1263.27C1262.28 647.811 1260.32 643.885 1258.36 641.922C1254.43 637.996 1248.54 635.051 1240.69 635.051C1233.82 635.051 1228.91 637.014 1224 641.922C1218.11 647.811 1215.17 657.626 1215.17 670.386C1215.17 680.202 1217.13 689.036 1221.06 694.925C1225.97 701.796 1231.86 705.722 1240.69 705.722C1253.45 705.722 1260.32 698.851 1263.27 686.091H1284.86C1282.9 697.87 1277.99 706.703 1270.14 713.574C1262.28 720.445 1252.47 724.371 1239.71 724.371C1225.97 724.371 1214.19 719.464 1206.34 710.63C1197.5 700.814 1193.58 688.054 1193.58 670.386C1193.58 652.719 1198.48 639.959 1207.32 630.143C1216.15 621.309 1226.95 616.402 1240.69 616.402C1254.43 616.402 1265.23 621.309 1274.06 629.162ZM1316.27 715.537C1303.51 706.704 1296.64 690.999 1296.64 670.386C1296.64 649.774 1303.51 635.051 1316.27 625.236C1325.1 619.346 1334.92 616.402 1345.72 616.402C1357.5 616.402 1367.31 619.346 1375.16 625.236C1387.92 634.069 1394.8 649.774 1394.8 670.386C1394.8 690.999 1387.92 705.722 1375.16 715.537C1366.33 721.427 1356.51 724.371 1345.72 724.371C1333.94 724.371 1324.12 721.427 1316.27 715.537ZM1327.07 641.922C1321.18 647.811 1317.25 657.626 1317.25 670.386C1317.25 683.147 1320.2 692.962 1327.07 698.851C1331.98 703.759 1337.86 705.722 1345.72 705.722C1352.59 705.722 1359.46 703.759 1364.37 698.851C1370.26 692.962 1374.18 683.147 1374.18 670.386C1374.18 657.626 1371.24 647.811 1364.37 641.922C1359.46 637.014 1353.57 635.051 1345.72 635.051C1337.86 635.051 1331.98 637.014 1327.07 641.922ZM1353.57 593.826L1368.29 612.475H1353.57L1345.72 601.679L1337.86 612.475H1323.14L1337.86 593.826H1353.57ZM1474.3 690.999V619.346H1493.93V721.427H1472.34L1430.13 648.793V721.427H1410.5V619.346H1433.08L1474.3 690.999ZM1562.64 684.128V666.46H1605.83V721.427H1591.11L1589.14 708.667C1585.22 713.574 1581.29 716.519 1578.35 718.482C1572.46 722.408 1565.59 724.371 1557.73 724.371C1544.97 724.371 1533.19 719.464 1525.34 710.63C1515.53 700.814 1510.62 687.073 1510.62 670.386C1510.62 655.663 1514.55 642.903 1522.4 633.088C1531.23 622.291 1543.99 616.402 1560.68 616.402C1574.42 616.402 1586.2 620.328 1594.05 628.18C1600.92 635.051 1604.85 641.922 1604.85 650.756H1583.25C1583.25 647.811 1581.29 644.866 1577.36 640.94C1572.46 636.033 1567.55 634.069 1560.68 634.069C1551.84 634.069 1545.95 637.014 1540.07 642.903C1534.18 649.774 1531.23 658.608 1531.23 671.368C1531.23 684.128 1534.18 693.943 1541.05 699.833C1545.96 704.74 1552.83 706.703 1561.66 706.703C1566.57 706.703 1570.49 705.722 1574.42 702.777C1580.31 698.851 1585.22 692.962 1586.2 684.128H1562.64ZM1708.89 637.996V722.408H1687.3V637.996H1655.89V620.328H1739.32V637.996H1708.89ZM1800.18 683.146V721.427H1778.58V683.146L1743.25 619.346H1768.77L1790.36 663.516L1810.98 619.346H1835.51L1800.18 683.146ZM1887.54 674.313H1876.74V659.589H1887.54V619.346H1932.69C1948.39 619.346 1959.19 625.236 1966.06 636.033C1970.97 644.866 1973.91 654.682 1973.91 667.442C1973.91 681.183 1970.97 692.962 1965.08 702.777C1957.23 715.537 1946.43 721.427 1930.73 721.427H1886.56V674.313H1887.54ZM1908.15 659.589H1924.84V674.313H1908.15V703.759H1928.76C1936.62 703.759 1942.5 699.833 1946.43 692.962C1949.38 687.073 1951.34 679.22 1951.34 669.405C1951.34 647.811 1943.49 637.014 1927.78 637.014H1907.17V659.589H1908.15ZM2009.25 619.346V721.427H1987.66V619.346H2009.25ZM2104.46 619.346V637.996H2050.48V659.589H2100.54V677.257H2050.48V703.759H2107.41V721.427H2029.86V619.346H2104.46ZM2075.01 593.826L2089.74 612.475H2075.01L2067.16 601.679L2059.31 612.475H2044.59L2059.31 593.826H2075.01ZM2074.03 730.261V746.947H2057.35V730.261H2074.03ZM2186.91 690.999V619.346H2206.54V721.427H2184.95L2142.74 648.793V721.427H2123.11V619.346H2145.69L2186.91 690.999ZM2288.01 619.346V702.777H2339.05V721.427H2267.4V619.346H2288.01ZM2449.97 614.439C2449.97 622.291 2445.06 629.162 2436.23 633.088V685.11C2436.23 710.63 2422.49 723.39 2394.02 723.39C2379.3 723.39 2368.5 719.464 2361.63 710.63C2356.72 704.74 2353.78 695.907 2353.78 686.091V618.365H2375.37V685.11C2375.37 691.98 2377.33 696.888 2381.26 700.814C2384.21 703.759 2389.11 705.722 2394.02 705.722C2407.76 705.722 2414.63 698.851 2414.63 686.091V618.365H2436.23V624.254C2439.17 621.309 2440.15 619.346 2440.15 616.402H2434.27V601.679H2449.97V614.439ZM2402.86 733.205V749.891H2385.19V733.205H2402.86ZM2532.42 629.162C2539.29 636.032 2543.22 643.885 2543.22 652.719H2522.61C2521.62 647.811 2519.66 643.885 2517.7 641.922C2513.77 637.996 2507.88 635.051 2500.03 635.051C2493.16 635.051 2488.25 637.014 2483.34 641.922C2477.45 647.811 2474.51 657.626 2474.51 670.386C2474.51 680.202 2476.47 689.036 2480.4 694.925C2485.31 701.796 2491.2 705.722 2500.03 705.722C2512.79 705.722 2519.66 698.851 2522.61 686.091H2544.2C2542.24 697.87 2537.33 706.703 2529.48 713.574C2521.62 720.445 2511.81 724.371 2499.05 724.371C2485.31 724.371 2473.53 719.464 2465.68 710.63C2456.84 700.814 2452.91 688.054 2452.91 670.386C2452.91 652.719 2457.82 639.959 2466.66 630.143C2475.49 621.309 2486.29 616.402 2500.03 616.402C2513.77 616.402 2524.57 621.309 2532.42 629.162ZM2698.3 619.346V721.427H2678.67V636.033L2660.02 721.427H2639.41L2620.76 636.033V721.427H2601.13V619.346H2632.54L2651.19 699.833L2669.84 619.346H2698.3ZM2737.57 619.346V721.427H2715.97V619.346H2737.57ZM2832.78 619.346V637.996H2778.79V659.589H2828.85V677.257H2778.79V703.759H2835.72V721.427H2758.18V619.346H2832.78ZM2803.33 593.826L2818.05 612.475H2803.33L2795.48 601.679L2787.63 612.475H2772.9L2787.63 593.826H2803.33ZM2816.09 599.715L2797.44 581.066H2817.07L2828.85 599.715H2816.09ZM2915.23 690.999V619.346H2934.86V721.427H2913.27L2871.06 648.793V721.427H2851.43V619.346H2874L2915.23 690.999ZM3057.55 690.999V619.346H3077.19V721.427H3055.59L3013.38 648.793V721.427H2993.75V619.346H3016.33L3057.55 690.999ZM3120.37 700.814L3113.5 721.427H3090.93L3127.25 619.346H3151.78L3188.1 721.427H3164.54L3157.67 700.814H3120.37ZM3139.02 642.903L3126.26 683.146H3152.77L3139.02 642.903ZM3300 619.346V721.427H3280.37V636.033L3261.72 721.427H3239.14L3220.49 636.033V721.427H3200.86V619.346H3232.27L3250.92 699.833L3269.57 619.346H3300Z" fill="#000F9F"/>
<path d="M822.547 783.265C829.418 790.136 833.344 797.989 833.344 806.822H811.75C810.768 801.915 808.805 797.989 806.842 796.025C802.916 792.099 797.027 789.155 789.174 789.155C782.303 789.155 777.395 791.118 772.488 796.025C766.598 801.915 763.654 811.73 763.654 824.49C763.654 834.306 765.617 843.139 769.543 849.029C774.451 855.9 780.34 859.826 789.174 859.826C801.934 859.826 808.805 852.955 811.75 840.195H833.344C831.381 851.973 826.473 860.807 818.621 867.678C810.768 874.549 800.953 878.475 788.193 878.475C774.451 878.475 762.672 873.567 754.82 864.733C745.986 854.918 742.059 842.158 742.059 824.49C742.059 806.822 746.967 794.062 755.801 784.247C764.635 775.413 775.432 770.505 789.174 770.505C802.916 771.487 813.713 775.413 822.547 783.265ZM864.754 869.641C851.994 860.807 845.123 845.103 845.123 824.49C845.123 803.878 851.994 789.155 864.754 779.339C873.588 773.45 883.404 770.505 894.201 770.505C905.98 770.505 915.795 773.45 923.648 779.339C936.408 788.173 943.279 803.878 943.279 824.49C943.279 845.103 936.408 859.826 923.648 869.641C914.814 875.53 904.998 878.475 894.201 878.475C882.422 878.475 872.607 875.53 864.754 869.641ZM875.551 796.025C869.662 801.915 865.736 811.73 865.736 824.49C865.736 837.25 868.68 847.066 875.551 852.955C880.459 857.863 886.348 859.826 894.201 859.826C901.072 859.826 907.943 857.863 912.851 852.955C918.74 847.066 922.666 837.25 922.666 824.49C922.666 811.73 919.721 801.915 912.851 796.025C907.943 791.118 902.053 789.155 894.201 789.155C887.33 789.155 880.459 791.118 875.551 796.025ZM902.053 747.93L916.777 766.579H902.053L893.219 755.782L885.367 766.579H870.643L885.367 747.93H902.053ZM1022.79 845.103V773.45H1042.42V875.53H1020.82L978.615 802.896V875.53H958.984V773.45H981.56L1022.79 845.103ZM1111.13 838.232V820.564H1154.31V875.53H1139.59L1137.63 862.77C1133.7 867.678 1129.77 870.623 1126.83 872.586C1120.94 876.512 1114.07 878.475 1106.22 878.475C1093.46 878.475 1081.68 873.567 1073.83 864.733C1064.01 854.918 1059.1 841.176 1059.1 824.49C1059.1 809.767 1063.03 797.007 1070.88 787.192C1079.72 776.395 1092.48 770.505 1109.16 770.505C1122.9 770.505 1134.68 774.432 1142.54 782.284C1149.41 789.155 1153.33 796.025 1153.33 804.859H1131.74C1131.74 801.915 1129.77 798.97 1125.85 795.044C1120.94 790.136 1116.03 788.173 1109.16 788.173C1100.33 788.173 1094.44 791.118 1088.55 797.007C1082.66 803.878 1079.72 812.712 1079.72 825.472C1079.72 838.232 1082.66 848.047 1089.53 853.936C1094.44 858.844 1101.31 860.807 1110.14 860.807C1115.05 860.807 1118.98 859.826 1122.9 856.881C1128.79 852.955 1133.7 847.066 1134.68 838.232H1111.13ZM1257.38 792.099V876.512H1235.78V792.099H1204.37V774.432H1287.81V792.099H1257.38ZM1348.66 837.25V875.53H1327.07V837.25L1291.73 773.45H1317.25L1338.85 817.619L1359.46 773.45H1384L1348.66 837.25ZM1436.02 828.416H1425.22V813.693H1436.02V773.45H1481.17C1496.88 773.45 1507.67 779.339 1514.55 790.136C1519.45 798.97 1522.4 808.786 1522.4 821.546C1522.4 835.287 1519.45 847.066 1513.56 856.881C1505.71 869.641 1494.91 875.53 1479.21 875.53H1435.04V828.416H1436.02ZM1456.63 813.693H1473.32V828.416H1456.63V857.863H1477.25C1485.1 857.863 1490.99 853.936 1494.91 847.066C1497.86 841.176 1499.82 833.324 1499.82 823.509C1499.82 801.915 1491.97 791.118 1476.26 791.118H1455.65V813.693H1456.63ZM1557.73 773.45V875.53H1536.14V773.45H1557.73ZM1652.95 773.45V791.118H1598.96V812.712H1649.02V830.379H1598.96V856.881H1655.89V874.549H1578.35V773.45H1652.95ZM1623.5 747.93L1638.22 766.579H1623.5L1615.65 755.782L1607.79 766.579H1593.07L1607.79 747.93H1623.5ZM1622.52 885.346V902.032H1605.83V885.346H1622.52ZM1735.4 845.103V773.45H1755.03V875.53H1733.43L1691.23 802.896V875.53H1671.6V773.45H1694.17L1735.4 845.103ZM1837.48 773.45V856.881H1888.52V875.53H1815.88V773.45H1837.48ZM1998.45 768.542C1998.45 776.395 1993.55 783.265 1984.71 787.192V839.213C1984.71 864.733 1970.97 877.493 1942.51 877.493C1927.78 877.493 1916.98 873.567 1910.11 864.733C1905.21 858.844 1902.26 850.01 1902.26 840.195V772.468H1923.86V839.213C1923.86 846.084 1925.82 850.992 1929.75 854.918C1932.69 857.863 1937.6 859.826 1942.51 859.826C1956.25 859.826 1963.12 852.955 1963.12 840.195V772.468H1984.71V778.358C1987.66 775.413 1988.64 773.45 1988.64 770.505H1982.75V755.782H1998.45V768.542ZM1951.34 887.309V903.995H1933.67V887.309H1951.34ZM2080.9 783.265C2087.78 790.136 2091.7 797.989 2091.7 806.822H2071.09C2070.11 801.915 2068.14 797.989 2066.18 796.025C2062.26 792.099 2056.37 789.155 2048.51 789.155C2041.64 789.155 2036.73 791.118 2031.83 796.025C2025.94 801.915 2022.99 811.73 2022.99 824.49C2022.99 834.306 2024.96 843.139 2028.88 849.029C2033.79 855.9 2039.68 859.826 2048.51 859.826C2061.27 859.826 2068.14 852.955 2071.09 840.195H2092.68C2090.72 851.973 2085.81 860.807 2077.96 867.678C2070.11 874.549 2060.29 878.475 2047.53 878.475C2033.79 878.475 2022.01 873.567 2014.16 864.733C2005.33 854.918 2001.4 842.158 2001.4 824.49C2001.4 806.822 2006.31 794.062 2015.14 784.247C2023.97 775.413 2034.77 770.505 2048.51 770.505C2062.26 771.487 2073.05 775.413 2080.9 783.265ZM2170.23 854.918L2163.36 875.53H2139.8L2176.12 773.45H2200.66L2236.97 875.53H2213.42L2206.54 854.918H2170.23ZM2188.88 797.007L2176.12 837.25H2202.62L2188.88 797.007ZM2313.53 845.103V773.45H2333.17V875.53H2311.57L2269.36 802.896V875.53H2249.73V773.45H2272.31L2313.53 845.103ZM2442.12 838.232V820.564H2485.31V875.53H2470.58L2468.62 862.77C2464.69 867.678 2460.77 870.623 2457.82 872.586C2451.93 876.512 2445.06 878.475 2437.21 878.475C2424.45 878.475 2412.67 873.567 2404.82 864.733C2395 854.918 2390.1 841.176 2390.1 824.49C2390.1 809.767 2394.02 797.007 2401.87 787.192C2410.71 776.395 2423.47 770.505 2440.16 770.505C2453.9 770.505 2465.68 774.432 2473.53 782.284C2480.4 789.155 2484.33 796.025 2484.33 804.859H2462.73C2462.73 801.915 2460.77 798.97 2456.84 795.044C2451.93 790.136 2447.03 788.173 2440.16 788.173C2431.32 788.173 2425.43 791.118 2419.54 797.007C2413.65 803.878 2410.71 812.712 2410.71 825.472C2410.71 838.232 2413.65 848.047 2420.52 853.936C2425.43 858.844 2432.3 860.807 2441.14 860.807C2446.04 860.807 2449.97 859.826 2453.9 856.881C2459.79 852.955 2464.69 847.066 2465.68 838.232H2442.12ZM2524.57 773.45V875.53H2502.98V773.45H2524.57ZM2565.79 854.918L2558.92 875.53H2536.35L2572.67 773.45H2597.2L2633.52 875.53H2609.96L2603.09 854.918H2565.79ZM2584.44 797.007L2571.68 837.25H2598.19L2584.44 797.007ZM2709.1 845.103V773.45H2728.73V875.53H2707.14L2664.93 802.896V875.53H2645.3V773.45H2667.88L2709.1 845.103ZM2798.42 838.232V820.564H2841.61V875.53H2826.89L2824.93 862.77C2821 867.678 2817.07 870.623 2814.13 872.586C2808.24 876.512 2801.37 878.475 2793.52 878.475C2780.76 878.475 2768.98 873.567 2761.12 864.733C2751.31 854.918 2746.4 841.176 2746.4 824.49C2746.4 809.767 2750.33 797.007 2758.18 787.192C2767.01 776.395 2779.77 770.505 2796.46 770.505C2810.2 770.505 2821.98 774.432 2829.83 782.284C2836.7 789.155 2840.63 796.025 2840.63 804.859H2819.04C2819.04 801.915 2817.07 798.97 2813.15 795.044C2808.24 790.136 2803.33 788.173 2796.46 788.173C2787.63 788.173 2781.74 791.118 2775.85 797.007C2769.96 803.878 2767.01 812.712 2767.01 825.472C2767.01 838.232 2769.96 848.047 2776.83 853.936C2781.74 858.844 2788.61 860.807 2797.44 860.807C2802.35 860.807 2806.28 859.826 2810.2 856.881C2816.09 852.955 2821 847.066 2821.98 838.232H2798.42Z" fill="#000F9F"/>
</svg>
