<svg width="194" height="50" viewBox="0 0 194 50" fill="none" xmlns="http://www.w3.org/2000/svg">
<path fill-rule="evenodd" clip-rule="evenodd" d="M34.2221 17.4636L20.4886 20.4113L17.5298 34.0932L14.5709 20.4113L0.837402 17.4636L14.5709 14.5159L17.5298 0.833984L20.4886 14.5159L34.2221 17.4636Z" fill="#000F9F"/>
<path fill-rule="evenodd" clip-rule="evenodd" d="M17.5297 27.4754L15.5758 19.4109L7.53662 17.4643L15.5758 15.5177L17.5297 7.50879L19.4837 15.5177L27.5786 17.4643L19.4837 19.4109L17.5297 27.4754Z" fill="#ED1C24"/>
<path fill-rule="evenodd" clip-rule="evenodd" d="M17.5298 0C27.1879 0 35.0596 7.84205 35.0596 17.4638C35.0596 27.0856 27.1879 34.9277 17.5298 34.9277C7.87165 34.9277 0 27.0856 0 17.4638C0 7.84205 7.87165 0 17.5298 0ZM17.5298 0.83426C8.31827 0.83426 0.83741 8.28698 0.83741 17.4638C0.83741 26.6407 8.31827 34.0934 17.5298 34.0934C26.7413 34.0934 34.2222 26.6407 34.2222 17.4638C34.2222 8.28698 26.7413 0.83426 17.5298 0.83426Z" fill="#000F9F"/>
<path fill-rule="evenodd" clip-rule="evenodd" d="M17.5298 21.6356L16.5808 18.4654L13.3428 17.4643L16.5808 16.5188L17.5298 13.293L18.5347 16.5188L21.7169 17.4643L18.5347 18.4654L17.5298 21.6356Z" fill="#FFF200"/>
<path d="M51.9192 23.3594H42.1494V11.7354H51.6401V14.4606H46.0015V16.1291H50.8027V18.8544H46.0015V20.6897H51.9192V23.3594Z" fill="#000F9F"/>
<path d="M56.9437 23.3594L52.98 11.7354H56.8321L58.8977 19.4662L61.0191 11.7354H64.8712L60.7958 23.3594H56.9437Z" fill="#000F9F"/>
<path d="M69.9514 11.7354L74.1384 18.0757L73.9709 15.4061V11.7354H77.6555V23.3594H74.0826L69.8955 17.019L70.063 19.6886V23.3594H66.3784V11.7354H69.9514Z" fill="#000F9F"/>
<path d="M91.0545 15.1278H87.4257C87.4257 14.7385 87.314 14.516 87.0349 14.3491C86.8116 14.1823 86.4766 14.1267 86.0858 14.1267C85.2484 14.1267 84.8576 14.3491 84.746 14.7941C84.6901 15.239 85.1368 15.5727 86.1417 15.8508C87.7607 16.2957 88.7097 16.6294 89.0447 16.7407C90.1054 17.2412 90.6637 18.0199 90.6637 19.0766C90.6637 19.2435 90.6637 19.4659 90.6078 19.6884C90.3845 20.9676 89.6588 22.0243 88.5422 22.6917C87.4815 23.3591 86.0858 23.6928 84.4668 23.6928C83.0712 23.6928 81.9546 23.3591 81.1172 22.6917C80.3356 22.0799 79.9448 21.2457 79.9448 20.2446C79.9448 20.0777 79.9448 19.9109 80.0007 19.7996H83.6853C83.6853 20.189 83.8527 20.5227 84.1319 20.6895C84.411 20.8564 84.8018 20.9676 85.1926 20.9676C86.2533 20.9676 86.8116 20.6895 86.9232 20.1333C86.9791 19.6884 86.5324 19.3547 85.5276 19.0766C83.9644 18.6317 82.9595 18.3536 82.6245 18.1867C81.5638 17.6862 81.0614 16.8519 81.0614 15.8508C81.0614 15.6283 81.0614 15.4059 81.1172 15.1834C81.3405 14.0154 81.9546 13.0699 83.0712 12.4025C84.076 11.7907 85.3601 11.457 86.8674 11.457C88.3748 11.457 89.5471 11.7907 90.2729 12.5138C90.7753 13.1256 91.0545 14.0154 91.0545 15.1278Z" fill="#ED1C24"/>
<path d="M95.1856 23.3594H91.3335L93.3991 11.7354H99.0377C100.489 11.7354 101.606 12.0134 102.331 12.5696C103.057 13.0702 103.392 13.8488 103.392 14.8499C103.392 15.128 103.392 15.3505 103.336 15.6842C102.834 18.4094 100.992 19.7442 97.7536 19.7442H95.7997L95.1856 23.3594ZM96.3021 17.019H97.8653C98.8702 17.019 99.4843 16.5741 99.6518 15.6842C99.6518 15.6286 99.6518 15.5173 99.6518 15.4617C99.6518 14.7943 99.0377 14.4606 97.8095 14.4606H96.7487L96.3021 17.019Z" fill="#ED1C24"/>
<path d="M115.451 16.1845H111.822C111.878 15.5727 111.767 15.1277 111.432 14.794C111.152 14.4603 110.65 14.2935 110.092 14.2935C108.64 14.2935 107.747 15.4058 107.356 17.6861C107.245 18.1311 107.245 18.5204 107.245 18.8541C107.245 20.1889 107.859 20.8007 109.143 20.8007C110.259 20.8007 111.041 20.1333 111.432 18.8541H115.116C114.67 20.3558 113.888 21.5237 112.716 22.358C111.543 23.1922 110.203 23.6372 108.696 23.6372C107.021 23.6372 105.737 23.1922 104.844 22.4136C103.951 21.5793 103.448 20.4114 103.448 18.9653C103.448 18.5204 103.504 18.0198 103.56 17.5193C103.895 15.6839 104.732 14.1822 106.016 13.0699C107.3 11.9575 108.752 11.4014 110.427 11.4014C112.101 11.4014 113.33 11.7907 114.167 12.5137C115.005 13.2367 115.451 14.2935 115.451 15.6283C115.451 15.8508 115.451 16.0176 115.451 16.1845Z" fill="#ED1C24"/>
<path d="M44.9409 36.1511V40.9342H43.7127V36.1511H41.9263V35.15H46.6716V36.1511H44.9409ZM48.2906 40.5449C47.5648 40.0443 47.174 39.1545 47.174 37.9865C47.174 36.8185 47.5648 35.9843 48.2906 35.4281C48.793 35.0944 49.3513 34.9275 49.9654 34.9275C50.6353 34.9275 51.1936 35.0944 51.6402 35.4281C52.366 35.9287 52.7568 36.8185 52.7568 37.9865C52.7568 39.1545 52.366 39.9887 51.6402 40.5449C51.1378 40.8786 50.5795 41.0454 49.9654 41.0454C49.2955 41.0454 48.7372 40.8786 48.2906 40.5449ZM48.9047 36.3736C48.5697 36.7073 48.3464 37.2635 48.3464 37.9865C48.3464 38.7095 48.5139 39.2657 48.9047 39.5994C49.1838 39.8775 49.5188 39.9887 49.9654 39.9887C50.3562 39.9887 50.747 39.8775 51.0261 39.5994C51.3611 39.2657 51.5844 38.7095 51.5844 37.9865C51.5844 37.2635 51.4169 36.7073 51.0261 36.3736C50.747 36.0955 50.412 35.9843 49.9654 35.9843C49.5188 35.9843 49.1838 36.0955 48.9047 36.3736ZM50.3562 33.6483L51.1936 34.7051H50.3562L49.9096 34.0933L49.463 34.7051H48.6256L49.463 33.6483H50.3562ZM51.8635 33.5371C51.7519 33.6483 51.6961 33.7596 51.6961 33.9264H51.082C51.082 33.6483 51.1936 33.4259 51.4727 33.259C51.5844 33.1478 51.6961 33.0922 51.6961 33.0365C51.6961 32.8697 51.6402 32.8141 51.5286 32.8141C51.3611 32.8141 51.3053 32.8697 51.2494 33.0922H50.6912C50.6912 32.8141 50.747 32.6472 50.9703 32.536C51.082 32.4248 51.2494 32.3691 51.4727 32.3691C51.6402 32.3691 51.8077 32.4248 51.9752 32.4804C52.1985 32.5916 52.3102 32.7585 52.3102 33.0365C52.2543 33.2034 52.0868 33.3703 51.8635 33.5371ZM57.2788 39.1545V35.0944H58.3953V40.8786H57.1671L54.7666 36.7629V40.8786H53.65V35.0944H54.934L57.2788 39.1545ZM62.3032 38.7651V37.764H64.7597V40.8786H63.9222L63.8106 40.1556C63.5873 40.4337 63.364 40.6005 63.1965 40.7117C62.8615 40.9342 62.4707 41.0454 62.0241 41.0454C61.2984 41.0454 60.6284 40.7674 60.1818 40.2668C59.6235 39.7106 59.3444 38.932 59.3444 37.9865C59.3444 37.1522 59.5677 36.4292 60.0143 35.873C60.5168 35.2612 61.2425 34.9275 62.1916 34.9275C62.9732 34.9275 63.6431 35.15 64.0897 35.5949C64.4805 35.9843 64.7038 36.3736 64.7038 36.8741H63.4756C63.4756 36.7073 63.364 36.5404 63.1407 36.318C62.8615 36.0399 62.5824 35.9286 62.1916 35.9286C61.6892 35.9286 61.3542 36.0955 61.0192 36.4292C60.6843 36.8185 60.5168 37.3191 60.5168 38.0421C60.5168 38.7651 60.6843 39.3213 61.0751 39.655C61.3542 39.9331 61.745 40.0443 62.2474 40.0443C62.5266 40.0443 62.7499 39.9887 62.9732 39.8219C63.3081 39.5994 63.5873 39.2657 63.6431 38.7651H62.3032ZM72.4638 35.6506C72.8546 36.0399 73.0779 36.4848 73.0779 36.9854H71.8497C71.7939 36.7073 71.6822 36.4848 71.5706 36.3736C71.3473 36.1511 71.0123 35.9843 70.5657 35.9843C70.1749 35.9843 69.8958 36.0955 69.6166 36.3736C69.2817 36.7073 69.1142 37.2635 69.1142 37.9865C69.1142 38.5427 69.2258 39.0432 69.4492 39.3769C69.7283 39.7662 70.0633 39.9887 70.5657 39.9887C71.2915 39.9887 71.6822 39.5994 71.8497 38.8764H73.0779C72.9663 39.5438 72.6871 40.0443 72.2405 40.4337C71.7939 40.823 71.2356 41.0454 70.5099 41.0454C69.7283 41.0454 69.0584 40.7674 68.6117 40.2668C68.1093 39.7106 67.886 38.9876 67.886 37.9865C67.886 36.9854 68.1651 36.2624 68.6676 35.7062C69.17 35.2056 69.7841 34.9275 70.5657 34.9275C71.3473 34.9275 71.9614 35.2056 72.4638 35.6506ZM74.8644 40.5449C74.1387 40.0443 73.7479 39.1545 73.7479 37.9865C73.7479 36.8185 74.1387 35.9843 74.8644 35.4281C75.3669 35.0944 75.9251 34.9275 76.5392 34.9275C77.2092 34.9275 77.7674 35.0944 78.214 35.4281C78.9398 35.9287 79.3306 36.8185 79.3306 37.9865C79.3306 39.1545 78.9398 39.9887 78.214 40.5449C77.7116 40.8786 77.1533 41.0454 76.5392 41.0454C75.8693 41.0454 75.311 40.8786 74.8644 40.5449ZM75.4785 36.3736C75.1435 36.7073 74.9202 37.2635 74.9202 37.9865C74.9202 38.7095 75.0877 39.2657 75.4785 39.5994C75.7576 39.8775 76.0926 39.9887 76.5392 39.9887C76.93 39.9887 77.3208 39.8775 77.5999 39.5994C77.9349 39.2657 78.1582 38.7095 78.1582 37.9865C78.1582 37.2635 77.9907 36.7073 77.5999 36.3736C77.3208 36.0955 76.9858 35.9843 76.5392 35.9843C76.0926 35.9843 75.7576 36.0955 75.4785 36.3736ZM76.9858 33.6483L77.8232 34.7051H76.9858L76.5392 34.0933L76.0926 34.7051H75.2552L76.0926 33.6483H76.9858ZM83.8526 39.1545V35.0944H84.9692V40.8786H83.741L81.3404 36.7629V40.8786H80.2238V35.0944H81.5079L83.8526 39.1545ZM88.8771 38.7651V37.764H91.3335V40.8786H90.4961L90.3844 40.1556C90.1611 40.4337 89.9378 40.6005 89.7703 40.7117C89.4353 40.9342 89.0445 41.0454 88.5979 41.0454C87.8722 41.0454 87.2022 40.7674 86.7556 40.2668C86.1973 39.7106 85.9182 38.932 85.9182 37.9865C85.9182 37.1522 86.1415 36.4292 86.5882 35.873C87.0906 35.2612 87.8163 34.9275 88.7654 34.9275C89.547 34.9275 90.2169 35.15 90.6635 35.5949C91.0543 35.9843 91.2776 36.3736 91.2776 36.8741H90.0494C90.0494 36.7073 89.9378 36.5404 89.7145 36.318C89.4353 36.0399 89.1562 35.9286 88.7654 35.9286C88.263 35.9286 87.928 36.0955 87.593 36.4292C87.2581 36.8185 87.0906 37.3191 87.0906 38.0421C87.0906 38.7651 87.2581 39.3213 87.6489 39.655C87.928 39.9331 88.3188 40.0443 88.8212 40.0443C89.1004 40.0443 89.3237 39.9887 89.547 39.8219C89.882 39.5994 90.1611 39.2657 90.2169 38.7651H88.8771ZM97.1953 36.1511V40.9342H95.9671V36.1511H94.1807V35.15H98.926V36.1511H97.1953ZM102.387 38.7095V40.8786H101.159V38.7095L99.1493 35.0944H100.601L101.829 37.5972L103.001 35.0944H104.397L102.387 38.7095ZM107.356 38.209H106.742V37.3747H107.356V35.0944H109.924C110.817 35.0944 111.431 35.4281 111.822 36.0399C112.101 36.5404 112.269 37.0966 112.269 37.8196C112.269 38.5983 112.101 39.2657 111.766 39.8219C111.32 40.5449 110.706 40.8786 109.812 40.8786H107.3V38.209H107.356ZM108.528 37.3747H109.477V38.209H108.528V39.8775H109.701C110.147 39.8775 110.482 39.655 110.706 39.2657C110.873 38.932 110.985 38.487 110.985 37.9309C110.985 36.7073 110.538 36.0955 109.645 36.0955H108.472V37.3747H108.528ZM114.279 35.0944V40.8786H113.05V35.0944H114.279ZM119.694 35.0944V36.1511H116.623V37.3747H119.47V38.3758H116.623V39.8775H119.861V40.8786H115.451V35.0944H119.694ZM118.019 33.6483L118.856 34.7051H118.019L117.572 34.0933L117.126 34.7051H116.288L117.126 33.6483H118.019ZM117.963 41.3791V42.3246H117.014V41.3791H117.963ZM124.383 39.1545V35.0944H125.5V40.8786H124.272L121.871 36.7629V40.8786H120.754V35.0944H122.039L124.383 39.1545ZM130.133 35.0944V39.8219H133.036V40.8786H128.961V35.0944H130.133ZM139.345 34.8163C139.345 35.2612 139.066 35.6506 138.563 35.873V38.8208C138.563 40.2668 137.782 40.9898 136.163 40.9898C135.325 40.9898 134.711 40.7674 134.321 40.2668C134.041 39.9331 133.874 39.4325 133.874 38.8764V35.0388H135.102V38.8208C135.102 39.2101 135.214 39.4882 135.437 39.7106C135.605 39.8775 135.884 39.9887 136.163 39.9887C136.944 39.9887 137.335 39.5994 137.335 38.8764V35.0388H138.563V35.3725C138.731 35.2056 138.787 35.0944 138.787 34.9275H138.452V34.0933H139.345V34.8163ZM136.665 41.546V42.4915H135.66V41.546H136.665ZM144.034 35.6506C144.425 36.0399 144.649 36.4848 144.649 36.9854H143.476C143.42 36.7073 143.309 36.4848 143.197 36.3736C142.974 36.1511 142.639 35.9843 142.192 35.9843C141.801 35.9843 141.522 36.0955 141.243 36.3736C140.908 36.7073 140.741 37.2635 140.741 37.9865C140.741 38.5427 140.852 39.0432 141.076 39.3769C141.355 39.7662 141.69 39.9887 142.192 39.9887C142.918 39.9887 143.309 39.5994 143.476 38.8764H144.704C144.593 39.5438 144.314 40.0443 143.867 40.4337C143.42 40.823 142.862 41.0454 142.136 41.0454C141.355 41.0454 140.685 40.7674 140.238 40.2668C139.736 39.7106 139.512 38.9876 139.512 37.9865C139.512 36.9854 139.792 36.2624 140.294 35.7062C140.797 35.2056 141.411 34.9275 142.192 34.9275C142.974 34.9275 143.588 35.2056 144.034 35.6506ZM153.469 35.0944V40.8786H152.353V36.0399L151.292 40.8786H150.12L149.059 36.0399V40.8786H147.942V35.0944H149.729L150.79 39.655L151.85 35.0944H153.469ZM155.702 35.0944V40.8786H154.474V35.0944H155.702ZM161.118 35.0944V36.1511H158.047V37.3747H160.894V38.3758H158.047V39.8775H161.285V40.8786H156.875V35.0944H161.118ZM159.443 33.6483L160.28 34.7051H159.443L158.996 34.0933L158.55 34.7051H157.712L158.55 33.6483H159.443ZM160.169 33.982L159.108 32.9253H160.224L160.894 33.982H160.169ZM165.807 39.1545V35.0944H166.924V40.8786H165.695L163.295 36.7629V40.8786H162.178V35.0944H163.462L165.807 39.1545ZM173.902 39.1545V35.0944H175.019V40.8786H173.79L171.39 36.7629V40.8786H170.273V35.0944H171.557L173.902 39.1545ZM177.475 39.7106L177.084 40.8786H175.8L177.866 35.0944H179.262L181.327 40.8786H179.987L179.596 39.7106H177.475ZM178.536 36.4292L177.81 38.7095H179.317L178.536 36.4292ZM187.691 35.0944V40.8786H186.575V36.0399L185.514 40.8786H184.23L183.169 36.0399V40.8786H182.053V35.0944H183.839L184.9 39.655L185.961 35.0944H187.691Z" fill="#000F9F"/>
<path d="M44.9409 44.8835V49.6666H43.7127V44.8835H41.9263V43.8824H46.6716V44.8835H44.9409ZM47.3974 49.6666V43.8268H50.3562C51.0261 43.8268 51.5286 44.0493 51.8635 44.4386C52.0868 44.7167 52.1985 45.0504 52.1985 45.4397C52.1985 45.7734 52.1427 46.0515 51.9752 46.274C51.8077 46.4964 51.5844 46.7189 51.3053 46.7745C51.5844 46.8858 51.7519 47.0526 51.8635 47.1639C51.9752 47.3863 52.031 47.72 52.031 48.2206C52.031 48.6655 52.031 48.9436 52.0868 49.0548C52.0868 49.2217 52.1985 49.2773 52.3102 49.3329V49.4998H50.9703C50.8586 49.3329 50.8028 48.9436 50.8028 48.4431C50.8028 47.9981 50.747 47.72 50.6912 47.6088C50.5795 47.4419 50.3004 47.3863 49.8538 47.3863H48.5697V49.6666H47.3974ZM48.6256 46.3852H50.0771C50.6912 46.3852 51.0261 46.1071 51.0261 45.6066C51.0261 45.106 50.747 44.8279 50.1887 44.8279H48.6814V46.3852H48.6256ZM57.9487 43.8268V47.6088C57.9487 49.0548 57.1671 49.7779 55.5481 49.7779C54.7107 49.7779 54.0966 49.5554 53.7058 49.0548C53.4267 48.7211 53.2592 48.2206 53.2592 47.6644V43.8268H54.4874V47.6088C54.4874 47.9981 54.5991 48.2762 54.8224 48.4987C54.9899 48.6655 55.269 48.7768 55.5481 48.7768C56.3297 48.7768 56.7205 48.3874 56.7205 47.6644V43.8268H57.9487ZM62.694 47.8869V43.8268H63.8106V49.611H62.5824L60.1818 45.4953V49.611H59.0653V43.8268H60.3493L62.694 47.8869ZM67.7185 47.4976V46.4964H70.1749V49.611H69.3375L69.2258 48.888C69.0025 49.1661 68.7792 49.3329 68.6117 49.4442C68.2768 49.6666 67.886 49.7779 67.4394 49.7779C66.7136 49.7779 66.0437 49.4998 65.5971 48.9992C65.0388 48.4431 64.7597 47.6644 64.7597 46.7189C64.7597 45.8847 64.983 45.1616 65.4296 44.6055C65.932 43.9937 66.6578 43.66 67.6068 43.66C68.3884 43.66 69.0584 43.8824 69.505 44.3274C69.8958 44.7167 70.1191 45.106 70.1191 45.6066H68.8909C68.8909 45.4397 68.7792 45.2729 68.5559 45.0504C68.2768 44.7723 67.9976 44.6611 67.6068 44.6611C67.1044 44.6611 66.7694 44.8279 66.4345 45.1616C66.0995 45.551 65.932 46.0515 65.932 46.7745C65.932 47.4976 66.0995 48.0537 66.4903 48.3874C66.7694 48.6655 67.1602 48.7768 67.6627 48.7768C67.9418 48.7768 68.1651 48.7211 68.3884 48.5543C68.7234 48.3318 69.0025 47.9981 69.0584 47.4976H67.7185ZM75.9809 44.8835V49.6666H74.8086V44.8835H73.0221V43.8824H77.7674V44.8835H75.9809ZM79.7214 48.4431L79.3306 49.611H78.0466L80.1122 43.8268H81.5079L83.5735 49.611H82.2336L81.8428 48.4431H79.7214ZM81.3404 42.3808L82.1778 43.4375H81.3404L80.8937 42.8257L80.4471 43.4375H79.6097L80.4471 42.3808H81.3404ZM80.7821 45.1616L80.0563 47.4419H81.5637L80.7821 45.1616ZM89.9378 43.8268V49.611H88.8212V44.7723L87.7605 49.611H86.5881L85.5274 44.7723V49.611H84.4109V43.8268H86.1973L87.0906 48.3874L88.1513 43.8268H89.9378ZM97.6419 44.383C98.0327 44.7723 98.2561 45.2172 98.2561 45.7178H97.0279C96.972 45.4397 96.8604 45.2172 96.7487 45.106C96.5254 44.8835 96.1904 44.7167 95.7438 44.7167C95.353 44.7167 95.0739 44.8279 94.7948 45.106C94.4598 45.4397 94.2923 45.9959 94.2923 46.7189C94.2923 47.2751 94.404 47.7756 94.6273 48.1094C94.9064 48.4987 95.2414 48.7211 95.7438 48.7211C96.4696 48.7211 96.8604 48.3318 97.0279 47.6088H98.2561C98.1444 48.2762 97.8653 48.7768 97.4186 49.1661C96.972 49.5554 96.4137 49.7779 95.688 49.7779C94.9064 49.7779 94.2365 49.4998 93.7899 48.9992C93.2874 48.4431 93.0641 47.72 93.0641 46.7189C93.0641 45.7178 93.3433 44.9948 93.8457 44.4386C94.3481 43.9381 94.9622 43.66 95.7438 43.66C96.5254 43.7156 97.1953 43.9381 97.6419 44.383ZM102.666 47.0526H100.377V49.6666H99.1493V43.8268H100.377V45.9959H102.666V43.8268H103.895V49.611H102.666V47.0526ZM106.295 48.4431L105.904 49.611H104.62L106.686 43.8268H108.082L110.147 49.611H108.807L108.417 48.4431H106.295ZM107.412 42.9369C107.747 42.9369 107.97 42.8257 108.026 42.5476H108.528C108.472 43.1594 108.082 43.4931 107.356 43.4931C106.742 43.4931 106.407 43.1594 106.351 42.5476H106.853C106.909 42.7701 107.133 42.9369 107.412 42.9369ZM107.356 45.1616L106.63 47.4419H108.137L107.356 45.1616ZM116.512 43.8268V49.611H115.395V44.7723L114.334 49.611H113.162L112.101 44.7723V49.611H110.985V43.8268H112.771L113.832 48.3874L114.893 43.8268H116.512ZM120.085 49.1105C119.805 48.7768 119.638 48.3874 119.638 47.8869H120.81C120.81 48.4987 121.257 48.8324 122.038 48.8324C122.876 48.8324 123.267 48.6099 123.267 48.1094C123.267 47.8869 123.155 47.72 122.988 47.6088C122.876 47.5532 122.597 47.4419 122.206 47.3863L121.592 47.2195C120.978 47.0526 120.531 46.9414 120.308 46.7745C119.917 46.4964 119.75 46.1071 119.75 45.551C119.75 45.106 119.861 44.7167 120.14 44.4386C120.531 43.9937 121.145 43.7712 121.983 43.7712C122.764 43.7712 123.378 43.9937 123.769 44.4386C124.104 44.7723 124.216 45.1616 124.216 45.6622H123.043C122.988 45.106 122.597 44.7723 121.871 44.7723C121.592 44.7723 121.369 44.8279 121.201 44.9392C120.978 45.0504 120.866 45.2173 120.866 45.4953C120.866 45.7734 121.089 45.9959 121.48 46.1071L122.876 46.4408C123.378 46.5521 123.713 46.7189 123.937 46.8858C124.272 47.1639 124.383 47.4976 124.383 47.9981C124.383 48.7211 124.048 49.2773 123.434 49.611C123.043 49.8335 122.597 49.8891 122.094 49.8891C121.145 49.7779 120.475 49.5554 120.085 49.1105ZM126.17 49.2773C125.444 48.7768 125.053 47.8869 125.053 46.7189C125.053 45.551 125.444 44.7167 126.17 44.1605C126.672 43.8268 127.23 43.66 127.845 43.66C128.514 43.66 129.073 43.8268 129.519 44.1605C130.245 44.6611 130.636 45.551 130.636 46.7189C130.636 47.8869 130.245 48.7211 129.519 49.2773C129.017 49.611 128.459 49.7779 127.845 49.7779C127.23 49.7779 126.672 49.611 126.17 49.2773ZM126.84 45.106C126.505 45.4397 126.281 45.9959 126.281 46.7189C126.281 47.4419 126.449 47.9981 126.84 48.3318C127.119 48.6099 127.454 48.7211 127.9 48.7211C128.291 48.7211 128.682 48.6099 128.961 48.3318C129.296 47.9981 129.519 47.4419 129.519 46.7189C129.519 45.9959 129.352 45.4397 128.961 45.106C128.682 44.8279 128.347 44.7167 127.9 44.7167C127.454 44.7167 127.119 44.8279 126.84 45.106ZM129.24 42.2695L128.18 43.3263H127.454L128.124 42.2695H129.24ZM135.939 44.383C136.33 44.7723 136.554 45.2172 136.554 45.7178H135.325C135.27 45.4397 135.158 45.2172 135.046 45.106C134.823 44.8835 134.488 44.7167 134.041 44.7167C133.651 44.7167 133.371 44.8279 133.092 45.106C132.757 45.4397 132.59 45.9959 132.59 46.7189C132.59 47.2751 132.702 47.7756 132.925 48.1094C133.204 48.4987 133.539 48.7211 134.041 48.7211C134.767 48.7211 135.158 48.3318 135.325 47.6088H136.554C136.442 48.2762 136.163 48.7768 135.716 49.1661C135.27 49.5554 134.711 49.7779 133.986 49.7779C133.204 49.7779 132.534 49.4998 132.087 48.9992C131.585 48.4431 131.362 47.72 131.362 46.7189C131.362 45.7178 131.641 44.9948 132.143 44.4386C132.646 43.9381 133.26 43.66 134.041 43.66C134.823 43.7156 135.437 43.9381 135.939 44.383ZM141.02 47.6644V49.611H139.792V43.8268H141.02V46.1627L143.253 43.8268H144.816L142.415 46.2184L144.928 49.6666H143.365L141.578 47.1082L141.02 47.6644ZM149.059 47.0526H146.77V49.6666H145.542V43.8268H146.77V45.9959H149.059V43.8268H150.287V49.611H149.059V47.0526ZM152.688 48.4431L152.297 49.611H151.013L153.078 43.8268H154.474L156.54 49.611H155.2L154.809 48.4431H152.688ZM153.748 45.1616L153.023 47.4419H154.53L153.748 45.1616ZM155.2 42.3251L154.139 43.3819H153.413L154.083 42.3251H155.2ZM161.62 44.383C162.011 44.7723 162.234 45.2172 162.234 45.7178H161.006C160.95 45.4397 160.838 45.2172 160.727 45.106C160.504 44.8835 160.169 44.7167 159.722 44.7167C159.331 44.7167 159.052 44.8279 158.773 45.106C158.438 45.4397 158.27 45.9959 158.27 46.7189C158.27 47.2751 158.382 47.7756 158.605 48.1094C158.885 48.4987 159.22 48.7211 159.722 48.7211C160.448 48.7211 160.838 48.3318 161.006 47.6088H162.234C162.123 48.2762 161.843 48.7768 161.397 49.1661C160.95 49.5554 160.392 49.7779 159.666 49.7779C158.885 49.7779 158.215 49.4998 157.768 48.9992C157.266 48.4431 157.042 47.72 157.042 46.7189C157.042 45.7178 157.321 44.9948 157.824 44.4386C158.326 43.9381 158.94 43.66 159.722 43.66C160.504 43.7156 161.118 43.9381 161.62 44.383ZM166.589 47.0526H164.3V49.6666H163.072V43.8268H164.3V45.9959H166.589V43.8268H167.817V49.611H166.589V47.0526ZM174.684 47.0526H172.395V49.6666H171.167V43.8268H172.395V45.9959H174.684V43.8268H175.912V49.611H174.684V47.0526ZM178.312 48.4431L177.922 49.611H176.638L178.703 43.8268H180.099L182.165 49.611H180.881L180.49 48.4431H178.312ZM179.15 43.3819L178.089 42.3251H179.206L179.876 43.3819H179.15ZM179.429 45.1616L178.703 47.4419H180.211L179.429 45.1616ZM186.519 47.8869V43.8268H187.636V49.611H186.407L184.007 45.4953V49.611H182.89V43.8268H184.174L186.519 47.8869ZM191.544 47.4976V46.4964H194V49.611H193.163L193.051 48.888C192.828 49.1661 192.604 49.3329 192.437 49.4442C192.102 49.6666 191.711 49.7779 191.264 49.7779C190.539 49.7779 189.869 49.4998 189.422 48.9992C188.864 48.4431 188.585 47.6644 188.585 46.7189C188.585 45.8847 188.808 45.1616 189.255 44.6055C189.757 43.9937 190.483 43.66 191.432 43.66C192.213 43.66 192.883 43.8824 193.33 44.3274C193.721 44.7167 193.944 45.106 193.944 45.6066H192.716C192.716 45.4397 192.604 45.2729 192.381 45.0504C192.102 44.7723 191.823 44.6611 191.432 44.6611C190.929 44.6611 190.594 44.8279 190.259 45.1616C189.925 45.551 189.757 46.0515 189.757 46.7745C189.757 47.4976 189.925 48.0537 190.315 48.3874C190.594 48.6655 190.985 48.7768 191.488 48.7768C191.767 48.7768 191.99 48.7211 192.213 48.5543C192.548 48.3318 192.828 47.9981 192.883 47.4976H191.544Z" fill="#000F9F"/>
</svg>
