<svg width="147" height="41" viewBox="0 0 147 41" fill="none" xmlns="http://www.w3.org/2000/svg">
<path fill-rule="evenodd" clip-rule="evenodd" d="M27.3371 14.6265L16.6532 16.9284L14.3514 27.6124L12.093 16.9284L1.36572 14.6265L12.093 12.3681L14.3514 1.64062L16.6532 12.3681L27.3371 14.6265Z" fill="#000F9F"/>
<path fill-rule="evenodd" clip-rule="evenodd" d="M14.3517 22.4443L12.8316 16.1468L6.57764 14.6267L12.8316 13.1066L14.3517 6.85254L15.8717 13.1066L22.1692 14.6267L15.8717 16.1468L14.3517 22.4443Z" fill="#ED1C24"/>
<path fill-rule="evenodd" clip-rule="evenodd" d="M14.3515 0.989258C21.865 0.989258 27.9886 7.11304 27.9886 14.6266C27.9886 22.1402 21.865 28.264 14.3515 28.264C6.83804 28.264 0.714355 22.1836 0.714355 14.6266C0.714355 7.11304 6.83804 0.989258 14.3515 0.989258ZM14.3515 1.64072C7.18548 1.64072 1.36581 7.46049 1.36581 14.6266C1.36581 21.7928 7.18548 27.6125 14.3515 27.6125C21.5175 27.6125 27.3372 21.7928 27.3372 14.6266C27.3372 7.46049 21.5175 1.64072 14.3515 1.64072Z" fill="#000F9F"/>
<path fill-rule="evenodd" clip-rule="evenodd" d="M14.3515 17.8833L13.6132 15.4078L11.1377 14.626L13.6132 13.8877L14.3515 11.4121L15.1333 13.8877L17.6088 14.626L15.1333 15.4078L14.3515 17.8833Z" fill="#FFF200"/>
<path d="M41.1047 19.2304H33.5044V10.1533H40.8876V12.2814H36.5011V13.5844H40.2361V15.7125H36.5011V17.1457H41.1047V19.2304V19.2304Z" fill="#000F9F"/>
<path d="M45.0567 19.2304L41.9731 10.1533H44.9698L46.5768 16.1902L48.2271 10.1533H51.2238L48.0534 19.2304H45.0567Z" fill="#000F9F"/>
<path d="M55.1326 10.1533L58.3899 15.1045L58.2596 13.0198V10.1533H61.126V19.2304H58.3464L55.0891 14.2793L55.2194 16.364V19.2304H52.353V10.1533H55.1326Z" fill="#000F9F"/>
<path d="M71.5494 12.802H68.7264C68.7264 12.498 68.6396 12.3243 68.4224 12.194C68.2487 12.0637 67.9881 12.0202 67.6841 12.0202C67.0326 12.0202 66.7286 12.194 66.6418 12.5414C66.5983 12.8889 66.9458 13.1494 67.7275 13.3666C68.987 13.7141 69.7253 13.9746 69.9859 14.0615C70.8111 14.4524 71.2454 15.0604 71.2454 15.8856C71.2454 16.0159 71.2454 16.1896 71.2019 16.3633C71.0282 17.3623 70.4636 18.1875 69.595 18.7086C68.7698 19.2298 67.6841 19.4904 66.4246 19.4904C65.3388 19.4904 64.4702 19.2298 63.8188 18.7086C63.2108 18.2309 62.9067 17.5794 62.9067 16.7977C62.9067 16.6674 62.9067 16.5371 62.9502 16.4502H65.8166C65.8166 16.7542 65.9469 17.0148 66.164 17.1451C66.3812 17.2754 66.6852 17.3623 66.9892 17.3623C67.8144 17.3623 68.2487 17.1451 68.3355 16.7108C68.379 16.3633 68.0315 16.1028 67.2498 15.8856C66.0337 15.5382 65.252 15.321 64.9914 15.1907C64.1662 14.7998 63.7753 14.1484 63.7753 13.3666C63.7753 13.1929 63.7753 13.0192 63.8188 12.8454C63.9925 11.9334 64.4702 11.1951 65.3388 10.6739C66.1206 10.1961 67.1195 9.93555 68.2921 9.93555C69.4647 9.93555 70.3768 10.1961 70.9414 10.7607C71.3322 11.2819 71.5928 11.9334 71.5494 12.802Z" fill="#ED1C24"/>
<path d="M74.7633 19.2304H71.7666L73.3735 10.1533H77.76C78.8892 10.1533 79.7578 10.3705 80.3224 10.8048C80.887 11.1957 81.1476 11.8037 81.1476 12.5855C81.1476 12.8026 81.1476 12.9763 81.1041 13.2369C80.7133 15.3651 79.2801 16.4074 76.7611 16.4074H75.241L74.7633 19.2304ZM75.6319 14.2793H76.848C77.6297 14.2793 78.1074 13.9318 78.2377 13.2369C78.2377 13.1935 78.2377 13.1066 78.2377 13.0632C78.2377 12.542 77.76 12.2814 76.8045 12.2814H75.9793L75.6319 14.2793Z" fill="#ED1C24"/>
<path d="M90.5284 13.6276H87.7055C87.7489 13.1499 87.662 12.8025 87.4015 12.5419C87.1843 12.2813 86.7934 12.151 86.3591 12.151C85.2299 12.151 84.5351 13.0196 84.231 14.8003C84.1442 15.1477 84.1442 15.4518 84.1442 15.7123C84.1442 16.7547 84.6219 17.2324 85.6208 17.2324C86.4894 17.2324 87.0974 16.7113 87.4015 15.7123H90.2679C89.9204 16.885 89.3124 17.797 88.4004 18.4485C87.4883 19.1 86.446 19.4474 85.2734 19.4474C83.9705 19.4474 82.9716 19.1 82.2767 18.4919C81.5818 17.8405 81.1909 16.9284 81.1909 15.7992C81.1909 15.4518 81.2343 15.0609 81.2778 14.67C81.5384 13.2368 82.1898 12.0641 83.1887 11.1955C84.1876 10.3269 85.3168 9.89258 86.6197 9.89258C87.9226 9.89258 88.8781 10.1966 89.5295 10.7612C90.181 11.3258 90.5284 12.151 90.5284 13.1933C90.5284 13.3671 90.5284 13.4974 90.5284 13.6276Z" fill="#ED1C24"/>
<path d="M35.6758 29.2195V32.9545H34.7203V29.2195H33.3306V28.4377H37.0221V29.2195H35.6758ZM38.2816 32.6505C37.717 32.2596 37.413 31.5647 37.413 30.6527C37.413 29.7406 37.717 29.0892 38.2816 28.6548C38.6725 28.3943 39.1068 28.264 39.5845 28.264C40.1057 28.264 40.54 28.3943 40.8875 28.6548C41.452 29.0457 41.7561 29.7406 41.7561 30.6527C41.7561 31.5647 41.452 32.2162 40.8875 32.6505C40.4966 32.9111 40.0623 33.0414 39.5845 33.0414C39.0634 33.0414 38.6291 32.9111 38.2816 32.6505ZM38.7594 29.3932C38.4988 29.6538 38.3251 30.0881 38.3251 30.6527C38.3251 31.2173 38.4554 31.6516 38.7594 31.9122C38.9765 32.1293 39.2371 32.2162 39.5845 32.2162C39.8886 32.2162 40.1926 32.1293 40.4097 31.9122C40.6703 31.6516 40.844 31.2173 40.844 30.6527C40.844 30.0881 40.7137 29.6538 40.4097 29.3932C40.1926 29.176 39.932 29.0892 39.5845 29.0892C39.2805 29.0892 38.9765 29.2195 38.7594 29.3932ZM39.932 27.2651L40.5834 28.0902H39.932L39.5845 27.6125L39.2371 28.0902H38.5856L39.2371 27.2651H39.932ZM41.0612 27.2216C40.9743 27.3085 40.9309 27.3953 40.9309 27.5256H40.4531C40.4531 27.3085 40.54 27.1348 40.7572 27.0045C40.844 26.9176 40.9309 26.8742 40.9309 26.8307C40.9309 26.7004 40.8875 26.657 40.8006 26.657C40.6703 26.657 40.6269 26.7004 40.5834 26.8742H40.1491C40.1491 26.657 40.1926 26.5267 40.3663 26.4399C40.4531 26.353 40.5834 26.3096 40.7572 26.3096C40.8875 26.3096 41.0177 26.353 41.148 26.3964C41.3218 26.4833 41.4086 26.6136 41.4086 26.8307C41.3652 26.9176 41.2783 27.0479 41.0612 27.2216ZM45.2739 31.5647V28.3943H46.1425V32.9111H45.1871L43.3196 29.6972V32.9111H42.4509V28.3943H43.4498L45.2739 31.5647ZM49.1827 31.2607V30.479H51.0936V32.9111H50.4421L50.3553 32.3465C50.1816 32.5637 50.0078 32.6939 49.8775 32.7808C49.617 32.9545 49.313 33.0414 48.9655 33.0414C48.4009 33.0414 47.8797 32.8242 47.5323 32.4334C47.098 31.999 46.8808 31.391 46.8808 30.6527C46.8808 30.0012 47.0546 29.4366 47.402 29.0023C47.7929 28.5246 48.3575 28.264 49.0958 28.264C49.7038 28.264 50.225 28.4377 50.5724 28.7851C50.8764 29.0892 51.0502 29.3932 51.0502 29.7841H50.1381C50.1381 29.6538 50.0513 29.5235 49.8775 29.3498C49.6604 29.1326 49.4432 29.0457 49.1392 29.0457C48.7484 29.0457 48.4878 29.176 48.2272 29.4366C47.9666 29.7406 47.8363 30.1315 47.8363 30.6961C47.8363 31.2607 47.9666 31.695 48.2706 31.9556C48.4878 32.1728 48.7918 32.2596 49.1827 32.2596C49.3998 32.2596 49.5735 32.2162 49.7473 32.0859C50.0078 31.9122 50.225 31.6516 50.2684 31.2607H49.1827V31.2607ZM57.087 28.8286C57.391 29.1326 57.5647 29.48 57.5647 29.8709H56.6093C56.5658 29.6538 56.479 29.48 56.3921 29.3932C56.2184 29.2195 55.9578 29.0892 55.6104 29.0892C55.3063 29.0892 55.0892 29.176 54.872 29.3932C54.6115 29.6538 54.4812 30.0881 54.4812 30.6527C54.4812 31.087 54.568 31.4779 54.7417 31.7385C54.9589 32.0425 55.2195 32.2162 55.6104 32.2162C56.175 32.2162 56.479 31.9122 56.6093 31.3476H57.5647C57.4779 31.8688 57.2607 32.2596 56.9133 32.5637C56.5658 32.8677 56.1315 33.0414 55.5669 33.0414C54.9589 33.0414 54.4377 32.8242 54.0903 32.4334C53.6994 31.999 53.5257 31.4344 53.5257 30.6527C53.5257 29.8709 53.7428 29.3063 54.1337 28.872C54.5246 28.4811 55.0023 28.264 55.6104 28.264C56.2184 28.3074 56.6961 28.4811 57.087 28.8286ZM58.9545 32.6505C58.3899 32.2596 58.0859 31.5647 58.0859 30.6527C58.0859 29.7406 58.3899 29.0892 58.9545 28.6548C59.3454 28.3943 59.7797 28.264 60.2574 28.264C60.7786 28.264 61.2129 28.3943 61.5603 28.6548C62.1249 29.0457 62.4289 29.7406 62.4289 30.6527C62.4289 31.5647 62.1249 32.2162 61.5603 32.6505C61.1694 32.9111 60.7351 33.0414 60.2574 33.0414C59.7362 33.0414 59.3019 32.9111 58.9545 32.6505ZM59.4322 29.3932C59.1716 29.6538 58.9979 30.0881 58.9979 30.6527C58.9979 31.2173 59.1282 31.6516 59.4322 31.9122C59.6494 32.1293 59.91 32.2162 60.2574 32.2162C60.5614 32.2162 60.8654 32.1293 61.0826 31.9122C61.3432 31.6516 61.5169 31.2173 61.5169 30.6527C61.5169 30.0881 61.3866 29.6538 61.0826 29.3932C60.8654 29.176 60.6049 29.0892 60.2574 29.0892C59.9534 29.0892 59.6494 29.2195 59.4322 29.3932ZM60.6049 27.2651L61.2563 28.0902H60.6049L60.2574 27.6125L59.91 28.0902H59.2585L59.91 27.2651H60.6049ZM65.9468 31.5647V28.3943H66.8154V32.9111H65.8599L63.9924 29.6972V32.9111H63.1238V28.3943H64.1227L65.9468 31.5647ZM69.8555 31.2607V30.479H71.7665V32.9111H71.115L71.0281 32.3465C70.8544 32.5637 70.6807 32.6939 70.5504 32.7808C70.2898 32.9545 69.9858 33.0414 69.6384 33.0414C69.0738 33.0414 68.5526 32.8242 68.2052 32.4334C67.7709 31.999 67.5537 31.391 67.5537 30.6527C67.5537 30.0012 67.7274 29.4366 68.0749 29.0023C68.4658 28.5246 69.0303 28.264 69.7687 28.264C70.3767 28.264 70.8979 28.4377 71.2453 28.7851C71.5493 29.0892 71.723 29.3932 71.723 29.7841H70.7676C70.7676 29.6538 70.6807 29.5235 70.507 29.3498C70.2898 29.1326 70.0727 29.0457 69.7687 29.0457C69.3778 29.0457 69.1172 29.176 68.8566 29.4366C68.596 29.7406 68.4658 30.1315 68.4658 30.6961C68.4658 31.2607 68.596 31.695 68.9001 31.9556C69.1172 32.1728 69.4212 32.2596 69.8121 32.2596C70.0292 32.2596 70.203 32.2162 70.3767 32.0859C70.6373 31.9122 70.8544 31.6516 70.8979 31.2607H69.8555V31.2607ZM76.3267 29.2195V32.9545H75.3712V29.2195H74.0248V28.4377H77.7164V29.2195H76.3267ZM80.3657 31.2607V32.9545H79.4102V31.2607L77.8467 28.4377H78.9759L79.9314 30.3921L80.8434 28.4377H81.9292L80.3657 31.2607ZM84.231 30.8264H83.7532V30.1749H84.231V28.3943H86.2288C86.9237 28.3943 87.4014 28.6549 87.7054 29.1326C87.9226 29.5235 88.0529 29.9578 88.0529 30.5224C88.0529 31.1304 87.9226 31.6516 87.662 32.0859C87.3145 32.6505 86.8368 32.9111 86.1419 32.9111H84.1876V30.8264H84.231ZM85.143 30.1749H85.8813V30.8264H85.143V32.1293H86.0551C86.4025 32.1293 86.6631 31.9556 86.8368 31.6516C86.9671 31.391 87.054 31.0436 87.054 30.6093C87.054 29.6538 86.7065 29.176 86.0116 29.176H85.0996V30.1749H85.143ZM89.6598 28.3943V32.9111H88.7043V28.3943H89.6598ZM93.8725 28.3943V29.176H91.4839V30.1315H93.6988V30.9133H91.4839V32.0859H94.0028V32.8677H90.5284V28.3508H93.8725V28.3943ZM92.5262 27.2651L93.1776 28.0902H92.5262L92.1787 27.6125L91.8313 28.0902H91.1798L91.8313 27.2651H92.5262ZM92.4828 33.3454V34.0837H91.7444V33.3454H92.4828ZM97.4773 31.5647V28.3943H98.3459V32.9111H97.3904L95.5229 29.6972V32.9111H94.6543V28.3943H95.6532L97.4773 31.5647ZM101.994 28.3943V32.0859H104.252V32.9111H101.039V28.3943H101.994ZM109.117 28.1771C109.117 28.5246 108.899 28.8286 108.509 29.0023V31.3042C108.509 32.4334 107.901 32.998 106.641 32.998C105.99 32.998 105.512 32.8242 105.208 32.4334C104.991 32.1728 104.86 31.7819 104.86 31.3476V28.3508H105.816V31.3042C105.816 31.6082 105.903 31.8253 106.076 31.999C106.207 32.1293 106.424 32.2162 106.641 32.2162C107.249 32.2162 107.553 31.9122 107.553 31.3476V28.3508H108.509V28.6114C108.639 28.4811 108.682 28.3943 108.682 28.264H108.378V27.6125H109.073V28.1771H109.117ZM107.032 33.4323V34.1706H106.294V33.4323H107.032ZM112.808 28.8286C113.112 29.1326 113.286 29.48 113.286 29.8709H112.33C112.287 29.6538 112.2 29.48 112.113 29.3932C111.94 29.2195 111.679 29.0892 111.332 29.0892C111.028 29.0892 110.81 29.176 110.593 29.3932C110.333 29.6538 110.202 30.0881 110.202 30.6527C110.202 31.087 110.289 31.4779 110.463 31.7385C110.68 32.0425 110.941 32.2162 111.332 32.2162C111.896 32.2162 112.2 31.9122 112.33 31.3476H113.286C113.199 31.8688 112.982 32.2596 112.634 32.5637C112.287 32.8677 111.853 33.0414 111.288 33.0414C110.68 33.0414 110.159 32.8242 109.811 32.4334C109.421 31.999 109.247 31.4344 109.247 30.6527C109.247 29.8709 109.464 29.3063 109.855 28.872C110.246 28.4811 110.724 28.264 111.332 28.264C111.94 28.3074 112.417 28.4811 112.808 28.8286ZM120.104 28.3943V32.9111H119.236V29.1326L118.411 32.9111H117.499L116.673 29.1326V32.9111H115.805V28.3943H117.195L118.02 31.9556L118.845 28.3943H120.104ZM121.885 28.3943V32.9111H120.93V28.3943H121.885ZM126.098 28.3943V29.176H123.709V30.1315H125.924V30.9133H123.709V32.0859H126.228V32.8677H122.797V28.3508H126.098V28.3943ZM124.752 27.2651L125.403 28.0902H124.752L124.404 27.6125L124.057 28.0902H123.405L124.057 27.2651H124.752ZM125.316 27.5256L124.491 26.7004H125.36L125.881 27.5256H125.316ZM129.703 31.5647V28.3943H130.571V32.9111H129.616L127.748 29.6972V32.9111H126.88V28.3943H127.879L129.703 31.5647ZM136.043 31.5647V28.3943H136.912V32.9111H135.957L134.089 29.6972V32.9111H133.22V28.3943H134.219L136.043 31.5647ZM138.78 31.999L138.476 32.9111H137.477L139.084 28.3943H140.169L141.776 32.9111H140.734L140.43 31.999H138.78ZM139.605 29.4366L139.04 31.2173H140.213L139.605 29.4366ZM146.727 28.3943V32.9111H145.859V29.1326L145.034 32.9111H144.121L143.296 29.1326V32.9111H142.428V28.3943H143.817L144.643 31.9556L145.468 28.3943H146.727Z" fill="#000F9F"/>
<path d="M37.1091 35.647C37.4132 35.951 37.5869 36.2985 37.5869 36.6893H36.6314C36.588 36.4722 36.5011 36.2985 36.4143 36.2116C36.2405 36.0379 35.98 35.9076 35.6325 35.9076C35.3285 35.9076 35.1113 35.9944 34.8942 36.2116C34.6336 36.4722 34.5033 36.9065 34.5033 37.4711C34.5033 37.9054 34.5902 38.2963 34.7639 38.5569C34.9811 38.8609 35.2416 39.0346 35.6325 39.0346C36.1971 39.0346 36.5011 38.7306 36.6314 38.166H37.5869C37.5 38.6872 37.2829 39.078 36.9354 39.3821C36.588 39.6861 36.1537 39.8598 35.5891 39.8598C34.9811 39.8598 34.4599 39.6426 34.1124 39.2518C33.7216 38.8175 33.5479 38.2529 33.5479 37.4711C33.5479 36.6893 33.765 36.1247 34.1559 35.6904C34.5467 35.2995 35.0245 35.0824 35.6325 35.0824C36.2405 35.1258 36.7183 35.2995 37.1091 35.647ZM38.9767 39.4689C38.4121 39.078 38.108 38.3832 38.108 37.4711C38.108 36.559 38.4121 35.9076 38.9767 35.4733C39.3675 35.2127 39.8018 35.0824 40.2796 35.0824C40.8007 35.0824 41.235 35.2127 41.5825 35.4733C42.1471 35.8641 42.4511 36.559 42.4511 37.4711C42.4511 38.3832 42.1471 39.0346 41.5825 39.4689C41.1916 39.7295 40.7573 39.8598 40.2796 39.8598C39.8018 39.9032 39.3241 39.7729 38.9767 39.4689ZM39.4978 36.255C39.2372 36.5156 39.0635 36.9499 39.0635 37.5145C39.0635 38.0791 39.1938 38.5134 39.4978 38.774C39.715 38.9912 39.9755 39.078 40.323 39.078C40.627 39.078 40.931 38.9912 41.1482 38.774C41.4088 38.5134 41.5825 38.0791 41.5825 37.5145C41.5825 36.9499 41.4522 36.5156 41.1482 36.255C40.931 36.0379 40.6704 35.951 40.323 35.951C39.9755 35.9076 39.715 36.0379 39.4978 36.255ZM40.627 34.0835L41.2785 34.9087H40.627L40.2796 34.4309L39.9321 34.9087H39.2807L39.9321 34.0835H40.627ZM45.9689 38.3831V35.2127H46.8376V39.7295H45.8821L44.0146 36.5156V39.7295H43.146V35.2127H44.1449L45.9689 38.3831ZM49.9211 38.0791V37.2974H51.832V39.7295H51.1806L51.0937 39.1649C50.92 39.3821 50.7463 39.5124 50.616 39.5992C50.3554 39.7729 50.0514 39.8598 49.704 39.8598C49.1394 39.8598 48.6182 39.6426 48.2708 39.2518C47.8364 38.8175 47.6193 38.2094 47.6193 37.4711C47.6193 36.8196 47.793 36.255 48.1405 35.8207C48.5313 35.343 49.0959 35.0824 49.8342 35.0824C50.4423 35.0824 50.9634 35.2561 51.3109 35.6036C51.6149 35.9076 51.7886 36.2116 51.7886 36.6025H50.8331C50.8331 36.4722 50.7463 36.3419 50.5726 36.1682C50.3554 35.951 50.1383 35.8641 49.8342 35.8641C49.4434 35.8641 49.1828 35.9944 48.9222 36.255C48.6616 36.559 48.5313 36.9499 48.5313 37.5145C48.5313 38.0791 48.6616 38.5134 48.9656 38.774C49.1828 38.9912 49.4868 39.078 49.8777 39.078C50.0948 39.078 50.2685 39.0346 50.4423 38.9043C50.7029 38.7306 50.92 38.47 50.9634 38.0791H49.9211V38.0791ZM56.3488 36.0379V39.7729H55.3933V36.0379H54.047V35.2561H57.7386V36.0379H56.3488ZM60.3878 38.0791V39.7729H59.4324V38.0791L57.8689 35.2561H58.9981L59.9535 37.2105L60.8656 35.2561H61.9513L60.3878 38.0791ZM64.2531 37.6883H63.7754V37.0368H64.2531V35.2561H66.2509C66.9458 35.2561 67.4236 35.5167 67.7276 35.9944C67.9447 36.3853 68.075 36.8196 68.075 37.3842C68.075 37.9923 67.9447 38.5134 67.6841 38.9478C67.3367 39.5124 66.859 39.7729 66.1641 39.7729H64.2097V37.6883H64.2531ZM65.1652 36.9934H65.9035V37.6448H65.1652V38.9478H66.0772C66.4247 38.9478 66.6852 38.774 66.859 38.47C66.9893 38.2094 67.0761 37.862 67.0761 37.4277C67.0761 36.4722 66.7287 35.9944 66.0338 35.9944H65.1217V36.9934H65.1652ZM69.6819 35.2561V39.7729H68.7265V35.2561H69.6819ZM73.8947 35.2561V36.0379H71.506V36.9934H73.721V37.7751H71.506V38.9478H74.025V39.7295H70.5505V35.2127H73.8947V35.2561ZM72.5483 34.0835L73.1998 34.9087H72.5483L72.2009 34.4309L71.8535 34.9087H71.202L71.8535 34.0835H72.5483ZM72.5049 40.1638V40.9021H71.7666V40.1638H72.5049ZM77.4994 38.3831V35.2127H78.368V39.7295H77.4125L75.545 36.5156V39.7295H74.6764V35.2127H75.6753L77.4994 38.3831ZM82.0162 35.2561V38.9478H84.2745V39.7729H81.0607V35.2561H82.0162ZM89.1388 35.039C89.1388 35.3864 88.9216 35.6904 88.5307 35.8641V38.166C88.5307 39.2952 87.9227 39.8598 86.6632 39.8598C86.0118 39.8598 85.534 39.6861 85.23 39.2952C85.0129 39.0346 84.8826 38.6437 84.8826 38.2094V35.2127H85.838V38.166C85.838 38.47 85.9249 38.6872 86.0986 38.8609C86.2289 38.9912 86.4461 39.078 86.6632 39.078C87.2712 39.078 87.5753 38.774 87.5753 38.2094V35.2127H88.5307V35.4733C88.661 35.343 88.7044 35.2561 88.7044 35.1258H88.4004V34.5178H89.0953V35.039H89.1388ZM87.0541 40.2507V40.989H86.3158V40.2507H87.0541ZM92.8303 35.647C93.1343 35.951 93.3081 36.2985 93.3081 36.6893H92.3526C92.3092 36.4722 92.2223 36.2985 92.1354 36.2116C91.9617 36.0379 91.7011 35.9076 91.3537 35.9076C91.0497 35.9076 90.8325 35.9944 90.6154 36.2116C90.3548 36.4722 90.2245 36.9065 90.2245 37.4711C90.2245 37.9054 90.3114 38.2963 90.4851 38.5569C90.7022 38.8609 90.9628 39.0346 91.3537 39.0346C91.9183 39.0346 92.2223 38.7306 92.3526 38.166H93.3081C93.2212 38.6872 93.0041 39.078 92.6566 39.3821C92.3092 39.6861 91.8749 39.8598 91.3103 39.8598C90.7022 39.8598 90.1811 39.6426 89.8336 39.2518C89.4428 38.8175 89.269 38.2529 89.269 37.4711C89.269 36.6893 89.4862 36.1247 89.8771 35.6904C90.2679 35.2995 90.7457 35.0824 91.3537 35.0824C91.9617 35.1258 92.4395 35.2995 92.8303 35.647ZM95.7836 39.7729V35.2561H97.9985C98.4763 35.2561 98.8672 35.3864 99.1277 35.647C99.3015 35.8641 99.3883 36.1247 99.3883 36.3853C99.3883 36.8196 99.2146 37.1236 98.8237 37.2974C99.3015 37.4711 99.5186 37.8185 99.5186 38.3831C99.5186 38.774 99.3883 39.078 99.1277 39.2952C98.9975 39.4255 98.8237 39.5558 98.65 39.5992C98.4329 39.6861 98.1288 39.7295 97.6945 39.7295H95.7836V39.7729ZM96.6956 36.0379V37.0368H97.8248C98.2591 37.0368 98.4763 36.8631 98.4763 36.5156C98.4763 36.2116 98.2591 36.0379 97.7814 36.0379H96.6956V36.0379ZM96.6956 37.7751V38.9912H97.8683C98.346 38.9912 98.6066 38.774 98.6066 38.3397C98.6066 38.166 98.5197 38.0357 98.3894 37.9054C98.2591 37.8185 98.1288 37.7751 97.9117 37.7751H96.6956ZM100.474 34.8652L99.6489 34.04H100.518L101.039 34.8652H100.474ZM101.212 35.2561V39.7729H100.257V35.2561H101.212ZM104.861 38.3831V35.2127H105.729V39.7295H104.774L102.906 36.5156V39.7295H102.038V35.2127H103.036L104.861 38.3831ZM109.334 37.7317H107.553V39.7729H106.598V35.2561H107.553V36.9499H109.334V35.2561H110.289V39.7729H109.334V37.7317V37.7317ZM114.85 36.0379V39.7729H113.894V36.0379H112.504V35.2561H116.196V36.0379H114.85ZM119.497 37.7317H117.716V39.7729H116.76V35.2561H117.716V36.9499H119.497V35.2561H120.452V39.7729H119.497V37.7317ZM124.969 35.2561V38.2094C124.969 39.3386 124.361 39.9032 123.101 39.9032C122.45 39.9032 121.972 39.7295 121.668 39.3386C121.451 39.078 121.321 38.6872 121.321 38.2529V35.2561H122.276V38.2094C122.276 38.5134 122.363 38.7306 122.537 38.9043C122.667 39.0346 122.884 39.1215 123.101 39.1215C123.709 39.1215 124.013 38.8175 124.013 38.2529V35.2561H124.969ZM126.88 38.8175L126.576 39.7295H125.577L127.184 35.2127H128.27L129.876 39.7295H128.834L128.53 38.8175H126.88ZM128.139 34.0835L128.791 34.9087H128.139L127.792 34.4309L127.444 34.9087H126.793L127.444 34.0835H128.139ZM127.705 36.255L127.14 38.0357H128.313L127.705 36.255ZM128.052 39.9032V40.6416H127.314V39.9032H128.052ZM133.221 38.3831V35.2127H134.089V39.7295H133.134L131.266 36.5156V39.7295H130.398V35.2127H131.397L133.221 38.3831Z" fill="#000F9F"/>
</svg>
