<svg width="60" height="64" viewBox="0 0 60 64" fill="none" xmlns="http://www.w3.org/2000/svg">
<g filter="url(#filter0_d)">
<rect x="10" y="5.65039" width="39.8819" height="39.8819" rx="10" fill="white"/>
<path d="M31.2211 48.3363C30.4794 48.9544 29.4021 48.9544 28.6604 48.3363L25.1549 45.4151L34.7266 45.4151L31.2211 48.3363Z" fill="white"/>
</g>
<path d="M23.5148 28.0545L23.5171 28.0546C23.898 28.0595 24.2488 28.1434 24.5219 28.3533C24.8044 28.5704 24.9523 28.8823 24.9961 29.2348L24.9967 29.2399L24.9967 29.2399C25.0437 29.6616 24.951 30.0657 24.6818 30.3687C24.4126 30.6717 24.0178 30.8163 23.5757 30.8216C22.5583 30.8345 21.5447 30.8329 20.5319 30.8313C20.1927 30.8307 19.8536 30.8302 19.5145 30.8302C19.4125 30.8302 19.3069 30.8315 19.1987 30.8329C18.916 30.8364 18.6162 30.8402 18.3201 30.821C17.814 30.794 17.1186 30.68 16.7839 29.9462C16.4627 29.2423 16.7187 28.6208 17.08 28.1444L17.0815 28.1423L17.0815 28.1423C18.3038 26.5516 19.5338 24.9528 20.7642 23.3607C20.4588 23.3594 20.1524 23.3594 19.8449 23.3594H19.8439C19.3915 23.3594 18.9369 23.3594 18.484 23.3551C18.2434 23.355 18.0068 23.3255 17.7837 23.2779L17.7763 23.2763L17.7763 23.2762C17.0764 23.1131 16.6611 22.405 16.8164 21.7206L16.8168 21.7189L16.8168 21.7189C16.9238 21.2568 17.2808 20.8695 17.7536 20.7538C17.9865 20.6945 18.2277 20.6651 18.468 20.665M23.5148 28.0545L18.4692 21.065M23.5148 28.0545C22.7325 28.0489 21.945 28.0507 21.1366 28.0526C20.9887 28.0529 20.8402 28.0533 20.6908 28.0536C21.7259 26.7195 22.7609 25.3776 23.7959 24.0282L23.7972 24.0265L23.8099 24.0098C24.1192 23.6021 24.4639 23.1476 24.6847 22.6114L24.6847 22.6114L24.6862 22.6077C24.8346 22.2368 24.838 21.8473 24.6848 21.507C24.5313 21.1662 24.2372 20.9115 23.8603 20.7811L23.8461 20.7762L23.8316 20.7724C23.5421 20.6959 23.2466 20.656 22.9384 20.6649M23.5148 28.0545L22.9433 21.065M18.468 20.665C18.4684 20.665 18.4688 20.665 18.4692 20.665V21.065M18.468 20.665C18.4676 20.665 18.4672 20.665 18.4669 20.665L18.4692 21.065M18.468 20.665C19.9554 20.6565 21.451 20.6565 22.9384 20.6649M18.4692 21.065C19.9578 21.0565 21.4547 21.0565 22.9433 21.065M22.9384 20.6649C22.9358 20.665 22.9332 20.6651 22.9306 20.6652L22.9433 21.065M22.9384 20.6649C22.9408 20.6649 22.9432 20.665 22.9456 20.665L22.9433 21.065" stroke="#0059C2" stroke-width="0.8"/>
<path d="M27.4786 30.8869L27.4781 30.8868C26.6516 30.6114 26.0531 30.136 25.6428 29.5199C25.2371 28.9108 25.0289 28.1853 24.9407 27.4229L24.9406 27.4216C24.7509 25.7316 25.3079 24.2305 26.8373 23.3142C27.4617 22.9342 28.1172 22.7453 28.7788 22.7982C29.321 22.8416 29.8404 23.0451 30.3262 23.3982C30.5038 23.2161 30.7361 23.0462 31.0539 22.9825C31.9294 22.8021 32.8093 23.3872 32.8215 24.3527M27.4786 30.8869L32.4215 24.3581M27.4786 30.8869C28.4834 31.2203 29.4571 31.1187 30.3138 30.4566M27.4786 30.8869L30.3138 30.4566M32.8215 24.3527C32.8215 24.3528 32.8215 24.353 32.8215 24.3531L32.4215 24.3581M32.8215 24.3527C32.8215 24.3525 32.8215 24.3523 32.8215 24.3522L32.4215 24.3581M32.8215 24.3527C32.8466 26.0674 32.8383 27.781 32.8215 29.4916M32.4215 24.3581C32.4466 26.0686 32.4383 27.7792 32.4215 29.4896M32.8215 29.4916C32.8215 29.4909 32.8215 29.4903 32.8215 29.4896H32.4215M32.8215 29.4916C32.8215 29.4923 32.8215 29.4929 32.8215 29.4935L32.4215 29.4896M32.8215 29.4916L32.4215 29.4896M30.3138 30.4566C30.2883 30.428 30.2637 30.3982 30.2402 30.3671M30.3138 30.4566L30.3403 30.2937M30.3403 30.2937L30.5567 30.1224L30.3357 30.2882M30.3403 30.2937L30.3357 30.2882M30.3403 30.2937L30.3373 30.2961L30.3327 30.2904M30.3357 30.2882L30.1552 30.0711L30.3327 30.2904M30.3357 30.2882L30.3327 30.2904M30.3327 30.2904L30.256 30.348M30.256 30.348C30.2155 30.3324 30.1941 30.3126 30.1936 30.3122L30.1936 30.3122C30.1928 30.3115 30.1965 30.3148 30.206 30.3256C30.2147 30.3356 30.2257 30.3488 30.2402 30.3671M30.256 30.348C30.2595 30.3493 30.2631 30.3506 30.2668 30.3519L30.2431 30.3707C30.2421 30.3695 30.2412 30.3683 30.2402 30.3671M30.256 30.348L30.2367 30.3625C30.2379 30.364 30.2391 30.3656 30.2402 30.3671M43.6847 26.7488L43.6848 26.7489C43.7208 27.9144 43.3896 28.9375 42.7529 29.7017C42.1151 30.4673 41.1924 30.9467 40.0977 31.0592L40.0974 31.0592C37.9638 31.2765 36.2058 29.9 35.8441 27.9426C35.8443 28.4294 35.8435 28.9163 35.8405 29.4027C35.8493 30.2159 35.2196 30.9091 34.3982 30.9326L34.3868 30.933V30.9328C34.2668 30.9328 34.1221 30.9229 33.9783 30.8862L33.9746 30.8852L33.9746 30.8852C33.3436 30.7175 32.9414 30.0733 32.9414 29.3954V22.5962C32.9414 22.4679 32.9405 22.3375 32.9396 22.2059C32.9378 21.9379 32.9359 21.6645 32.9415 21.3921M43.6847 26.7488L33.3414 21.3988M43.6847 26.7488C43.6482 25.5832 43.2037 24.5795 42.4561 23.8763C41.7085 23.1731 40.6807 22.792 39.5176 22.8292C37.5773 22.8873 36.1586 24.2654 35.8411 26.162M43.6847 26.7488L35.8411 26.162M32.9415 21.3921C32.9415 21.3916 32.9415 21.3911 32.9415 21.3906L33.3414 21.3988M32.9415 21.3921C32.9415 21.3927 32.9415 21.3932 32.9415 21.3938L33.3414 21.3988M32.9415 21.3921C32.947 20.9816 33.0791 20.6073 33.3418 20.3324C33.6063 20.0557 33.9715 19.9133 34.3758 19.9126M33.3414 21.3988C33.3497 20.7403 33.7595 20.3126 34.3785 20.3126M34.3758 19.9126C34.3749 19.9126 34.374 19.9126 34.3731 19.9127L34.3785 20.3126M34.3758 19.9126C34.7862 19.9078 35.1619 20.0452 35.4346 20.3256C35.7063 20.6049 35.8403 20.9895 35.8406 21.4146M34.3758 19.9126C34.3767 19.9126 34.3776 19.9126 34.3785 19.9126V20.3126M34.3785 20.3126L35.8406 21.4146M35.8406 21.4146C35.8406 21.4142 35.8406 21.4138 35.8406 21.4134L35.4406 21.4158H35.8406C35.8406 21.4154 35.8406 21.415 35.8406 21.4146ZM35.8406 21.4146C35.846 22.3029 35.8442 23.1962 35.8423 24.0863C35.8414 24.5344 35.8404 24.9816 35.8404 25.427C35.8404 25.6717 35.8407 25.9168 35.8411 26.162M35.8406 21.4146L35.7763 27.132C35.7667 26.7971 35.7891 26.4726 35.8411 26.162M31.8598 30.8336C31.864 30.832 31.8682 30.8304 31.8723 30.8288L31.7275 30.456L31.847 30.8377C31.8513 30.8364 31.8556 30.835 31.8598 30.8336ZM29.6437 25.9733L29.6437 25.9734L29.6465 25.9773C29.8223 26.2213 29.9223 26.5647 29.9223 26.9281C29.9223 27.2897 29.8232 27.6317 29.6489 27.8755C29.5861 27.9585 29.5203 28.0246 29.4527 28.0767C29.0213 28.4022 28.4147 28.3123 28.0947 27.8768C27.9289 27.6482 27.835 27.3691 27.8202 27.0672C27.818 26.5359 27.959 26.157 28.1554 25.9249C28.345 25.7008 28.6111 25.5818 28.95 25.6038L28.9585 25.6044L28.9671 25.6046C29.2303 25.6104 29.4812 25.7418 29.6437 25.9733ZM38.6751 26.9394L38.6754 26.9316V26.9237C38.6754 26.4663 38.8109 26.1259 39.0037 25.9114C39.1912 25.7026 39.4565 25.585 39.7916 25.604L39.7915 25.6043L39.8054 25.6046C40.0639 25.6103 40.3187 25.7467 40.4849 25.9774L40.4849 25.9774L40.4869 25.9801C40.6647 26.2225 40.7668 26.5704 40.7659 26.9399C40.7651 27.3033 40.6647 27.6452 40.4895 27.8869C40.4163 27.9697 40.37 28.0194 40.3198 28.0567L40.3196 28.0566L40.3095 28.0646C39.8883 28.3996 39.2858 28.3206 38.9578 27.8849C38.7601 27.6071 38.6619 27.2765 38.6751 26.9394Z" stroke="#0059C2" stroke-width="0.8"/>
<defs>
<filter id="filter0_d" x="0" y="0.650391" width="59.8819" height="63.1494" filterUnits="userSpaceOnUse" color-interpolation-filters="sRGB">
<feFlood flood-opacity="0" result="BackgroundImageFix"/>
<feColorMatrix in="SourceAlpha" type="matrix" values="0 0 0 0 0 0 0 0 0 0 0 0 0 0 0 0 0 0 127 0" result="hardAlpha"/>
<feOffset dy="5"/>
<feGaussianBlur stdDeviation="5"/>
<feColorMatrix type="matrix" values="0 0 0 0 0 0 0 0 0 0 0 0 0 0 0 0 0 0 0.25 0"/>
<feBlend mode="normal" in2="BackgroundImageFix" result="effect1_dropShadow"/>
<feBlend mode="normal" in="SourceGraphic" in2="effect1_dropShadow" result="shape"/>
</filter>
</defs>
</svg>
