<svg width="60" height="64" viewBox="0 0 60 64" fill="none" xmlns="http://www.w3.org/2000/svg">
<g filter="url(#filter0_d)">
<rect x="10" y="5.2998" width="39.8819" height="39.8819" rx="10" fill="#FFF961"/>
<path d="M31.2211 47.8686C30.4794 48.4867 29.4021 48.4867 28.6604 47.8686L25.1549 44.9474L34.7266 44.9474L31.2211 47.8686Z" fill="#FFF961"/>
</g>
<path fill-rule="evenodd" clip-rule="evenodd" d="M24.0332 28.1449L23.126 24.7801L22.2061 28.1493C22.0992 28.531 22.0086 28.8235 21.9352 29.0141C21.8415 29.264 21.6805 29.4754 21.4747 29.6512L21.4696 29.6555C21.2078 29.8726 20.8839 29.9582 20.5457 29.9582C20.2792 29.9582 20.0182 29.9077 19.79 29.7752C19.5821 29.6559 19.4169 29.4876 19.2948 29.2821L19.292 29.2774C19.1842 29.0912 19.1014 28.8826 19.0394 28.6567L19.0388 28.6545C18.9847 28.4537 18.9363 28.2677 18.8935 28.0965L18.8932 28.0953L17.4966 22.4459C17.4964 22.4453 17.4963 22.4447 17.4961 22.444C17.4102 22.1077 17.356 21.8116 17.356 21.5793C17.356 21.2381 17.4814 20.9328 17.7267 20.6935C17.9724 20.454 18.2812 20.3369 18.6213 20.3369C19.03 20.3369 19.4403 20.4759 19.6587 20.8815C19.7963 21.137 19.9009 21.4746 19.9846 21.8687L20.6667 24.9096L21.4037 22.1637C21.4968 21.8073 21.5844 21.5189 21.6673 21.3093C21.7716 21.0458 21.9408 20.8232 22.1625 20.6427C22.4347 20.4211 22.7746 20.3369 23.1288 20.3369C23.4872 20.3369 23.8339 20.4254 24.1029 20.6655C24.3092 20.8433 24.4718 21.0559 24.5652 21.3069C24.6342 21.4924 24.721 21.7811 24.8244 22.1604L24.8246 22.1611L25.5717 24.9189L26.2557 21.8694C26.3102 21.609 26.3633 21.3922 26.4158 21.2261L26.4174 21.2208L26.4192 21.2155C26.4934 20.9989 26.6154 20.8084 26.7777 20.6462L26.7831 20.6407C27.0157 20.4157 27.319 20.3369 27.6192 20.3369C27.9559 20.3369 28.2605 20.4543 28.5038 20.6894C28.7573 20.9265 28.8845 21.2347 28.8845 21.5793C28.8845 21.7971 28.8297 22.0949 28.7451 22.441L28.7448 22.4422L27.347 28.0965C27.2513 28.4795 27.1667 28.7785 27.0935 28.9816C27.0034 29.2389 26.848 29.4587 26.6415 29.6399C26.3792 29.874 26.0408 29.9582 25.6948 29.9582C25.3566 29.9582 25.0328 29.8726 24.771 29.6555C24.5637 29.4836 24.4003 29.2749 24.3055 29.026L24.3042 29.0226C24.2358 28.8388 24.1455 28.5437 24.0346 28.1499L24.0332 28.1449ZM26.3305 29.2886C26.4833 29.1549 26.5902 29.0003 26.6513 28.8246C26.7162 28.6452 26.7964 28.3645 26.8918 27.9827L28.2893 22.3296C28.3733 21.986 28.4153 21.7359 28.4153 21.5793C28.4153 21.3579 28.3371 21.1746 28.1805 21.0295C28.0278 20.8806 27.8407 20.8061 27.6192 20.8061C27.3977 20.8061 27.2278 20.8634 27.1095 20.9779C26.9949 21.0925 26.9128 21.2223 26.8632 21.3674C26.8174 21.5125 26.7677 21.713 26.7143 21.9688L25.6146 26.8716L24.3717 22.2838C24.2686 21.9058 24.1865 21.6347 24.1254 21.4705C24.0643 21.3063 23.9536 21.1555 23.7932 21.018C23.6367 20.8768 23.4152 20.8061 23.1288 20.8061C22.8463 20.8061 22.6229 20.8729 22.4587 21.0066C22.2945 21.1402 22.1762 21.2987 22.1036 21.482C22.0311 21.6652 21.949 21.9325 21.8573 22.2838L20.6259 26.8716L19.5262 21.9688C19.446 21.5908 19.3525 21.3025 19.2456 21.1039C19.1387 20.9054 18.9306 20.8061 18.6213 20.8061C18.396 20.8061 18.207 20.8806 18.0543 21.0295C17.9015 21.1784 17.8252 21.3617 17.8252 21.5793C17.8252 21.7512 17.8672 22.0013 17.9512 22.3296L19.3487 27.9827C19.3907 28.1507 19.4384 28.334 19.4919 28.5325C19.5453 28.7273 19.6141 28.8972 19.6981 29.0423C19.7821 29.1836 19.8909 29.2924 20.0245 29.3688C20.162 29.4489 20.3357 29.489 20.5457 29.489C20.8054 29.489 21.0135 29.4241 21.17 29.2943C21.3266 29.1607 21.4354 29.0117 21.4965 28.8475C21.5614 28.6795 21.6473 28.4046 21.7542 28.0228L23.1288 22.9883L24.4863 28.0228C24.597 28.4161 24.6829 28.6948 24.744 28.859C24.8051 29.0194 24.9139 29.1645 25.0705 29.2943C25.227 29.4241 25.4351 29.489 25.6948 29.489C25.9697 29.489 26.1816 29.4222 26.3305 29.2886ZM33.436 27.1632H30.98C31.0055 27.2557 31.0384 27.3407 31.0778 27.4188C31.1844 27.6225 31.3125 27.7565 31.4561 27.843C31.614 27.9359 31.7867 27.9832 31.9836 27.9832C32.1343 27.9832 32.2603 27.9664 32.3653 27.9379C32.4753 27.9053 32.584 27.8563 32.6917 27.7887C32.8187 27.7049 32.9338 27.6175 33.0378 27.5265C33.1406 27.4365 33.2731 27.3158 33.436 27.1632ZM32.9458 28.1832C32.8007 28.2748 32.6499 28.3435 32.4933 28.3893C32.3406 28.4313 32.1707 28.4524 31.9836 28.4524C31.7048 28.4524 31.449 28.3836 31.2161 28.2462C30.987 28.1087 30.8018 27.9044 30.6605 27.6333C30.5871 27.4886 30.5328 27.3319 30.4975 27.1632C30.4667 27.0159 30.4504 26.8595 30.4486 26.694H33.5071C33.9157 26.694 34.2326 26.6367 34.4579 26.5222C34.6832 26.4038 34.7958 26.148 34.7958 25.7547C34.7958 25.3309 34.687 24.9147 34.4693 24.5061C34.2517 24.0975 33.9233 23.7653 33.4842 23.5095C33.0489 23.2499 32.5258 23.12 31.9149 23.12C31.4452 23.12 31.0175 23.1964 30.6319 23.3491C30.2462 23.498 29.9217 23.7138 29.6582 23.9963C29.3947 24.2789 29.1943 24.6187 29.0568 25.0158C28.9194 25.4091 28.8506 25.8368 28.8506 26.2988C28.8506 27.2801 29.1294 28.0572 29.6868 28.6299C30.2443 29.2027 31.0252 29.489 32.0294 29.489C32.4685 29.489 32.8561 29.4318 33.1921 29.3172C33.5319 29.2027 33.8126 29.0595 34.034 28.8876C34.2593 28.712 34.4273 28.5306 34.5381 28.3435C34.6488 28.1526 34.7042 27.9865 34.7042 27.8452C34.7042 27.6849 34.6545 27.5608 34.5552 27.4729C34.456 27.3851 34.3261 27.3412 34.1658 27.3412C34.0169 27.3412 33.9023 27.3756 33.8221 27.4443C33.6274 27.6276 33.4689 27.7727 33.3467 27.8796C33.2245 27.9865 33.0909 28.0877 32.9458 28.1832ZM33.3425 29.7616C33.7186 29.6348 34.0491 29.4698 34.3217 29.2584L34.3225 29.2577C34.5803 29.0567 34.7934 28.8332 34.9418 28.5825L34.9439 28.5789C35.0749 28.3531 35.1734 28.1032 35.1734 27.8452C35.1734 27.5812 35.087 27.3169 34.8661 27.1215C34.7904 27.0545 34.7082 27.0027 34.6218 26.9641C34.6383 26.9565 34.6545 26.9486 34.6705 26.9404L34.6761 26.9375C35.1299 26.6991 35.265 26.2184 35.265 25.7547C35.265 25.247 35.1338 24.7556 34.8834 24.2855C34.6212 23.7932 34.2283 23.4004 33.7224 23.1053C33.2013 22.795 32.5921 22.6508 31.9149 22.6508C31.3946 22.6508 30.908 22.7355 30.461 22.9121C30.0147 23.0848 29.6298 23.3388 29.315 23.6764C29.0033 24.0107 28.7707 24.4084 28.6137 24.8616M32.5046 24.9285C32.3563 24.7688 32.1587 24.6775 31.8633 24.6775C31.5966 24.6775 31.4029 24.7642 31.2447 24.9344C31.1586 25.0272 31.0804 25.1575 31.02 25.337H32.729C32.6722 25.1523 32.5947 25.0227 32.5094 24.9335L32.5046 24.9285ZM33.2148 25.337C33.2486 25.4797 33.2716 25.6361 33.2837 25.8062H30.4486C30.4658 25.6363 30.4932 25.4799 30.5307 25.337C30.6094 25.0367 30.7329 24.796 30.9011 24.6149C31.1531 24.3438 31.4738 24.2083 31.8633 24.2083C32.2719 24.2083 32.6002 24.3419 32.8484 24.6092C33.0202 24.7888 33.1424 25.0314 33.2148 25.337ZM37.3225 29.0558C37.3754 28.9288 37.4018 28.7754 37.4018 28.5955V28.4409C37.4498 28.4963 37.495 28.5479 37.5376 28.5955C37.6477 28.7187 37.7399 28.8161 37.8142 28.8876C37.8245 28.8972 37.835 28.9068 37.8458 28.9164C37.946 29.0057 38.0634 29.0935 38.1979 29.1797C38.3469 29.2714 38.5263 29.3458 38.7363 29.4031C38.9502 29.4604 39.1773 29.489 39.4179 29.489C39.8112 29.489 40.1701 29.4108 40.4947 29.2542C40.8231 29.0938 41.1018 28.8686 41.3309 28.5784C41.56 28.2882 41.7337 27.9464 41.8521 27.5531C41.9743 27.156 42.0354 26.7207 42.0354 26.2473C42.0354 25.6058 41.9266 25.0521 41.7089 24.5863C41.4951 24.1166 41.1915 23.7596 40.7982 23.5152C40.4088 23.267 39.9544 23.1429 39.4351 23.1429C38.9845 23.1429 38.6065 23.225 38.301 23.3892C38.1564 23.4652 38.0131 23.5573 37.871 23.6658C37.713 23.7864 37.5566 23.9271 37.4018 24.088V21.6996C37.4018 21.4132 37.3369 21.1937 37.2071 21.0409C37.0773 20.8844 36.8921 20.8061 36.6515 20.8061C36.4224 20.8061 36.2429 20.8882 36.1131 21.0524C35.9871 21.2128 35.9241 21.4514 35.9241 21.7683V28.5955C35.9241 28.8896 35.989 29.1129 36.1189 29.2657C36.2525 29.4146 36.43 29.489 36.6515 29.489C36.8692 29.489 37.0486 29.4146 37.1899 29.2657C37.2448 29.2064 37.289 29.1364 37.3225 29.0558ZM37.6799 29.3883C37.6392 29.4575 37.5909 29.5231 37.5343 29.5843L37.5303 29.5886C37.2946 29.837 36.9892 29.9582 36.6515 29.9582C36.3127 29.9582 36.0024 29.8384 35.7697 29.579L35.7654 29.5743L35.7614 29.5695C35.5323 29.3001 35.4549 28.9503 35.4549 28.5955V21.7683C35.4549 21.4012 35.5259 21.0403 35.7442 20.7625L35.7451 20.7614C35.9731 20.473 36.2945 20.3369 36.6515 20.3369C37.0025 20.3369 37.331 20.4567 37.5665 20.7393C37.7924 21.0065 37.871 21.3498 37.871 21.6996V23.0955C37.9403 23.0523 38.0103 23.012 38.081 22.9748C38.4717 22.7654 38.9304 22.6737 39.4351 22.6737C40.0313 22.6737 40.5747 22.8171 41.0481 23.1181C41.5272 23.4164 41.8878 23.8477 42.135 24.3898C42.3873 24.9307 42.5046 25.5546 42.5046 26.2473C42.5046 26.7605 42.4384 27.2425 42.301 27.6896C42.1675 28.1326 41.9684 28.5281 41.6992 28.8691C41.427 29.2139 41.093 29.4842 40.7006 29.6758L40.6985 29.6768C40.3047 29.8668 39.8752 29.9582 39.4179 29.9582C39.1399 29.9582 38.8716 29.9251 38.6149 29.8563L38.6129 29.8558C38.3698 29.7895 38.147 29.6993 37.952 29.5793L37.9484 29.5771L37.9447 29.5748C37.8511 29.5147 37.7626 29.4526 37.6799 29.3883ZM38.2266 24.5462C37.9937 24.7066 37.8104 24.9414 37.6767 25.2507C37.5431 25.5561 37.4763 25.9208 37.4763 26.3446C37.4763 26.967 37.6176 27.4462 37.9001 27.7822C38.1865 28.1144 38.5607 28.2805 39.0227 28.2805C39.416 28.2805 39.7539 28.1106 40.0365 27.7708C40.3229 27.4271 40.466 26.9365 40.466 26.2988C40.466 25.8864 40.4069 25.5313 40.2885 25.2335C40.1701 24.9357 40.0021 24.7066 39.7845 24.5462C39.5668 24.382 39.3129 24.2999 39.0227 24.2999C38.7249 24.2999 38.4595 24.382 38.2266 24.5462ZM39.676 27.4704C39.8675 27.2406 39.9968 26.8726 39.9968 26.2988C39.9968 25.9295 39.9436 25.6361 39.8525 25.4068C39.7604 25.1752 39.641 25.0233 39.5061 24.9239L39.5019 24.9208C39.3711 24.8221 39.2179 24.7691 39.0227 24.7691C38.817 24.7691 38.647 24.8239 38.4969 24.9297L38.4927 24.9327C38.3452 25.0342 38.2129 25.1928 38.1074 25.4368L38.1066 25.4387C38.0049 25.6711 37.9455 25.9686 37.9455 26.3446C37.9455 26.9002 38.0716 27.2558 38.2574 27.4781C38.4491 27.6993 38.69 27.8113 39.0227 27.8113C39.2582 27.8113 39.4702 27.718 39.676 27.4704Z" fill="#0059C2"/>
<defs>
<filter id="filter0_d" x="0" y="0.299805" width="59.8819" height="63.0322" filterUnits="userSpaceOnUse" color-interpolation-filters="sRGB">
<feFlood flood-opacity="0" result="BackgroundImageFix"/>
<feColorMatrix in="SourceAlpha" type="matrix" values="0 0 0 0 0 0 0 0 0 0 0 0 0 0 0 0 0 0 127 0" result="hardAlpha"/>
<feOffset dy="5"/>
<feGaussianBlur stdDeviation="5"/>
<feColorMatrix type="matrix" values="0 0 0 0 0 0 0 0 0 0 0 0 0 0 0 0 0 0 0.25 0"/>
<feBlend mode="normal" in2="BackgroundImageFix" result="effect1_dropShadow"/>
<feBlend mode="normal" in="SourceGraphic" in2="effect1_dropShadow" result="shape"/>
</filter>
</defs>
</svg>
