<svg width="20" height="20" viewBox="0 0 20 20" fill="none" xmlns="http://www.w3.org/2000/svg">
<circle cx="10" cy="10" r="10" fill="#17479B"/>
<path fill-rule="evenodd" clip-rule="evenodd" d="M5.00761 5.05693C4.48576 5.64586 4.48576 6.6007 5.00761 7.18963L7.84186 10.3882L5.00698 13.5822C4.48465 14.1707 4.48465 15.1249 5.00698 15.7134C5.52931 16.3019 6.37618 16.3019 6.89851 15.7134L9.73181 12.5212L12.5667 15.7204C13.0885 16.3094 13.9346 16.3094 14.4564 15.7204C14.9783 15.1315 14.9783 14.1767 14.4564 13.5877L11.6231 10.3902L14.4646 7.18882C14.9869 6.60032 14.9869 5.64618 14.4646 5.05769C13.9423 4.46919 13.0954 4.46919 12.5731 5.05769L9.7332 8.25732L6.89737 5.05693C6.37552 4.468 5.52945 4.468 5.00761 5.05693Z" fill="white"/>
</svg>
