<svg width="21" height="20" viewBox="0 0 21 20" fill="none" xmlns="http://www.w3.org/2000/svg">
<path d="M13.4345 3.98979V3.99193C13.4345 4.63352 13.2441 5.26067 12.8875 5.794C12.5309 6.32733 12.024 6.74285 11.4311 6.98795C10.8382 7.23305 10.1858 7.29671 9.55672 7.17086L9.40961 7.90629L9.55672 7.17086C8.9276 7.04502 8.34996 6.73534 7.89694 6.28102C7.44392 5.8267 7.1359 5.24818 7.01185 4.6187C6.88781 3.98922 6.95333 3.33709 7.20013 2.74487C7.44692 2.15265 7.86389 1.64698 8.39824 1.29187C8.93258 0.936756 9.56028 0.74818 10.2019 0.750016L10.204 0.750016C10.629 0.750015 11.0499 0.83388 11.4424 0.996807C11.835 1.15973 12.1915 1.39852 12.4916 1.69948C12.7917 2.00044 13.0295 2.35767 13.1913 2.75068C13.3531 3.14369 13.4357 3.56477 13.4345 3.98979Z" stroke="#5A5A5A" stroke-width="1.5"/>
<path d="M19.9213 19.1899C19.7119 19.4466 19.4472 19.6528 19.1471 19.793C18.8469 19.9332 18.5189 20.0038 18.1877 19.9996H2.21998C1.88768 19.9999 1.55934 19.9276 1.25792 19.7877C0.956495 19.6478 0.689272 19.4438 0.474941 19.1899H19.9213ZM19.9213 19.1899C20.1219 18.9528 20.2687 18.675 20.3514 18.3757L19.9213 19.1899ZM19.3488 18.7053L19.3487 18.7052L19.3401 18.7158C19.202 18.8851 19.0276 19.021 18.8297 19.1134C18.6318 19.2059 18.4155 19.2525 18.1971 19.2497V19.2496H18.1877H2.21998H2.21937C1.99632 19.2498 1.77594 19.2013 1.57362 19.1074L1.26231 19.7782L1.57362 19.1074C1.37512 19.0153 1.19871 18.8817 1.05625 18.7157C0.934109 18.558 0.84549 18.3769 0.795892 18.1836C0.746222 17.99 0.736761 17.7884 0.768046 17.5911C1.21046 15.4147 2.3908 13.4576 4.10974 12.0509C5.83224 10.6413 7.98945 9.87109 10.2152 9.87109C12.441 9.87109 14.5982 10.6413 16.3207 12.0509C18.0394 13.4574 19.2197 15.4142 19.6622 17.5902C19.6926 17.7856 19.6811 17.9853 19.6284 18.1759C19.5747 18.3706 19.4793 18.5512 19.3488 18.7053Z" stroke="#5A5A5A" stroke-width="1.5"/>
</svg>
