<svg width="60" height="64" viewBox="0 0 60 64" fill="none" xmlns="http://www.w3.org/2000/svg">
<g filter="url(#filter0_d)">
<rect x="10" y="5.36328" width="39.8819" height="39.8819" rx="10" fill="#CE7A58"/>
<path d="M31.2211 48.1664C30.4794 48.7845 29.4021 48.7845 28.6604 48.1664L25.1549 45.2452L34.7266 45.2452L31.2211 48.1664Z" fill="#CE7A58"/>
</g>
<path d="M40.2319 34.8702C40.1742 34.7487 40.0167 34.7083 39.9099 34.7901C38.0691 36.2006 36.1081 36.7295 35.6305 36.8396C35.5671 36.8542 35.5126 36.8161 35.5006 36.7521V36.7521C35.485 36.6688 35.5463 36.5769 35.6287 36.5569C36.1857 36.4215 38.1173 35.8651 39.9051 34.4453C39.9741 34.3905 39.9979 34.2962 39.9651 34.2144C39.9131 34.0847 39.86 33.9476 39.8023 33.7998C39.7499 33.6654 39.5762 33.6299 39.4703 33.7279C37.9787 35.1078 36.1404 35.6083 35.6456 35.7264C35.5776 35.7426 35.5105 35.6973 35.4976 35.6286V35.6286C35.4835 35.5535 35.5384 35.471 35.6126 35.4529C36.142 35.3238 38.0403 34.77 39.4731 33.3364C39.5285 33.281 39.5448 33.1976 39.5162 33.1246C39.4364 32.921 39.3554 32.7102 39.2669 32.5042C39.2141 32.3813 39.0561 32.3505 38.9554 32.4386C36.8466 34.2846 35.4678 34.5879 35.0456 34.6376C34.9714 34.6463 34.9112 34.5867 34.9112 34.5119V34.5119C34.9112 34.4371 34.971 34.3736 35.045 34.3626C35.4666 34.2996 36.8628 33.9546 38.9511 32.0828C39.0131 32.0273 39.0346 31.9378 39.0038 31.8604C38.9311 31.6778 38.8583 31.4973 38.7856 31.3283C38.732 31.2038 38.5717 31.1729 38.4714 31.264C36.4527 33.0978 35.1572 33.6562 34.7734 33.7958C34.7098 33.8189 34.6418 33.7809 34.6235 33.7158V33.7158C34.602 33.6398 34.6552 33.5424 34.7288 33.5136C35.1506 33.3488 36.4561 32.7287 38.4445 30.9018C38.5054 30.8458 38.5263 30.7567 38.4943 30.6803C38.3957 30.4446 38.2994 30.2401 38.2185 30.0711C38.1567 29.9419 37.9796 29.9179 37.8811 30.0219C33.9284 34.1896 30.5498 33.0585 28.2762 30.8814C25.6578 28.3462 25.3528 24.8018 26.5476 22.5128C27.0507 21.5385 28.0055 20.1487 28.6032 19.8066C28.666 19.7707 28.7423 19.7854 28.8 19.8291C29.1693 20.1093 29.6398 20.2975 30.132 20.2975C31.3268 20.2975 32.2928 19.3622 32.2928 18.2054V18.2054C32.2928 18.1374 32.3491 18.0822 32.4171 18.0835C35.2282 18.138 36.8684 20.0311 37.3377 20.6616C37.4139 20.7639 37.5608 20.7762 37.6401 20.6764C37.8765 20.379 38.3715 19.6803 39.1175 18.2554C39.1677 18.1595 39.131 18.0399 39.0354 17.9891C35.6915 16.2121 32.7934 16.693 31.9588 16.894C31.8824 16.9124 31.8037 16.8861 31.7504 16.8285C31.346 16.3916 30.7722 16.1132 30.132 16.1132C29.7417 16.1132 29.3721 16.2136 29.0607 16.3963C28.9989 16.4325 28.923 16.4382 28.8588 16.4065L23.308 13.6608C23.0984 13.5572 22.9116 13.8359 23.0872 13.9903L27.9541 18.2687C27.9973 18.3067 28.0208 18.3616 28.0266 18.4188C28.0298 18.4505 28.0347 18.4823 28.0413 18.5141C28.0632 18.6193 28.0219 18.7323 27.9267 18.7821C26.3891 19.5862 23.1157 22.4894 23.1157 26.9432C23.1157 29.6753 24.0308 31.7921 25.124 33.392C27.1068 36.2718 29.6998 37.6747 33.5131 37.8224C37.4621 37.9728 39.9397 36.1735 40.5064 35.713C40.5805 35.6529 40.5954 35.5485 40.5477 35.4659C40.4671 35.3262 40.3413 35.1005 40.2319 34.8702ZM30.1574 17.7377C30.3862 17.7377 30.5896 17.9346 30.5896 18.1562C30.5896 18.3777 30.3862 18.5746 30.1574 18.5746C29.9286 18.5746 29.7253 18.4023 29.7253 18.1562C29.7253 17.91 29.9286 17.7377 30.1574 17.7377ZM25.0224 29.6329C24.9714 29.4036 25.2328 29.3525 25.326 29.5681C27.367 34.2896 32.091 34.2662 32.8104 34.2343C32.871 34.2316 32.9145 34.262 32.9345 34.3192C32.9818 34.4546 33.0998 34.7924 33.3945 35.6358C33.4399 35.7659 33.338 35.9025 33.2003 35.8996C27.2457 35.7781 25.5216 31.8801 25.0224 29.6329Z" stroke="white" stroke-width="0.8" stroke-miterlimit="10"/>
<path d="M32.427 25.2592C32.4939 25.2646 32.553 25.2156 32.5599 25.1488C32.567 25.0797 32.5159 25.0184 32.4467 25.0129L30.4231 24.8535C30.399 24.8516 30.3748 24.854 30.3516 24.8608L26.967 25.8439C26.8912 25.8659 26.8449 25.9442 26.8782 26.0158C26.9033 26.0697 26.9678 26.0948 27.0249 26.0784L30.4024 25.1068C30.4256 25.1001 30.4498 25.0977 30.4739 25.0997L32.427 25.2592Z" fill="white" stroke="white" stroke-width="0.3" stroke-miterlimit="10"/>
<path d="M33.577 28.0148C33.5841 27.9396 33.5284 27.8732 33.4531 27.8669L31.0433 27.6669C30.9681 27.6607 30.9027 27.6126 30.8744 27.5426L30.8131 27.3907C30.7573 27.2528 30.8662 27.1046 31.0144 27.1164L33.0369 27.2779C33.104 27.2833 33.1632 27.234 33.1701 27.167C33.1772 27.098 33.1264 27.0366 33.0573 27.0307L30.7105 26.8302C30.6365 26.8238 30.572 26.777 30.5432 26.7085L30.4387 26.46C30.3804 26.3215 30.4901 26.1705 30.6399 26.1832L32.8081 26.3666C32.8752 26.3723 32.9344 26.3232 32.9413 26.2563C32.9484 26.1874 32.8975 26.1261 32.8285 26.1205L30.2088 25.9092H30.1325H30.0837C30.0655 25.9092 30.0473 25.9117 30.0298 25.9166L27.2986 26.6821C27.2224 26.7034 27.184 26.7829 27.22 26.8534C27.2331 26.8792 27.2457 26.905 27.2555 26.9308C27.2582 26.938 27.2651 26.943 27.2728 26.943C27.2803 26.943 27.2871 26.9476 27.2897 26.9547L27.9062 28.6078C27.9286 28.6678 27.9943 28.6996 28.0553 28.6799C28.1205 28.6589 28.1548 28.5876 28.1305 28.5236L27.5901 27.0948C27.5491 26.9862 27.6088 26.8655 27.7201 26.8324L27.9973 26.7498C28.0976 26.7199 28.2039 26.7723 28.2412 26.8701L28.8203 28.3858C28.8434 28.4463 28.9097 28.478 28.9712 28.4582C29.0364 28.4371 29.0714 28.3665 29.0485 28.3019L28.5251 26.8221C28.4869 26.7139 28.5473 26.5958 28.6574 26.5635L29.1152 26.4292C29.2157 26.3997 29.322 26.4528 29.3588 26.551L29.889 27.968C29.9115 28.028 29.9771 28.0597 30.038 28.04C30.1032 28.019 30.1375 27.9476 30.1132 27.8835L29.5983 26.5274C29.5572 26.4193 29.6161 26.2989 29.7268 26.2651L29.8306 26.2334C29.9296 26.2031 30.0353 26.2534 30.0743 26.3493L30.3359 26.9922L30.3867 27.0906L30.6155 27.6567L30.7075 27.8794C30.7134 27.8936 30.7272 27.9029 30.7426 27.9029L31.0223 27.9275L33.4301 28.1373C33.5044 28.1438 33.57 28.0891 33.577 28.0148Z" fill="white" stroke="white" stroke-width="0.3" stroke-miterlimit="10"/>
<path d="M21.6917 27.3931C21.7604 27.376 21.8043 27.3118 21.7932 27.2419C21.7829 27.1764 21.7168 27.1283 21.6525 27.1446L18.7538 27.8757C18.747 27.8774 18.74 27.8783 18.733 27.8783C18.7075 27.8783 18.6833 27.8897 18.6672 27.9094L17.7094 29.0797C17.6636 29.1356 17.6743 29.2186 17.7328 29.2611C17.7865 29.3001 17.8613 29.2906 17.9036 29.2394L18.8032 28.1506C18.8305 28.1176 18.8677 28.0942 18.9092 28.0839L21.6917 27.3931Z" fill="white" stroke="white" stroke-width="0.3" stroke-miterlimit="10"/>
<path d="M22.0311 28.2522C22.0253 28.2332 22.0222 28.2132 22.0162 28.1941C22.0125 28.1823 22.0078 28.1695 22.004 28.1576C21.9972 28.1365 21.9932 28.1143 21.986 28.0934L21.9823 28.0828C21.9751 28.0619 21.9753 28.0391 21.9685 28.018C21.9678 28.0158 21.9669 28.0137 21.9658 28.0119C21.9578 27.9987 21.9384 28.0037 21.9234 28.0073L19.1242 28.6665L19.0138 28.7093C19.0027 28.7136 18.9913 28.7169 18.9796 28.7191L18.951 28.7247C18.8991 28.7347 18.8534 28.7649 18.8237 28.8085L18.2032 29.7199C18.165 29.7761 18.1817 29.8529 18.2399 29.8882C18.2939 29.9208 18.364 29.9055 18.3994 29.8533L18.7486 29.3395C18.8409 29.2036 19.0486 29.2308 19.1028 29.3858L19.4667 30.4262C19.4883 30.4879 19.5552 30.5211 19.6175 30.501C19.6817 30.4803 19.7163 30.4109 19.6944 30.3472L19.2721 29.1204C19.2337 29.009 19.2995 28.8887 19.4141 28.861L19.727 28.7852C19.8307 28.7601 19.9359 28.8209 19.966 28.9233L20.4596 30.6066C20.4803 30.6771 20.5541 30.7175 20.6245 30.697C20.6947 30.6766 20.7353 30.6035 20.7156 30.5332L20.248 28.8661C20.2174 28.7571 20.2834 28.6444 20.3935 28.6177L20.7113 28.5408C20.8179 28.515 20.9254 28.5798 20.9523 28.6861L21.4839 30.7878C21.5007 30.8543 21.5666 30.8962 21.634 30.8831C21.7068 30.869 21.7529 30.7966 21.7349 30.7246L21.2078 28.6194C21.1805 28.5103 21.2484 28.4002 21.3582 28.3756L21.6348 28.3139C21.7382 28.2908 21.8416 28.3523 21.8707 28.4542L22.52 30.7306C22.54 30.8004 22.6128 30.8407 22.6825 30.8204C22.7528 30.8 22.7927 30.726 22.7712 30.6561L22.0311 28.2522Z" fill="white" stroke="white" stroke-width="0.3" stroke-miterlimit="10"/>
<defs>
<filter id="filter0_d" x="0" y="0.363281" width="59.8819" height="63.2666" filterUnits="userSpaceOnUse" color-interpolation-filters="sRGB">
<feFlood flood-opacity="0" result="BackgroundImageFix"/>
<feColorMatrix in="SourceAlpha" type="matrix" values="0 0 0 0 0 0 0 0 0 0 0 0 0 0 0 0 0 0 127 0" result="hardAlpha"/>
<feOffset dy="5"/>
<feGaussianBlur stdDeviation="5"/>
<feColorMatrix type="matrix" values="0 0 0 0 0 0 0 0 0 0 0 0 0 0 0 0 0 0 0.25 0"/>
<feBlend mode="normal" in2="BackgroundImageFix" result="effect1_dropShadow"/>
<feBlend mode="normal" in="SourceGraphic" in2="effect1_dropShadow" result="shape"/>
</filter>
</defs>
</svg>
