<svg width="24" height="24" viewBox="0 0 24 24" fill="none" xmlns="http://www.w3.org/2000/svg">
<path d="M14.7789 14.0693H10.1118C9.68224 14.0693 9.33398 14.4275 9.33398 14.8693C9.33398 15.3112 9.68224 15.6693 10.1118 15.6693H14.7789C15.2085 15.6693 15.5567 15.3112 15.5567 14.8693C15.5567 14.4275 15.2085 14.0693 14.7789 14.0693Z" fill="#CA2F00"/>
<path d="M0 8.6085V19V23C0 23.5523 0.447715 24 1 24H8C8.55229 24 9 23.5523 9 23V18C9 17.4477 9.44772 17 10 17H14C14.5523 17 15 17.4477 15 18V23C15 23.5523 15.4477 24 16 24H23C23.5523 24 24 23.5523 24 23V8.05425C24 7.70946 23.8224 7.38899 23.53 7.20625L13.06 0.662499C12.4115 0.257161 11.5885 0.257161 10.94 0.662499L0.940002 6.9125C0.355239 7.27798 0 7.91892 0 8.6085Z" fill="#2C67F6"/>
<path d="M14.25 13H9.75C9.33579 13 9 13.4477 9 14C9 14.5523 9.33579 15 9.75 15H14.25C14.6642 15 15 14.5523 15 14C15 13.4477 14.6642 13 14.25 13Z" fill="#CA2F00"/>
</svg>
