<svg width="21" height="20" viewBox="0 0 21 20" fill="none" xmlns="http://www.w3.org/2000/svg">
<path d="M14.1848 3.99193C14.1848 4.78195 13.9504 5.55419 13.5112 6.21091C13.0721 6.86762 12.4479 7.37926 11.7178 7.68106C10.9878 7.98286 10.1845 8.06125 9.40986 7.90629C8.63519 7.75134 7.92392 7.37001 7.3661 6.81059C6.80828 6.25117 6.42899 5.53881 6.27625 4.7637C6.12351 3.9886 6.20419 3.1856 6.50808 2.45637C6.81197 1.72715 7.3254 1.10449 7.98336 0.667224C8.64133 0.229961 9.41424 -0.00224088 10.2043 1.63009e-05C10.7279 1.41511e-05 11.2465 0.10335 11.7302 0.304102C12.2139 0.504855 12.6532 0.799077 13.0229 1.16991C13.3927 1.54074 13.6857 1.9809 13.885 2.46516C14.0844 2.94941 14.1863 3.46825 14.1848 3.99193Z" fill="#E6B3A8"/>
<path d="M19.9213 19.1899C19.7119 19.4466 19.4472 19.6528 19.1471 19.793C18.8469 19.9332 18.5189 20.0038 18.1877 19.9996H2.21998C1.88768 19.9999 1.55934 19.9276 1.25792 19.7877C0.956495 19.6478 0.689272 19.4438 0.474941 19.1899C0.284145 18.9478 0.146022 18.6686 0.0694235 18.37C-0.00717519 18.0715 -0.02056 17.7602 0.0301272 17.4562C0.504647 15.1047 1.77824 12.9898 3.63475 11.4705C5.49126 9.95119 7.81629 9.12109 10.2152 9.12109C12.6142 9.12109 14.9392 9.95119 16.7957 11.4705C18.6522 12.9898 19.9258 15.1047 20.4003 17.4562C20.4508 17.7626 20.4341 18.0764 20.3514 18.3757C20.2687 18.675 20.1219 18.9528 19.9213 19.1899Z" fill="#E6B3A8"/>
</svg>
