<svg width="60" height="64" viewBox="0 0 60 64" fill="none" xmlns="http://www.w3.org/2000/svg">
<g filter="url(#filter0_d)">
<rect x="10" y="5.12988" width="39.8819" height="39.8819" rx="10" fill="#FE4241"/>
<path d="M31.2211 47.933C30.4794 48.5511 29.4021 48.5511 28.6604 47.933L25.1549 45.0118L34.7266 45.0118L31.2211 47.933Z" fill="#FE4241"/>
</g>
<g clip-path="url(#clip0)">
<path d="M37.4087 23.9143H37.3595V22.7762C37.3595 19.1201 34.2246 16.1562 30.3574 16.1562C26.4903 16.1562 23.3554 19.1201 23.3554 22.7762V23.9143H23.0606C21.9795 23.9143 21.1442 24.8202 21.1442 25.8655V28.7689C21.117 29.782 21.9636 30.6242 23.0352 30.6499C23.0437 30.6501 23.0521 30.6503 23.0606 30.6503H24.8786C25.1361 30.6389 25.3351 30.4322 25.323 30.1888C25.3226 30.18 25.3218 30.1713 25.3209 30.1625V24.4717C25.3209 24.193 25.1489 23.9143 24.8786 23.9143H24.3381V22.7761C24.3381 19.6332 27.0331 17.0853 30.3574 17.0853C33.6818 17.0853 36.3768 19.6332 36.3768 22.7761V23.9143H35.8363C35.566 23.9143 35.394 24.193 35.394 24.4717V30.1625C35.3666 30.4049 35.5522 30.6224 35.8085 30.6483C35.8177 30.6492 35.827 30.6499 35.8363 30.6503H36.4013L36.3522 30.72C35.615 31.6463 34.4581 32.1888 33.232 32.1833C32.9635 30.9389 31.6789 30.1359 30.3627 30.3897C29.2371 30.6067 28.4256 31.5386 28.4165 32.6247C28.4299 33.8984 29.526 34.9243 30.8734 34.9242C31.5403 34.914 32.1761 34.6552 32.6423 34.2041C32.9569 33.8996 33.163 33.5098 33.232 33.0892C34.7675 33.0947 36.2155 32.4145 37.1384 31.2542L37.6052 30.6038C38.6616 30.5341 39.325 29.907 39.325 29.0011V26.0976C39.325 25.0989 38.5389 23.9143 37.4087 23.9143ZM24.3381 29.7212H23.0606C22.5315 29.7091 22.1131 29.2938 22.126 28.7936C22.1262 28.7854 22.1265 28.7771 22.1269 28.7689V25.8654C22.1269 25.3312 22.52 24.8434 23.0606 24.8434H24.3381V29.7212ZM31.9299 33.5538C31.6576 33.8329 31.275 33.9928 30.8734 33.9952C30.0741 33.9832 29.4254 33.3801 29.3993 32.6247C29.399 31.8678 30.0477 31.254 30.8483 31.2537C31.6488 31.2534 32.2981 31.8667 32.2984 32.6236C32.2984 32.6239 32.2984 32.6243 32.2984 32.6247C32.3189 32.9696 32.1851 33.3067 31.9299 33.5538ZM38.3423 29.0012C38.3423 29.6283 37.7035 29.7212 37.4087 29.7212H36.3768V24.8434H37.4087C37.9492 24.8434 38.3423 25.5635 38.3423 26.0977V29.0012Z" fill="white"/>
</g>
<defs>
<filter id="filter0_d" x="0" y="0.129883" width="59.8819" height="63.2666" filterUnits="userSpaceOnUse" color-interpolation-filters="sRGB">
<feFlood flood-opacity="0" result="BackgroundImageFix"/>
<feColorMatrix in="SourceAlpha" type="matrix" values="0 0 0 0 0 0 0 0 0 0 0 0 0 0 0 0 0 0 127 0" result="hardAlpha"/>
<feOffset dy="5"/>
<feGaussianBlur stdDeviation="5"/>
<feColorMatrix type="matrix" values="0 0 0 0 0 0 0 0 0 0 0 0 0 0 0 0 0 0 0.25 0"/>
<feBlend mode="normal" in2="BackgroundImageFix" result="effect1_dropShadow"/>
<feBlend mode="normal" in="SourceGraphic" in2="effect1_dropShadow" result="shape"/>
</filter>
<clipPath id="clip0">
<rect width="18.3457" height="18.3457" fill="white" transform="translate(21.167 16.2969)"/>
</clipPath>
</defs>
</svg>
