<svg width="60" height="64" viewBox="0 0 60 64" fill="none" xmlns="http://www.w3.org/2000/svg">
<g filter="url(#filter0_d)">
<rect x="10" y="5" width="39.8819" height="39.8819" rx="10" fill="#0059C2"/>
<path d="M31.2211 47.8031C30.4794 48.4212 29.4021 48.4212 28.6604 47.8031L25.1549 44.8819L34.7266 44.8819L31.2211 47.8031Z" fill="#0059C2"/>
</g>
<path fill-rule="evenodd" clip-rule="evenodd" d="M24.0634 28.268L23.7752 27.5106H21.0111L20.7239 28.2819C20.5676 28.7013 20.4145 29.0434 20.2598 29.2516L20.2563 29.2563C20.0261 29.5579 19.678 29.6584 19.3391 29.6584C18.9969 29.6584 18.6939 29.5281 18.4483 29.294C18.2058 29.0627 18.0566 28.7673 18.0566 28.4217C18.0566 28.2545 18.0846 28.0889 18.1353 27.9267C18.179 27.7868 18.2473 27.6038 18.3363 27.3832C18.3365 27.3825 18.3368 27.3819 18.337 27.3813L20.4828 21.9337C20.4829 21.9335 20.483 21.9333 20.4831 21.933C20.5439 21.7773 20.6161 21.591 20.6999 21.374L20.7014 21.37C20.797 21.1289 20.9024 20.9149 21.0205 20.7353L21.0229 20.7317L21.0253 20.7282C21.1658 20.5227 21.3477 20.3577 21.5651 20.2355C21.8122 20.0947 22.0932 20.0371 22.3862 20.0371C22.6791 20.0371 22.9614 20.0932 23.2072 20.2354C23.4244 20.3554 23.6073 20.5169 23.7461 20.721C23.8648 20.8904 23.9627 21.0726 24.04 21.2667C24.1115 21.434 24.1985 21.6529 24.3007 21.9214L26.4916 27.3328C26.6626 27.7436 26.7845 28.1203 26.7845 28.4103C26.7845 28.753 26.6348 29.0464 26.4008 29.2804C26.1514 29.5298 25.8369 29.6584 25.4848 29.6584C25.2962 29.6584 25.1062 29.6238 24.9315 29.5346C24.7778 29.4597 24.6442 29.3548 24.5359 29.221L24.5325 29.2169L24.5293 29.2127C24.4318 29.0865 24.3436 28.9225 24.2615 28.7419L24.2589 28.7361L24.2564 28.7303C24.1835 28.5575 24.1199 28.4054 24.0658 28.2739L24.0634 28.268ZM25.1411 29.1148C25.2366 29.1644 25.3511 29.1892 25.4848 29.1892C25.7139 29.1892 25.9086 29.109 26.069 28.9487C26.2332 28.7845 26.3153 28.605 26.3153 28.4103C26.3153 28.2232 26.2294 27.9234 26.0575 27.5111L23.8639 22.0928C23.7608 21.8217 23.6749 21.606 23.6061 21.4456C23.5412 21.2814 23.4591 21.1287 23.3599 20.9874C23.2644 20.8461 23.1365 20.7316 22.9761 20.6438C22.8196 20.5521 22.6229 20.5063 22.3862 20.5063C22.1533 20.5063 21.9566 20.5521 21.7963 20.6438C21.6397 20.7316 21.5118 20.848 21.4125 20.9931C21.3171 21.1382 21.2254 21.3215 21.1376 21.543C21.0536 21.7606 20.981 21.9477 20.9199 22.1043L18.7721 27.5569C18.6843 27.7745 18.6213 27.9444 18.5831 28.0666C18.5449 28.1888 18.5258 28.3072 18.5258 28.4217C18.5258 28.6203 18.6079 28.7978 18.7721 28.9544C18.9363 29.111 19.1253 29.1892 19.3391 29.1892C19.5912 29.1892 19.7725 29.1167 19.8833 28.9716C19.994 28.8227 20.1276 28.5382 20.2842 28.1182L20.6851 27.0414H24.0987L24.4996 28.0953C24.5531 28.2251 24.6161 28.3759 24.6886 28.5477C24.765 28.7158 24.8357 28.8418 24.9006 28.9258C24.9655 29.0059 25.0457 29.0689 25.1411 29.1148ZM23.6405 25.7642L22.3747 22.299L21.1319 25.7642H23.6405ZM21.7986 25.295H22.9696L22.3788 23.6775L21.7986 25.295ZM33.1314 28.6477L33.1293 28.6502C32.8493 28.9709 32.515 29.2212 32.1296 29.398L32.1274 29.3991C31.7427 29.5731 31.3308 29.6584 30.8973 29.6584C30.3885 29.6584 29.9253 29.5561 29.5313 29.3246L29.5291 29.3233C29.4765 29.292 29.4245 29.2588 29.3733 29.2237V30.4779C29.3733 30.8645 29.3055 31.2393 29.0959 31.5272C28.8662 31.8429 28.5238 31.9781 28.1538 31.9781C27.7737 31.9781 27.3676 31.8569 27.1564 31.462C27.0067 31.1854 26.9572 30.8359 26.9572 30.4665V23.7194C26.9572 23.3662 27.0324 23.011 27.2694 22.7445C27.5012 22.48 27.815 22.3625 28.1538 22.3625C28.4946 22.3625 28.8034 22.4855 29.0368 22.7424C29.0979 22.8075 29.1494 22.8776 29.1922 22.9517C29.3233 22.8502 29.4588 22.7617 29.5988 22.6874C29.9913 22.475 30.4279 22.3739 30.8973 22.3739C31.4638 22.3739 31.9918 22.5214 32.4713 22.8154C32.9606 23.1154 33.3364 23.5495 33.6036 24.0966C33.8784 24.6513 34.0069 25.2904 34.0069 25.999C34.0069 26.5245 33.9318 27.0187 33.7762 27.4773C33.6264 27.9262 33.4138 28.3198 33.1314 28.6477ZM33.1826 24.3037C32.9496 23.8264 32.6308 23.4636 32.2261 23.2154C31.8213 22.9672 31.3784 22.8431 30.8973 22.8431C30.4964 22.8431 30.1374 22.929 29.8205 23.1009C29.6618 23.185 29.5059 23.2936 29.3529 23.4266C29.2563 23.5106 29.1607 23.6044 29.0663 23.708C29.0119 23.7677 28.9578 23.8307 28.9041 23.897V23.708C28.9041 23.5404 28.8792 23.3963 28.8295 23.2757C28.7954 23.193 28.7497 23.1214 28.6922 23.0608C28.5547 22.908 28.3753 22.8317 28.1538 22.8317C27.9285 22.8317 27.751 22.9061 27.6211 23.0551C27.4913 23.2002 27.4264 23.4216 27.4264 23.7194V30.4665C27.4264 30.8063 27.4741 31.064 27.5696 31.2397C27.665 31.4191 27.8598 31.5089 28.1538 31.5089C28.654 31.5089 28.9041 31.1652 28.9041 30.4779V28.1296C29.0564 28.3221 29.2128 28.4888 29.3733 28.6298C29.5025 28.7432 29.6344 28.84 29.769 28.92C30.0744 29.0995 30.4505 29.1892 30.8973 29.1892C31.2677 29.1892 31.6132 29.1167 31.934 28.9716C32.2585 28.8227 32.5392 28.6127 32.7759 28.3416C33.0126 28.0666 33.1978 27.7287 33.3315 27.3278C33.4689 26.923 33.5377 26.4801 33.5377 25.999C33.5377 25.3461 33.4193 24.7809 33.1826 24.3037ZM31.3481 25.1071L31.3472 25.105C31.2495 24.8741 31.1249 24.7234 30.9846 24.626L30.9809 24.6233L30.9772 24.6207C30.835 24.5177 30.6849 24.4693 30.5135 24.4693C30.2248 24.4693 29.9867 24.5751 29.7735 24.8179C29.5817 25.0403 29.4478 25.4119 29.4478 26.0105C29.4478 26.5619 29.5776 26.925 29.7769 27.1612C29.9856 27.4046 30.2218 27.5115 30.5135 27.5115C30.6763 27.5115 30.8254 27.4669 30.9711 27.3695C31.1059 27.2759 31.233 27.1248 31.3389 26.8857C31.4394 26.6588 31.4991 26.3626 31.4991 25.9818C31.4991 25.6154 31.4429 25.3284 31.3481 25.1071ZM31.2352 27.7573C31.0137 27.9063 30.7732 27.9807 30.5135 27.9807C30.0782 27.9807 29.7136 27.8089 29.4196 27.4652C29.1256 27.1178 28.9786 26.6328 28.9786 26.0105C28.9786 25.3499 29.1256 24.8497 29.4196 24.5098C29.7174 24.17 30.0821 24.0001 30.5135 24.0001C30.7846 24.0001 31.0309 24.0803 31.2524 24.2407C31.4777 24.3972 31.6533 24.6244 31.7793 24.9222C31.9053 25.2162 31.9683 25.5694 31.9683 25.9818C31.9683 26.4095 31.9015 26.7741 31.7679 27.0758C31.6342 27.3774 31.4567 27.6046 31.2352 27.7573ZM40.4627 28.6477L40.4606 28.6502C40.1805 28.9709 39.8462 29.2212 39.4609 29.398L39.4586 29.3991C39.0739 29.5731 38.662 29.6584 38.2285 29.6584C37.7197 29.6584 37.2566 29.5561 36.8625 29.3246L36.8603 29.3233C36.8077 29.292 36.7558 29.2588 36.7045 29.2237V30.4779C36.7045 30.8645 36.6367 31.2393 36.4271 31.5272C36.1974 31.8429 35.855 31.9781 35.485 31.9781C35.1049 31.9781 34.6987 31.8568 34.4876 31.4619C34.3379 31.1853 34.2884 30.8358 34.2884 30.4665V23.7194C34.2884 23.3662 34.3636 23.011 34.6007 22.7445C34.8324 22.48 35.1463 22.3625 35.485 22.3625C35.8259 22.3625 36.1346 22.4855 36.3681 22.7424C36.4292 22.8075 36.4806 22.8776 36.5234 22.9517C36.6545 22.8502 36.79 22.7617 36.93 22.6874C37.3226 22.475 37.7592 22.3739 38.2285 22.3739C38.795 22.3739 39.323 22.5214 39.8026 22.8154C40.2917 23.1154 40.6675 23.5494 40.9347 24.0964C41.2096 24.6512 41.3381 25.2903 41.3381 25.999C41.3381 26.5245 41.263 27.0187 41.1074 27.4773C40.9577 27.9262 40.745 28.3198 40.4627 28.6477ZM40.5138 24.3037C40.2809 23.8264 39.962 23.4636 39.5573 23.2154C39.1525 22.9672 38.7096 22.8431 38.2285 22.8431C37.8276 22.8431 37.4687 22.929 37.1517 23.1009C36.993 23.185 36.8371 23.2936 36.6842 23.4266C36.5875 23.5106 36.4919 23.6044 36.3976 23.708C36.3431 23.7677 36.289 23.8307 36.2353 23.897V23.708C36.2353 23.5404 36.2105 23.3963 36.1608 23.2757C36.1267 23.193 36.0809 23.1214 36.0234 23.0608C35.886 22.908 35.7065 22.8317 35.485 22.8317C35.2597 22.8317 35.0822 22.9061 34.9524 23.0551C34.8225 23.2002 34.7576 23.4216 34.7576 23.7194V30.4665C34.7576 30.8063 34.8054 31.064 34.9008 31.2397C34.9963 31.4191 35.191 31.5089 35.485 31.5089C35.9852 31.5089 36.2353 31.1652 36.2353 30.4779V28.1296C36.3876 28.3221 36.544 28.4888 36.7045 28.6298C36.8338 28.7432 36.9656 28.84 37.1002 28.92C37.4057 29.0995 37.7818 29.1892 38.2285 29.1892C38.5989 29.1892 38.9444 29.1167 39.2652 28.9716C39.5897 28.8227 39.8704 28.6127 40.1071 28.3416C40.3439 28.0666 40.5291 27.7287 40.6627 27.3278C40.8002 26.923 40.8689 26.4801 40.8689 25.999C40.8689 25.3461 40.7505 24.7809 40.5138 24.3037ZM38.6793 25.1071L38.6784 25.105C38.5807 24.8741 38.4561 24.7234 38.3159 24.626L38.3121 24.6233L38.3084 24.6207C38.1663 24.5177 38.0161 24.4693 37.8448 24.4693C37.556 24.4693 37.318 24.5751 37.1047 24.8179C36.9129 25.0403 36.779 25.4119 36.779 26.0105C36.779 26.5619 36.9088 26.925 37.1082 27.1612C37.3168 27.4046 37.553 27.5115 37.8448 27.5115C38.0076 27.5115 38.1567 27.4669 38.3023 27.3695C38.4371 27.2759 38.5642 27.1248 38.6701 26.8857C38.7706 26.6588 38.8304 26.3626 38.8304 25.9818C38.8304 25.6154 38.7741 25.3284 38.6793 25.1071ZM38.5664 27.7573C38.345 27.9063 38.1044 27.9807 37.8448 27.9807C37.4095 27.9807 37.0448 27.8089 36.7508 27.4652C36.4568 27.1178 36.3098 26.6328 36.3098 26.0105C36.3098 25.3499 36.4568 24.8497 36.7508 24.5098C37.0486 24.17 37.4133 24.0001 37.8448 24.0001C38.1159 24.0001 38.3621 24.0803 38.5836 24.2407C38.8089 24.3972 38.9845 24.6244 39.1105 24.9222C39.2365 25.2162 39.2996 25.5694 39.2996 25.9818C39.2996 26.4095 39.2327 26.7741 39.0991 27.0758C38.9654 27.3774 38.7879 27.6046 38.5664 27.7573Z" fill="white"/>
<defs>
<filter id="filter0_d" x="0" y="0" width="59.8819" height="63.2666" filterUnits="userSpaceOnUse" color-interpolation-filters="sRGB">
<feFlood flood-opacity="0" result="BackgroundImageFix"/>
<feColorMatrix in="SourceAlpha" type="matrix" values="0 0 0 0 0 0 0 0 0 0 0 0 0 0 0 0 0 0 127 0" result="hardAlpha"/>
<feOffset dy="5"/>
<feGaussianBlur stdDeviation="5"/>
<feColorMatrix type="matrix" values="0 0 0 0 0 0 0 0 0 0 0 0 0 0 0 0 0 0 0.25 0"/>
<feBlend mode="normal" in2="BackgroundImageFix" result="effect1_dropShadow"/>
<feBlend mode="normal" in="SourceGraphic" in2="effect1_dropShadow" result="shape"/>
</filter>
</defs>
</svg>
