<svg width="26" height="27" viewBox="0 0 26 27" fill="none" xmlns="http://www.w3.org/2000/svg">
<path d="M2.27345 7.67498L2.27325 7.67466L2.26208 7.68282C1.33889 8.35717 0.75 9.37877 0.75 10.5248V23.7251C0.75 25.1366 1.95246 26.2983 3.38539 26.2983H9.67413C10.6734 26.2983 11.5505 25.4534 11.5505 24.4643V19.7115C11.5505 19.7033 11.5522 19.6987 11.5546 19.6944C11.5577 19.6889 11.5641 19.6805 11.5762 19.6711C11.5883 19.6616 11.6028 19.6539 11.6162 19.6489C11.6237 19.6461 11.6284 19.6451 11.6302 19.6447H15.3123C15.3244 19.6447 15.3319 19.6473 15.338 19.6505C15.3451 19.6542 15.3539 19.661 15.3631 19.6722C15.3725 19.6836 15.3799 19.6968 15.3844 19.7085C15.3862 19.713 15.3871 19.7161 15.3876 19.718V24.4643C15.3876 25.4534 16.2648 26.2983 17.264 26.2983H22.4685C23.9014 26.2983 25.1039 25.1366 25.1039 23.7251V10.5248C25.1039 9.38164 24.5181 8.3649 23.7129 7.69278L23.7131 7.69263L23.7052 7.68655L15.2715 1.19787L15.2717 1.19764L15.2618 1.19079C14.4118 0.599478 13.2197 0.609439 12.2784 1.18246L12.2783 1.18237L12.2723 1.1863L2.27345 7.67498ZM22.7497 8.92765L22.7577 8.93375L22.766 8.93919C23.3438 9.31433 23.628 9.86804 23.628 10.5248V23.8307C23.628 24.4256 23.2041 24.8479 22.5769 24.8479H17.3724C17.2646 24.8479 17.1951 24.8138 17.1538 24.7736C17.1131 24.734 17.0803 24.6695 17.0803 24.5699V19.8171C17.0803 18.9336 16.3115 18.1943 15.4207 18.1943H11.6258C11.1768 18.1943 10.7654 18.3811 10.4669 18.6566C10.1702 18.9303 9.96626 19.3099 9.96626 19.7115V24.4643C9.96626 24.5639 9.93346 24.6284 9.89275 24.668C9.85145 24.7082 9.78191 24.7423 9.67413 24.7423H3.38539C2.75821 24.7423 2.33427 24.32 2.33427 23.7251V10.5248C2.33427 9.96594 2.62485 9.30609 3.09715 8.93314L13.0815 2.45382C13.553 2.18016 13.9825 2.19685 14.3186 2.44096L22.7497 8.92765Z" fill="#5A5A5A" stroke="#5A5A5A" stroke-width="0.5"/>
<path d="M15.7789 13.2739H11.1118C10.5278 13.2739 10.084 13.7766 10.084 14.3589C10.084 14.9411 10.5278 15.4438 11.1118 15.4438H15.7789C16.3629 15.4438 16.8067 14.9411 16.8067 14.3589C16.8067 13.7766 16.3629 13.2739 15.7789 13.2739Z" fill="#9F9F9F" stroke="#9F9F9F" stroke-width="0.5"/>
</svg>
