<svg width="1411" height="1171" viewBox="0 0 1411 1171" fill="none" xmlns="http://www.w3.org/2000/svg">
<g clip-path="url(#clip0)">
<path d="M805.118 336.255L789.855 315.563C788.258 315.933 785.468 316.185 782.694 314.42L774.71 326.825C774.39 327.111 771.566 329.666 768.742 328.809C767.616 328.456 766.725 327.666 766.086 326.439L671.248 383.187H664.692L661.162 387.171L680.762 391.895L707.035 394.214L707.304 394.349L743.595 411.747L743.848 412.083C744.923 413.562 770.205 448.727 762.859 477.286L762.809 477.471C762.674 477.824 749.798 512.502 770.541 535.766C770.911 536.22 801.672 574.428 825.138 592.952C844.956 608.585 848.032 608.467 852.689 608.299C853.596 608.265 854.638 608.215 855.849 608.282C859.446 608.433 863.211 609.577 867.212 610.77C871.868 612.165 876.676 613.577 881.265 613.443C889.905 613.123 902.562 612.249 902.697 612.232L903.335 612.182L926.331 629.966C930.869 621.36 941.358 616.653 951.141 613.191C961.328 609.593 967.278 601.491 967.329 601.407L985.483 578.53C984.34 576.681 983.247 574.546 982.289 572.024C977.902 560.409 961.496 525.933 960.807 524.47C958.571 519.764 938.954 477.118 940.904 432.405L940.921 431.985L951.679 413.461L959.243 372.413C957.344 369.219 945.208 352.056 911.168 366.109C885.147 376.85 863.564 371.253 853.731 360.932C849.461 356.444 847.982 351.451 849.814 347.568C851.999 342.895 859.681 338.189 868.573 332.742C880.273 325.581 893.519 317.446 890.88 310.571C887.03 300.603 883.904 300.653 866.573 300.888C862.404 300.939 857.681 301.006 851.983 300.956L851.562 300.888C850.436 300.586 845.158 299.073 839.661 296.602L834.955 305.881L805.118 336.255Z" fill="#E4E5E5"/>
<path d="M952.268 616.401C946.469 618.452 932.904 623.243 928.785 632.605C926.903 636.875 927.138 641.8 929.458 647.263L956.185 707.491C959.967 711.475 1016.19 770.375 1044.37 781.873L1103.72 784.731L1118.92 791.908L1119.1 792.715C1119.19 793.068 1121.03 801.691 1116.82 811.508C1113.15 820.03 1109.79 835.848 1109.3 838.185L1115.34 877.888L1134.36 907.927L1163.23 938.856L1166.71 935.494V924.064L1176.51 917.189L1181.4 908.986L1191.8 908.482L1201.69 897.606L1210.38 897.455V887.503L1222.58 878.174L1218.5 868.593L1218.51 868.223C1218.68 863.937 1218.7 856.793 1218.08 854.691C1217.91 854.103 1217.47 853.195 1217.02 852.237C1215.64 849.346 1213.92 845.732 1215.25 843.009C1215.89 841.698 1217.08 840.824 1218.82 840.42L1219.3 840.303L1219.77 840.471C1220.55 840.756 1223.07 841.378 1224.33 840.572C1224.63 840.37 1225.07 839.983 1225.17 838.84C1225.69 833.428 1225.69 831.814 1225.69 831.797V830.368L1233.22 829.141L1238.36 821.947L1239.51 822.283C1242.55 823.191 1246.52 823.846 1247.61 823.375C1250.01 822.333 1255.85 817.778 1256.4 816.5C1256.43 816.299 1256.32 816.164 1256.25 816.114C1255.75 815.61 1254.03 815.307 1250.9 816.114L1250.47 816.231L1250.05 816.114C1248.77 815.761 1247.16 815.072 1246.72 813.727C1246.48 813.004 1246.63 812.248 1247.12 811.626C1247.79 810.785 1251.24 806.969 1252.84 805.188L1249.27 797.842L1256 796.917L1261.43 790.11L1278.4 798.397L1288.66 798.313L1287.26 784.831L1291.53 773.973L1288.2 740.102L1255.19 663.182C1253.22 660.946 1233.3 638.791 1202.51 626.352L1202.21 626.235L1201.97 625.999C1201.64 625.68 1200.46 624.789 1199.5 624.957C1198.93 625.058 1198.37 625.596 1197.89 626.554L1197.28 627.731L1196 627.428C1195.84 627.395 1179.26 623.68 1165.28 631.715L1154.23 644.036L1153.12 643.548C1151.53 642.859 1114.51 626.823 1101.33 616.468L1059.88 621.578L1059.51 621.461C1058.89 621.259 1044.3 616.149 1029.89 597.894C1029.78 597.726 1022.38 587.623 1014.14 588.329C1004.76 589.103 995.586 588.144 995.199 588.111L994.897 588.077L994.628 587.943C994.409 587.842 990.997 586.077 987.417 581.471L969.935 603.491C969.8 603.777 963.497 612.434 952.268 616.401Z" fill="#E4E5E5"/>
<path d="M591.403 363.991L480.999 428.186L483.067 438.726L488.496 444.559L483.285 447.904L542.068 526.438L563.567 521.58C577.939 507.897 664.171 417.21 670.811 410.234L672.475 393.391L658.624 390.046L658.557 390.13L629.712 381.843L629.661 382.751L627.409 381.187L626.905 381.036L626.955 380.868C625.409 379.775 616.769 373.489 613.424 367.757L592.21 328.456L588.058 299.578L578.174 304.62L582.763 310.621L591.403 363.991Z" fill="#E4E5E5"/>
<path d="M636.924 85.4421L669.366 95.7967L682.242 273.203L651.262 289.559C651.044 289.643 645.446 291.845 647.278 302.149L647.295 302.351L648.136 317.631L648.035 317.933C642.219 335.482 631.41 369.336 629.981 378.413L657.431 386.297H657.448L663.163 379.842H670.307L768.088 321.345L768.609 323.598C768.861 324.724 769.281 325.481 769.701 325.615C770.323 325.8 771.517 325.144 772.256 324.522L781.939 309.343L783.418 310.755C786.309 313.512 789.671 312.134 789.805 312.067L791.032 311.546L791.839 312.605L805.472 331.078L832.35 303.729L836.636 295.173C831.594 292.551 826.954 289.139 825.878 285.088C823.542 276.397 823.676 268.665 823.676 268.329L823.693 267.891L823.912 267.522C823.996 267.37 832.115 253.116 827.744 245.384C825.895 242.106 821.878 240.391 815.793 240.29L789.94 238.761L767.735 208.672L752.169 171.859L739.949 178.18C739.814 178.23 736.486 179.424 732.821 177.373C729.006 175.255 726.333 170.565 724.887 163.455L724.534 161.774C721.038 144.678 714.533 112.841 716.97 97.5785C718.584 87.4761 720.685 81.4079 722.013 78.3149H712.011L675.249 61.5728L641.546 64.6153L642.404 69.3051L636.924 85.4421Z" fill="#E4E5E5"/>
<path d="M595.454 327.397L616.365 366.109C618.601 369.942 623.896 374.329 626.905 376.632C629.544 363.251 643.294 321.564 644.756 317.177L643.949 302.637C641.798 290.282 648.841 286.903 650.018 286.432L678.728 271.254L666.171 98.3015L632.62 87.5939L638.957 69.0699L638.201 64.9348L624.467 66.1787L624.198 66.1115C624.114 66.0947 615.642 64.2288 606.212 69.86L605.456 70.3138L589.403 62.9849L616.987 27.5675L616.836 5.05969C616.584 4.67308 615.962 3.88304 614.751 3.54685C612.734 2.95852 609.843 3.8158 606.431 6.05145L590.714 15.2126L589.974 14.9268C585.167 13.1282 571.484 9.32929 565.937 13.145C564.29 14.2713 563.483 16.0194 563.466 18.4736C563.466 19.1796 563.483 25.7353 562.39 28.8786L562.205 29.3997C561.163 32.3414 560.591 34.224 562.071 35.7705C563.735 37.5019 563.701 40.2754 562.003 42.2085C560.322 44.1416 557.095 44.9652 553.733 42.5111C549.48 39.4013 547.262 38.5777 540.807 42.2253C534.503 45.7889 524.619 53.3363 523.157 54.4458C522.972 54.7147 522.552 55.4543 522.653 56.3116C522.753 57.1016 523.308 57.8581 524.3 58.5977L524.737 58.9171L524.905 59.4381C525.14 60.1609 526.267 63.8422 525.897 66.0947C525.796 66.6494 526.199 67.12 527.107 68.0614C527.494 68.4648 527.88 68.8682 528.2 69.2885C528.923 70.2298 528.754 71.0366 528.603 71.4401C528.132 72.6503 526.922 72.8352 525.107 73.1378C523.392 73.4236 520.82 73.8438 517.391 75.0205C512.701 76.651 510.499 78.7522 509.625 79.8111L515.542 90.0145C515.626 90.2834 516.03 91.6954 515.324 93.0738C515.105 93.5108 514.702 94.0487 514.013 94.469L513.273 98.9066L509.272 97.7636L507.659 101.546L500.716 101.193L490.328 108.219L497.489 139.585L533.058 215.48L532.688 216.203C532.671 216.253 530.335 221.061 531.36 226.49C532.301 231.483 530.923 237.719 530.217 240.425C532.755 241.854 538.151 245.317 538.975 249.2C539.731 252.83 540.235 267.001 540.387 271.623C544.421 272.195 555.498 274.246 559.65 280.163L560.138 280.869C563.499 285.659 573.451 299.88 575.922 302.032L590.731 294.467L595.454 327.397Z" fill="#E4E5E5"/>
<path d="M1112.12 879.065L1105.89 838.084L1105.96 837.798C1106.11 837.058 1109.65 819.644 1113.74 810.163C1116.83 802.986 1116.28 796.413 1115.97 794.211L1102.93 788.042L1046.89 785.353L1048.96 793.488C1049.26 794.077 1049.76 795.405 1049.09 796.867C1048.3 798.632 1046.25 799.741 1042.84 800.212C1037.22 801.002 1036.21 803.288 1034.8 806.465L1034.43 807.289C1032.85 810.768 1028.9 810.617 1026.31 809.861L1009.64 827.628L990.812 864.609L977.936 867.786L998.241 885.268L998.359 885.806C998.409 885.991 999.317 890.142 997.065 893.706C998.914 896.833 1001.59 899.707 1002.91 899.236C1003.89 898.9 1005.03 898.211 1006.23 897.471C1009.22 895.656 1013.3 893.151 1016.68 896.429C1020.35 899.976 1026.41 909.104 1027.89 913.945C1028.48 914.617 1029.83 915.911 1031.02 916.029C1033.49 916.248 1035.61 920.114 1039.42 928.653C1039.93 929.779 1040.35 930.72 1040.63 931.309C1042.01 934.065 1051.98 947.463 1058.1 953.749C1064.32 960.12 1067.93 972.307 1068.35 973.752L1074.19 986.763L1098.9 982.628L1103.85 984.477L1108.56 979.35L1146.01 975.602L1157.54 967.23L1160.55 955.8L1172.08 954.96L1163.34 943.865L1131.62 909.826L1112.12 879.065Z" fill="#E4E5E5"/>
<path d="M1055.7 956.102C1049.63 949.866 1039.29 936.133 1037.64 932.821C1037.32 932.199 1036.89 931.208 1036.37 930.031C1035.17 927.358 1032.03 920.298 1030.57 919.374C1027.57 919.021 1025.29 916.113 1025.04 915.777L1024.83 915.508L1024.75 915.188C1023.66 911.104 1017.71 902.11 1014.35 898.866C1012.98 897.538 1011.27 898.345 1007.97 900.362C1006.68 901.152 1005.34 901.976 1004.01 902.43C1001.81 903.186 999.687 901.993 997.922 900.312C996.645 900.345 993.535 900.631 991.501 902.766C989.77 904.581 989.114 907.405 989.568 911.154C989.602 911.305 989.77 912.616 988.694 913.911C987.484 915.39 985.197 916.163 981.886 916.214C976.322 916.314 971.716 923.677 971.666 923.744L970.641 925.408L969.145 924.148C968.808 923.879 960.79 917.474 948.721 925.879L948.469 926.047L948.183 926.114C947.931 926.182 945.208 926.871 941.359 926.871C936.803 926.871 930.701 925.896 925.339 921.744L914.178 923.055L912.345 913.928L900.646 916.634C900.461 916.651 896.646 916.953 894.175 914.112H892.863C891.569 914.852 888.123 916.264 883.77 913.575H874.239L873.953 912.247C873.902 912.011 872.608 906.313 868.221 906.229L867.38 906.212L861.581 898.11H856.068L850.672 892.933L629.712 885.704L622.45 882.04L630.435 972.29L587.84 1036.42L630.838 1061.28L630.99 1061.43L652.405 1082.69L664.709 1084.96L663.045 1092.39L748.118 1165.18L779.702 1121.54L785.619 1126.68C791.738 1118.11 821.07 1077.35 827.912 1072.44L829.206 1071.52L837.93 1082.39L868.137 1053.09L865.565 1049.39L872.843 1043.43L871.263 1041.29L888.493 1024.94L896.982 1037.34L905.286 1030.87L940.552 1088.95C953.226 1085.32 1059.48 1054.69 1092.36 1037.85L1071.56 989.251L1065.09 974.778C1065.11 974.66 1061.56 962.137 1055.7 956.102Z" fill="#E4E5E5"/>
<path d="M940.737 711.458L916.447 689.673L913.64 691.405L904.68 694.397L904.042 693.069C903 690.934 898.965 690.228 897.049 690.094C882.475 699.288 723.643 755.516 716.802 757.936L716.314 758.104L709.742 756.356L615.088 790.496C614.197 795.472 615.374 801.792 615.39 801.859L615.407 802.027L622.148 878.14L630.603 882.41L852.101 889.655L857.446 894.782H863.329L869.179 902.951C873.97 903.523 876.088 907.96 876.878 910.247H884.795L885.215 910.532C888.745 912.919 891.115 911.322 891.367 911.121L891.804 910.801L895.923 910.784L896.427 911.541C897.57 913.289 899.755 913.323 900.26 913.306L914.968 909.877L916.867 919.374L926.348 918.265L926.902 918.718C934.803 925.24 945.258 923.341 947.057 922.954C957.966 915.491 966.438 918.702 969.767 920.584C971.666 918.029 976.154 912.97 981.819 912.869C985.416 912.802 986.189 911.81 986.206 911.541C985.635 906.767 986.593 903.002 989.064 900.43C990.963 898.463 993.367 897.589 995.3 897.219C994.443 895.992 993.838 894.9 993.569 894.395L993.031 893.387L993.77 892.513C995.35 890.647 995.266 888.125 995.132 887.066L970.758 866.105L988.475 861.718L1006.98 825.51L1025.39 805.91L1026.46 806.364C1026.5 806.381 1030.41 807.944 1031.36 805.894L1031.71 805.087C1033.21 801.725 1034.89 797.892 1042.35 796.867C1045.46 796.43 1045.95 795.589 1046 795.489C1046.1 795.287 1045.93 795.001 1045.93 794.984L1045.73 794.497L1043.32 785.033C1016.01 774.057 964.825 721.359 955.109 711.206L944.468 729.915L940.737 711.458Z" fill="#E4E5E5"/>
<path d="M881.383 616.822C876.273 617.023 871.163 615.494 866.254 614.014C862.472 612.888 858.892 611.812 855.715 611.661C854.656 611.611 853.731 611.661 852.84 611.678C847.243 611.913 843.864 612.031 823.071 595.625C799.302 576.866 768.306 538.355 767.986 537.969C746.487 513.864 758.842 478.547 759.632 476.396C766.154 450.812 743.949 418.101 741.377 414.419L706.145 397.526L680.107 395.206L675.804 394.164L674.072 411.679L673.669 412.1C672.727 413.091 579.418 511.275 565.567 524.319L565.231 524.639L543.211 529.614L585.453 686.16L614.769 787.017L709.607 752.81L716.197 754.558C774.979 733.748 887.451 693.103 895.603 687.001L896.057 686.648H896.629C897.385 686.665 903.437 686.866 906.277 690.279L912.43 688.228L916.834 685.404L943.846 709.643L946.032 720.418L952.924 708.282L926.415 648.541C924.045 642.96 923.574 637.8 925.02 633.143L902.327 615.594C899.604 615.847 888.964 616.536 881.383 616.822Z" fill="#E4E5E5"/>
<path d="M310.788 632.303C316.083 634.505 328.673 639.867 331.043 642.086C333.178 644.086 335.212 648.121 336.17 650.155C345.062 649.381 359.77 660.543 361.518 661.871L376.613 672.007L385.522 672.78V683.673C393.608 699.641 399.424 745.245 400.348 752.91C403.223 754.104 405.811 756.289 406.921 757.331L416.468 756.525L424.486 761.988H435.177L445.683 755.6L450.407 745.262L461.198 746.422L461.518 746.624L527.091 786.428C560.475 781.049 600.817 785.79 611.289 787.202L582.192 687.085L539.396 528.471L478.445 447.03L483.319 443.903L479.974 440.306L477.94 429.985L379.219 488.616L365.132 503.795L369.436 506.333L349.029 527.547L297.559 619.024L312.233 629.832L310.788 632.303Z" fill="#E4E5E5"/>
<path d="M612.062 802.397C611.911 801.574 610.919 795.808 611.642 790.647C602.75 789.42 561.012 784.226 527.007 789.841L526.385 789.941L460.088 749.7L452.457 748.876L448.305 757.953L436.118 765.366H423.461L415.577 759.987L405.693 760.828L405.138 760.273C405.105 760.239 401.692 756.81 398.314 755.768L397.272 755.449L397.137 754.373C397.07 753.835 390.834 701.053 382.362 684.899L382.177 684.53V675.906L375.487 675.318L359.585 664.627C354.878 660.996 341.565 652.104 335.631 653.668L334.219 654.037L333.648 652.693C332.959 651.045 330.723 646.372 328.79 644.557C327.042 642.91 314.956 637.631 307.761 634.69L305.963 633.95L307.829 630.79L295.474 621.679L252.139 662.425L121.143 666.123V678.125L127.312 687.555L119.815 713.543L148.257 742.253L148.375 742.673C148.442 742.875 154.376 764.038 165.924 782.176C177.657 800.582 195.559 832.251 195.727 832.57L196.466 833.881L191.39 837.529L244.945 907.843C244.962 907.86 248.189 911.305 255.098 912.633L476.108 963.852L472.191 969.483L584.965 1034.7L627.023 971.399L612.062 802.397Z" fill="#E4E5E5"/>
<path d="M1295.01 774.46L1291.58 739.53L1291.57 739.278L1258.25 661.635L1257.98 661.215C1257.78 660.963 1237.05 636.757 1204.11 623.36C1203.38 622.738 1201.37 621.259 1199.03 621.646C1198.07 621.797 1196.76 622.335 1195.64 623.915C1191.33 623.142 1176.54 621.276 1163.43 628.941L1153.43 639.985C1146.95 637.144 1114.08 622.486 1102.96 613.409L1102.41 612.955L1060.34 618.149C1058.1 617.275 1045.17 611.745 1032.67 595.86C1032.31 595.372 1024.11 584.144 1013.96 584.967C1005.89 585.64 997.704 584.951 995.973 584.782C994.729 584.043 988.997 580.244 985.467 570.864C981.046 559.114 964.573 524.521 963.867 523.042C961.665 518.419 942.485 476.748 944.284 432.977L954.907 414.671L962.791 371.891L962.539 371.387C962.404 371.135 949.545 346.66 909.909 363.033C881.854 374.614 862.926 365.722 856.186 358.645C852.958 355.25 851.681 351.569 852.874 349.03C854.639 345.282 862.624 340.374 870.356 335.65C883.804 327.414 897.705 318.891 894.04 309.411C889.351 297.257 884.056 297.341 866.54 297.577C862.456 297.627 857.816 297.694 852.252 297.644C846.184 295.946 830.803 290.433 829.139 284.247C827.223 277.137 827.072 270.53 827.055 268.85C828.467 266.278 835.594 252.477 830.686 243.77C828.215 239.383 823.222 237.097 815.944 236.962L791.738 235.533L770.777 207.226L753.867 167.253L738.738 175.103C738.318 175.221 736.486 175.641 734.418 174.465C731.577 172.834 729.426 168.817 728.216 162.849L727.863 161.168C724.417 144.275 717.995 112.841 720.332 98.1836C722.702 83.3745 726.148 77.6593 726.182 77.6089L727.795 75.037H712.785L675.871 58.2276L624.703 62.8502C623.039 62.5308 614.718 61.2869 605.272 66.5987L594.682 61.7576L620.366 28.7775L620.198 4.33664L620.064 4.03407C619.946 3.76512 618.854 1.32775 615.811 0.403236C612.752 -0.538091 608.986 0.436855 604.683 3.24403L590.395 11.5647C586.748 10.304 571.333 5.41244 564.038 10.4216C561.466 12.1866 560.138 14.9098 560.105 18.5238C560.121 20.356 559.987 25.6174 559.214 27.8194L559.029 28.3237C557.97 31.2989 556.642 35.0138 559.634 38.1404C560.138 38.6783 559.937 39.5019 559.466 40.0398C558.609 41.0148 557.213 40.9307 555.701 39.8381C550.422 35.9888 546.792 35.0138 539.143 39.3506C532.151 43.3177 521.359 51.6215 520.905 51.9745L520.653 52.2267C520.485 52.4284 519.006 54.2438 519.308 56.7316C519.493 58.3285 520.35 59.7573 521.863 61.0012C522.3 62.4804 522.754 64.6152 522.586 65.5901C522.267 67.54 523.242 68.9016 524.2 69.927C522.452 70.2127 519.728 70.7002 516.299 71.8937C508.466 74.6168 506.348 78.6006 506.13 79.0545L505.743 79.8613L512.383 91.2245C512.45 91.6279 512.248 91.6783 512.03 91.7624L511.038 92.065L510.601 94.6872L507.357 93.7627L505.508 98.1163L499.793 97.8138L486.58 106.756L494.296 140.543L494.329 140.711L529.377 215.496C528.654 217.278 527.108 221.901 528.1 227.129C529.159 232.726 526.688 240.711 526.671 240.778L526.251 242.139L527.528 242.778C530.419 244.224 535.227 247.451 535.731 249.905C536.403 253.082 536.924 266.513 537.126 273.17L537.177 274.649L538.656 274.783C542.589 275.153 553.532 277.204 556.945 282.079L557.432 282.785C567.635 297.375 572.224 303.427 574.258 304.939L574.796 305.629L575.099 306.234L575.216 306.183L579.654 311.999L587.79 362.243L478.882 425.58L477.402 426.455L477.318 426.471V426.505L377.353 485.876L359.888 504.585L364.124 507.089L346.524 525.395L346.373 525.546L294.213 618.25L250.795 659.08L119.379 662.795L117.748 662.845V679.117L123.631 688.093L116 714.518L145.232 744.018C146.156 747.161 152.157 766.862 163.066 784.008C173.387 800.212 188.533 826.754 192.046 832.94L186.6 836.84L242.306 909.994C242.457 910.179 246.239 914.398 254.375 915.945L470.494 966.037L467.334 970.592L628.805 1063.97L650.808 1085.82L660.709 1087.65L659.364 1093.65L748.74 1170.12L780.308 1126.5L786.242 1131.66L787.318 1130.15C796.613 1117.07 821.02 1083.53 828.702 1076.21L837.662 1087.37L872.575 1053.51L870.154 1050.02L877.517 1043.98L875.802 1041.66L888.006 1030.06L896.293 1042.17L904.429 1035.81L939.056 1092.85L940.283 1092.49C945.242 1091.08 1062.03 1057.87 1095.35 1040.07L1096.71 1039.34L1075.57 989.906L1098.56 986.057L1104.8 988.376L1110.18 982.527L1147.26 978.812L1160.5 969.197L1163.21 958.926L1178.66 957.8L1165.58 941.209L1170.1 936.839V925.728L1179.06 919.441L1183.38 912.179L1193.37 911.692L1203.22 900.867L1213.76 900.682V889.083L1226.72 879.182L1221.91 867.887C1221.98 865.701 1222.23 856.725 1221.34 853.666C1221.08 852.825 1220.63 851.85 1220.09 850.707C1219.13 848.69 1217.69 845.665 1218.31 844.387C1218.36 844.269 1218.51 843.967 1219.2 843.731C1220.51 844.118 1223.77 844.841 1226.16 843.345C1227.14 842.74 1228.33 841.496 1228.56 839.092C1228.85 836.15 1228.98 834.285 1229.05 833.175L1235.22 832.167L1239.79 825.779C1242.23 826.435 1246.74 827.393 1249.02 826.418C1251.02 825.56 1259.09 820.148 1259.75 817.273C1260.05 815.945 1259.65 814.601 1258.69 813.659C1257.59 812.6 1255.34 811.592 1250.7 812.685C1252.18 811.004 1254.97 807.911 1256.18 806.566L1256.94 805.725L1254.42 800.498L1257.9 800.027L1262.49 794.261L1277.75 801.708L1292.49 801.573L1290.81 785.235L1295.01 774.46ZM1249.32 797.859L1252.89 805.204C1251.29 806.969 1247.84 810.802 1247.17 811.642C1246.69 812.264 1246.53 813.021 1246.77 813.743C1247.21 815.088 1248.82 815.777 1250.1 816.13L1250.52 816.248L1250.95 816.13C1254.06 815.34 1255.78 815.643 1256.3 816.13C1256.35 816.181 1256.48 816.315 1256.45 816.517C1255.9 817.795 1250.06 822.367 1247.66 823.392C1246.57 823.863 1242.6 823.207 1239.56 822.299L1238.41 821.963L1233.27 829.158L1225.74 830.385V831.814C1225.74 831.83 1225.72 833.444 1225.22 838.857C1225.12 839.983 1224.68 840.386 1224.38 840.588C1223.12 841.378 1220.6 840.756 1219.82 840.487L1219.35 840.319L1218.87 840.437C1217.13 840.84 1215.92 841.714 1215.3 843.025C1213.99 845.749 1215.71 849.363 1217.07 852.254C1217.52 853.212 1217.96 854.12 1218.13 854.708C1218.73 856.809 1218.71 863.953 1218.56 868.24L1218.55 868.609L1222.63 878.191L1210.43 887.52V897.471L1201.74 897.622L1191.85 908.498L1181.45 909.002L1176.56 917.205L1166.76 924.08V935.511L1163.28 938.873L1134.42 907.943L1115.39 877.905L1109.35 838.201C1109.84 835.865 1113.2 820.047 1116.87 811.525C1121.09 801.708 1119.24 793.102 1119.15 792.732L1118.97 791.925L1103.77 784.747L1044.42 781.89C1016.24 770.392 960.017 711.492 956.235 707.508L929.508 647.28C927.189 641.834 926.953 636.892 928.836 632.622C932.954 623.259 946.519 618.469 952.319 616.418C963.547 612.451 969.851 603.794 970.069 603.491L987.551 581.471C991.132 586.077 994.544 587.842 994.763 587.943L995.031 588.077L995.334 588.111C995.721 588.144 1004.92 589.102 1014.28 588.329C1022.51 587.623 1029.91 597.726 1030.03 597.894C1044.42 616.166 1059.02 621.259 1059.65 621.461L1060.02 621.578L1101.47 616.468C1114.65 626.823 1151.66 642.859 1153.26 643.548L1154.37 644.036L1165.41 631.714C1179.38 623.679 1195.97 627.394 1196.14 627.428L1197.42 627.731L1198.02 626.554C1198.51 625.596 1199.05 625.058 1199.64 624.957C1200.59 624.789 1201.77 625.68 1202.11 625.999L1202.34 626.234L1202.64 626.352C1233.46 638.791 1253.38 660.946 1255.33 663.182L1288.34 740.101L1291.67 773.972L1287.4 784.831L1288.79 798.312L1278.54 798.396L1261.56 790.109L1256.13 796.917L1249.32 797.859ZM1098.88 982.628L1074.17 986.763L1068.34 973.752C1067.92 972.307 1064.3 960.137 1058.08 953.749C1051.96 947.479 1042.01 934.082 1040.62 931.308C1040.32 930.703 1039.9 929.762 1039.41 928.653C1035.59 920.097 1033.47 916.247 1031 916.029C1029.81 915.928 1028.47 914.634 1027.88 913.944C1026.4 909.103 1020.35 899.992 1016.67 896.429C1013.27 893.151 1009.18 895.639 1006.21 897.471C1005.02 898.211 1003.87 898.9 1002.9 899.236C1001.57 899.707 998.898 896.832 997.049 893.706C999.301 890.142 998.376 886.007 998.343 885.805L998.225 885.268L977.919 867.786L990.795 864.609L1009.62 827.628L1026.3 809.861C1028.89 810.617 1032.84 810.768 1034.42 807.289L1034.79 806.465C1036.2 803.288 1037.21 800.985 1042.82 800.212C1046.23 799.741 1048.28 798.649 1049.07 796.867C1049.73 795.404 1049.24 794.076 1048.94 793.488L1046.87 785.352L1102.91 788.042L1115.96 794.211C1116.28 796.413 1116.82 802.985 1113.72 810.163C1109.64 819.644 1106.09 837.058 1105.94 837.798L1105.87 838.083L1112.11 879.065L1131.59 909.843L1163.31 943.882L1172.05 954.976L1160.52 955.817L1157.51 967.247L1145.98 975.618L1108.53 979.367L1103.82 984.493L1098.88 982.628ZM940.586 1088.96L905.32 1030.89L897.016 1037.36L888.527 1024.95L871.297 1041.31L872.877 1043.44L865.599 1049.41L868.171 1053.11L837.964 1082.41L829.24 1071.53L827.946 1072.46C821.104 1077.37 791.789 1118.13 785.653 1126.7L779.736 1121.56L748.152 1165.19L663.079 1092.41L664.743 1084.98L652.439 1082.71L631.024 1061.45L630.872 1061.3L587.874 1036.43L630.469 972.307L622.484 882.057L629.746 885.721L850.706 892.949L856.102 898.127H861.615L867.414 906.229L868.255 906.246C872.642 906.33 873.936 912.028 873.987 912.263L874.273 913.591H883.804C888.157 916.281 891.603 914.869 892.897 914.129H894.209C896.68 916.97 900.495 916.667 900.68 916.651L912.38 913.944L914.212 923.072L925.373 921.761C930.735 925.913 936.854 926.888 941.393 926.888C945.242 926.888 947.965 926.198 948.217 926.131L948.503 926.064L948.755 925.896C960.841 917.491 968.859 923.895 969.179 924.164L970.675 925.425L971.7 923.761C971.75 923.694 976.356 916.331 981.92 916.23C985.215 916.18 987.518 915.407 988.728 913.928C989.787 912.633 989.619 911.322 989.602 911.171C989.148 907.422 989.804 904.598 991.535 902.783C993.569 900.648 996.679 900.345 997.956 900.329C999.721 902.01 1001.86 903.203 1004.04 902.447C1005.37 901.993 1006.71 901.169 1008.01 900.379C1011.3 898.362 1013.02 897.572 1014.38 898.883C1017.74 902.144 1023.67 911.137 1024.78 915.205L1024.87 915.524L1025.07 915.793C1025.32 916.13 1027.61 919.038 1030.6 919.391C1032.05 920.315 1035.21 927.375 1036.4 930.048C1036.92 931.224 1037.37 932.216 1037.68 932.838C1039.32 936.133 1049.66 949.883 1055.73 956.119C1061.6 962.137 1065.14 974.677 1065.18 974.794L1071.65 989.267L1092.44 1037.86C1059.51 1054.71 953.26 1085.33 940.586 1088.96ZM472.191 969.516L476.108 963.885L255.081 912.667C248.156 911.339 244.928 907.876 244.928 907.876L191.373 837.562L196.45 833.915L195.71 832.604C195.525 832.284 177.623 800.615 165.907 782.209C154.342 764.072 148.409 742.909 148.358 742.707L148.24 742.287L119.782 713.543L127.279 687.555L121.11 678.125V666.123L252.106 662.425L295.44 621.679L307.795 630.79L305.93 633.95L307.728 634.69C314.923 637.631 327.009 642.909 328.757 644.557C330.69 646.372 332.925 651.045 333.615 652.693L334.186 654.037L335.598 653.667C341.532 652.087 354.845 660.996 359.552 664.627L375.453 675.318L382.143 675.906V684.53L382.328 684.899C390.8 701.036 397.053 753.835 397.104 754.373L397.238 755.448L398.28 755.768C401.642 756.827 405.071 760.239 405.105 760.273L405.66 760.827L415.544 759.987L423.427 765.366H436.085L448.272 757.953L452.424 748.876L460.055 749.7L526.368 789.958L526.99 789.857C560.996 784.243 602.717 789.42 611.626 790.664C610.886 795.825 611.894 801.59 612.046 802.414L627.006 971.449L584.949 1034.75L472.191 969.516ZM369.419 506.35L365.115 503.812L379.202 488.633L477.923 430.001L479.957 440.322L483.302 443.92L478.428 447.046L539.379 528.488L582.175 687.101L611.273 787.218C600.8 785.806 560.458 781.066 527.074 786.445L461.501 746.64L461.181 746.439L450.39 745.279L445.666 755.617L435.16 762.004H424.47L416.451 756.541L406.904 757.348C405.777 756.323 403.206 754.12 400.331 752.927C399.407 745.262 393.591 699.658 385.505 683.689V672.797L376.596 672.023L361.501 661.887C359.77 660.542 345.045 649.381 336.153 650.171C335.212 648.137 333.161 644.103 331.026 642.103C328.656 639.884 316.066 634.522 310.771 632.32L312.199 629.882L297.525 619.074L348.995 527.597L369.419 506.35ZM591.404 363.991L582.764 310.638L578.175 304.637L588.059 299.594L592.211 328.473L613.424 367.756C616.769 373.488 625.409 379.775 626.956 380.867L626.905 381.036L627.41 381.187L629.662 382.75L629.712 381.842L658.557 390.129L658.625 390.045L672.476 393.39L670.811 410.234C664.172 417.226 577.939 507.896 563.567 521.579L542.068 526.437L483.286 447.903L488.497 444.558L483.067 438.725L481 428.186L591.404 363.991ZM851.563 300.939L851.983 301.006C857.682 301.073 862.405 301.006 866.574 300.939C883.921 300.687 887.048 300.653 890.88 310.621C893.536 317.496 880.274 325.632 868.574 332.793C859.682 338.239 852 342.945 849.815 347.618C847.999 351.501 849.462 356.511 853.732 360.982C863.582 371.303 885.148 376.9 911.169 366.159C945.225 352.107 957.345 369.252 959.244 372.463L951.68 413.511L940.922 432.035L940.905 432.456C938.938 477.169 958.555 519.797 960.807 524.521C961.497 525.983 977.919 560.459 982.29 572.075C983.248 574.596 984.341 576.748 985.484 578.58L967.329 601.457C967.262 601.541 961.328 609.644 951.142 613.241C941.359 616.704 930.87 621.393 926.331 630.017L903.336 612.232L902.697 612.283C902.563 612.299 889.905 613.157 881.265 613.493C876.693 613.627 871.886 612.215 867.213 610.82C863.212 609.627 859.447 608.501 855.849 608.332C854.639 608.282 853.614 608.316 852.689 608.349C848.033 608.517 844.94 608.652 825.139 593.002C801.673 574.478 770.912 536.271 770.542 535.817C749.782 512.552 762.675 477.858 762.809 477.522L762.86 477.337C770.206 448.778 744.924 413.612 743.848 412.133L743.596 411.797L707.305 394.399L707.036 394.265L680.763 391.945L661.163 387.221L664.693 383.238H671.249L766.087 326.489C766.726 327.716 767.6 328.506 768.743 328.859C771.55 329.716 774.391 327.178 774.71 326.876L782.695 314.47C785.452 316.218 788.259 315.983 789.856 315.613L805.119 336.306L834.955 305.965L839.662 296.686C845.159 299.123 850.437 300.619 851.563 300.939ZM1043.32 785.067L1045.73 794.53L1045.93 795.018C1045.93 795.018 1046.1 795.304 1046 795.522C1045.95 795.623 1045.46 796.463 1042.35 796.9C1034.89 797.943 1033.21 801.758 1031.71 805.12L1031.36 805.927C1030.43 807.978 1026.5 806.415 1026.47 806.398L1025.39 805.944L1007 825.544L988.492 861.751L970.775 866.138L995.149 887.1C995.267 888.159 995.351 890.663 993.788 892.546L993.048 893.42L993.586 894.429C993.855 894.933 994.46 896.026 995.317 897.253C993.384 897.622 990.98 898.496 989.081 900.463C986.61 903.035 985.652 906.784 986.223 911.574C986.206 911.843 985.433 912.852 981.836 912.902C976.171 913.003 971.683 918.063 969.784 920.618C966.455 918.735 957.983 915.541 947.074 922.988C945.276 923.374 934.82 925.291 926.92 918.752L926.365 918.298L916.884 919.407L914.985 909.91L900.277 913.339C899.772 913.356 897.587 913.322 896.444 911.574L895.94 910.818L891.822 910.835L891.385 911.154C891.132 911.339 888.745 912.936 885.232 910.566L884.812 910.28H876.895C876.105 907.994 873.987 903.556 869.196 902.985L863.346 894.815H857.463L852.118 889.688L630.62 882.443L622.165 878.174L615.424 802.061L615.408 801.893C615.391 801.826 614.214 795.522 615.105 790.53L709.759 756.39L716.331 758.138L716.819 757.97C723.66 755.549 882.509 699.305 897.066 690.127C898.982 690.262 903.017 690.968 904.059 693.102L904.698 694.43L913.657 691.438L916.464 689.707L940.754 711.492L944.485 729.982L955.126 711.273C964.825 721.393 1016.01 774.09 1043.32 785.067ZM945.998 720.468L943.813 709.693L916.8 685.454L912.396 688.278L906.244 690.329C903.403 686.916 897.335 686.715 896.596 686.698H896.024L895.57 687.051C887.434 693.153 774.963 733.798 716.163 754.608L709.574 752.86L614.735 787.067L585.42 686.21L543.178 529.664L565.198 524.689L565.534 524.369C579.385 511.325 672.694 413.142 673.635 412.15L674.039 411.73L675.77 394.214L680.073 395.256L706.111 397.576L741.344 414.469C743.916 418.151 766.121 450.862 759.599 476.446C758.809 478.597 746.454 513.914 767.953 538.019C768.256 538.405 799.269 576.916 823.037 595.675C843.831 612.081 847.209 611.963 852.807 611.728C853.698 611.694 854.622 611.661 855.681 611.711C858.858 611.846 862.439 612.921 866.221 614.064C871.146 615.544 876.239 617.073 881.349 616.872C888.93 616.586 899.554 615.897 902.243 615.712L924.936 633.261C923.491 637.917 923.961 643.078 926.331 648.658L952.84 708.399L945.998 720.468ZM641.042 61.7744L641.261 62.9847L641.563 64.6488L675.266 61.6063L712.028 78.3485H722.03C720.702 81.4414 718.601 87.5096 716.987 97.6121C714.55 112.875 721.055 144.712 724.551 161.807L724.904 163.488C726.35 170.599 729.022 175.288 732.838 177.406C736.503 179.44 739.814 178.264 739.965 178.213L752.186 171.893L767.751 208.705L789.957 238.794L815.809 240.324C821.894 240.442 825.912 242.156 827.761 245.417C832.131 253.166 824.012 267.421 823.928 267.555L823.71 267.925L823.693 268.362C823.693 268.681 823.559 276.431 825.895 285.121C826.988 289.172 831.61 292.584 836.653 295.207L832.367 303.763L805.488 331.112L791.856 312.638L791.049 311.579L789.822 312.1C789.688 312.167 786.326 313.546 783.435 310.789L781.955 309.377L772.273 324.556C771.55 325.178 770.34 325.833 769.718 325.649C769.298 325.514 768.878 324.758 768.625 323.631L768.104 321.379L670.324 379.876H663.18L657.465 386.331H657.448L629.998 378.447C631.427 369.37 642.235 335.499 648.052 317.967L648.152 317.664L647.312 302.384L647.295 302.183C645.463 291.878 651.06 289.676 651.279 289.592L682.259 273.237L669.366 95.7967L636.924 85.4421L642.437 69.3386L641.58 64.6488L638.218 64.9514L638.974 69.0865L632.637 87.6105L666.189 98.3181L678.745 271.27L650.035 286.449C648.858 286.92 641.798 290.282 643.967 302.653L644.774 317.193C643.311 321.581 629.561 363.251 626.922 376.648C623.896 374.329 618.601 369.941 616.383 366.126L595.472 327.414L590.731 294.467L575.922 302.031C573.435 299.88 563.483 285.676 560.138 280.868L559.651 280.162C555.516 274.245 544.438 272.195 540.387 271.623C540.236 267 539.732 252.83 538.975 249.199C538.152 245.316 532.756 241.854 530.218 240.425C530.924 237.719 532.302 231.465 531.361 226.49C530.335 221.077 532.672 216.253 532.689 216.202L533.058 215.48L497.49 139.585L490.329 108.219L500.717 101.192L507.659 101.545L509.273 97.7634L513.274 98.9064L514.013 94.4687C514.702 94.0485 515.089 93.5106 515.324 93.0735C516.03 91.6952 515.627 90.2832 515.543 90.0142L509.626 79.8109C510.5 78.7519 512.719 76.6507 517.392 75.0202C520.804 73.8268 523.393 73.4065 525.107 73.1376C526.923 72.835 528.133 72.6501 528.604 71.4398C528.755 71.0364 528.923 70.2295 528.2 69.2882C527.881 68.868 527.494 68.4646 527.108 68.0611C526.2 67.1198 525.813 66.6491 525.898 66.0944C526.267 63.8251 525.141 60.1439 524.906 59.4379L524.738 58.9168L524.301 58.5974C523.309 57.8746 522.754 57.1014 522.653 56.3113C522.536 55.4709 522.973 54.7144 523.158 54.4455C524.62 53.3193 534.521 45.7887 540.807 42.2251C547.262 38.5606 549.481 39.4011 553.734 42.5108C557.096 44.965 560.323 44.1413 562.004 42.2082C563.702 40.2752 563.736 37.5016 562.071 35.7702C560.592 34.2238 561.164 32.3411 562.206 29.3995L562.391 28.8784C563.5 25.735 563.483 19.1793 563.467 18.4734C563.5 16.0192 564.307 14.271 565.938 13.1448C571.485 9.32903 585.168 13.1448 589.975 14.9266L590.715 15.2123L606.431 6.0512C609.844 3.83236 612.735 2.95827 614.752 3.5466C615.946 3.89959 616.584 4.67283 616.836 5.05944L616.988 27.5672L589.403 62.9847L605.456 70.3136L606.213 69.8597C615.643 64.2286 624.115 66.0776 624.199 66.1112L624.468 66.1785L638.201 64.9346L637.899 63.2704L637.731 62.3627L641.042 61.7744Z" fill="white"/>
</g>
<path d="M574.475 429.951C579.156 429.951 582.95 426.156 582.95 421.476C582.95 416.795 579.156 413 574.475 413C569.794 413 566 416.795 566 421.476C566 426.156 569.794 429.951 574.475 429.951Z" fill="#17479B"/>
<path d="M574 421L137 421" stroke="#51C5FF" stroke-miterlimit="10"/>
<path d="M147.301 395.126H142.915V407H141.834V395.126H137.457V394.203H147.301V395.126ZM150.456 401.788V407H149.375V394.203H153.734C155.064 394.203 156.113 394.543 156.881 395.223C157.654 395.902 158.041 396.837 158.041 398.026C158.041 399.228 157.669 400.156 156.925 400.812C156.187 401.463 155.114 401.788 153.708 401.788H150.456ZM150.456 400.874H153.734C154.783 400.874 155.583 400.625 156.134 400.127C156.685 399.629 156.96 398.935 156.96 398.044C156.96 397.159 156.685 396.456 156.134 395.935C155.589 395.407 154.812 395.138 153.805 395.126H150.456V400.874ZM173.905 403.01C173.759 404.357 173.275 405.389 172.455 406.104C171.641 406.818 170.554 407.176 169.194 407.176C168.245 407.176 167.404 406.938 166.672 406.464C165.945 405.989 165.383 405.318 164.984 404.451C164.586 403.578 164.384 402.582 164.378 401.463V399.802C164.378 398.665 164.577 397.657 164.976 396.778C165.374 395.899 165.945 395.223 166.689 394.748C167.439 394.268 168.301 394.027 169.273 394.027C170.645 394.027 171.726 394.399 172.517 395.144C173.313 395.882 173.776 396.904 173.905 398.211H172.815C172.546 396.037 171.365 394.95 169.273 394.95C168.113 394.95 167.188 395.384 166.496 396.251C165.811 397.118 165.468 398.316 165.468 399.846V401.41C165.468 402.887 165.802 404.064 166.47 404.943C167.144 405.822 168.052 406.262 169.194 406.262C170.325 406.262 171.178 405.992 171.752 405.453C172.326 404.908 172.681 404.094 172.815 403.01H173.905ZM186.017 407H184.927V400.865H177.614V407H176.533V394.203H177.614V399.951H184.927V394.203H186.017V407ZM196.344 403.414H190.534L189.216 407H188.082L192.925 394.203H193.953L198.796 407H197.671L196.344 403.414ZM190.868 402.491H196.001L193.435 395.521L190.868 402.491ZM195.913 393.087V393.175H194.938L193.461 391.566L191.993 393.175H191.035V393.061L193.127 390.819H193.795L195.913 393.087ZM209.343 394.203V402.939C209.337 403.801 209.146 404.551 208.771 405.189C208.396 405.828 207.866 406.32 207.181 406.666C206.501 407.006 205.719 407.176 204.834 407.176C203.486 407.176 202.405 406.81 201.591 406.077C200.782 405.339 200.363 404.319 200.334 403.019V394.203H201.406V402.86C201.406 403.938 201.714 404.776 202.329 405.374C202.944 405.966 203.779 406.262 204.834 406.262C205.889 406.262 206.721 405.963 207.33 405.365C207.945 404.768 208.253 403.936 208.253 402.869V394.203H209.343ZM216.998 407V400.944H215.407V400.048H216.998V394.203H220.575C221.624 394.203 222.564 394.443 223.396 394.924C224.229 395.398 224.876 396.081 225.339 396.972C225.808 397.862 226.042 398.876 226.042 400.013V401.19C226.042 402.333 225.811 403.347 225.348 404.231C224.885 405.116 224.231 405.799 223.388 406.279C222.55 406.76 221.586 407 220.496 407H216.998ZM220.786 400.944H218.079V406.086H220.461C221.838 406.086 222.934 405.641 223.748 404.75C224.562 403.854 224.97 402.644 224.97 401.12V399.995C224.97 398.524 224.568 397.347 223.766 396.462C222.963 395.577 221.905 395.132 220.593 395.126H218.079V400.048H220.786V400.944ZM238.25 401.296C238.25 402.474 238.045 403.508 237.635 404.398C237.23 405.289 236.65 405.975 235.895 406.455C235.139 406.936 234.266 407.176 233.275 407.176C231.781 407.176 230.574 406.643 229.654 405.576C228.734 404.504 228.274 403.06 228.274 401.243V399.925C228.274 398.759 228.479 397.728 228.89 396.831C229.306 395.929 229.892 395.237 230.647 394.757C231.403 394.271 232.273 394.027 233.258 394.027C234.242 394.027 235.109 394.265 235.859 394.739C236.615 395.214 237.198 395.885 237.608 396.752C238.019 397.619 238.232 398.624 238.25 399.767V401.296ZM237.169 399.907C237.169 398.366 236.82 397.159 236.123 396.286C235.426 395.413 234.471 394.977 233.258 394.977C232.068 394.977 231.119 395.416 230.41 396.295C229.707 397.168 229.355 398.39 229.355 399.96V401.296C229.355 402.813 229.707 404.018 230.41 404.908C231.113 405.793 232.068 406.235 233.275 406.235C234.5 406.235 235.455 405.799 236.141 404.926C236.826 404.047 237.169 402.825 237.169 401.261V399.907ZM232.722 391.171H233.741L236.105 393.298H234.875L233.231 391.777L231.588 393.298H230.349L232.722 391.171ZM236.853 389.8H238.057L236.457 391.83H235.561L236.853 389.8ZM250.036 403.01C249.89 404.357 249.406 405.389 248.586 406.104C247.771 406.818 246.685 407.176 245.325 407.176C244.376 407.176 243.535 406.938 242.803 406.464C242.076 405.989 241.514 405.318 241.115 404.451C240.717 403.578 240.515 402.582 240.509 401.463V399.802C240.509 398.665 240.708 397.657 241.106 396.778C241.505 395.899 242.076 395.223 242.82 394.748C243.57 394.268 244.432 394.027 245.404 394.027C246.775 394.027 247.856 394.399 248.647 395.144C249.444 395.882 249.907 396.904 250.036 398.211H248.946C248.677 396.037 247.496 394.95 245.404 394.95C244.244 394.95 243.318 395.384 242.627 396.251C241.941 397.118 241.599 398.316 241.599 399.846V401.41C241.599 402.887 241.933 404.064 242.601 404.943C243.274 405.822 244.183 406.262 245.325 406.262C246.456 406.262 247.309 405.992 247.883 405.453C248.457 404.908 248.812 404.094 248.946 403.01H250.036Z" fill="#17479B"/>
<path d="M577.475 187.951C582.156 187.951 585.95 184.156 585.95 179.476C585.95 174.795 582.156 171 577.475 171C572.794 171 569 174.795 569 179.476C569 184.156 572.794 187.951 577.475 187.951Z" fill="#17479B"/>
<path d="M577 179H207" stroke="#51C5FF" stroke-miterlimit="10"/>
<path d="M215.525 161.414H209.716L208.397 165H207.264L212.106 152.203H213.135L217.978 165H216.853L215.525 161.414ZM210.05 160.491H215.183L212.616 153.521L210.05 160.491ZM229.395 165H228.313L220.957 154.049V165H219.867V152.203H220.957L228.322 163.163V152.203H229.395V165ZM238.104 159.788V165H237.023V152.203H241.383C242.713 152.203 243.762 152.543 244.529 153.223C245.303 153.902 245.689 154.837 245.689 156.026C245.689 157.228 245.317 158.156 244.573 158.812C243.835 159.463 242.763 159.788 241.356 159.788H238.104ZM238.104 158.874H241.383C242.432 158.874 243.231 158.625 243.782 158.127C244.333 157.629 244.608 156.935 244.608 156.044C244.608 155.159 244.333 154.456 243.782 153.935C243.237 153.407 242.461 153.138 241.453 153.126H238.104V158.874ZM257.599 165H256.509V158.865H249.196V165H248.115V152.203H249.196V157.951H256.509V152.203H257.599V165ZM269.675 152.203V160.939C269.669 161.801 269.479 162.551 269.104 163.189C268.729 163.828 268.198 164.32 267.513 164.666C266.833 165.006 266.051 165.176 265.166 165.176C263.818 165.176 262.737 164.81 261.923 164.077C261.114 163.339 260.695 162.319 260.666 161.019V152.203H261.738V160.86C261.738 161.938 262.046 162.776 262.661 163.374C263.276 163.966 264.111 164.262 265.166 164.262C266.221 164.262 267.053 163.963 267.662 163.365C268.277 162.768 268.585 161.936 268.585 160.869V152.203H269.675ZM266.291 148.731H267.565L265.535 151.192H264.612L266.291 148.731Z" fill="#17479B"/>
<path d="M696.475 1058.95C701.156 1058.95 704.95 1055.16 704.95 1050.48C704.95 1045.79 701.156 1042 696.475 1042C691.794 1042 688 1045.79 688 1050.48C688 1055.16 691.794 1058.95 696.475 1058.95Z" fill="#17479B"/>
<path d="M696 1050H326" stroke="#51C5FF" stroke-miterlimit="10"/>
<path d="M336.301 1024.13H331.915V1036H330.834V1024.13H326.457V1023.2H336.301V1024.13ZM347.858 1036H346.769V1029.87H339.456V1036H338.375V1023.2H339.456V1028.95H346.769V1023.2H347.858V1036ZM358.186 1032.41H352.376L351.058 1036H349.924L354.767 1023.2H355.795L360.638 1036H359.513L358.186 1032.41ZM352.71 1031.49H357.843L355.276 1024.52L352.71 1031.49ZM354.696 1038.03C354.696 1037.83 354.761 1037.66 354.89 1037.52C355.019 1037.39 355.194 1037.32 355.417 1037.32C355.646 1037.32 355.824 1037.39 355.953 1037.52C356.082 1037.66 356.146 1037.83 356.146 1038.03C356.146 1038.22 356.082 1038.39 355.953 1038.52C355.824 1038.66 355.646 1038.72 355.417 1038.72C355.194 1038.72 355.019 1038.66 354.89 1038.52C354.761 1038.39 354.696 1038.22 354.696 1038.03ZM372.055 1036H370.974L363.617 1025.05V1036H362.527V1023.2H363.617L370.982 1034.16V1023.2H372.055V1036ZM384.79 1036H383.7V1029.87H376.388V1036H375.307V1023.2H376.388V1028.95H383.7V1023.2H384.79V1036ZM400.76 1024.13H396.374V1036H395.293V1024.13H390.916V1023.2H400.76V1024.13ZM407.615 1030.67H403.897V1036H402.808V1023.2H406.965C408.33 1023.2 409.396 1023.53 410.164 1024.2C410.932 1024.86 411.315 1025.78 411.315 1026.97C411.315 1027.79 411.075 1028.52 410.595 1029.14C410.114 1029.77 409.47 1030.21 408.661 1030.45L411.86 1035.89V1036H410.709L407.615 1030.67ZM403.897 1029.75H407.211C408.119 1029.75 408.849 1029.49 409.399 1028.98C409.95 1028.46 410.226 1027.79 410.226 1026.97C410.226 1026.07 409.938 1025.37 409.364 1024.87C408.79 1024.38 407.984 1024.13 406.947 1024.13H403.897V1029.75ZM415.578 1036H414.497V1023.2H415.578V1036ZM414.269 1038C414.269 1037.8 414.333 1037.63 414.462 1037.49C414.591 1037.35 414.767 1037.28 414.989 1037.28C415.218 1037.28 415.396 1037.35 415.525 1037.49C415.654 1037.63 415.719 1037.8 415.719 1038C415.719 1038.19 415.654 1038.35 415.525 1038.49C415.396 1038.62 415.218 1038.69 414.989 1038.69C414.767 1038.69 414.591 1038.62 414.462 1038.49C414.333 1038.35 414.269 1038.19 414.269 1038Z" fill="#17479B"/>
<path d="M860.475 482.951C865.156 482.951 868.95 479.156 868.95 474.475C868.95 469.795 865.156 466 860.475 466C855.794 466 852 469.795 852 474.475C852 479.156 855.794 482.951 860.475 482.951Z" fill="#17479B"/>
<path d="M1214.48 474.062H859.881" stroke="#51C5FF" stroke-miterlimit="10"/>
<path d="M1143.4 455.788V461H1142.32V448.203H1146.68C1148.01 448.203 1149.06 448.543 1149.82 449.223C1150.6 449.902 1150.98 450.837 1150.98 452.026C1150.98 453.228 1150.61 454.156 1149.87 454.812C1149.13 455.463 1148.06 455.788 1146.65 455.788H1143.4ZM1143.4 454.874H1146.68C1147.73 454.874 1148.53 454.625 1149.08 454.127C1149.63 453.629 1149.9 452.935 1149.9 452.044C1149.9 451.159 1149.63 450.456 1149.08 449.935C1148.53 449.407 1147.75 449.138 1146.75 449.126H1143.4V454.874ZM1162.89 461H1161.8V454.865H1154.49V461H1153.41V448.203H1154.49V453.951H1161.8V448.203H1162.89V461ZM1174.97 448.203V456.939C1174.96 457.801 1174.77 458.551 1174.4 459.189C1174.02 459.828 1173.49 460.32 1172.81 460.666C1172.13 461.006 1171.34 461.176 1170.46 461.176C1169.11 461.176 1168.03 460.81 1167.22 460.077C1166.41 459.339 1165.99 458.319 1165.96 457.019V448.203H1167.03V456.86C1167.03 457.938 1167.34 458.776 1167.95 459.374C1168.57 459.966 1169.4 460.262 1170.46 460.262C1171.51 460.262 1172.35 459.963 1172.96 459.365C1173.57 458.768 1173.88 457.936 1173.88 456.869V448.203H1174.97ZM1171.58 444.731H1172.86L1170.83 447.192H1169.91L1171.58 444.731ZM1190.69 449.126H1186.31V461H1185.23V449.126H1180.85V448.203H1190.69V449.126ZM1198.97 457.414H1193.16L1191.84 461H1190.71L1195.55 448.203H1196.58L1201.42 461H1200.3L1198.97 457.414ZM1193.5 456.491H1198.63L1196.06 449.521L1193.5 456.491ZM1198.54 447.087V447.175H1197.57L1196.09 445.566L1194.62 447.175H1193.66V447.061L1195.75 444.819H1196.42L1198.54 447.087ZM1212.84 461H1211.76L1204.4 450.049V461H1203.31V448.203H1204.4L1211.77 459.163V448.203H1212.84V461Z" fill="#17479B"/>
<path d="M726.475 241.951C731.156 241.951 734.95 238.156 734.95 233.475C734.95 228.795 731.156 225 726.475 225C721.794 225 718 228.795 718 233.475C718 238.156 721.794 241.951 726.475 241.951Z" fill="#17479B"/>
<path d="M1080.48 233.062H725.881" stroke="#51C5FF" stroke-miterlimit="10"/>
<path d="M1004.8 208.126H1000.42V220H999.335V208.126H994.958V207.203H1004.8V208.126ZM1013.08 216.414H1007.27L1005.95 220H1004.82L1009.66 207.203H1010.69L1015.53 220H1014.41L1013.08 216.414ZM1007.61 215.491H1012.74L1010.17 208.521L1007.61 215.491ZM1012.65 206.087V206.175H1011.67L1010.2 204.566L1008.73 206.175H1007.77V206.061L1009.86 203.819H1010.53L1012.65 206.087ZM1026.95 220H1025.87L1018.51 209.049V220H1017.42V207.203H1018.51L1025.88 218.163V207.203H1026.95V220ZM1043.64 216.01C1043.49 217.357 1043.01 218.389 1042.19 219.104C1041.38 219.818 1040.29 220.176 1038.93 220.176C1037.98 220.176 1037.14 219.938 1036.41 219.464C1035.68 218.989 1035.12 218.318 1034.72 217.451C1034.32 216.578 1034.12 215.582 1034.11 214.463V212.802C1034.11 211.665 1034.31 210.657 1034.71 209.778C1035.11 208.899 1035.68 208.223 1036.42 207.748C1037.17 207.268 1038.04 207.027 1039.01 207.027C1040.38 207.027 1041.46 207.399 1042.25 208.144C1043.05 208.882 1043.51 209.904 1043.64 211.211H1042.55C1042.28 209.037 1041.1 207.95 1039.01 207.95C1037.85 207.95 1036.92 208.384 1036.23 209.251C1035.55 210.118 1035.2 211.316 1035.2 212.846V214.41C1035.2 215.887 1035.54 217.064 1036.2 217.943C1036.88 218.822 1037.79 219.262 1038.93 219.262C1040.06 219.262 1040.91 218.992 1041.49 218.453C1042.06 217.908 1042.42 217.094 1042.55 216.01H1043.64ZM1055.75 220H1054.66V213.865H1047.35V220H1046.27V207.203H1047.35V212.951H1054.66V207.203H1055.75V220ZM1066.08 216.414H1060.27L1058.95 220H1057.82L1062.66 207.203H1063.69L1068.53 220H1067.41L1066.08 216.414ZM1060.6 215.491H1065.74L1063.17 208.521L1060.6 215.491ZM1065.65 206.087V206.175H1064.67L1063.2 204.566L1061.73 206.175H1060.77V206.061L1062.86 203.819H1063.53L1065.65 206.087ZM1079.08 207.203V215.939C1079.07 216.801 1078.88 217.551 1078.51 218.189C1078.13 218.828 1077.6 219.32 1076.92 219.666C1076.24 220.006 1075.45 220.176 1074.57 220.176C1073.22 220.176 1072.14 219.81 1071.33 219.077C1070.52 218.339 1070.1 217.319 1070.07 216.019V207.203H1071.14V215.86C1071.14 216.938 1071.45 217.776 1072.06 218.374C1072.68 218.966 1073.51 219.262 1074.57 219.262C1075.62 219.262 1076.46 218.963 1077.07 218.365C1077.68 217.768 1077.99 216.936 1077.99 215.869V207.203H1079.08Z" fill="#17479B"/>
<path d="M860.475 781.951C865.156 781.951 868.95 778.156 868.95 773.475C868.95 768.795 865.156 765 860.475 765C855.794 765 852 768.795 852 773.475C852 778.156 855.794 781.951 860.475 781.951Z" fill="#17479B"/>
<path d="M1410 773H860" stroke="#51C5FF" stroke-miterlimit="10"/>
<path d="M1309.12 756.01C1308.98 757.357 1308.49 758.389 1307.67 759.104C1306.86 759.818 1305.77 760.176 1304.41 760.176C1303.46 760.176 1302.62 759.938 1301.89 759.464C1301.16 758.989 1300.6 758.318 1300.2 757.451C1299.8 756.578 1299.6 755.582 1299.59 754.463V752.802C1299.59 751.665 1299.79 750.657 1300.19 749.778C1300.59 748.899 1301.16 748.223 1301.91 747.748C1302.66 747.268 1303.52 747.027 1304.49 747.027C1305.86 747.027 1306.94 747.399 1307.73 748.144C1308.53 748.882 1308.99 749.904 1309.12 751.211H1308.03C1307.76 749.037 1306.58 747.95 1304.49 747.95C1303.33 747.95 1302.4 748.384 1301.71 749.251C1301.03 750.118 1300.68 751.316 1300.68 752.846V754.41C1300.68 755.887 1301.02 757.064 1301.69 757.943C1302.36 758.822 1303.27 759.262 1304.41 759.262C1305.54 759.262 1306.39 758.992 1306.97 758.453C1307.54 757.908 1307.9 757.094 1308.03 756.01H1309.12ZM1321.23 760H1320.14V753.865H1312.83V760H1311.75V747.203H1312.83V752.951H1320.14V747.203H1321.23V760ZM1331.56 756.414H1325.75L1324.43 760H1323.3L1328.14 747.203H1329.17L1334.01 760H1332.89L1331.56 756.414ZM1326.08 755.491H1331.22L1328.65 748.521L1326.08 755.491ZM1331.13 746.087V746.175H1330.15L1328.68 744.566L1327.21 746.175H1326.25V746.061L1328.34 743.819H1329.01L1331.13 746.087ZM1344.56 747.203V755.939C1344.55 756.801 1344.36 757.551 1343.99 758.189C1343.61 758.828 1343.08 759.32 1342.4 759.666C1341.72 760.006 1340.94 760.176 1340.05 760.176C1338.7 760.176 1337.62 759.81 1336.81 759.077C1336 758.339 1335.58 757.319 1335.55 756.019V747.203H1336.62V755.86C1336.62 756.938 1336.93 757.776 1337.55 758.374C1338.16 758.966 1339 759.262 1340.05 759.262C1341.11 759.262 1341.94 758.963 1342.55 758.365C1343.16 757.768 1343.47 756.936 1343.47 755.869V747.203H1344.56ZM1360.28 748.126H1355.9V760H1354.82V748.126H1350.44V747.203H1360.28V748.126ZM1371.84 760H1370.75V753.865H1363.44V760H1362.36V747.203H1363.44V752.951H1370.75V747.203H1371.84V760ZM1382.17 756.414H1376.36L1375.04 760H1373.91L1378.75 747.203H1379.78L1384.62 760H1383.49L1382.17 756.414ZM1376.69 755.491H1381.82L1379.26 748.521L1376.69 755.491ZM1379.94 746.192H1378.98L1376.99 743.731H1378.26L1379.94 746.192ZM1396.04 760H1394.96L1387.6 749.049V760H1386.51V747.203H1387.6L1394.96 758.163V747.203H1396.04V760ZM1408.77 760H1407.68V753.865H1400.37V760H1399.29V747.203H1400.37V752.951H1407.68V747.203H1408.77V760Z" fill="#17479B"/>
<path d="M1058.47 914.951C1063.16 914.951 1066.95 911.156 1066.95 906.475C1066.95 901.795 1063.16 898 1058.47 898C1053.79 898 1050 901.795 1050 906.475C1050 911.156 1053.79 914.951 1058.47 914.951Z" fill="#17479B"/>
<path d="M1410 906.062H1057.88" stroke="#51C5FF" stroke-miterlimit="10"/>
<path d="M1286.87 881.126H1282.48V893H1281.4V881.126H1277.02V880.203H1286.87V881.126ZM1290.02 887.788V893H1288.94V880.203H1293.3C1294.63 880.203 1295.68 880.543 1296.45 881.223C1297.22 881.902 1297.61 882.837 1297.61 884.026C1297.61 885.228 1297.23 886.156 1296.49 886.812C1295.75 887.463 1294.68 887.788 1293.27 887.788H1290.02ZM1290.02 886.874H1293.3C1294.35 886.874 1295.15 886.625 1295.7 886.127C1296.25 885.629 1296.52 884.935 1296.52 884.044C1296.52 883.159 1296.25 882.456 1295.7 881.935C1295.15 881.407 1294.38 881.138 1293.37 881.126H1290.02V886.874ZM1305.5 892.086H1311.82V893H1304.41V880.203H1305.5V892.086ZM1322.78 887.296C1322.78 888.474 1322.57 889.508 1322.16 890.398C1321.76 891.289 1321.18 891.975 1320.42 892.455C1319.67 892.936 1318.79 893.176 1317.8 893.176C1316.31 893.176 1315.1 892.643 1314.18 891.576C1313.26 890.504 1312.8 889.06 1312.8 887.243V885.925C1312.8 884.759 1313.01 883.728 1313.42 882.831C1313.83 881.929 1314.42 881.237 1315.17 880.757C1315.93 880.271 1316.8 880.027 1317.79 880.027C1318.77 880.027 1319.64 880.265 1320.39 880.739C1321.14 881.214 1321.73 881.885 1322.14 882.752C1322.55 883.619 1322.76 884.624 1322.78 885.767V887.296ZM1321.7 885.907C1321.7 884.366 1321.35 883.159 1320.65 882.286C1319.95 881.413 1319 880.977 1317.79 880.977C1316.6 880.977 1315.65 881.416 1314.94 882.295C1314.23 883.168 1313.88 884.39 1313.88 885.96V887.296C1313.88 888.813 1314.23 890.018 1314.94 890.908C1315.64 891.793 1316.6 892.235 1317.8 892.235C1319.03 892.235 1319.98 891.799 1320.67 890.926C1321.35 890.047 1321.7 888.825 1321.7 887.261V885.907ZM1335.03 893H1333.95L1326.59 882.049V893H1325.5V880.203H1326.59L1333.96 891.163V880.203H1335.03V893ZM1347.52 891.479C1347.14 892.013 1346.55 892.429 1345.75 892.728C1344.96 893.026 1344.06 893.176 1343.07 893.176C1342.07 893.176 1341.18 892.936 1340.4 892.455C1339.62 891.975 1339.02 891.295 1338.59 890.416C1338.16 889.537 1337.94 888.529 1337.94 887.393V885.775C1337.94 884 1338.39 882.6 1339.28 881.574C1340.18 880.543 1341.38 880.027 1342.9 880.027C1344.21 880.027 1345.27 880.364 1346.08 881.038C1346.88 881.706 1347.36 882.629 1347.51 883.807H1346.43C1346.27 882.869 1345.89 882.16 1345.28 881.68C1344.67 881.193 1343.88 880.95 1342.9 880.95C1341.71 880.95 1340.76 881.375 1340.07 882.225C1339.37 883.074 1339.02 884.272 1339.02 885.819V887.331C1339.02 888.304 1339.18 889.165 1339.51 889.915C1339.85 890.659 1340.32 891.236 1340.94 891.646C1341.56 892.057 1342.27 892.262 1343.07 892.262C1344 892.262 1344.8 892.115 1345.47 891.822C1345.9 891.629 1346.23 891.403 1346.44 891.146V887.841H1343V886.927H1347.52V891.479ZM1358.86 885.617L1362.46 880.203H1363.75L1359.52 886.514L1363.88 893H1362.58L1358.86 887.41L1355.11 893H1353.83L1358.21 886.514L1353.96 880.203H1355.25L1358.86 885.617ZM1374.8 880.203V888.939C1374.79 889.801 1374.6 890.551 1374.23 891.189C1373.85 891.828 1373.32 892.32 1372.64 892.666C1371.96 893.006 1371.18 893.176 1370.29 893.176C1368.94 893.176 1367.86 892.81 1367.05 892.077C1366.24 891.339 1365.82 890.319 1365.79 889.019V880.203H1366.86V888.86C1366.86 889.938 1367.17 890.776 1367.79 891.374C1368.4 891.966 1369.24 892.262 1370.29 892.262C1371.35 892.262 1372.18 891.963 1372.79 891.365C1373.4 890.768 1373.71 889.936 1373.71 888.869V880.203H1374.8ZM1381.57 887.182L1385.48 880.203H1386.73L1382.1 888.184V893H1381.02V888.184L1376.41 880.203H1377.69L1381.57 887.182ZM1395.66 886.865H1389.67V892.086H1396.55V893H1388.59V880.203H1396.51V881.126H1389.67V885.951H1395.66V886.865ZM1394.87 879.034V879.122H1393.89L1392.41 877.514L1390.95 879.122H1389.99V879.008L1392.08 876.767H1392.75L1394.87 879.034ZM1408.37 893H1407.28L1399.93 882.049V893H1398.84V880.203H1399.93L1407.29 891.163V880.203H1408.37V893Z" fill="#17479B"/>
<path d="M1058.47 681.951C1063.16 681.951 1066.95 678.156 1066.95 673.475C1066.95 668.795 1063.16 665 1058.47 665C1053.79 665 1050 668.795 1050 673.475C1050 678.156 1053.79 681.951 1058.47 681.951Z" fill="#17479B"/>
<path d="M1410 673.062H1057.88" stroke="#51C5FF" stroke-miterlimit="10"/>
<path d="M1346.39 656.01C1346.25 657.357 1345.76 658.389 1344.94 659.104C1344.13 659.818 1343.04 660.176 1341.68 660.176C1340.73 660.176 1339.89 659.938 1339.16 659.464C1338.43 658.989 1337.87 658.318 1337.47 657.451C1337.07 656.578 1336.87 655.582 1336.87 654.463V652.802C1336.87 651.665 1337.07 650.657 1337.46 649.778C1337.86 648.899 1338.43 648.223 1339.18 647.748C1339.93 647.268 1340.79 647.027 1341.76 647.027C1343.13 647.027 1344.21 647.399 1345 648.144C1345.8 648.882 1346.26 649.904 1346.39 651.211H1345.3C1345.03 649.037 1343.85 647.95 1341.76 647.95C1340.6 647.95 1339.68 648.384 1338.98 649.251C1338.3 650.118 1337.96 651.316 1337.96 652.846V654.41C1337.96 655.887 1338.29 657.064 1338.96 657.943C1339.63 658.822 1340.54 659.262 1341.68 659.262C1342.81 659.262 1343.67 658.992 1344.24 658.453C1344.81 657.908 1345.17 657.094 1345.3 656.01H1346.39ZM1358.5 660H1357.42V653.865H1350.1V660H1349.02V647.203H1350.1V652.951H1357.42V647.203H1358.5V660ZM1371.28 654.296C1371.28 655.474 1371.08 656.508 1370.67 657.398C1370.26 658.289 1369.68 658.975 1368.93 659.455C1368.17 659.936 1367.3 660.176 1366.31 660.176C1365.33 660.176 1364.46 659.936 1363.7 659.455C1362.94 658.969 1362.35 658.286 1361.93 657.407C1361.52 656.522 1361.31 655.506 1361.31 654.357V652.925C1361.31 651.765 1361.51 650.736 1361.92 649.84C1362.33 648.943 1362.92 648.252 1363.67 647.766C1364.43 647.273 1365.31 647.027 1366.29 647.027C1367.08 647.027 1367.79 647.18 1368.42 647.484C1369.05 647.783 1369.59 648.211 1370.03 648.768C1370.65 648.738 1371.12 648.533 1371.43 648.152C1371.74 647.766 1371.9 647.13 1371.9 646.245H1372.88C1372.88 647.2 1372.69 647.959 1372.31 648.521C1371.94 649.078 1371.35 649.418 1370.53 649.541C1371.01 650.461 1371.27 651.548 1371.28 652.802V654.296ZM1370.21 652.907C1370.21 651.366 1369.86 650.159 1369.17 649.286C1368.47 648.413 1367.51 647.977 1366.29 647.977C1365.1 647.977 1364.15 648.416 1363.44 649.295C1362.74 650.168 1362.39 651.39 1362.39 652.96V654.296C1362.39 655.813 1362.74 657.018 1363.44 657.908C1364.15 658.793 1365.1 659.235 1366.31 659.235C1367.53 659.235 1368.48 658.799 1369.17 657.926C1369.87 657.053 1370.21 655.834 1370.21 654.27V652.907ZM1365.46 662.03C1365.46 661.831 1365.52 661.661 1365.65 661.521C1365.78 661.386 1365.96 661.318 1366.18 661.318C1366.41 661.318 1366.58 661.386 1366.71 661.521C1366.84 661.661 1366.91 661.831 1366.91 662.03C1366.91 662.224 1366.84 662.388 1366.71 662.522C1366.58 662.657 1366.41 662.725 1366.18 662.725C1365.96 662.725 1365.78 662.657 1365.65 662.522C1365.52 662.388 1365.46 662.224 1365.46 662.03ZM1380.13 647.203L1384.85 658.497L1389.58 647.203H1391.02V660H1389.94V654.428L1390.03 648.715L1385.27 660H1384.43L1379.69 648.759L1379.77 654.393V660H1378.69V647.203H1380.13ZM1403.79 654.296C1403.79 655.474 1403.58 656.508 1403.17 657.398C1402.77 658.289 1402.19 658.975 1401.43 659.455C1400.67 659.936 1399.8 660.176 1398.81 660.176C1397.83 660.176 1396.96 659.936 1396.2 659.455C1395.44 658.969 1394.85 658.286 1394.43 657.407C1394.02 656.522 1393.82 655.506 1393.81 654.357V652.925C1393.81 651.765 1394.02 650.736 1394.43 649.84C1394.84 648.943 1395.42 648.252 1396.17 647.766C1396.94 647.273 1397.81 647.027 1398.79 647.027C1399.58 647.027 1400.29 647.18 1400.92 647.484C1401.55 647.783 1402.09 648.211 1402.53 648.768C1403.16 648.738 1403.62 648.533 1403.94 648.152C1404.25 647.766 1404.4 647.13 1404.4 646.245H1405.38C1405.38 647.2 1405.19 647.959 1404.81 648.521C1404.45 649.078 1403.85 649.418 1403.03 649.541C1403.52 650.461 1403.77 651.548 1403.79 652.802V654.296ZM1402.71 652.907C1402.71 651.366 1402.37 650.159 1401.67 649.286C1400.97 648.413 1400.01 647.977 1398.79 647.977C1397.6 647.977 1396.66 648.416 1395.95 649.295C1395.24 650.168 1394.89 651.39 1394.89 652.96V654.296C1394.89 655.813 1395.24 657.018 1395.95 657.908C1396.65 658.793 1397.6 659.235 1398.81 659.235C1400.03 659.235 1400.99 658.799 1401.68 657.926C1402.37 657.053 1402.71 655.834 1402.71 654.27V652.907ZM1399.98 643.714H1401.25L1399.22 646.175H1398.3L1399.98 643.714ZM1408.14 660H1407.06V647.203H1408.14V660Z" fill="#17479B"/>
<path d="M371.475 838.951C376.156 838.951 379.95 835.156 379.95 830.476C379.95 825.795 376.156 822 371.475 822C366.794 822 363 825.795 363 830.476C363 835.156 366.794 838.951 371.475 838.951Z" fill="#17479B"/>
<path d="M371 830H1" stroke="#51C5FF" stroke-miterlimit="10"/>
<path d="M11.3008 804.126H6.91504V816H5.83398V804.126H1.45703V803.203H11.3008V804.126ZM18.1562 810.674H14.4385V816H13.3486V803.203H17.5059C18.8711 803.203 19.9375 803.534 20.7051 804.196C21.4727 804.858 21.8564 805.784 21.8564 806.974C21.8564 807.794 21.6162 808.518 21.1357 809.145C20.6553 809.771 20.0107 810.205 19.2021 810.445L22.4014 815.886V816H21.25L18.1562 810.674ZM14.4385 809.751H17.752C18.6602 809.751 19.3896 809.493 19.9404 808.978C20.4912 808.462 20.7666 807.794 20.7666 806.974C20.7666 806.071 20.4795 805.371 19.9053 804.873C19.3311 804.375 18.5254 804.126 17.4883 804.126H14.4385V809.751ZM26.1191 816H25.0381V803.203H26.1191V816ZM42.3086 804.126H37.9229V816H36.8418V804.126H32.4648V803.203H42.3086V804.126ZM53.5938 810.296C53.5938 811.474 53.3887 812.508 52.9785 813.398C52.5742 814.289 51.9941 814.975 51.2383 815.455C50.4824 815.936 49.6094 816.176 48.6191 816.176C47.125 816.176 45.918 815.643 44.998 814.576C44.0781 813.504 43.6182 812.06 43.6182 810.243V808.925C43.6182 807.759 43.8232 806.728 44.2334 805.831C44.6494 804.929 45.2354 804.237 45.9912 803.757C46.7471 803.271 47.6172 803.027 48.6016 803.027C49.5859 803.027 50.4531 803.265 51.2031 803.739C51.959 804.214 52.542 804.885 52.9521 805.752C53.3623 806.619 53.5762 807.624 53.5938 808.767V810.296ZM52.5127 808.907C52.5127 807.366 52.1641 806.159 51.4668 805.286C50.7695 804.413 49.8145 803.977 48.6016 803.977C47.4121 803.977 46.4629 804.416 45.7539 805.295C45.0508 806.168 44.6992 807.39 44.6992 808.96V810.296C44.6992 811.813 45.0508 813.018 45.7539 813.908C46.457 814.793 47.4121 815.235 48.6191 815.235C49.8438 815.235 50.7988 814.799 51.4844 813.926C52.1699 813.047 52.5127 811.825 52.5127 810.261V808.907ZM51.0449 801.981V802.069H50.0693L48.5928 800.461L47.125 802.069H46.167V801.955L48.2588 799.714H48.9268L51.0449 801.981ZM65.8457 816H64.7646L57.4082 805.049V816H56.3184V803.203H57.4082L64.7734 814.163V803.203H65.8457V816Z" fill="#17479B"/>
<path d="M437.475 546.951C442.156 546.951 445.95 543.156 445.95 538.476C445.95 533.795 442.156 530 437.475 530C432.794 530 429 533.795 429 538.476C429 543.156 432.794 546.951 437.475 546.951Z" fill="#17479B"/>
<path d="M437 538H1" stroke="#51C5FF" stroke-miterlimit="10"/>
<path d="M11.3008 512.126H6.91504V524H5.83398V512.126H1.45703V511.203H11.3008V512.126ZM14.6934 524H13.6123V511.203H14.6934V524ZM13.3838 525.995C13.3838 525.796 13.4482 525.626 13.5771 525.485C13.7061 525.351 13.8818 525.283 14.1045 525.283C14.333 525.283 14.5117 525.351 14.6406 525.485C14.7695 525.626 14.834 525.796 14.834 525.995C14.834 526.188 14.7695 526.353 14.6406 526.487C14.5117 526.622 14.333 526.689 14.1045 526.689C13.8818 526.689 13.7061 526.622 13.5771 526.487C13.4482 526.353 13.3838 526.188 13.3838 525.995ZM27.7012 524H26.6201L19.2637 513.049V524H18.1738V511.203H19.2637L26.6289 522.163V511.203H27.7012V524ZM40.4365 524H39.3467V517.865H32.0342V524H30.9531V511.203H32.0342V516.951H39.3467V511.203H40.4365V524ZM48.0742 524V511.203H51.8535C53.2246 511.203 54.2646 511.487 54.9736 512.056C55.6826 512.618 56.0371 513.45 56.0371 514.552C56.0371 515.214 55.8555 515.791 55.4922 516.283C55.1348 516.77 54.6426 517.118 54.0156 517.329C54.7598 517.493 55.3574 517.859 55.8086 518.428C56.2656 518.996 56.4941 519.652 56.4941 520.396C56.4941 521.527 56.1279 522.412 55.3955 523.051C54.6689 523.684 53.6553 524 52.3545 524H48.0742ZM49.1553 517.848V523.086H52.3984C53.3242 523.086 54.0566 522.852 54.5957 522.383C55.1406 521.908 55.4131 521.252 55.4131 520.414C55.4131 519.623 55.1523 518.999 54.6309 518.542C54.1152 518.079 53.4004 517.848 52.4863 517.848H49.1553ZM49.1553 516.942H52.1084C53.0107 516.925 53.708 516.714 54.2002 516.31C54.6982 515.899 54.9473 515.305 54.9473 514.525C54.9473 513.705 54.6895 513.102 54.1738 512.715C53.6641 512.322 52.8906 512.126 51.8535 512.126H49.1553V516.942ZM60.4316 524H59.3506V511.203H60.4316V524ZM70.9785 517.865H64.9932V523.086H71.875V524H63.9121V511.203H71.8311V512.126H64.9932V516.951H70.9785V517.865ZM70.1875 510.034V510.122H69.2119L67.7354 508.514L66.2676 510.122H65.3096V510.008L67.4014 507.767H68.0693L70.1875 510.034ZM83.6875 524H82.6064L75.25 513.049V524H74.1602V511.203H75.25L82.6152 522.163V511.203H83.6875V524Z" fill="#17479B"/>
<path d="M681.475 642.951C686.156 642.951 689.95 639.156 689.95 634.476C689.95 629.795 686.156 626 681.475 626C676.794 626 673 629.795 673 634.476C673 639.156 676.794 642.951 681.475 642.951Z" fill="#17479B"/>
<path d="M681 634L0 634" stroke="#51C5FF" stroke-miterlimit="10"/>
<path d="M11.6787 616.01C11.5322 617.357 11.0488 618.389 10.2285 619.104C9.41406 619.818 8.32715 620.176 6.96777 620.176C6.01855 620.176 5.17773 619.938 4.44531 619.464C3.71875 618.989 3.15625 618.318 2.75781 617.451C2.35938 616.578 2.15723 615.582 2.15137 614.463V612.802C2.15137 611.665 2.35059 610.657 2.74902 609.778C3.14746 608.899 3.71875 608.223 4.46289 607.748C5.21289 607.268 6.07422 607.027 7.04688 607.027C8.41797 607.027 9.49902 607.399 10.29 608.144C11.0869 608.882 11.5498 609.904 11.6787 611.211H10.5889C10.3193 609.037 9.13867 607.95 7.04688 607.95C5.88672 607.95 4.96094 608.384 4.26953 609.251C3.58398 610.118 3.24121 611.316 3.24121 612.846V614.41C3.24121 615.887 3.5752 617.064 4.24316 617.943C4.91699 618.822 5.8252 619.262 6.96777 619.262C8.09863 619.262 8.95117 618.992 9.52539 618.453C10.0996 617.908 10.4541 617.094 10.5889 616.01H11.6787ZM23.79 620H22.7002V613.865H15.3877V620H14.3066V607.203H15.3877V612.951H22.7002V607.203H23.79V620ZM34.1172 616.414H28.3076L26.9893 620H25.8555L30.6982 607.203H31.7266L36.5693 620H35.4443L34.1172 616.414ZM28.6416 615.491H33.7744L31.208 608.521L28.6416 615.491ZM33.6865 606.087V606.175H32.7109L31.2344 604.566L29.7666 606.175H28.8086V606.061L30.9004 603.819H31.5684L33.6865 606.087ZM47.1162 607.203V615.939C47.1104 616.801 46.9199 617.551 46.5449 618.189C46.1699 618.828 45.6396 619.32 44.9541 619.666C44.2744 620.006 43.4922 620.176 42.6074 620.176C41.2598 620.176 40.1787 619.81 39.3643 619.077C38.5557 618.339 38.1367 617.319 38.1074 616.019V607.203H39.1797V615.86C39.1797 616.938 39.4873 617.776 40.1025 618.374C40.7178 618.966 41.5527 619.262 42.6074 619.262C43.6621 619.262 44.4941 618.963 45.1035 618.365C45.7188 617.768 46.0264 616.936 46.0264 615.869V607.203H47.1162ZM55.5889 614.788V620H54.5078V607.203H58.8672C60.1973 607.203 61.2461 607.543 62.0137 608.223C62.7871 608.902 63.1738 609.837 63.1738 611.026C63.1738 612.228 62.8018 613.156 62.0576 613.812C61.3193 614.463 60.2471 614.788 58.8408 614.788H55.5889ZM55.5889 613.874H58.8672C59.916 613.874 60.7158 613.625 61.2666 613.127C61.8174 612.629 62.0928 611.935 62.0928 611.044C62.0928 610.159 61.8174 609.456 61.2666 608.935C60.7217 608.407 59.9453 608.138 58.9375 608.126H55.5889V613.874ZM75.083 620H73.9932V613.865H66.6807V620H65.5996V607.203H66.6807V612.951H73.9932V607.203H75.083V620ZM87.1592 607.203V615.939C87.1533 616.801 86.9629 617.551 86.5879 618.189C86.2129 618.828 85.6826 619.32 84.9971 619.666C84.3174 620.006 83.5352 620.176 82.6504 620.176C81.3027 620.176 80.2217 619.81 79.4072 619.077C78.5986 618.339 78.1797 617.319 78.1504 616.019V607.203H79.2227V615.86C79.2227 616.938 79.5303 617.776 80.1455 618.374C80.7607 618.966 81.5957 619.262 82.6504 619.262C83.7051 619.262 84.5371 618.963 85.1465 618.365C85.7617 617.768 86.0693 616.936 86.0693 615.869V607.203H87.1592ZM83.7754 603.731H85.0498L83.0195 606.192H82.0967L83.7754 603.731Z" fill="#17479B"/>
<defs>
<clipPath id="clip0">
<rect width="1179.01" height="1170.12" fill="white" transform="translate(116)"/>
</clipPath>
</defs>
</svg>
